<?xml version="1.0" encoding="utf-8" standalone="no"?>
<!DOCTYPE svg PUBLIC "-//W3C//DTD SVG 1.1//EN"
  "http://www.w3.org/Graphics/SVG/1.1/DTD/svg11.dtd">
<svg xmlns:xlink="http://www.w3.org/1999/xlink" width="720pt" height="432pt" viewBox="0 0 720 432" xmlns="http://www.w3.org/2000/svg" version="1.1">
 <metadata>
  <rdf:RDF xmlns:dc="http://purl.org/dc/elements/1.1/" xmlns:cc="http://creativecommons.org/ns#" xmlns:rdf="http://www.w3.org/1999/02/22-rdf-syntax-ns#">
   <cc:Work>
    <dc:type rdf:resource="http://purl.org/dc/dcmitype/StillImage"/>
    <dc:date>2025-10-13T00:04:46.903177</dc:date>
    <dc:format>image/svg+xml</dc:format>
    <dc:creator>
     <cc:Agent>
      <dc:title>Matplotlib v3.10.7, https://matplotlib.org/</dc:title>
     </cc:Agent>
    </dc:creator>
   </cc:Work>
  </rdf:RDF>
 </metadata>
 <defs>
  <style type="text/css">*{stroke-linejoin: round; stroke-linecap: butt}</style>
 </defs>
 <g id="figure_1">
  <g id="patch_1">
   <path d="M 0 432 
L 720 432 
L 720 0 
L 0 0 
z
" style="fill: #ffffff"/>
  </g>
  <g id="axes_1">
   <g id="patch_2">
    <path d="M 60.5 390.04 
L 698.13 390.04 
L 698.13 14.76 
L 60.5 14.76 
z
" style="fill: #ffffff"/>
   </g>
   <g id="matplotlib.axis_1">
    <g id="xtick_1">
     <g id="line2d_1">
      <path d="M 60.5 390.04 
L 60.5 14.76 
" clip-path="url(#p2c6bcf3ecd)" style="fill: none; stroke: #b0b0b0; stroke-width: 0.8; stroke-linecap: square"/>
     </g>
     <g id="line2d_2">
      <defs>
       <path id="m85501e21f0" d="M 0 0 
L 0 3.5 
" style="stroke: #000000; stroke-width: 0.8"/>
      </defs>
      <g>
       <use xlink:href="#m85501e21f0" x="60.5" y="390.04" style="stroke: #000000; stroke-width: 0.8"/>
      </g>
     </g>
     <g id="text_1">
      <!-- 2.53 -->
      <g transform="translate(49.367187 404.638438) scale(0.1 -0.1)">
       <defs>
        <path id="DejaVuSans-32" d="M 1228 531 
L 3431 531 
L 3431 0 
L 469 0 
L 469 531 
Q 828 903 1448 1529 
Q 2069 2156 2228 2338 
Q 2531 2678 2651 2914 
Q 2772 3150 2772 3378 
Q 2772 3750 2511 3984 
Q 2250 4219 1831 4219 
Q 1534 4219 1204 4116 
Q 875 4013 500 3803 
L 500 4441 
Q 881 4594 1212 4672 
Q 1544 4750 1819 4750 
Q 2544 4750 2975 4387 
Q 3406 4025 3406 3419 
Q 3406 3131 3298 2873 
Q 3191 2616 2906 2266 
Q 2828 2175 2409 1742 
Q 1991 1309 1228 531 
z
" transform="scale(0.015625)"/>
        <path id="DejaVuSans-2e" d="M 684 794 
L 1344 794 
L 1344 0 
L 684 0 
L 684 794 
z
" transform="scale(0.015625)"/>
        <path id="DejaVuSans-35" d="M 691 4666 
L 3169 4666 
L 3169 4134 
L 1269 4134 
L 1269 2991 
Q 1406 3038 1543 3061 
Q 1681 3084 1819 3084 
Q 2600 3084 3056 2656 
Q 3513 2228 3513 1497 
Q 3513 744 3044 326 
Q 2575 -91 1722 -91 
Q 1428 -91 1123 -41 
Q 819 9 494 109 
L 494 744 
Q 775 591 1075 516 
Q 1375 441 1709 441 
Q 2250 441 2565 725 
Q 2881 1009 2881 1497 
Q 2881 1984 2565 2268 
Q 2250 2553 1709 2553 
Q 1456 2553 1204 2497 
Q 953 2441 691 2322 
L 691 4666 
z
" transform="scale(0.015625)"/>
        <path id="DejaVuSans-33" d="M 2597 2516 
Q 3050 2419 3304 2112 
Q 3559 1806 3559 1356 
Q 3559 666 3084 287 
Q 2609 -91 1734 -91 
Q 1441 -91 1130 -33 
Q 819 25 488 141 
L 488 750 
Q 750 597 1062 519 
Q 1375 441 1716 441 
Q 2309 441 2620 675 
Q 2931 909 2931 1356 
Q 2931 1769 2642 2001 
Q 2353 2234 1838 2234 
L 1294 2234 
L 1294 2753 
L 1863 2753 
Q 2328 2753 2575 2939 
Q 2822 3125 2822 3475 
Q 2822 3834 2567 4026 
Q 2313 4219 1838 4219 
Q 1578 4219 1281 4162 
Q 984 4106 628 3988 
L 628 4550 
Q 988 4650 1302 4700 
Q 1616 4750 1894 4750 
Q 2613 4750 3031 4423 
Q 3450 4097 3450 3541 
Q 3450 3153 3228 2886 
Q 3006 2619 2597 2516 
z
" transform="scale(0.015625)"/>
       </defs>
       <use xlink:href="#DejaVuSans-32"/>
       <use xlink:href="#DejaVuSans-2e" transform="translate(63.623047 0)"/>
       <use xlink:href="#DejaVuSans-35" transform="translate(95.410156 0)"/>
       <use xlink:href="#DejaVuSans-33" transform="translate(159.033203 0)"/>
      </g>
     </g>
    </g>
    <g id="xtick_2">
     <g id="line2d_3">
      <path d="M 131.347778 390.04 
L 131.347778 14.76 
" clip-path="url(#p2c6bcf3ecd)" style="fill: none; stroke: #b0b0b0; stroke-width: 0.8; stroke-linecap: square"/>
     </g>
     <g id="line2d_4">
      <g>
       <use xlink:href="#m85501e21f0" x="131.347778" y="390.04" style="stroke: #000000; stroke-width: 0.8"/>
      </g>
     </g>
     <g id="text_2">
      <!-- 2.54 -->
      <g transform="translate(120.214965 404.638438) scale(0.1 -0.1)">
       <defs>
        <path id="DejaVuSans-34" d="M 2419 4116 
L 825 1625 
L 2419 1625 
L 2419 4116 
z
M 2253 4666 
L 3047 4666 
L 3047 1625 
L 3713 1625 
L 3713 1100 
L 3047 1100 
L 3047 0 
L 2419 0 
L 2419 1100 
L 313 1100 
L 313 1709 
L 2253 4666 
z
" transform="scale(0.015625)"/>
       </defs>
       <use xlink:href="#DejaVuSans-32"/>
       <use xlink:href="#DejaVuSans-2e" transform="translate(63.623047 0)"/>
       <use xlink:href="#DejaVuSans-35" transform="translate(95.410156 0)"/>
       <use xlink:href="#DejaVuSans-34" transform="translate(159.033203 0)"/>
      </g>
     </g>
    </g>
    <g id="xtick_3">
     <g id="line2d_5">
      <path d="M 202.195556 390.04 
L 202.195556 14.76 
" clip-path="url(#p2c6bcf3ecd)" style="fill: none; stroke: #b0b0b0; stroke-width: 0.8; stroke-linecap: square"/>
     </g>
     <g id="line2d_6">
      <g>
       <use xlink:href="#m85501e21f0" x="202.195556" y="390.04" style="stroke: #000000; stroke-width: 0.8"/>
      </g>
     </g>
     <g id="text_3">
      <!-- 2.55 -->
      <g transform="translate(191.062743 404.638438) scale(0.1 -0.1)">
       <use xlink:href="#DejaVuSans-32"/>
       <use xlink:href="#DejaVuSans-2e" transform="translate(63.623047 0)"/>
       <use xlink:href="#DejaVuSans-35" transform="translate(95.410156 0)"/>
       <use xlink:href="#DejaVuSans-35" transform="translate(159.033203 0)"/>
      </g>
     </g>
    </g>
    <g id="xtick_4">
     <g id="line2d_7">
      <path d="M 273.043333 390.04 
L 273.043333 14.76 
" clip-path="url(#p2c6bcf3ecd)" style="fill: none; stroke: #b0b0b0; stroke-width: 0.8; stroke-linecap: square"/>
     </g>
     <g id="line2d_8">
      <g>
       <use xlink:href="#m85501e21f0" x="273.043333" y="390.04" style="stroke: #000000; stroke-width: 0.8"/>
      </g>
     </g>
     <g id="text_4">
      <!-- 2.56 -->
      <g transform="translate(261.910521 404.638438) scale(0.1 -0.1)">
       <defs>
        <path id="DejaVuSans-36" d="M 2113 2584 
Q 1688 2584 1439 2293 
Q 1191 2003 1191 1497 
Q 1191 994 1439 701 
Q 1688 409 2113 409 
Q 2538 409 2786 701 
Q 3034 994 3034 1497 
Q 3034 2003 2786 2293 
Q 2538 2584 2113 2584 
z
M 3366 4563 
L 3366 3988 
Q 3128 4100 2886 4159 
Q 2644 4219 2406 4219 
Q 1781 4219 1451 3797 
Q 1122 3375 1075 2522 
Q 1259 2794 1537 2939 
Q 1816 3084 2150 3084 
Q 2853 3084 3261 2657 
Q 3669 2231 3669 1497 
Q 3669 778 3244 343 
Q 2819 -91 2113 -91 
Q 1303 -91 875 529 
Q 447 1150 447 2328 
Q 447 3434 972 4092 
Q 1497 4750 2381 4750 
Q 2619 4750 2861 4703 
Q 3103 4656 3366 4563 
z
" transform="scale(0.015625)"/>
       </defs>
       <use xlink:href="#DejaVuSans-32"/>
       <use xlink:href="#DejaVuSans-2e" transform="translate(63.623047 0)"/>
       <use xlink:href="#DejaVuSans-35" transform="translate(95.410156 0)"/>
       <use xlink:href="#DejaVuSans-36" transform="translate(159.033203 0)"/>
      </g>
     </g>
    </g>
    <g id="xtick_5">
     <g id="line2d_9">
      <path d="M 343.891111 390.04 
L 343.891111 14.76 
" clip-path="url(#p2c6bcf3ecd)" style="fill: none; stroke: #b0b0b0; stroke-width: 0.8; stroke-linecap: square"/>
     </g>
     <g id="line2d_10">
      <g>
       <use xlink:href="#m85501e21f0" x="343.891111" y="390.04" style="stroke: #000000; stroke-width: 0.8"/>
      </g>
     </g>
     <g id="text_5">
      <!-- 2.57 -->
      <g transform="translate(332.758299 404.638438) scale(0.1 -0.1)">
       <defs>
        <path id="DejaVuSans-37" d="M 525 4666 
L 3525 4666 
L 3525 4397 
L 1831 0 
L 1172 0 
L 2766 4134 
L 525 4134 
L 525 4666 
z
" transform="scale(0.015625)"/>
       </defs>
       <use xlink:href="#DejaVuSans-32"/>
       <use xlink:href="#DejaVuSans-2e" transform="translate(63.623047 0)"/>
       <use xlink:href="#DejaVuSans-35" transform="translate(95.410156 0)"/>
       <use xlink:href="#DejaVuSans-37" transform="translate(159.033203 0)"/>
      </g>
     </g>
    </g>
    <g id="xtick_6">
     <g id="line2d_11">
      <path d="M 414.738889 390.04 
L 414.738889 14.76 
" clip-path="url(#p2c6bcf3ecd)" style="fill: none; stroke: #b0b0b0; stroke-width: 0.8; stroke-linecap: square"/>
     </g>
     <g id="line2d_12">
      <g>
       <use xlink:href="#m85501e21f0" x="414.738889" y="390.04" style="stroke: #000000; stroke-width: 0.8"/>
      </g>
     </g>
     <g id="text_6">
      <!-- 2.58 -->
      <g transform="translate(403.606076 404.638438) scale(0.1 -0.1)">
       <defs>
        <path id="DejaVuSans-38" d="M 2034 2216 
Q 1584 2216 1326 1975 
Q 1069 1734 1069 1313 
Q 1069 891 1326 650 
Q 1584 409 2034 409 
Q 2484 409 2743 651 
Q 3003 894 3003 1313 
Q 3003 1734 2745 1975 
Q 2488 2216 2034 2216 
z
M 1403 2484 
Q 997 2584 770 2862 
Q 544 3141 544 3541 
Q 544 4100 942 4425 
Q 1341 4750 2034 4750 
Q 2731 4750 3128 4425 
Q 3525 4100 3525 3541 
Q 3525 3141 3298 2862 
Q 3072 2584 2669 2484 
Q 3125 2378 3379 2068 
Q 3634 1759 3634 1313 
Q 3634 634 3220 271 
Q 2806 -91 2034 -91 
Q 1263 -91 848 271 
Q 434 634 434 1313 
Q 434 1759 690 2068 
Q 947 2378 1403 2484 
z
M 1172 3481 
Q 1172 3119 1398 2916 
Q 1625 2713 2034 2713 
Q 2441 2713 2670 2916 
Q 2900 3119 2900 3481 
Q 2900 3844 2670 4047 
Q 2441 4250 2034 4250 
Q 1625 4250 1398 4047 
Q 1172 3844 1172 3481 
z
" transform="scale(0.015625)"/>
       </defs>
       <use xlink:href="#DejaVuSans-32"/>
       <use xlink:href="#DejaVuSans-2e" transform="translate(63.623047 0)"/>
       <use xlink:href="#DejaVuSans-35" transform="translate(95.410156 0)"/>
       <use xlink:href="#DejaVuSans-38" transform="translate(159.033203 0)"/>
      </g>
     </g>
    </g>
    <g id="xtick_7">
     <g id="line2d_13">
      <path d="M 485.586667 390.04 
L 485.586667 14.76 
" clip-path="url(#p2c6bcf3ecd)" style="fill: none; stroke: #b0b0b0; stroke-width: 0.8; stroke-linecap: square"/>
     </g>
     <g id="line2d_14">
      <g>
       <use xlink:href="#m85501e21f0" x="485.586667" y="390.04" style="stroke: #000000; stroke-width: 0.8"/>
      </g>
     </g>
     <g id="text_7">
      <!-- 2.59 -->
      <g transform="translate(474.453854 404.638438) scale(0.1 -0.1)">
       <defs>
        <path id="DejaVuSans-39" d="M 703 97 
L 703 672 
Q 941 559 1184 500 
Q 1428 441 1663 441 
Q 2288 441 2617 861 
Q 2947 1281 2994 2138 
Q 2813 1869 2534 1725 
Q 2256 1581 1919 1581 
Q 1219 1581 811 2004 
Q 403 2428 403 3163 
Q 403 3881 828 4315 
Q 1253 4750 1959 4750 
Q 2769 4750 3195 4129 
Q 3622 3509 3622 2328 
Q 3622 1225 3098 567 
Q 2575 -91 1691 -91 
Q 1453 -91 1209 -44 
Q 966 3 703 97 
z
M 1959 2075 
Q 2384 2075 2632 2365 
Q 2881 2656 2881 3163 
Q 2881 3666 2632 3958 
Q 2384 4250 1959 4250 
Q 1534 4250 1286 3958 
Q 1038 3666 1038 3163 
Q 1038 2656 1286 2365 
Q 1534 2075 1959 2075 
z
" transform="scale(0.015625)"/>
       </defs>
       <use xlink:href="#DejaVuSans-32"/>
       <use xlink:href="#DejaVuSans-2e" transform="translate(63.623047 0)"/>
       <use xlink:href="#DejaVuSans-35" transform="translate(95.410156 0)"/>
       <use xlink:href="#DejaVuSans-39" transform="translate(159.033203 0)"/>
      </g>
     </g>
    </g>
    <g id="xtick_8">
     <g id="line2d_15">
      <path d="M 556.434444 390.04 
L 556.434444 14.76 
" clip-path="url(#p2c6bcf3ecd)" style="fill: none; stroke: #b0b0b0; stroke-width: 0.8; stroke-linecap: square"/>
     </g>
     <g id="line2d_16">
      <g>
       <use xlink:href="#m85501e21f0" x="556.434444" y="390.04" style="stroke: #000000; stroke-width: 0.8"/>
      </g>
     </g>
     <g id="text_8">
      <!-- 2.60 -->
      <g transform="translate(545.301632 404.638438) scale(0.1 -0.1)">
       <defs>
        <path id="DejaVuSans-30" d="M 2034 4250 
Q 1547 4250 1301 3770 
Q 1056 3291 1056 2328 
Q 1056 1369 1301 889 
Q 1547 409 2034 409 
Q 2525 409 2770 889 
Q 3016 1369 3016 2328 
Q 3016 3291 2770 3770 
Q 2525 4250 2034 4250 
z
M 2034 4750 
Q 2819 4750 3233 4129 
Q 3647 3509 3647 2328 
Q 3647 1150 3233 529 
Q 2819 -91 2034 -91 
Q 1250 -91 836 529 
Q 422 1150 422 2328 
Q 422 3509 836 4129 
Q 1250 4750 2034 4750 
z
" transform="scale(0.015625)"/>
       </defs>
       <use xlink:href="#DejaVuSans-32"/>
       <use xlink:href="#DejaVuSans-2e" transform="translate(63.623047 0)"/>
       <use xlink:href="#DejaVuSans-36" transform="translate(95.410156 0)"/>
       <use xlink:href="#DejaVuSans-30" transform="translate(159.033203 0)"/>
      </g>
     </g>
    </g>
    <g id="xtick_9">
     <g id="line2d_17">
      <path d="M 627.282222 390.04 
L 627.282222 14.76 
" clip-path="url(#p2c6bcf3ecd)" style="fill: none; stroke: #b0b0b0; stroke-width: 0.8; stroke-linecap: square"/>
     </g>
     <g id="line2d_18">
      <g>
       <use xlink:href="#m85501e21f0" x="627.282222" y="390.04" style="stroke: #000000; stroke-width: 0.8"/>
      </g>
     </g>
     <g id="text_9">
      <!-- 2.61 -->
      <g transform="translate(616.14941 404.638438) scale(0.1 -0.1)">
       <defs>
        <path id="DejaVuSans-31" d="M 794 531 
L 1825 531 
L 1825 4091 
L 703 3866 
L 703 4441 
L 1819 4666 
L 2450 4666 
L 2450 531 
L 3481 531 
L 3481 0 
L 794 0 
L 794 531 
z
" transform="scale(0.015625)"/>
       </defs>
       <use xlink:href="#DejaVuSans-32"/>
       <use xlink:href="#DejaVuSans-2e" transform="translate(63.623047 0)"/>
       <use xlink:href="#DejaVuSans-36" transform="translate(95.410156 0)"/>
       <use xlink:href="#DejaVuSans-31" transform="translate(159.033203 0)"/>
      </g>
     </g>
    </g>
    <g id="xtick_10">
     <g id="line2d_19">
      <path d="M 698.13 390.04 
L 698.13 14.76 
" clip-path="url(#p2c6bcf3ecd)" style="fill: none; stroke: #b0b0b0; stroke-width: 0.8; stroke-linecap: square"/>
     </g>
     <g id="line2d_20">
      <g>
       <use xlink:href="#m85501e21f0" x="698.13" y="390.04" style="stroke: #000000; stroke-width: 0.8"/>
      </g>
     </g>
     <g id="text_10">
      <!-- 2.62 -->
      <g transform="translate(686.997188 404.638438) scale(0.1 -0.1)">
       <use xlink:href="#DejaVuSans-32"/>
       <use xlink:href="#DejaVuSans-2e" transform="translate(63.623047 0)"/>
       <use xlink:href="#DejaVuSans-36" transform="translate(95.410156 0)"/>
       <use xlink:href="#DejaVuSans-32" transform="translate(159.033203 0)"/>
      </g>
     </g>
    </g>
    <g id="text_11">
     <!-- Time (s) -->
     <g transform="translate(358.986094 418.316562) scale(0.1 -0.1)">
      <defs>
       <path id="DejaVuSans-54" d="M -19 4666 
L 3928 4666 
L 3928 4134 
L 2272 4134 
L 2272 0 
L 1638 0 
L 1638 4134 
L -19 4134 
L -19 4666 
z
" transform="scale(0.015625)"/>
       <path id="DejaVuSans-69" d="M 603 3500 
L 1178 3500 
L 1178 0 
L 603 0 
L 603 3500 
z
M 603 4863 
L 1178 4863 
L 1178 4134 
L 603 4134 
L 603 4863 
z
" transform="scale(0.015625)"/>
       <path id="DejaVuSans-6d" d="M 3328 2828 
Q 3544 3216 3844 3400 
Q 4144 3584 4550 3584 
Q 5097 3584 5394 3201 
Q 5691 2819 5691 2113 
L 5691 0 
L 5113 0 
L 5113 2094 
Q 5113 2597 4934 2840 
Q 4756 3084 4391 3084 
Q 3944 3084 3684 2787 
Q 3425 2491 3425 1978 
L 3425 0 
L 2847 0 
L 2847 2094 
Q 2847 2600 2669 2842 
Q 2491 3084 2119 3084 
Q 1678 3084 1418 2786 
Q 1159 2488 1159 1978 
L 1159 0 
L 581 0 
L 581 3500 
L 1159 3500 
L 1159 2956 
Q 1356 3278 1631 3431 
Q 1906 3584 2284 3584 
Q 2666 3584 2933 3390 
Q 3200 3197 3328 2828 
z
" transform="scale(0.015625)"/>
       <path id="DejaVuSans-65" d="M 3597 1894 
L 3597 1613 
L 953 1613 
Q 991 1019 1311 708 
Q 1631 397 2203 397 
Q 2534 397 2845 478 
Q 3156 559 3463 722 
L 3463 178 
Q 3153 47 2828 -22 
Q 2503 -91 2169 -91 
Q 1331 -91 842 396 
Q 353 884 353 1716 
Q 353 2575 817 3079 
Q 1281 3584 2069 3584 
Q 2775 3584 3186 3129 
Q 3597 2675 3597 1894 
z
M 3022 2063 
Q 3016 2534 2758 2815 
Q 2500 3097 2075 3097 
Q 1594 3097 1305 2825 
Q 1016 2553 972 2059 
L 3022 2063 
z
" transform="scale(0.015625)"/>
       <path id="DejaVuSans-20" transform="scale(0.015625)"/>
       <path id="DejaVuSans-28" d="M 1984 4856 
Q 1566 4138 1362 3434 
Q 1159 2731 1159 2009 
Q 1159 1288 1364 580 
Q 1569 -128 1984 -844 
L 1484 -844 
Q 1016 -109 783 600 
Q 550 1309 550 2009 
Q 550 2706 781 3412 
Q 1013 4119 1484 4856 
L 1984 4856 
z
" transform="scale(0.015625)"/>
       <path id="DejaVuSans-73" d="M 2834 3397 
L 2834 2853 
Q 2591 2978 2328 3040 
Q 2066 3103 1784 3103 
Q 1356 3103 1142 2972 
Q 928 2841 928 2578 
Q 928 2378 1081 2264 
Q 1234 2150 1697 2047 
L 1894 2003 
Q 2506 1872 2764 1633 
Q 3022 1394 3022 966 
Q 3022 478 2636 193 
Q 2250 -91 1575 -91 
Q 1294 -91 989 -36 
Q 684 19 347 128 
L 347 722 
Q 666 556 975 473 
Q 1284 391 1588 391 
Q 1994 391 2212 530 
Q 2431 669 2431 922 
Q 2431 1156 2273 1281 
Q 2116 1406 1581 1522 
L 1381 1569 
Q 847 1681 609 1914 
Q 372 2147 372 2553 
Q 372 3047 722 3315 
Q 1072 3584 1716 3584 
Q 2034 3584 2315 3537 
Q 2597 3491 2834 3397 
z
" transform="scale(0.015625)"/>
       <path id="DejaVuSans-29" d="M 513 4856 
L 1013 4856 
Q 1481 4119 1714 3412 
Q 1947 2706 1947 2009 
Q 1947 1309 1714 600 
Q 1481 -109 1013 -844 
L 513 -844 
Q 928 -128 1133 580 
Q 1338 1288 1338 2009 
Q 1338 2731 1133 3434 
Q 928 4138 513 4856 
z
" transform="scale(0.015625)"/>
      </defs>
      <use xlink:href="#DejaVuSans-54"/>
      <use xlink:href="#DejaVuSans-69" transform="translate(57.958984 0)"/>
      <use xlink:href="#DejaVuSans-6d" transform="translate(85.742188 0)"/>
      <use xlink:href="#DejaVuSans-65" transform="translate(183.154297 0)"/>
      <use xlink:href="#DejaVuSans-20" transform="translate(244.677734 0)"/>
      <use xlink:href="#DejaVuSans-28" transform="translate(276.464844 0)"/>
      <use xlink:href="#DejaVuSans-73" transform="translate(315.478516 0)"/>
      <use xlink:href="#DejaVuSans-29" transform="translate(367.578125 0)"/>
     </g>
    </g>
    <g id="text_12">
     <!-- 1e−6 -->
     <g transform="translate(670.872188 417.316562) scale(0.1 -0.1)">
      <defs>
       <path id="DejaVuSans-2212" d="M 678 2272 
L 4684 2272 
L 4684 1741 
L 678 1741 
L 678 2272 
z
" transform="scale(0.015625)"/>
      </defs>
      <use xlink:href="#DejaVuSans-31"/>
      <use xlink:href="#DejaVuSans-65" transform="translate(63.623047 0)"/>
      <use xlink:href="#DejaVuSans-2212" transform="translate(125.146484 0)"/>
      <use xlink:href="#DejaVuSans-36" transform="translate(208.935547 0)"/>
     </g>
    </g>
   </g>
   <g id="matplotlib.axis_2">
    <g id="ytick_1">
     <g id="line2d_21">
      <path d="M 60.5 390.04 
L 698.13 390.04 
" clip-path="url(#p2c6bcf3ecd)" style="fill: none; stroke: #b0b0b0; stroke-width: 0.8; stroke-linecap: square"/>
     </g>
     <g id="line2d_22">
      <defs>
       <path id="md312921735" d="M 0 0 
L -3.5 0 
" style="stroke: #000000; stroke-width: 0.8"/>
      </defs>
      <g>
       <use xlink:href="#md312921735" x="60.5" y="390.04" style="stroke: #000000; stroke-width: 0.8"/>
      </g>
     </g>
     <g id="text_13">
      <!-- 0.990 -->
      <g transform="translate(24.871875 393.839219) scale(0.1 -0.1)">
       <use xlink:href="#DejaVuSans-30"/>
       <use xlink:href="#DejaVuSans-2e" transform="translate(63.623047 0)"/>
       <use xlink:href="#DejaVuSans-39" transform="translate(95.410156 0)"/>
       <use xlink:href="#DejaVuSans-39" transform="translate(159.033203 0)"/>
       <use xlink:href="#DejaVuSans-30" transform="translate(222.65625 0)"/>
      </g>
     </g>
    </g>
    <g id="ytick_2">
     <g id="line2d_23">
      <path d="M 60.5 314.984 
L 698.13 314.984 
" clip-path="url(#p2c6bcf3ecd)" style="fill: none; stroke: #b0b0b0; stroke-width: 0.8; stroke-linecap: square"/>
     </g>
     <g id="line2d_24">
      <g>
       <use xlink:href="#md312921735" x="60.5" y="314.984" style="stroke: #000000; stroke-width: 0.8"/>
      </g>
     </g>
     <g id="text_14">
      <!-- 0.992 -->
      <g transform="translate(24.871875 318.783219) scale(0.1 -0.1)">
       <use xlink:href="#DejaVuSans-30"/>
       <use xlink:href="#DejaVuSans-2e" transform="translate(63.623047 0)"/>
       <use xlink:href="#DejaVuSans-39" transform="translate(95.410156 0)"/>
       <use xlink:href="#DejaVuSans-39" transform="translate(159.033203 0)"/>
       <use xlink:href="#DejaVuSans-32" transform="translate(222.65625 0)"/>
      </g>
     </g>
    </g>
    <g id="ytick_3">
     <g id="line2d_25">
      <path d="M 60.5 239.928 
L 698.13 239.928 
" clip-path="url(#p2c6bcf3ecd)" style="fill: none; stroke: #b0b0b0; stroke-width: 0.8; stroke-linecap: square"/>
     </g>
     <g id="line2d_26">
      <g>
       <use xlink:href="#md312921735" x="60.5" y="239.928" style="stroke: #000000; stroke-width: 0.8"/>
      </g>
     </g>
     <g id="text_15">
      <!-- 0.994 -->
      <g transform="translate(24.871875 243.727219) scale(0.1 -0.1)">
       <use xlink:href="#DejaVuSans-30"/>
       <use xlink:href="#DejaVuSans-2e" transform="translate(63.623047 0)"/>
       <use xlink:href="#DejaVuSans-39" transform="translate(95.410156 0)"/>
       <use xlink:href="#DejaVuSans-39" transform="translate(159.033203 0)"/>
       <use xlink:href="#DejaVuSans-34" transform="translate(222.65625 0)"/>
      </g>
     </g>
    </g>
    <g id="ytick_4">
     <g id="line2d_27">
      <path d="M 60.5 164.872 
L 698.13 164.872 
" clip-path="url(#p2c6bcf3ecd)" style="fill: none; stroke: #b0b0b0; stroke-width: 0.8; stroke-linecap: square"/>
     </g>
     <g id="line2d_28">
      <g>
       <use xlink:href="#md312921735" x="60.5" y="164.872" style="stroke: #000000; stroke-width: 0.8"/>
      </g>
     </g>
     <g id="text_16">
      <!-- 0.996 -->
      <g transform="translate(24.871875 168.671219) scale(0.1 -0.1)">
       <use xlink:href="#DejaVuSans-30"/>
       <use xlink:href="#DejaVuSans-2e" transform="translate(63.623047 0)"/>
       <use xlink:href="#DejaVuSans-39" transform="translate(95.410156 0)"/>
       <use xlink:href="#DejaVuSans-39" transform="translate(159.033203 0)"/>
       <use xlink:href="#DejaVuSans-36" transform="translate(222.65625 0)"/>
      </g>
     </g>
    </g>
    <g id="ytick_5">
     <g id="line2d_29">
      <path d="M 60.5 89.816 
L 698.13 89.816 
" clip-path="url(#p2c6bcf3ecd)" style="fill: none; stroke: #b0b0b0; stroke-width: 0.8; stroke-linecap: square"/>
     </g>
     <g id="line2d_30">
      <g>
       <use xlink:href="#md312921735" x="60.5" y="89.816" style="stroke: #000000; stroke-width: 0.8"/>
      </g>
     </g>
     <g id="text_17">
      <!-- 0.998 -->
      <g transform="translate(24.871875 93.615219) scale(0.1 -0.1)">
       <use xlink:href="#DejaVuSans-30"/>
       <use xlink:href="#DejaVuSans-2e" transform="translate(63.623047 0)"/>
       <use xlink:href="#DejaVuSans-39" transform="translate(95.410156 0)"/>
       <use xlink:href="#DejaVuSans-39" transform="translate(159.033203 0)"/>
       <use xlink:href="#DejaVuSans-38" transform="translate(222.65625 0)"/>
      </g>
     </g>
    </g>
    <g id="ytick_6">
     <g id="line2d_31">
      <path d="M 60.5 14.76 
L 698.13 14.76 
" clip-path="url(#p2c6bcf3ecd)" style="fill: none; stroke: #b0b0b0; stroke-width: 0.8; stroke-linecap: square"/>
     </g>
     <g id="line2d_32">
      <g>
       <use xlink:href="#md312921735" x="60.5" y="14.76" style="stroke: #000000; stroke-width: 0.8"/>
      </g>
     </g>
     <g id="text_18">
      <!-- 1.000 -->
      <g transform="translate(24.871875 18.559219) scale(0.1 -0.1)">
       <use xlink:href="#DejaVuSans-31"/>
       <use xlink:href="#DejaVuSans-2e" transform="translate(63.623047 0)"/>
       <use xlink:href="#DejaVuSans-30" transform="translate(95.410156 0)"/>
       <use xlink:href="#DejaVuSans-30" transform="translate(159.033203 0)"/>
       <use xlink:href="#DejaVuSans-30" transform="translate(222.65625 0)"/>
      </g>
     </g>
    </g>
    <g id="text_19">
     <!-- Voltage (V) -->
     <g transform="translate(18.792188 230.067188) rotate(-90) scale(0.1 -0.1)">
      <defs>
       <path id="DejaVuSans-56" d="M 1831 0 
L 50 4666 
L 709 4666 
L 2188 738 
L 3669 4666 
L 4325 4666 
L 2547 0 
L 1831 0 
z
" transform="scale(0.015625)"/>
       <path id="DejaVuSans-6f" d="M 1959 3097 
Q 1497 3097 1228 2736 
Q 959 2375 959 1747 
Q 959 1119 1226 758 
Q 1494 397 1959 397 
Q 2419 397 2687 759 
Q 2956 1122 2956 1747 
Q 2956 2369 2687 2733 
Q 2419 3097 1959 3097 
z
M 1959 3584 
Q 2709 3584 3137 3096 
Q 3566 2609 3566 1747 
Q 3566 888 3137 398 
Q 2709 -91 1959 -91 
Q 1206 -91 779 398 
Q 353 888 353 1747 
Q 353 2609 779 3096 
Q 1206 3584 1959 3584 
z
" transform="scale(0.015625)"/>
       <path id="DejaVuSans-6c" d="M 603 4863 
L 1178 4863 
L 1178 0 
L 603 0 
L 603 4863 
z
" transform="scale(0.015625)"/>
       <path id="DejaVuSans-74" d="M 1172 4494 
L 1172 3500 
L 2356 3500 
L 2356 3053 
L 1172 3053 
L 1172 1153 
Q 1172 725 1289 603 
Q 1406 481 1766 481 
L 2356 481 
L 2356 0 
L 1766 0 
Q 1100 0 847 248 
Q 594 497 594 1153 
L 594 3053 
L 172 3053 
L 172 3500 
L 594 3500 
L 594 4494 
L 1172 4494 
z
" transform="scale(0.015625)"/>
       <path id="DejaVuSans-61" d="M 2194 1759 
Q 1497 1759 1228 1600 
Q 959 1441 959 1056 
Q 959 750 1161 570 
Q 1363 391 1709 391 
Q 2188 391 2477 730 
Q 2766 1069 2766 1631 
L 2766 1759 
L 2194 1759 
z
M 3341 1997 
L 3341 0 
L 2766 0 
L 2766 531 
Q 2569 213 2275 61 
Q 1981 -91 1556 -91 
Q 1019 -91 701 211 
Q 384 513 384 1019 
Q 384 1609 779 1909 
Q 1175 2209 1959 2209 
L 2766 2209 
L 2766 2266 
Q 2766 2663 2505 2880 
Q 2244 3097 1772 3097 
Q 1472 3097 1187 3025 
Q 903 2953 641 2809 
L 641 3341 
Q 956 3463 1253 3523 
Q 1550 3584 1831 3584 
Q 2591 3584 2966 3190 
Q 3341 2797 3341 1997 
z
" transform="scale(0.015625)"/>
       <path id="DejaVuSans-67" d="M 2906 1791 
Q 2906 2416 2648 2759 
Q 2391 3103 1925 3103 
Q 1463 3103 1205 2759 
Q 947 2416 947 1791 
Q 947 1169 1205 825 
Q 1463 481 1925 481 
Q 2391 481 2648 825 
Q 2906 1169 2906 1791 
z
M 3481 434 
Q 3481 -459 3084 -895 
Q 2688 -1331 1869 -1331 
Q 1566 -1331 1297 -1286 
Q 1028 -1241 775 -1147 
L 775 -588 
Q 1028 -725 1275 -790 
Q 1522 -856 1778 -856 
Q 2344 -856 2625 -561 
Q 2906 -266 2906 331 
L 2906 616 
Q 2728 306 2450 153 
Q 2172 0 1784 0 
Q 1141 0 747 490 
Q 353 981 353 1791 
Q 353 2603 747 3093 
Q 1141 3584 1784 3584 
Q 2172 3584 2450 3431 
Q 2728 3278 2906 2969 
L 2906 3500 
L 3481 3500 
L 3481 434 
z
" transform="scale(0.015625)"/>
      </defs>
      <use xlink:href="#DejaVuSans-56"/>
      <use xlink:href="#DejaVuSans-6f" transform="translate(60.658203 0)"/>
      <use xlink:href="#DejaVuSans-6c" transform="translate(121.839844 0)"/>
      <use xlink:href="#DejaVuSans-74" transform="translate(149.623047 0)"/>
      <use xlink:href="#DejaVuSans-61" transform="translate(188.832031 0)"/>
      <use xlink:href="#DejaVuSans-67" transform="translate(250.111328 0)"/>
      <use xlink:href="#DejaVuSans-65" transform="translate(313.587891 0)"/>
      <use xlink:href="#DejaVuSans-20" transform="translate(375.111328 0)"/>
      <use xlink:href="#DejaVuSans-28" transform="translate(406.898438 0)"/>
      <use xlink:href="#DejaVuSans-56" transform="translate(445.912109 0)"/>
      <use xlink:href="#DejaVuSans-29" transform="translate(514.320312 0)"/>
     </g>
    </g>
   </g>
   <g id="line2d_33">
    <path d="M 46.330444 186.432582 
L 95.923889 184.723626 
L 117.178222 184.417394 
L 134.891938 184.294243 
L 136.89641 166.388575 
L 137.191016 165.786808 
L 137.461463 167.201107 
L 137.682601 170.829533 
L 137.987855 183.908196 
L 138.261943 213.418749 
L 138.735969 304.13297 
L 139.095067 361.494015 
L 139.22528 363.066107 
L 139.408335 361.82219 
L 139.779854 357.253483 
L 140.155014 348.493124 
L 140.687862 327.128222 
L 140.913882 314.711816 
L 141.627428 257.911152 
L 142.115605 221.202335 
L 142.409268 215.750661 
L 142.858074 212.71815 
L 143.597349 210.514277 
L 145.111811 207.049086 
L 146.97198 203.493535 
L 150.167817 198.674896 
L 154.826124 193.315935 
L 160.798895 188.018258 
L 166.771667 183.903518 
L 173.856444 180.907158 
L 188.026 178.36851 
L 202.195556 177.550503 
L 205.739716 177.660141 
L 206.751629 235.058586 
L 207.649909 266.912884 
L 208.43911 287.604902 
L 208.725867 291.15662 
L 208.88524 291.370884 
L 209.042488 289.427558 
L 209.280333 278.172226 
L 209.490273 254.476431 
L 210.008448 156.935212 
L 210.306104 113.946106 
L 210.415744 111.680468 
L 210.467362 111.70204 
L 210.595517 112.884452 
L 211.126886 121.556804 
L 212.431499 142.641568 
L 212.945265 148.860718 
L 213.382709 150.9328 
L 214.394453 154.080424 
L 215.253974 156.144247 
L 216.520514 158.648737 
L 218.703854 161.919675 
L 223.070535 166.188075 
L 230.332543 170.538176 
L 237.619444 173.743204 
L 244.704222 176.401855 
L 258.873778 180.585624 
L 273.043333 183.842393 
L 282.667692 185.397944 
L 287.196531 185.926037 
L 290.349354 186.219864 
L 296.655 186.64487 
L 308.467222 186.973652 
L 315.552 186.867415 
L 349.284108 185.701086 
L 372.085415 184.904714 
L 386.399778 184.578461 
L 418.283049 184.289315 
L 420.28344 166.401479 
L 420.5741 165.773219 
L 420.845054 167.120011 
L 421.0679 170.686923 
L 421.37557 183.670528 
L 421.650363 213.016681 
L 422.127569 304.229863 
L 422.486636 361.506239 
L 422.616714 363.060607 
L 422.800105 361.811552 
L 423.17053 357.25648 
L 423.545081 348.52112 
L 424.075239 327.304715 
L 424.298315 315.11826 
L 425.014624 258.263928 
L 425.507171 221.200792 
L 425.800897 215.755797 
L 426.249341 212.729978 
L 426.988974 210.528388 
L 428.503774 207.069351 
L 430.364174 203.520535 
L 433.560507 198.710639 
L 438.219624 193.360076 
L 444.191201 188.069928 
L 450.162778 183.957927 
L 457.247556 180.958315 
L 471.417111 178.408405 
L 485.586667 177.578012 
L 489.130827 177.684464 
L 490.14274 235.083932 
L 491.045785 267.093165 
L 491.8369 287.756315 
L 492.12182 291.219078 
L 492.280182 291.387532 
L 492.436411 289.399252 
L 492.671444 278.20755 
L 492.88046 254.643248 
L 493.399368 157.012035 
L 493.696955 113.992744 
L 493.806682 111.716537 
L 493.858272 111.736649 
L 493.986329 112.916254 
L 494.517105 121.577363 
L 495.821617 142.664402 
L 496.336527 148.899387 
L 496.774375 150.973093 
L 497.78695 154.122858 
L 498.647048 156.187854 
L 499.91473 158.694106 
L 502.101016 161.96791 
L 506.47359 166.238263 
L 513.741557 170.586664 
L 521.010556 173.779102 
L 528.095333 176.43317 
L 542.264889 180.607169 
L 556.434444 183.854743 
L 566.564976 185.487038 
L 570.590682 185.960549 
L 573.753815 186.261302 
L 580.080082 186.69522 
L 591.858333 187.027627 
L 598.943111 186.918482 
L 632.125746 185.746293 
L 655.407406 184.911517 
L 669.790889 184.575814 
L 701.67416 184.281389 
L 701.67416 184.281389 
" clip-path="url(#p2c6bcf3ecd)" style="fill: none; stroke: #1f77b4; stroke-width: 1.5; stroke-linecap: square"/>
   </g>
   <g id="line2d_34">
    <path d="M 46.330444 179.348609 
L 64.404259 182.39314 
L 71.800873 183.36318 
L 76.249893 183.864191 
L 81.334487 184.350806 
L 88.629188 184.897364 
L 95.923889 185.281218 
L 103.008667 185.461443 
L 117.178222 185.528056 
L 134.891938 185.418784 
L 136.173779 173.253735 
L 136.896125 167.22775 
L 137.19049 166.154099 
L 137.460969 166.442723 
L 137.677331 168.084001 
L 137.969532 174.641366 
L 138.219725 189.351432 
L 139.163763 264.518944 
L 139.297071 264.322377 
L 139.557756 263.416964 
L 139.825998 261.322347 
L 140.089412 257.077825 
L 140.462207 246.376046 
L 140.761991 234.412904 
L 141.061349 217.970014 
L 142.17044 140.772165 
L 142.375635 138.689429 
L 142.541974 138.218753 
L 142.800228 138.426087 
L 143.506569 140.665925 
L 144.890475 145.154528 
L 146.561846 149.787818 
L 149.623717 156.851343 
L 153.871317 164.501662 
L 160.296932 173.010573 
L 166.771667 179.151649 
L 173.856444 183.180619 
L 188.026 187.323272 
L 202.195556 189.514855 
L 205.739716 189.681976 
L 206.751629 247.574748 
L 207.455989 273.567345 
L 208.241727 296.745871 
L 208.745465 305.799072 
L 208.893608 306.863319 
L 209.039501 306.677911 
L 209.218146 303.289593 
L 209.405208 293.490608 
L 209.758576 261.26546 
L 210.214271 222.567474 
L 210.309932 222.021022 
L 210.358776 222.163009 
L 210.579005 223.847465 
L 212.824493 246.01403 
L 212.886841 246.007114 
L 213.046028 245.981546 
L 213.395657 245.556596 
L 214.458617 243.095316 
L 218.95861 231.277487 
L 223.570863 219.888149 
L 230.595154 205.039541 
L 237.619444 193.247186 
L 244.704222 185.410859 
L 258.873778 176.951417 
L 273.043333 172.236621 
L 279.837548 171.497107 
L 283.162474 171.396537 
L 287.193834 171.521825 
L 290.345656 171.775655 
L 296.649299 172.599002 
L 308.467222 174.84169 
L 315.552 176.476519 
L 329.721556 179.336745 
L 348.112067 182.426521 
L 355.198786 183.351752 
L 359.696174 183.8582 
L 364.836045 184.349278 
L 372.075522 184.890758 
L 379.315 185.272139 
L 386.399778 185.453401 
L 400.569333 185.521681 
L 418.283049 185.414046 
L 419.564104 173.25673 
L 420.284003 167.239998 
L 420.575238 166.15883 
L 420.846116 166.414077 
L 421.063826 168.025425 
L 421.357998 174.538891 
L 421.60877 189.179665 
L 422.198745 251.073335 
L 422.438451 264.229251 
L 422.562681 264.509251 
L 422.700264 264.288922 
L 422.972668 263.281681 
L 423.234671 261.107496 
L 423.505417 256.519191 
L 423.927108 243.722502 
L 424.267453 228.822326 
L 425.034216 174.025293 
L 425.508218 142.072878 
L 425.683028 139.492435 
L 425.801756 138.728922 
L 425.985355 138.371873 
L 426.251659 138.723512 
L 426.995247 141.140827 
L 428.52502 145.994261 
L 430.406015 151.057024 
L 433.627436 158.208761 
L 438.161906 166.015606 
L 445.159187 174.74867 
L 450.162778 179.233845 
L 457.247556 183.24438 
L 471.417111 187.34088 
L 485.586667 189.502966 
L 489.130827 189.671082 
L 490.14274 247.563389 
L 490.849651 273.642543 
L 491.63734 296.848381 
L 492.140675 305.834744 
L 492.287897 306.868496 
L 492.432899 306.655516 
L 492.610018 303.258761 
L 492.795896 293.514928 
L 493.149141 261.318525 
L 493.60469 222.572999 
L 493.700457 222.015317 
L 493.749236 222.15483 
L 493.968854 223.829942 
L 496.215605 246.008985 
L 496.278413 246.002031 
L 496.438747 245.975504 
L 496.790442 245.54494 
L 497.857971 243.069015 
L 502.387745 231.174248 
L 507.038181 219.70515 
L 514.024368 204.962581 
L 521.010556 193.243699 
L 528.095333 185.40799 
L 542.264889 176.949076 
L 556.434444 172.234641 
L 563.229363 171.495194 
L 566.568503 171.394702 
L 570.583236 171.519921 
L 573.740073 171.774187 
L 580.053748 172.599278 
L 591.858333 174.839912 
L 598.943111 176.474627 
L 613.112667 179.334627 
L 631.503178 182.424138 
L 638.58313 183.348476 
L 643.032397 183.849933 
L 648.117274 184.337165 
L 655.411692 184.884682 
L 662.706111 185.269585 
L 669.790889 185.450826 
L 683.960444 185.519071 
L 701.67416 185.411403 
L 701.67416 185.411403 
" clip-path="url(#p2c6bcf3ecd)" style="fill: none; stroke: #ff7f0e; stroke-width: 1.5; stroke-linecap: square"/>
   </g>
   <g id="line2d_35">
    <path d="M 46.330444 175.881463 
L 60.5 179.816211 
L 69.833101 181.95201 
L 76.25212 183.160397 
L 81.338945 183.966766 
L 88.631417 184.88521 
L 95.923889 185.546201 
L 103.008667 185.879266 
L 117.178222 186.058983 
L 134.891938 185.957628 
L 135.903851 176.514836 
L 136.683642 169.107242 
L 137.190237 166.308592 
L 137.460729 165.978801 
L 137.675516 166.55633 
L 137.960202 169.650274 
L 138.196718 176.845652 
L 139.076349 214.433039 
L 139.277552 214.623128 
L 139.405923 214.63723 
L 139.573794 214.448717 
L 139.843363 213.134192 
L 140.111058 209.528719 
L 140.54152 197.888289 
L 140.881317 184.073413 
L 141.639439 132.630475 
L 142.117513 102.173203 
L 142.293773 100.242678 
L 142.413007 99.9164 
L 142.598112 100.219122 
L 143.19246 103.540496 
L 144.210669 110.043031 
L 145.165145 115.524739 
L 147.074098 125.078932 
L 150.319971 138.337018 
L 154.819226 152.592279 
L 161.494228 168.150767 
L 166.771667 177.134684 
L 173.856444 184.595537 
L 188.026 191.924281 
L 202.195556 195.50155 
L 205.739716 195.678202 
L 206.751629 253.891102 
L 207.456377 280.015459 
L 208.241613 303.359748 
L 208.743288 313.093853 
L 209.03075 315.526396 
L 209.108406 315.515383 
L 209.232868 314.346889 
L 209.393532 310.179118 
L 209.808932 290.887604 
L 210.148772 278.058813 
L 210.195019 277.952969 
L 210.237612 278.019315 
L 210.407574 278.893879 
L 211.387267 286.434265 
L 212.457621 293.315313 
L 212.824493 295.307577 
L 212.881038 295.162737 
L 213.149907 294.27997 
L 213.695115 291.750284 
L 216.329307 278.261036 
L 218.326842 268.704621 
L 222.321911 251.381814 
L 229.445798 225.548094 
L 237.619444 202.567496 
L 244.704222 189.516791 
L 258.873778 174.856771 
L 273.043333 166.276359 
L 279.082058 164.784326 
L 281.654045 164.430438 
L 284.39638 164.266283 
L 287.191012 164.303927 
L 290.341099 164.560983 
L 296.641273 165.620777 
L 308.467222 168.864979 
L 315.552 171.374884 
L 329.721556 175.872697 
L 343.891111 179.806541 
L 353.215518 181.940693 
L 359.692114 183.159597 
L 364.827918 183.972039 
L 372.071459 184.882155 
L 379.315 185.538425 
L 386.399778 185.872117 
L 400.569333 186.052882 
L 418.283049 185.95259 
L 419.294962 176.509835 
L 420.072706 169.117522 
L 420.575716 166.319352 
L 420.84656 165.970628 
L 421.061606 166.526594 
L 421.34844 169.591777 
L 421.585581 176.746126 
L 422.467472 214.428187 
L 422.668684 214.61824 
L 422.797062 214.632303 
L 422.96494 214.443665 
L 423.233707 213.136066 
L 423.500251 209.560387 
L 423.930723 197.94773 
L 424.267768 184.296269 
L 425.022993 133.216879 
L 425.509285 102.17018 
L 425.686686 100.241508 
L 425.806039 99.924014 
L 425.991523 100.23664 
L 426.586886 103.57473 
L 427.608721 110.102227 
L 428.568248 115.611637 
L 430.487303 125.209404 
L 433.741266 138.48425 
L 438.254144 152.759439 
L 444.953247 168.336874 
L 450.162778 177.187522 
L 457.247556 184.64557 
L 471.417111 191.963218 
L 485.586667 195.528155 
L 489.130827 195.701622 
L 490.14274 253.915591 
L 490.84975 280.118313 
L 491.636733 303.490233 
L 492.138037 313.174289 
L 492.423844 315.563685 
L 492.501178 315.542875 
L 492.624627 314.369539 
L 492.784271 310.225447 
L 493.199394 290.95664 
L 493.539912 278.09298 
L 493.586281 277.987212 
L 493.628861 278.054067 
L 493.798802 278.929491 
L 494.779053 286.475114 
L 495.849357 293.355733 
L 496.215605 295.344758 
L 496.272101 295.200099 
L 496.540759 294.318444 
L 497.085536 291.791581 
L 499.718408 278.310217 
L 501.714168 268.762058 
L 505.705688 251.452089 
L 512.824862 225.626263 
L 521.010556 202.602743 
L 528.095333 189.547331 
L 542.264889 174.877679 
L 556.434444 166.288286 
L 562.475862 164.792303 
L 565.048993 164.437124 
L 567.783536 164.272031 
L 570.578792 164.308073 
L 573.731916 164.563822 
L 580.038165 165.622357 
L 591.858333 168.861892 
L 598.943111 171.370631 
L 613.112667 175.867423 
L 627.282222 179.800898 
L 636.61519 181.936931 
L 643.034622 183.145931 
L 648.121727 183.952908 
L 655.413919 184.872265 
L 662.706111 185.534271 
L 669.790889 185.868341 
L 683.960444 186.049679 
L 701.67416 185.949925 
L 701.67416 185.949925 
" clip-path="url(#p2c6bcf3ecd)" style="fill: none; stroke: #2ca02c; stroke-width: 1.5; stroke-linecap: square"/>
   </g>
   <g id="line2d_36">
    <path d="M 46.330444 172.453417 
L 60.5 177.882323 
L 69.234084 180.673277 
L 73.709763 181.894771 
L 76.254236 182.530424 
L 81.343181 183.654451 
L 88.633535 184.938389 
L 95.923889 185.867783 
L 103.008667 186.343501 
L 117.178222 186.61736 
L 134.891938 186.503418 
L 135.903851 177.049537 
L 136.895867 168.018538 
L 137.461059 165.434675 
L 138.104627 164.062532 
L 138.504725 163.540613 
L 138.758037 163.545185 
L 138.971676 163.836977 
L 139.341616 164.809568 
L 139.66295 165.363097 
L 139.794679 165.127221 
L 139.91505 164.478063 
L 140.174073 161.174913 
L 140.557424 151.513295 
L 140.937763 136.667278 
L 141.634005 91.059201 
L 142.115019 62.049589 
L 142.292133 60.772954 
L 142.40999 60.881299 
L 142.592882 61.827634 
L 143.187603 67.148397 
L 144.205995 76.764194 
L 145.160177 84.843276 
L 147.068541 98.915613 
L 150.298446 118.334368 
L 154.696831 138.771234 
L 160.989844 160.56216 
L 166.771667 175.243197 
L 173.856444 186.122267 
L 188.026 196.629672 
L 202.195556 201.565207 
L 205.739716 201.737049 
L 207.034628 272.692771 
L 208.210139 309.991218 
L 208.8646 323.090384 
L 209.485063 329.927204 
L 210.259667 335.617552 
L 211.033044 339.774793 
L 211.866387 342.927683 
L 212.824493 345.443469 
L 213.180583 343.239902 
L 214.433469 333.394113 
L 216.596636 316.963978 
L 218.802116 301.799381 
L 223.213076 275.13042 
L 230.314269 239.99814 
L 237.619444 211.827895 
L 244.704222 193.432525 
L 258.873778 172.503387 
L 273.043333 160.082408 
L 278.670409 157.943039 
L 280.961763 157.371787 
L 283.16892 157.037708 
L 285.613393 156.892779 
L 287.187264 156.913169 
L 290.335004 157.191079 
L 296.630485 158.524838 
L 308.467222 162.843975 
L 315.552 166.264822 
L 329.721556 172.444667 
L 343.891111 177.872771 
L 352.620388 180.662464 
L 357.121693 181.890964 
L 359.687066 182.531375 
L 364.817813 183.662601 
L 372.066406 184.936535 
L 379.315 185.860148 
L 386.399778 186.336474 
L 400.569333 186.61135 
L 418.283049 186.498437 
L 419.294962 177.044592 
L 420.284544 168.02875 
L 420.847656 165.443453 
L 421.494449 164.060199 
L 421.892477 163.535546 
L 422.106171 163.511432 
L 422.327694 163.762885 
L 422.606314 164.436105 
L 422.884622 165.188726 
L 423.051339 165.35704 
L 423.183176 165.129708 
L 423.303233 164.493858 
L 423.564785 161.176452 
L 423.948056 151.523024 
L 424.326226 136.79217 
L 425.023404 91.187699 
L 425.506317 62.053774 
L 425.683492 60.780002 
L 425.80113 60.889459 
L 425.983669 61.834561 
L 426.578321 67.156601 
L 427.596442 76.775338 
L 428.549869 84.853221 
L 430.456725 98.924354 
L 433.685799 118.352231 
L 438.082664 138.79602 
L 444.372816 160.590656 
L 450.162778 175.297562 
L 457.247556 186.173064 
L 471.417111 196.668945 
L 485.586667 201.591987 
L 489.130827 201.760643 
L 490.428974 272.837329 
L 491.604292 310.099498 
L 492.257615 323.148739 
L 492.875637 329.954381 
L 493.650641 335.649662 
L 494.423733 339.806842 
L 495.256642 342.959882 
L 496.215605 345.479328 
L 496.57212 343.273003 
L 497.826123 333.418884 
L 499.991224 316.977123 
L 502.199947 301.794218 
L 506.617392 275.096394 
L 513.725487 239.948482 
L 521.010556 211.863943 
L 528.095333 193.463684 
L 542.264889 172.524942 
L 556.434444 160.095054 
L 562.063207 157.951963 
L 564.35363 157.379808 
L 566.573157 157.043319 
L 568.999365 156.898633 
L 570.573911 156.918013 
L 573.723003 157.194229 
L 580.021187 158.525696 
L 591.858333 162.841259 
L 598.943111 166.26089 
L 613.112667 172.439623 
L 627.282222 177.867275 
L 636.016208 180.658417 
L 640.492122 181.880297 
L 643.036732 182.516218 
L 648.125952 183.640852 
L 655.416032 184.92566 
L 662.706111 185.856032 
L 669.790889 186.332729 
L 683.960444 186.608168 
L 701.67416 186.495783 
L 701.67416 186.495783 
" clip-path="url(#p2c6bcf3ecd)" style="fill: none; stroke: #d62728; stroke-width: 1.5; stroke-linecap: square"/>
   </g>
   <g id="patch_3">
    <path d="M 60.5 390.04 
L 60.5 14.76 
" style="fill: none; stroke: #000000; stroke-width: 0.8; stroke-linejoin: miter; stroke-linecap: square"/>
   </g>
   <g id="patch_4">
    <path d="M 698.13 390.04 
L 698.13 14.76 
" style="fill: none; stroke: #000000; stroke-width: 0.8; stroke-linejoin: miter; stroke-linecap: square"/>
   </g>
   <g id="patch_5">
    <path d="M 60.5 390.04 
L 698.13 390.04 
" style="fill: none; stroke: #000000; stroke-width: 0.8; stroke-linejoin: miter; stroke-linecap: square"/>
   </g>
   <g id="patch_6">
    <path d="M 60.5 14.76 
L 698.13 14.76 
" style="fill: none; stroke: #000000; stroke-width: 0.8; stroke-linejoin: miter; stroke-linecap: square"/>
   </g>
   <g id="legend_1">
    <g id="patch_7">
     <path d="M 565.808125 81.4725 
L 691.13 81.4725 
Q 693.13 81.4725 693.13 79.4725 
L 693.13 21.76 
Q 693.13 19.76 691.13 19.76 
L 565.808125 19.76 
Q 563.808125 19.76 563.808125 21.76 
L 563.808125 79.4725 
Q 563.808125 81.4725 565.808125 81.4725 
z
" style="fill: #ffffff; opacity: 0.8; stroke: #cccccc; stroke-linejoin: miter"/>
    </g>
    <g id="line2d_37">
     <path d="M 567.808125 27.858438 
L 577.808125 27.858438 
L 587.808125 27.858438 
" style="fill: none; stroke: #1f77b4; stroke-width: 1.5; stroke-linecap: square"/>
    </g>
    <g id="text_20">
     <!-- Dummy Fingers=8 -->
     <g transform="translate(595.808125 31.358438) scale(0.1 -0.1)">
      <defs>
       <path id="DejaVuSans-44" d="M 1259 4147 
L 1259 519 
L 2022 519 
Q 2988 519 3436 956 
Q 3884 1394 3884 2338 
Q 3884 3275 3436 3711 
Q 2988 4147 2022 4147 
L 1259 4147 
z
M 628 4666 
L 1925 4666 
Q 3281 4666 3915 4102 
Q 4550 3538 4550 2338 
Q 4550 1131 3912 565 
Q 3275 0 1925 0 
L 628 0 
L 628 4666 
z
" transform="scale(0.015625)"/>
       <path id="DejaVuSans-75" d="M 544 1381 
L 544 3500 
L 1119 3500 
L 1119 1403 
Q 1119 906 1312 657 
Q 1506 409 1894 409 
Q 2359 409 2629 706 
Q 2900 1003 2900 1516 
L 2900 3500 
L 3475 3500 
L 3475 0 
L 2900 0 
L 2900 538 
Q 2691 219 2414 64 
Q 2138 -91 1772 -91 
Q 1169 -91 856 284 
Q 544 659 544 1381 
z
M 1991 3584 
L 1991 3584 
z
" transform="scale(0.015625)"/>
       <path id="DejaVuSans-79" d="M 2059 -325 
Q 1816 -950 1584 -1140 
Q 1353 -1331 966 -1331 
L 506 -1331 
L 506 -850 
L 844 -850 
Q 1081 -850 1212 -737 
Q 1344 -625 1503 -206 
L 1606 56 
L 191 3500 
L 800 3500 
L 1894 763 
L 2988 3500 
L 3597 3500 
L 2059 -325 
z
" transform="scale(0.015625)"/>
       <path id="DejaVuSans-46" d="M 628 4666 
L 3309 4666 
L 3309 4134 
L 1259 4134 
L 1259 2759 
L 3109 2759 
L 3109 2228 
L 1259 2228 
L 1259 0 
L 628 0 
L 628 4666 
z
" transform="scale(0.015625)"/>
       <path id="DejaVuSans-6e" d="M 3513 2113 
L 3513 0 
L 2938 0 
L 2938 2094 
Q 2938 2591 2744 2837 
Q 2550 3084 2163 3084 
Q 1697 3084 1428 2787 
Q 1159 2491 1159 1978 
L 1159 0 
L 581 0 
L 581 3500 
L 1159 3500 
L 1159 2956 
Q 1366 3272 1645 3428 
Q 1925 3584 2291 3584 
Q 2894 3584 3203 3211 
Q 3513 2838 3513 2113 
z
" transform="scale(0.015625)"/>
       <path id="DejaVuSans-72" d="M 2631 2963 
Q 2534 3019 2420 3045 
Q 2306 3072 2169 3072 
Q 1681 3072 1420 2755 
Q 1159 2438 1159 1844 
L 1159 0 
L 581 0 
L 581 3500 
L 1159 3500 
L 1159 2956 
Q 1341 3275 1631 3429 
Q 1922 3584 2338 3584 
Q 2397 3584 2469 3576 
Q 2541 3569 2628 3553 
L 2631 2963 
z
" transform="scale(0.015625)"/>
       <path id="DejaVuSans-3d" d="M 678 2906 
L 4684 2906 
L 4684 2381 
L 678 2381 
L 678 2906 
z
M 678 1631 
L 4684 1631 
L 4684 1100 
L 678 1100 
L 678 1631 
z
" transform="scale(0.015625)"/>
      </defs>
      <use xlink:href="#DejaVuSans-44"/>
      <use xlink:href="#DejaVuSans-75" transform="translate(77.001953 0)"/>
      <use xlink:href="#DejaVuSans-6d" transform="translate(140.380859 0)"/>
      <use xlink:href="#DejaVuSans-6d" transform="translate(237.792969 0)"/>
      <use xlink:href="#DejaVuSans-79" transform="translate(335.205078 0)"/>
      <use xlink:href="#DejaVuSans-20" transform="translate(394.384766 0)"/>
      <use xlink:href="#DejaVuSans-46" transform="translate(426.171875 0)"/>
      <use xlink:href="#DejaVuSans-69" transform="translate(476.441406 0)"/>
      <use xlink:href="#DejaVuSans-6e" transform="translate(504.224609 0)"/>
      <use xlink:href="#DejaVuSans-67" transform="translate(567.603516 0)"/>
      <use xlink:href="#DejaVuSans-65" transform="translate(631.080078 0)"/>
      <use xlink:href="#DejaVuSans-72" transform="translate(692.603516 0)"/>
      <use xlink:href="#DejaVuSans-73" transform="translate(733.716797 0)"/>
      <use xlink:href="#DejaVuSans-3d" transform="translate(785.816406 0)"/>
      <use xlink:href="#DejaVuSans-38" transform="translate(869.605469 0)"/>
     </g>
    </g>
    <g id="line2d_38">
     <path d="M 567.808125 42.536563 
L 577.808125 42.536563 
L 587.808125 42.536563 
" style="fill: none; stroke: #ff7f0e; stroke-width: 1.5; stroke-linecap: square"/>
    </g>
    <g id="text_21">
     <!-- Dummy Fingers=4 -->
     <g transform="translate(595.808125 46.036563) scale(0.1 -0.1)">
      <use xlink:href="#DejaVuSans-44"/>
      <use xlink:href="#DejaVuSans-75" transform="translate(77.001953 0)"/>
      <use xlink:href="#DejaVuSans-6d" transform="translate(140.380859 0)"/>
      <use xlink:href="#DejaVuSans-6d" transform="translate(237.792969 0)"/>
      <use xlink:href="#DejaVuSans-79" transform="translate(335.205078 0)"/>
      <use xlink:href="#DejaVuSans-20" transform="translate(394.384766 0)"/>
      <use xlink:href="#DejaVuSans-46" transform="translate(426.171875 0)"/>
      <use xlink:href="#DejaVuSans-69" transform="translate(476.441406 0)"/>
      <use xlink:href="#DejaVuSans-6e" transform="translate(504.224609 0)"/>
      <use xlink:href="#DejaVuSans-67" transform="translate(567.603516 0)"/>
      <use xlink:href="#DejaVuSans-65" transform="translate(631.080078 0)"/>
      <use xlink:href="#DejaVuSans-72" transform="translate(692.603516 0)"/>
      <use xlink:href="#DejaVuSans-73" transform="translate(733.716797 0)"/>
      <use xlink:href="#DejaVuSans-3d" transform="translate(785.816406 0)"/>
      <use xlink:href="#DejaVuSans-34" transform="translate(869.605469 0)"/>
     </g>
    </g>
    <g id="line2d_39">
     <path d="M 567.808125 57.214688 
L 577.808125 57.214688 
L 587.808125 57.214688 
" style="fill: none; stroke: #2ca02c; stroke-width: 1.5; stroke-linecap: square"/>
    </g>
    <g id="text_22">
     <!-- Dummy Fingers=2 -->
     <g transform="translate(595.808125 60.714688) scale(0.1 -0.1)">
      <use xlink:href="#DejaVuSans-44"/>
      <use xlink:href="#DejaVuSans-75" transform="translate(77.001953 0)"/>
      <use xlink:href="#DejaVuSans-6d" transform="translate(140.380859 0)"/>
      <use xlink:href="#DejaVuSans-6d" transform="translate(237.792969 0)"/>
      <use xlink:href="#DejaVuSans-79" transform="translate(335.205078 0)"/>
      <use xlink:href="#DejaVuSans-20" transform="translate(394.384766 0)"/>
      <use xlink:href="#DejaVuSans-46" transform="translate(426.171875 0)"/>
      <use xlink:href="#DejaVuSans-69" transform="translate(476.441406 0)"/>
      <use xlink:href="#DejaVuSans-6e" transform="translate(504.224609 0)"/>
      <use xlink:href="#DejaVuSans-67" transform="translate(567.603516 0)"/>
      <use xlink:href="#DejaVuSans-65" transform="translate(631.080078 0)"/>
      <use xlink:href="#DejaVuSans-72" transform="translate(692.603516 0)"/>
      <use xlink:href="#DejaVuSans-73" transform="translate(733.716797 0)"/>
      <use xlink:href="#DejaVuSans-3d" transform="translate(785.816406 0)"/>
      <use xlink:href="#DejaVuSans-32" transform="translate(869.605469 0)"/>
     </g>
    </g>
    <g id="line2d_40">
     <path d="M 567.808125 71.892813 
L 577.808125 71.892813 
L 587.808125 71.892813 
" style="fill: none; stroke: #d62728; stroke-width: 1.5; stroke-linecap: square"/>
    </g>
    <g id="text_23">
     <!-- No Dummy -->
     <g transform="translate(595.808125 75.392813) scale(0.1 -0.1)">
      <defs>
       <path id="DejaVuSans-4e" d="M 628 4666 
L 1478 4666 
L 3547 763 
L 3547 4666 
L 4159 4666 
L 4159 0 
L 3309 0 
L 1241 3903 
L 1241 0 
L 628 0 
L 628 4666 
z
" transform="scale(0.015625)"/>
      </defs>
      <use xlink:href="#DejaVuSans-4e"/>
      <use xlink:href="#DejaVuSans-6f" transform="translate(74.804688 0)"/>
      <use xlink:href="#DejaVuSans-20" transform="translate(135.986328 0)"/>
      <use xlink:href="#DejaVuSans-44" transform="translate(167.773438 0)"/>
      <use xlink:href="#DejaVuSans-75" transform="translate(244.775391 0)"/>
      <use xlink:href="#DejaVuSans-6d" transform="translate(308.154297 0)"/>
      <use xlink:href="#DejaVuSans-6d" transform="translate(405.566406 0)"/>
      <use xlink:href="#DejaVuSans-79" transform="translate(502.978516 0)"/>
     </g>
    </g>
   </g>
  </g>
 </g>
 <defs>
  <clipPath id="p2c6bcf3ecd">
   <rect x="60.5" y="14.76" width="637.63" height="375.28"/>
  </clipPath>
 </defs>
</svg>
