<?xml version="1.0" encoding="utf-8" standalone="no"?>
<!DOCTYPE svg PUBLIC "-//W3C//DTD SVG 1.1//EN"
  "http://www.w3.org/Graphics/SVG/1.1/DTD/svg11.dtd">
<svg xmlns:xlink="http://www.w3.org/1999/xlink" width="720pt" height="432pt" viewBox="0 0 720 432" xmlns="http://www.w3.org/2000/svg" version="1.1">
 <metadata>
  <rdf:RDF xmlns:dc="http://purl.org/dc/elements/1.1/" xmlns:cc="http://creativecommons.org/ns#" xmlns:rdf="http://www.w3.org/1999/02/22-rdf-syntax-ns#">
   <cc:Work>
    <dc:type rdf:resource="http://purl.org/dc/dcmitype/StillImage"/>
    <dc:date>2025-10-13T00:04:47.264962</dc:date>
    <dc:format>image/svg+xml</dc:format>
    <dc:creator>
     <cc:Agent>
      <dc:title>Matplotlib v3.10.7, https://matplotlib.org/</dc:title>
     </cc:Agent>
    </dc:creator>
   </cc:Work>
  </rdf:RDF>
 </metadata>
 <defs>
  <style type="text/css">*{stroke-linejoin: round; stroke-linecap: butt}</style>
 </defs>
 <g id="figure_1">
  <g id="patch_1">
   <path d="M 0 432 
L 720 432 
L 720 0 
L 0 0 
z
" style="fill: #ffffff"/>
  </g>
  <g id="axes_1">
   <g id="patch_2">
    <path d="M 90 384.48 
L 648 384.48 
L 648 51.84 
L 90 51.84 
z
" style="fill: #ffffff"/>
   </g>
   <g id="matplotlib.axis_1">
    <g id="xtick_1">
     <g id="line2d_1">
      <path d="M 90 384.48 
L 90 51.84 
" clip-path="url(#pfa1995d422)" style="fill: none; stroke: #b0b0b0; stroke-width: 0.8; stroke-linecap: square"/>
     </g>
     <g id="line2d_2">
      <defs>
       <path id="ma100b5a421" d="M 0 0 
L 0 3.5 
" style="stroke: #000000; stroke-width: 0.8"/>
      </defs>
      <g>
       <use xlink:href="#ma100b5a421" x="90" y="384.48" style="stroke: #000000; stroke-width: 0.8"/>
      </g>
     </g>
     <g id="text_1">
      <!-- $\mathdefault{10^{0}}$ -->
      <g transform="translate(81.2 399.078438) scale(0.1 -0.1)">
       <defs>
        <path id="DejaVuSans-31" d="M 794 531 
L 1825 531 
L 1825 4091 
L 703 3866 
L 703 4441 
L 1819 4666 
L 2450 4666 
L 2450 531 
L 3481 531 
L 3481 0 
L 794 0 
L 794 531 
z
" transform="scale(0.015625)"/>
        <path id="DejaVuSans-30" d="M 2034 4250 
Q 1547 4250 1301 3770 
Q 1056 3291 1056 2328 
Q 1056 1369 1301 889 
Q 1547 409 2034 409 
Q 2525 409 2770 889 
Q 3016 1369 3016 2328 
Q 3016 3291 2770 3770 
Q 2525 4250 2034 4250 
z
M 2034 4750 
Q 2819 4750 3233 4129 
Q 3647 3509 3647 2328 
Q 3647 1150 3233 529 
Q 2819 -91 2034 -91 
Q 1250 -91 836 529 
Q 422 1150 422 2328 
Q 422 3509 836 4129 
Q 1250 4750 2034 4750 
z
" transform="scale(0.015625)"/>
       </defs>
       <use xlink:href="#DejaVuSans-31" transform="translate(0 0.765625)"/>
       <use xlink:href="#DejaVuSans-30" transform="translate(63.623047 0.765625)"/>
       <use xlink:href="#DejaVuSans-30" transform="translate(128.203125 39.046875) scale(0.7)"/>
      </g>
     </g>
    </g>
    <g id="xtick_2">
     <g id="line2d_3">
      <path d="M 201.6 384.48 
L 201.6 51.84 
" clip-path="url(#pfa1995d422)" style="fill: none; stroke: #b0b0b0; stroke-width: 0.8; stroke-linecap: square"/>
     </g>
     <g id="line2d_4">
      <g>
       <use xlink:href="#ma100b5a421" x="201.6" y="384.48" style="stroke: #000000; stroke-width: 0.8"/>
      </g>
     </g>
     <g id="text_2">
      <!-- $\mathdefault{10^{2}}$ -->
      <g transform="translate(192.8 399.078438) scale(0.1 -0.1)">
       <defs>
        <path id="DejaVuSans-32" d="M 1228 531 
L 3431 531 
L 3431 0 
L 469 0 
L 469 531 
Q 828 903 1448 1529 
Q 2069 2156 2228 2338 
Q 2531 2678 2651 2914 
Q 2772 3150 2772 3378 
Q 2772 3750 2511 3984 
Q 2250 4219 1831 4219 
Q 1534 4219 1204 4116 
Q 875 4013 500 3803 
L 500 4441 
Q 881 4594 1212 4672 
Q 1544 4750 1819 4750 
Q 2544 4750 2975 4387 
Q 3406 4025 3406 3419 
Q 3406 3131 3298 2873 
Q 3191 2616 2906 2266 
Q 2828 2175 2409 1742 
Q 1991 1309 1228 531 
z
" transform="scale(0.015625)"/>
       </defs>
       <use xlink:href="#DejaVuSans-31" transform="translate(0 0.765625)"/>
       <use xlink:href="#DejaVuSans-30" transform="translate(63.623047 0.765625)"/>
       <use xlink:href="#DejaVuSans-32" transform="translate(128.203125 39.046875) scale(0.7)"/>
      </g>
     </g>
    </g>
    <g id="xtick_3">
     <g id="line2d_5">
      <path d="M 313.2 384.48 
L 313.2 51.84 
" clip-path="url(#pfa1995d422)" style="fill: none; stroke: #b0b0b0; stroke-width: 0.8; stroke-linecap: square"/>
     </g>
     <g id="line2d_6">
      <g>
       <use xlink:href="#ma100b5a421" x="313.2" y="384.48" style="stroke: #000000; stroke-width: 0.8"/>
      </g>
     </g>
     <g id="text_3">
      <!-- $\mathdefault{10^{4}}$ -->
      <g transform="translate(304.4 399.078438) scale(0.1 -0.1)">
       <defs>
        <path id="DejaVuSans-34" d="M 2419 4116 
L 825 1625 
L 2419 1625 
L 2419 4116 
z
M 2253 4666 
L 3047 4666 
L 3047 1625 
L 3713 1625 
L 3713 1100 
L 3047 1100 
L 3047 0 
L 2419 0 
L 2419 1100 
L 313 1100 
L 313 1709 
L 2253 4666 
z
" transform="scale(0.015625)"/>
       </defs>
       <use xlink:href="#DejaVuSans-31" transform="translate(0 0.684375)"/>
       <use xlink:href="#DejaVuSans-30" transform="translate(63.623047 0.684375)"/>
       <use xlink:href="#DejaVuSans-34" transform="translate(128.203125 38.965625) scale(0.7)"/>
      </g>
     </g>
    </g>
    <g id="xtick_4">
     <g id="line2d_7">
      <path d="M 424.8 384.48 
L 424.8 51.84 
" clip-path="url(#pfa1995d422)" style="fill: none; stroke: #b0b0b0; stroke-width: 0.8; stroke-linecap: square"/>
     </g>
     <g id="line2d_8">
      <g>
       <use xlink:href="#ma100b5a421" x="424.8" y="384.48" style="stroke: #000000; stroke-width: 0.8"/>
      </g>
     </g>
     <g id="text_4">
      <!-- $\mathdefault{10^{6}}$ -->
      <g transform="translate(416 399.078438) scale(0.1 -0.1)">
       <defs>
        <path id="DejaVuSans-36" d="M 2113 2584 
Q 1688 2584 1439 2293 
Q 1191 2003 1191 1497 
Q 1191 994 1439 701 
Q 1688 409 2113 409 
Q 2538 409 2786 701 
Q 3034 994 3034 1497 
Q 3034 2003 2786 2293 
Q 2538 2584 2113 2584 
z
M 3366 4563 
L 3366 3988 
Q 3128 4100 2886 4159 
Q 2644 4219 2406 4219 
Q 1781 4219 1451 3797 
Q 1122 3375 1075 2522 
Q 1259 2794 1537 2939 
Q 1816 3084 2150 3084 
Q 2853 3084 3261 2657 
Q 3669 2231 3669 1497 
Q 3669 778 3244 343 
Q 2819 -91 2113 -91 
Q 1303 -91 875 529 
Q 447 1150 447 2328 
Q 447 3434 972 4092 
Q 1497 4750 2381 4750 
Q 2619 4750 2861 4703 
Q 3103 4656 3366 4563 
z
" transform="scale(0.015625)"/>
       </defs>
       <use xlink:href="#DejaVuSans-31" transform="translate(0 0.765625)"/>
       <use xlink:href="#DejaVuSans-30" transform="translate(63.623047 0.765625)"/>
       <use xlink:href="#DejaVuSans-36" transform="translate(128.203125 39.046875) scale(0.7)"/>
      </g>
     </g>
    </g>
    <g id="xtick_5">
     <g id="line2d_9">
      <path d="M 536.4 384.48 
L 536.4 51.84 
" clip-path="url(#pfa1995d422)" style="fill: none; stroke: #b0b0b0; stroke-width: 0.8; stroke-linecap: square"/>
     </g>
     <g id="line2d_10">
      <g>
       <use xlink:href="#ma100b5a421" x="536.4" y="384.48" style="stroke: #000000; stroke-width: 0.8"/>
      </g>
     </g>
     <g id="text_5">
      <!-- $\mathdefault{10^{8}}$ -->
      <g transform="translate(527.6 399.078438) scale(0.1 -0.1)">
       <defs>
        <path id="DejaVuSans-38" d="M 2034 2216 
Q 1584 2216 1326 1975 
Q 1069 1734 1069 1313 
Q 1069 891 1326 650 
Q 1584 409 2034 409 
Q 2484 409 2743 651 
Q 3003 894 3003 1313 
Q 3003 1734 2745 1975 
Q 2488 2216 2034 2216 
z
M 1403 2484 
Q 997 2584 770 2862 
Q 544 3141 544 3541 
Q 544 4100 942 4425 
Q 1341 4750 2034 4750 
Q 2731 4750 3128 4425 
Q 3525 4100 3525 3541 
Q 3525 3141 3298 2862 
Q 3072 2584 2669 2484 
Q 3125 2378 3379 2068 
Q 3634 1759 3634 1313 
Q 3634 634 3220 271 
Q 2806 -91 2034 -91 
Q 1263 -91 848 271 
Q 434 634 434 1313 
Q 434 1759 690 2068 
Q 947 2378 1403 2484 
z
M 1172 3481 
Q 1172 3119 1398 2916 
Q 1625 2713 2034 2713 
Q 2441 2713 2670 2916 
Q 2900 3119 2900 3481 
Q 2900 3844 2670 4047 
Q 2441 4250 2034 4250 
Q 1625 4250 1398 4047 
Q 1172 3844 1172 3481 
z
" transform="scale(0.015625)"/>
       </defs>
       <use xlink:href="#DejaVuSans-31" transform="translate(0 0.765625)"/>
       <use xlink:href="#DejaVuSans-30" transform="translate(63.623047 0.765625)"/>
       <use xlink:href="#DejaVuSans-38" transform="translate(128.203125 39.046875) scale(0.7)"/>
      </g>
     </g>
    </g>
    <g id="xtick_6">
     <g id="line2d_11">
      <path d="M 648 384.48 
L 648 51.84 
" clip-path="url(#pfa1995d422)" style="fill: none; stroke: #b0b0b0; stroke-width: 0.8; stroke-linecap: square"/>
     </g>
     <g id="line2d_12">
      <g>
       <use xlink:href="#ma100b5a421" x="648" y="384.48" style="stroke: #000000; stroke-width: 0.8"/>
      </g>
     </g>
     <g id="text_6">
      <!-- $\mathdefault{10^{10}}$ -->
      <g transform="translate(636.95 399.078438) scale(0.1 -0.1)">
       <use xlink:href="#DejaVuSans-31" transform="translate(0 0.765625)"/>
       <use xlink:href="#DejaVuSans-30" transform="translate(63.623047 0.765625)"/>
       <use xlink:href="#DejaVuSans-31" transform="translate(128.203125 39.046875) scale(0.7)"/>
       <use xlink:href="#DejaVuSans-30" transform="translate(172.739258 39.046875) scale(0.7)"/>
      </g>
     </g>
    </g>
    <g id="text_7">
     <!-- Frequency (Hz) -->
     <g transform="translate(331.295313 412.756563) scale(0.1 -0.1)">
      <defs>
       <path id="DejaVuSans-46" d="M 628 4666 
L 3309 4666 
L 3309 4134 
L 1259 4134 
L 1259 2759 
L 3109 2759 
L 3109 2228 
L 1259 2228 
L 1259 0 
L 628 0 
L 628 4666 
z
" transform="scale(0.015625)"/>
       <path id="DejaVuSans-72" d="M 2631 2963 
Q 2534 3019 2420 3045 
Q 2306 3072 2169 3072 
Q 1681 3072 1420 2755 
Q 1159 2438 1159 1844 
L 1159 0 
L 581 0 
L 581 3500 
L 1159 3500 
L 1159 2956 
Q 1341 3275 1631 3429 
Q 1922 3584 2338 3584 
Q 2397 3584 2469 3576 
Q 2541 3569 2628 3553 
L 2631 2963 
z
" transform="scale(0.015625)"/>
       <path id="DejaVuSans-65" d="M 3597 1894 
L 3597 1613 
L 953 1613 
Q 991 1019 1311 708 
Q 1631 397 2203 397 
Q 2534 397 2845 478 
Q 3156 559 3463 722 
L 3463 178 
Q 3153 47 2828 -22 
Q 2503 -91 2169 -91 
Q 1331 -91 842 396 
Q 353 884 353 1716 
Q 353 2575 817 3079 
Q 1281 3584 2069 3584 
Q 2775 3584 3186 3129 
Q 3597 2675 3597 1894 
z
M 3022 2063 
Q 3016 2534 2758 2815 
Q 2500 3097 2075 3097 
Q 1594 3097 1305 2825 
Q 1016 2553 972 2059 
L 3022 2063 
z
" transform="scale(0.015625)"/>
       <path id="DejaVuSans-71" d="M 947 1747 
Q 947 1113 1208 752 
Q 1469 391 1925 391 
Q 2381 391 2643 752 
Q 2906 1113 2906 1747 
Q 2906 2381 2643 2742 
Q 2381 3103 1925 3103 
Q 1469 3103 1208 2742 
Q 947 2381 947 1747 
z
M 2906 525 
Q 2725 213 2448 61 
Q 2172 -91 1784 -91 
Q 1150 -91 751 415 
Q 353 922 353 1747 
Q 353 2572 751 3078 
Q 1150 3584 1784 3584 
Q 2172 3584 2448 3432 
Q 2725 3281 2906 2969 
L 2906 3500 
L 3481 3500 
L 3481 -1331 
L 2906 -1331 
L 2906 525 
z
" transform="scale(0.015625)"/>
       <path id="DejaVuSans-75" d="M 544 1381 
L 544 3500 
L 1119 3500 
L 1119 1403 
Q 1119 906 1312 657 
Q 1506 409 1894 409 
Q 2359 409 2629 706 
Q 2900 1003 2900 1516 
L 2900 3500 
L 3475 3500 
L 3475 0 
L 2900 0 
L 2900 538 
Q 2691 219 2414 64 
Q 2138 -91 1772 -91 
Q 1169 -91 856 284 
Q 544 659 544 1381 
z
M 1991 3584 
L 1991 3584 
z
" transform="scale(0.015625)"/>
       <path id="DejaVuSans-6e" d="M 3513 2113 
L 3513 0 
L 2938 0 
L 2938 2094 
Q 2938 2591 2744 2837 
Q 2550 3084 2163 3084 
Q 1697 3084 1428 2787 
Q 1159 2491 1159 1978 
L 1159 0 
L 581 0 
L 581 3500 
L 1159 3500 
L 1159 2956 
Q 1366 3272 1645 3428 
Q 1925 3584 2291 3584 
Q 2894 3584 3203 3211 
Q 3513 2838 3513 2113 
z
" transform="scale(0.015625)"/>
       <path id="DejaVuSans-63" d="M 3122 3366 
L 3122 2828 
Q 2878 2963 2633 3030 
Q 2388 3097 2138 3097 
Q 1578 3097 1268 2742 
Q 959 2388 959 1747 
Q 959 1106 1268 751 
Q 1578 397 2138 397 
Q 2388 397 2633 464 
Q 2878 531 3122 666 
L 3122 134 
Q 2881 22 2623 -34 
Q 2366 -91 2075 -91 
Q 1284 -91 818 406 
Q 353 903 353 1747 
Q 353 2603 823 3093 
Q 1294 3584 2113 3584 
Q 2378 3584 2631 3529 
Q 2884 3475 3122 3366 
z
" transform="scale(0.015625)"/>
       <path id="DejaVuSans-79" d="M 2059 -325 
Q 1816 -950 1584 -1140 
Q 1353 -1331 966 -1331 
L 506 -1331 
L 506 -850 
L 844 -850 
Q 1081 -850 1212 -737 
Q 1344 -625 1503 -206 
L 1606 56 
L 191 3500 
L 800 3500 
L 1894 763 
L 2988 3500 
L 3597 3500 
L 2059 -325 
z
" transform="scale(0.015625)"/>
       <path id="DejaVuSans-20" transform="scale(0.015625)"/>
       <path id="DejaVuSans-28" d="M 1984 4856 
Q 1566 4138 1362 3434 
Q 1159 2731 1159 2009 
Q 1159 1288 1364 580 
Q 1569 -128 1984 -844 
L 1484 -844 
Q 1016 -109 783 600 
Q 550 1309 550 2009 
Q 550 2706 781 3412 
Q 1013 4119 1484 4856 
L 1984 4856 
z
" transform="scale(0.015625)"/>
       <path id="DejaVuSans-48" d="M 628 4666 
L 1259 4666 
L 1259 2753 
L 3553 2753 
L 3553 4666 
L 4184 4666 
L 4184 0 
L 3553 0 
L 3553 2222 
L 1259 2222 
L 1259 0 
L 628 0 
L 628 4666 
z
" transform="scale(0.015625)"/>
       <path id="DejaVuSans-7a" d="M 353 3500 
L 3084 3500 
L 3084 2975 
L 922 459 
L 3084 459 
L 3084 0 
L 275 0 
L 275 525 
L 2438 3041 
L 353 3041 
L 353 3500 
z
" transform="scale(0.015625)"/>
       <path id="DejaVuSans-29" d="M 513 4856 
L 1013 4856 
Q 1481 4119 1714 3412 
Q 1947 2706 1947 2009 
Q 1947 1309 1714 600 
Q 1481 -109 1013 -844 
L 513 -844 
Q 928 -128 1133 580 
Q 1338 1288 1338 2009 
Q 1338 2731 1133 3434 
Q 928 4138 513 4856 
z
" transform="scale(0.015625)"/>
      </defs>
      <use xlink:href="#DejaVuSans-46"/>
      <use xlink:href="#DejaVuSans-72" transform="translate(50.269531 0)"/>
      <use xlink:href="#DejaVuSans-65" transform="translate(89.132812 0)"/>
      <use xlink:href="#DejaVuSans-71" transform="translate(150.65625 0)"/>
      <use xlink:href="#DejaVuSans-75" transform="translate(214.132812 0)"/>
      <use xlink:href="#DejaVuSans-65" transform="translate(277.511719 0)"/>
      <use xlink:href="#DejaVuSans-6e" transform="translate(339.035156 0)"/>
      <use xlink:href="#DejaVuSans-63" transform="translate(402.414062 0)"/>
      <use xlink:href="#DejaVuSans-79" transform="translate(457.394531 0)"/>
      <use xlink:href="#DejaVuSans-20" transform="translate(516.574219 0)"/>
      <use xlink:href="#DejaVuSans-28" transform="translate(548.361328 0)"/>
      <use xlink:href="#DejaVuSans-48" transform="translate(587.375 0)"/>
      <use xlink:href="#DejaVuSans-7a" transform="translate(662.570312 0)"/>
      <use xlink:href="#DejaVuSans-29" transform="translate(715.060547 0)"/>
     </g>
    </g>
   </g>
   <g id="matplotlib.axis_2">
    <g id="ytick_1">
     <g id="line2d_13">
      <path d="M 90 372.707989 
L 648 372.707989 
" clip-path="url(#pfa1995d422)" style="fill: none; stroke: #b0b0b0; stroke-width: 0.8; stroke-linecap: square"/>
     </g>
     <g id="line2d_14">
      <defs>
       <path id="me276251a90" d="M 0 0 
L -3.5 0 
" style="stroke: #000000; stroke-width: 0.8"/>
      </defs>
      <g>
       <use xlink:href="#me276251a90" x="90" y="372.707989" style="stroke: #000000; stroke-width: 0.8"/>
      </g>
     </g>
     <g id="text_8">
      <!-- $\mathdefault{10^{-1}}$ -->
      <g transform="translate(59.5 376.507208) scale(0.1 -0.1)">
       <defs>
        <path id="DejaVuSans-2212" d="M 678 2272 
L 4684 2272 
L 4684 1741 
L 678 1741 
L 678 2272 
z
" transform="scale(0.015625)"/>
       </defs>
       <use xlink:href="#DejaVuSans-31" transform="translate(0 0.684375)"/>
       <use xlink:href="#DejaVuSans-30" transform="translate(63.623047 0.684375)"/>
       <use xlink:href="#DejaVuSans-2212" transform="translate(128.203125 38.965625) scale(0.7)"/>
       <use xlink:href="#DejaVuSans-31" transform="translate(186.855469 38.965625) scale(0.7)"/>
      </g>
     </g>
    </g>
    <g id="ytick_2">
     <g id="line2d_15">
      <path d="M 90 316.539266 
L 648 316.539266 
" clip-path="url(#pfa1995d422)" style="fill: none; stroke: #b0b0b0; stroke-width: 0.8; stroke-linecap: square"/>
     </g>
     <g id="line2d_16">
      <g>
       <use xlink:href="#me276251a90" x="90" y="316.539266" style="stroke: #000000; stroke-width: 0.8"/>
      </g>
     </g>
     <g id="text_9">
      <!-- $\mathdefault{10^{0}}$ -->
      <g transform="translate(65.4 320.338484) scale(0.1 -0.1)">
       <use xlink:href="#DejaVuSans-31" transform="translate(0 0.765625)"/>
       <use xlink:href="#DejaVuSans-30" transform="translate(63.623047 0.765625)"/>
       <use xlink:href="#DejaVuSans-30" transform="translate(128.203125 39.046875) scale(0.7)"/>
      </g>
     </g>
    </g>
    <g id="ytick_3">
     <g id="line2d_17">
      <path d="M 90 260.370542 
L 648 260.370542 
" clip-path="url(#pfa1995d422)" style="fill: none; stroke: #b0b0b0; stroke-width: 0.8; stroke-linecap: square"/>
     </g>
     <g id="line2d_18">
      <g>
       <use xlink:href="#me276251a90" x="90" y="260.370542" style="stroke: #000000; stroke-width: 0.8"/>
      </g>
     </g>
     <g id="text_10">
      <!-- $\mathdefault{10^{1}}$ -->
      <g transform="translate(65.4 264.169761) scale(0.1 -0.1)">
       <use xlink:href="#DejaVuSans-31" transform="translate(0 0.684375)"/>
       <use xlink:href="#DejaVuSans-30" transform="translate(63.623047 0.684375)"/>
       <use xlink:href="#DejaVuSans-31" transform="translate(128.203125 38.965625) scale(0.7)"/>
      </g>
     </g>
    </g>
    <g id="ytick_4">
     <g id="line2d_19">
      <path d="M 90 204.201819 
L 648 204.201819 
" clip-path="url(#pfa1995d422)" style="fill: none; stroke: #b0b0b0; stroke-width: 0.8; stroke-linecap: square"/>
     </g>
     <g id="line2d_20">
      <g>
       <use xlink:href="#me276251a90" x="90" y="204.201819" style="stroke: #000000; stroke-width: 0.8"/>
      </g>
     </g>
     <g id="text_11">
      <!-- $\mathdefault{10^{2}}$ -->
      <g transform="translate(65.4 208.001038) scale(0.1 -0.1)">
       <use xlink:href="#DejaVuSans-31" transform="translate(0 0.765625)"/>
       <use xlink:href="#DejaVuSans-30" transform="translate(63.623047 0.765625)"/>
       <use xlink:href="#DejaVuSans-32" transform="translate(128.203125 39.046875) scale(0.7)"/>
      </g>
     </g>
    </g>
    <g id="ytick_5">
     <g id="line2d_21">
      <path d="M 90 148.033095 
L 648 148.033095 
" clip-path="url(#pfa1995d422)" style="fill: none; stroke: #b0b0b0; stroke-width: 0.8; stroke-linecap: square"/>
     </g>
     <g id="line2d_22">
      <g>
       <use xlink:href="#me276251a90" x="90" y="148.033095" style="stroke: #000000; stroke-width: 0.8"/>
      </g>
     </g>
     <g id="text_12">
      <!-- $\mathdefault{10^{3}}$ -->
      <g transform="translate(65.4 151.832314) scale(0.1 -0.1)">
       <defs>
        <path id="DejaVuSans-33" d="M 2597 2516 
Q 3050 2419 3304 2112 
Q 3559 1806 3559 1356 
Q 3559 666 3084 287 
Q 2609 -91 1734 -91 
Q 1441 -91 1130 -33 
Q 819 25 488 141 
L 488 750 
Q 750 597 1062 519 
Q 1375 441 1716 441 
Q 2309 441 2620 675 
Q 2931 909 2931 1356 
Q 2931 1769 2642 2001 
Q 2353 2234 1838 2234 
L 1294 2234 
L 1294 2753 
L 1863 2753 
Q 2328 2753 2575 2939 
Q 2822 3125 2822 3475 
Q 2822 3834 2567 4026 
Q 2313 4219 1838 4219 
Q 1578 4219 1281 4162 
Q 984 4106 628 3988 
L 628 4550 
Q 988 4650 1302 4700 
Q 1616 4750 1894 4750 
Q 2613 4750 3031 4423 
Q 3450 4097 3450 3541 
Q 3450 3153 3228 2886 
Q 3006 2619 2597 2516 
z
" transform="scale(0.015625)"/>
       </defs>
       <use xlink:href="#DejaVuSans-31" transform="translate(0 0.765625)"/>
       <use xlink:href="#DejaVuSans-30" transform="translate(63.623047 0.765625)"/>
       <use xlink:href="#DejaVuSans-33" transform="translate(128.203125 39.046875) scale(0.7)"/>
      </g>
     </g>
    </g>
    <g id="ytick_6">
     <g id="line2d_23">
      <path d="M 90 91.864372 
L 648 91.864372 
" clip-path="url(#pfa1995d422)" style="fill: none; stroke: #b0b0b0; stroke-width: 0.8; stroke-linecap: square"/>
     </g>
     <g id="line2d_24">
      <g>
       <use xlink:href="#me276251a90" x="90" y="91.864372" style="stroke: #000000; stroke-width: 0.8"/>
      </g>
     </g>
     <g id="text_13">
      <!-- $\mathdefault{10^{4}}$ -->
      <g transform="translate(65.4 95.663591) scale(0.1 -0.1)">
       <use xlink:href="#DejaVuSans-31" transform="translate(0 0.684375)"/>
       <use xlink:href="#DejaVuSans-30" transform="translate(63.623047 0.684375)"/>
       <use xlink:href="#DejaVuSans-34" transform="translate(128.203125 38.965625) scale(0.7)"/>
      </g>
     </g>
    </g>
    <g id="ytick_7">
     <g id="line2d_25">
      <defs>
       <path id="m4cfa873aef" d="M 0 0 
L -2 0 
" style="stroke: #000000; stroke-width: 0.6"/>
      </defs>
      <g>
       <use xlink:href="#m4cfa873aef" x="90" y="381.408635" style="stroke: #000000; stroke-width: 0.6"/>
      </g>
     </g>
    </g>
    <g id="ytick_8">
     <g id="line2d_26">
      <g>
       <use xlink:href="#m4cfa873aef" x="90" y="378.151301" style="stroke: #000000; stroke-width: 0.6"/>
      </g>
     </g>
    </g>
    <g id="ytick_9">
     <g id="line2d_27">
      <g>
       <use xlink:href="#m4cfa873aef" x="90" y="375.278129" style="stroke: #000000; stroke-width: 0.6"/>
      </g>
     </g>
    </g>
    <g id="ytick_10">
     <g id="line2d_28">
      <g>
       <use xlink:href="#m4cfa873aef" x="90" y="355.799519" style="stroke: #000000; stroke-width: 0.6"/>
      </g>
     </g>
    </g>
    <g id="ytick_11">
     <g id="line2d_29">
      <g>
       <use xlink:href="#m4cfa873aef" x="90" y="345.908697" style="stroke: #000000; stroke-width: 0.6"/>
      </g>
     </g>
    </g>
    <g id="ytick_12">
     <g id="line2d_30">
      <g>
       <use xlink:href="#m4cfa873aef" x="90" y="338.891048" style="stroke: #000000; stroke-width: 0.6"/>
      </g>
     </g>
    </g>
    <g id="ytick_13">
     <g id="line2d_31">
      <g>
       <use xlink:href="#m4cfa873aef" x="90" y="333.447736" style="stroke: #000000; stroke-width: 0.6"/>
      </g>
     </g>
    </g>
    <g id="ytick_14">
     <g id="line2d_32">
      <g>
       <use xlink:href="#m4cfa873aef" x="90" y="329.000227" style="stroke: #000000; stroke-width: 0.6"/>
      </g>
     </g>
    </g>
    <g id="ytick_15">
     <g id="line2d_33">
      <g>
       <use xlink:href="#m4cfa873aef" x="90" y="325.239911" style="stroke: #000000; stroke-width: 0.6"/>
      </g>
     </g>
    </g>
    <g id="ytick_16">
     <g id="line2d_34">
      <g>
       <use xlink:href="#m4cfa873aef" x="90" y="321.982577" style="stroke: #000000; stroke-width: 0.6"/>
      </g>
     </g>
    </g>
    <g id="ytick_17">
     <g id="line2d_35">
      <g>
       <use xlink:href="#m4cfa873aef" x="90" y="319.109406" style="stroke: #000000; stroke-width: 0.6"/>
      </g>
     </g>
    </g>
    <g id="ytick_18">
     <g id="line2d_36">
      <g>
       <use xlink:href="#m4cfa873aef" x="90" y="299.630795" style="stroke: #000000; stroke-width: 0.6"/>
      </g>
     </g>
    </g>
    <g id="ytick_19">
     <g id="line2d_37">
      <g>
       <use xlink:href="#m4cfa873aef" x="90" y="289.739974" style="stroke: #000000; stroke-width: 0.6"/>
      </g>
     </g>
    </g>
    <g id="ytick_20">
     <g id="line2d_38">
      <g>
       <use xlink:href="#m4cfa873aef" x="90" y="282.722325" style="stroke: #000000; stroke-width: 0.6"/>
      </g>
     </g>
    </g>
    <g id="ytick_21">
     <g id="line2d_39">
      <g>
       <use xlink:href="#m4cfa873aef" x="90" y="277.279013" style="stroke: #000000; stroke-width: 0.6"/>
      </g>
     </g>
    </g>
    <g id="ytick_22">
     <g id="line2d_40">
      <g>
       <use xlink:href="#m4cfa873aef" x="90" y="272.831503" style="stroke: #000000; stroke-width: 0.6"/>
      </g>
     </g>
    </g>
    <g id="ytick_23">
     <g id="line2d_41">
      <g>
       <use xlink:href="#m4cfa873aef" x="90" y="269.071188" style="stroke: #000000; stroke-width: 0.6"/>
      </g>
     </g>
    </g>
    <g id="ytick_24">
     <g id="line2d_42">
      <g>
       <use xlink:href="#m4cfa873aef" x="90" y="265.813854" style="stroke: #000000; stroke-width: 0.6"/>
      </g>
     </g>
    </g>
    <g id="ytick_25">
     <g id="line2d_43">
      <g>
       <use xlink:href="#m4cfa873aef" x="90" y="262.940682" style="stroke: #000000; stroke-width: 0.6"/>
      </g>
     </g>
    </g>
    <g id="ytick_26">
     <g id="line2d_44">
      <g>
       <use xlink:href="#m4cfa873aef" x="90" y="243.462072" style="stroke: #000000; stroke-width: 0.6"/>
      </g>
     </g>
    </g>
    <g id="ytick_27">
     <g id="line2d_45">
      <g>
       <use xlink:href="#m4cfa873aef" x="90" y="233.57125" style="stroke: #000000; stroke-width: 0.6"/>
      </g>
     </g>
    </g>
    <g id="ytick_28">
     <g id="line2d_46">
      <g>
       <use xlink:href="#m4cfa873aef" x="90" y="226.553601" style="stroke: #000000; stroke-width: 0.6"/>
      </g>
     </g>
    </g>
    <g id="ytick_29">
     <g id="line2d_47">
      <g>
       <use xlink:href="#m4cfa873aef" x="90" y="221.110289" style="stroke: #000000; stroke-width: 0.6"/>
      </g>
     </g>
    </g>
    <g id="ytick_30">
     <g id="line2d_48">
      <g>
       <use xlink:href="#m4cfa873aef" x="90" y="216.66278" style="stroke: #000000; stroke-width: 0.6"/>
      </g>
     </g>
    </g>
    <g id="ytick_31">
     <g id="line2d_49">
      <g>
       <use xlink:href="#m4cfa873aef" x="90" y="212.902464" style="stroke: #000000; stroke-width: 0.6"/>
      </g>
     </g>
    </g>
    <g id="ytick_32">
     <g id="line2d_50">
      <g>
       <use xlink:href="#m4cfa873aef" x="90" y="209.645131" style="stroke: #000000; stroke-width: 0.6"/>
      </g>
     </g>
    </g>
    <g id="ytick_33">
     <g id="line2d_51">
      <g>
       <use xlink:href="#m4cfa873aef" x="90" y="206.771959" style="stroke: #000000; stroke-width: 0.6"/>
      </g>
     </g>
    </g>
    <g id="ytick_34">
     <g id="line2d_52">
      <g>
       <use xlink:href="#m4cfa873aef" x="90" y="187.293348" style="stroke: #000000; stroke-width: 0.6"/>
      </g>
     </g>
    </g>
    <g id="ytick_35">
     <g id="line2d_53">
      <g>
       <use xlink:href="#m4cfa873aef" x="90" y="177.402527" style="stroke: #000000; stroke-width: 0.6"/>
      </g>
     </g>
    </g>
    <g id="ytick_36">
     <g id="line2d_54">
      <g>
       <use xlink:href="#m4cfa873aef" x="90" y="170.384878" style="stroke: #000000; stroke-width: 0.6"/>
      </g>
     </g>
    </g>
    <g id="ytick_37">
     <g id="line2d_55">
      <g>
       <use xlink:href="#m4cfa873aef" x="90" y="164.941566" style="stroke: #000000; stroke-width: 0.6"/>
      </g>
     </g>
    </g>
    <g id="ytick_38">
     <g id="line2d_56">
      <g>
       <use xlink:href="#m4cfa873aef" x="90" y="160.494056" style="stroke: #000000; stroke-width: 0.6"/>
      </g>
     </g>
    </g>
    <g id="ytick_39">
     <g id="line2d_57">
      <g>
       <use xlink:href="#m4cfa873aef" x="90" y="156.733741" style="stroke: #000000; stroke-width: 0.6"/>
      </g>
     </g>
    </g>
    <g id="ytick_40">
     <g id="line2d_58">
      <g>
       <use xlink:href="#m4cfa873aef" x="90" y="153.476407" style="stroke: #000000; stroke-width: 0.6"/>
      </g>
     </g>
    </g>
    <g id="ytick_41">
     <g id="line2d_59">
      <g>
       <use xlink:href="#m4cfa873aef" x="90" y="150.603235" style="stroke: #000000; stroke-width: 0.6"/>
      </g>
     </g>
    </g>
    <g id="ytick_42">
     <g id="line2d_60">
      <g>
       <use xlink:href="#m4cfa873aef" x="90" y="131.124625" style="stroke: #000000; stroke-width: 0.6"/>
      </g>
     </g>
    </g>
    <g id="ytick_43">
     <g id="line2d_61">
      <g>
       <use xlink:href="#m4cfa873aef" x="90" y="121.233804" style="stroke: #000000; stroke-width: 0.6"/>
      </g>
     </g>
    </g>
    <g id="ytick_44">
     <g id="line2d_62">
      <g>
       <use xlink:href="#m4cfa873aef" x="90" y="114.216154" style="stroke: #000000; stroke-width: 0.6"/>
      </g>
     </g>
    </g>
    <g id="ytick_45">
     <g id="line2d_63">
      <g>
       <use xlink:href="#m4cfa873aef" x="90" y="108.772843" style="stroke: #000000; stroke-width: 0.6"/>
      </g>
     </g>
    </g>
    <g id="ytick_46">
     <g id="line2d_64">
      <g>
       <use xlink:href="#m4cfa873aef" x="90" y="104.325333" style="stroke: #000000; stroke-width: 0.6"/>
      </g>
     </g>
    </g>
    <g id="ytick_47">
     <g id="line2d_65">
      <g>
       <use xlink:href="#m4cfa873aef" x="90" y="100.565017" style="stroke: #000000; stroke-width: 0.6"/>
      </g>
     </g>
    </g>
    <g id="ytick_48">
     <g id="line2d_66">
      <g>
       <use xlink:href="#m4cfa873aef" x="90" y="97.307684" style="stroke: #000000; stroke-width: 0.6"/>
      </g>
     </g>
    </g>
    <g id="ytick_49">
     <g id="line2d_67">
      <g>
       <use xlink:href="#m4cfa873aef" x="90" y="94.434512" style="stroke: #000000; stroke-width: 0.6"/>
      </g>
     </g>
    </g>
    <g id="ytick_50">
     <g id="line2d_68">
      <g>
       <use xlink:href="#m4cfa873aef" x="90" y="74.955901" style="stroke: #000000; stroke-width: 0.6"/>
      </g>
     </g>
    </g>
    <g id="ytick_51">
     <g id="line2d_69">
      <g>
       <use xlink:href="#m4cfa873aef" x="90" y="65.06508" style="stroke: #000000; stroke-width: 0.6"/>
      </g>
     </g>
    </g>
    <g id="ytick_52">
     <g id="line2d_70">
      <g>
       <use xlink:href="#m4cfa873aef" x="90" y="58.047431" style="stroke: #000000; stroke-width: 0.6"/>
      </g>
     </g>
    </g>
    <g id="ytick_53">
     <g id="line2d_71">
      <g>
       <use xlink:href="#m4cfa873aef" x="90" y="52.604119" style="stroke: #000000; stroke-width: 0.6"/>
      </g>
     </g>
    </g>
    <g id="text_14">
     <!-- Z (Ohm) -->
     <g transform="translate(53.420312 239.050625) rotate(-90) scale(0.1 -0.1)">
      <defs>
       <path id="DejaVuSans-5a" d="M 359 4666 
L 4025 4666 
L 4025 4184 
L 1075 531 
L 4097 531 
L 4097 0 
L 288 0 
L 288 481 
L 3238 4134 
L 359 4134 
L 359 4666 
z
" transform="scale(0.015625)"/>
       <path id="DejaVuSans-4f" d="M 2522 4238 
Q 1834 4238 1429 3725 
Q 1025 3213 1025 2328 
Q 1025 1447 1429 934 
Q 1834 422 2522 422 
Q 3209 422 3611 934 
Q 4013 1447 4013 2328 
Q 4013 3213 3611 3725 
Q 3209 4238 2522 4238 
z
M 2522 4750 
Q 3503 4750 4090 4092 
Q 4678 3434 4678 2328 
Q 4678 1225 4090 567 
Q 3503 -91 2522 -91 
Q 1538 -91 948 565 
Q 359 1222 359 2328 
Q 359 3434 948 4092 
Q 1538 4750 2522 4750 
z
" transform="scale(0.015625)"/>
       <path id="DejaVuSans-68" d="M 3513 2113 
L 3513 0 
L 2938 0 
L 2938 2094 
Q 2938 2591 2744 2837 
Q 2550 3084 2163 3084 
Q 1697 3084 1428 2787 
Q 1159 2491 1159 1978 
L 1159 0 
L 581 0 
L 581 4863 
L 1159 4863 
L 1159 2956 
Q 1366 3272 1645 3428 
Q 1925 3584 2291 3584 
Q 2894 3584 3203 3211 
Q 3513 2838 3513 2113 
z
" transform="scale(0.015625)"/>
       <path id="DejaVuSans-6d" d="M 3328 2828 
Q 3544 3216 3844 3400 
Q 4144 3584 4550 3584 
Q 5097 3584 5394 3201 
Q 5691 2819 5691 2113 
L 5691 0 
L 5113 0 
L 5113 2094 
Q 5113 2597 4934 2840 
Q 4756 3084 4391 3084 
Q 3944 3084 3684 2787 
Q 3425 2491 3425 1978 
L 3425 0 
L 2847 0 
L 2847 2094 
Q 2847 2600 2669 2842 
Q 2491 3084 2119 3084 
Q 1678 3084 1418 2786 
Q 1159 2488 1159 1978 
L 1159 0 
L 581 0 
L 581 3500 
L 1159 3500 
L 1159 2956 
Q 1356 3278 1631 3431 
Q 1906 3584 2284 3584 
Q 2666 3584 2933 3390 
Q 3200 3197 3328 2828 
z
" transform="scale(0.015625)"/>
      </defs>
      <use xlink:href="#DejaVuSans-5a"/>
      <use xlink:href="#DejaVuSans-20" transform="translate(68.505859 0)"/>
      <use xlink:href="#DejaVuSans-28" transform="translate(100.292969 0)"/>
      <use xlink:href="#DejaVuSans-4f" transform="translate(139.306641 0)"/>
      <use xlink:href="#DejaVuSans-68" transform="translate(218.017578 0)"/>
      <use xlink:href="#DejaVuSans-6d" transform="translate(281.396484 0)"/>
      <use xlink:href="#DejaVuSans-29" transform="translate(378.808594 0)"/>
     </g>
    </g>
   </g>
   <g id="line2d_72">
    <path d="M 90 255.352297 
L 101.16 255.352297 
L 112.32 255.352297 
L 123.48 255.352297 
L 134.64 255.352297 
L 145.8 255.352297 
L 156.96 255.352297 
L 168.12 255.352297 
L 179.28 255.352297 
L 190.44 255.352297 
L 201.6 255.352297 
L 212.76 255.352295 
L 223.92 255.352292 
L 235.08 255.352284 
L 246.24 255.352264 
L 257.4 255.352214 
L 268.56 255.352089 
L 279.72 255.351773 
L 290.88 255.350981 
L 302.04 255.348991 
L 313.2 255.343993 
L 324.36 255.331448 
L 335.52 255.299993 
L 346.68 255.221338 
L 357.84 255.025974 
L 369 254.548616 
L 380.16 253.425994 
L 391.32 250.991861 
L 402.48 246.422609 
L 413.64 239.356514 
L 424.8 230.280631 
L 435.96 220.024385 
L 447.12 209.201635 
L 458.28 198.132923 
L 469.44 186.960204 
L 480.6 175.74418 
L 491.76 164.542013 
L 502.92 153.62313 
L 514.08 144.38426 
L 525.24 140.37499 
L 536.4 141.573082 
L 547.56 142.878477 
L 558.72 142.743232 
L 569.88 142.477284 
L 581.04 143.736753 
L 592.2 147.765645 
L 603.36 154.741725 
L 614.52 163.861312 
L 625.68 174.158859 
L 636.84 185.002163 
L 648 196.077444 
" clip-path="url(#pfa1995d422)" style="fill: none; stroke: #0000ff; stroke-width: 1.5; stroke-linecap: square"/>
   </g>
   <g id="line2d_73">
    <path d="M 90 192.521415 
L 101.16 192.521415 
L 112.32 192.521415 
L 123.48 192.521415 
L 134.64 192.521415 
L 145.8 192.521415 
L 156.96 192.521415 
L 168.12 192.521415 
L 179.28 192.521415 
L 190.44 192.521414 
L 201.6 192.521414 
L 212.76 192.521413 
L 223.92 192.52141 
L 235.08 192.521402 
L 246.24 192.521383 
L 257.4 192.521334 
L 268.56 192.521213 
L 279.72 192.520907 
L 290.88 192.52014 
L 302.04 192.518213 
L 313.2 192.513375 
L 324.36 192.501229 
L 335.52 192.470774 
L 346.68 192.394607 
L 357.84 192.205358 
L 369 191.742546 
L 380.16 190.652029 
L 391.32 188.278358 
L 402.48 183.795096 
L 413.64 176.812592 
L 424.8 167.79234 
L 435.96 157.56323 
L 447.12 146.748446 
L 458.28 135.67255 
L 469.44 124.47093 
L 480.6 113.181664 
L 491.76 101.821315 
L 502.92 90.704608 
L 514.08 82.205403 
L 525.24 82.442753 
L 536.4 90.155316 
L 547.56 99.309238 
L 558.72 108.675061 
L 569.88 118.498175 
L 581.04 128.823951 
L 592.2 139.566181 
L 603.36 150.574158 
L 614.52 161.714558 
L 625.68 172.911327 
L 636.84 184.130514 
L 648 195.358503 
" clip-path="url(#pfa1995d422)" style="fill: none; stroke: #0000ff; stroke-width: 1.5; stroke-linecap: square"/>
   </g>
   <g id="line2d_74">
    <path d="M 90 260.731304 
L 101.16 260.731304 
L 112.32 260.731304 
L 123.48 260.731304 
L 134.64 260.731304 
L 145.8 260.731304 
L 156.96 260.731304 
L 168.12 260.731304 
L 179.28 260.731304 
L 190.44 260.731304 
L 201.6 260.731304 
L 212.76 260.731302 
L 223.92 260.731299 
L 235.08 260.731291 
L 246.24 260.731271 
L 257.4 260.731221 
L 268.56 260.731095 
L 279.72 260.730779 
L 290.88 260.729985 
L 302.04 260.727991 
L 313.2 260.722984 
L 324.36 260.710415 
L 335.52 260.678899 
L 346.68 260.600094 
L 357.84 260.404361 
L 369 259.926125 
L 380.16 258.80157 
L 391.32 256.363808 
L 402.48 251.789427 
L 413.64 244.71837 
L 424.8 235.63917 
L 435.96 225.381216 
L 447.12 214.557704 
L 458.28 203.488672 
L 469.44 192.315821 
L 480.6 181.099754 
L 491.76 169.897675 
L 502.92 158.979349 
L 514.08 149.740734 
L 525.24 145.716535 
L 536.4 146.864146 
L 547.56 148.089312 
L 558.72 147.807621 
L 569.88 147.196929 
L 581.04 147.722636 
L 592.2 150.611515 
L 603.36 156.411915 
L 614.52 164.710164 
L 625.68 174.573513 
L 636.84 185.220468 
L 648 196.213279 
" clip-path="url(#pfa1995d422)" style="fill: none; stroke: #0000ff; stroke-width: 1.5; stroke-linecap: square"/>
   </g>
   <g id="line2d_75">
    <path d="M 90 350.119494 
L 101.16 350.119494 
L 112.32 350.119494 
L 123.48 350.119494 
L 134.64 350.119494 
L 145.8 350.119494 
L 156.96 350.119494 
L 168.12 350.119494 
L 179.28 350.119494 
L 190.44 350.119493 
L 201.6 350.119493 
L 212.76 350.119492 
L 223.92 350.119489 
L 235.08 350.119481 
L 246.24 350.119461 
L 257.4 350.119412 
L 268.56 350.119288 
L 279.72 350.118978 
L 290.88 350.118197 
L 302.04 350.116238 
L 313.2 350.111317 
L 324.36 350.098964 
L 335.52 350.067991 
L 346.68 349.990535 
L 357.84 349.798117 
L 369 349.327764 
L 380.16 348.220586 
L 391.32 345.81548 
L 402.48 341.28737 
L 413.64 334.261084 
L 424.8 325.211497 
L 435.96 314.967727 
L 447.12 304.147736 
L 458.28 293.073055 
L 469.44 281.880177 
L 480.6 270.613023 
L 491.76 259.292321 
L 502.92 248.139991 
L 514.08 238.614932 
L 525.24 234.373748 
L 536.4 234.85282 
L 547.56 235.186877 
L 558.72 234.222893 
L 569.88 232.78523 
L 581.04 231.577305 
L 592.2 230.856174 
L 603.36 230.524041 
L 614.52 230.413488 
L 625.68 230.439962 
L 636.84 230.624588 
L 648 231.120668 
" clip-path="url(#pfa1995d422)" style="fill: none; stroke: #0000ff; stroke-width: 1.5; stroke-linecap: square"/>
   </g>
   <g id="line2d_76">
    <path d="M 90 171.399361 
L 101.16 171.399361 
L 112.32 171.399361 
L 123.48 171.399361 
L 134.64 171.399361 
L 145.8 171.399361 
L 156.96 171.399361 
L 168.12 171.399361 
L 179.28 171.399361 
L 190.44 171.399361 
L 201.6 171.39936 
L 212.76 171.399359 
L 223.92 171.399356 
L 235.08 171.399348 
L 246.24 171.399329 
L 257.4 171.399282 
L 268.56 171.399162 
L 279.72 171.398861 
L 290.88 171.398106 
L 302.04 171.396209 
L 313.2 171.391445 
L 324.36 171.379486 
L 335.52 171.3495 
L 346.68 171.2745 
L 357.84 171.088118 
L 369 170.632137 
L 380.16 169.556741 
L 391.32 167.211712 
L 402.48 162.769571 
L 413.64 155.827544 
L 424.8 146.834729 
L 435.96 136.619822 
L 447.12 125.811341 
L 458.28 114.738304 
L 469.44 103.540831 
L 480.6 92.276421 
L 491.76 81.086692 
L 502.92 71.059419 
L 514.08 67.195648 
L 525.24 74.081729 
L 536.4 85.626324 
L 547.56 97.107596 
L 558.72 107.763425 
L 569.88 118.12201 
L 581.04 128.623295 
L 592.2 139.41458 
L 603.36 150.435841 
L 614.52 161.580226 
L 625.68 172.778364 
L 636.84 183.998062 
L 648 195.22625 
" clip-path="url(#pfa1995d422)" style="fill: none; stroke: #0000ff; stroke-width: 1.5; stroke-linecap: square"/>
   </g>
   <g id="line2d_77">
    <path d="M 90 180.80722 
L 101.16 180.80722 
L 112.32 180.80722 
L 123.48 180.80722 
L 134.64 180.80722 
L 145.8 180.80722 
L 156.96 180.80722 
L 168.12 180.80722 
L 179.28 180.80722 
L 190.44 180.80722 
L 201.6 180.807219 
L 212.76 180.807218 
L 223.92 180.807215 
L 235.08 180.807207 
L 246.24 180.807188 
L 257.4 180.80714 
L 268.56 180.80702 
L 279.72 180.806717 
L 290.88 180.805956 
L 302.04 180.804045 
L 313.2 180.799246 
L 324.36 180.787201 
L 335.52 180.756996 
L 346.68 180.681453 
L 357.84 180.493737 
L 369 180.034576 
L 380.16 178.952137 
L 391.32 176.593752 
L 402.48 172.132394 
L 413.64 165.171368 
L 424.8 156.165508 
L 435.96 145.94344 
L 447.12 135.13072 
L 458.28 124.05304 
L 469.44 112.844856 
L 480.6 101.543766 
L 491.76 90.192612 
L 502.92 79.360758 
L 514.08 72.702094 
L 525.24 76.620109 
L 536.4 86.894626 
L 547.56 97.690572 
L 558.72 107.997325 
L 569.88 118.223709 
L 581.04 128.687561 
L 592.2 139.471405 
L 603.36 150.491912 
L 614.52 161.636459 
L 625.68 172.834738 
L 636.84 184.054504 
L 648 195.282721 
" clip-path="url(#pfa1995d422)" style="fill: none; stroke: #0000ff; stroke-width: 1.5; stroke-linecap: square"/>
   </g>
   <g id="line2d_78">
    <path d="M 90 292.566757 
L 101.16 292.566757 
L 112.32 292.566757 
L 123.48 292.566757 
L 134.64 292.566757 
L 145.8 292.566757 
L 156.96 292.566757 
L 168.12 292.566757 
L 179.28 292.566757 
L 190.44 292.566757 
L 201.6 292.566756 
L 212.76 292.566755 
L 223.92 292.566752 
L 235.08 292.566744 
L 246.24 292.566723 
L 257.4 292.566673 
L 268.56 292.566546 
L 279.72 292.566227 
L 290.88 292.565426 
L 302.04 292.563415 
L 313.2 292.558364 
L 324.36 292.545687 
L 335.52 292.5139 
L 346.68 292.434419 
L 357.84 292.237027 
L 369 291.754849 
L 380.16 290.621615 
L 391.32 288.16759 
L 402.48 283.570248 
L 413.64 276.477013 
L 424.8 267.382947 
L 435.96 257.117168 
L 447.12 246.289695 
L 458.28 235.217816 
L 469.44 224.040838 
L 480.6 212.815897 
L 491.76 201.593779 
L 502.92 190.635688 
L 514.08 181.343575 
L 525.24 177.250589 
L 536.4 178.194981 
L 547.56 179.127731 
L 558.72 178.507407 
L 569.88 177.237013 
L 581.04 176.197758 
L 592.2 175.871223 
L 603.36 176.525041 
L 614.52 178.613614 
L 625.68 182.846366 
L 636.84 189.615988 
L 648 198.496596 
" clip-path="url(#pfa1995d422)" style="fill: none; stroke: #0000ff; stroke-width: 1.5; stroke-linecap: square"/>
   </g>
   <g id="line2d_79">
    <path d="M 90 332.13186 
L 101.16 332.13186 
L 112.32 332.13186 
L 123.48 332.13186 
L 134.64 332.13186 
L 145.8 332.13186 
L 156.96 332.13186 
L 168.12 332.13186 
L 179.28 332.13186 
L 190.44 332.131859 
L 201.6 332.131859 
L 212.76 332.131858 
L 223.92 332.131854 
L 235.08 332.131846 
L 246.24 332.131826 
L 257.4 332.131776 
L 268.56 332.13165 
L 279.72 332.131332 
L 290.88 332.130535 
L 302.04 332.128532 
L 313.2 332.123503 
L 324.36 332.110878 
L 335.52 332.079225 
L 346.68 332.000077 
L 357.84 331.803502 
L 369 331.323264 
L 380.16 330.194299 
L 391.32 327.748266 
L 402.48 323.162176 
L 413.64 316.079722 
L 424.8 306.992644 
L 435.96 296.729916 
L 447.12 285.902399 
L 458.28 274.826945 
L 469.44 263.639649 
L 480.6 252.388975 
L 491.76 241.106902 
L 502.92 230.028169 
L 514.08 220.579051 
L 525.24 216.366546 
L 536.4 217.00298 
L 547.56 217.53835 
L 558.72 216.674684 
L 569.88 215.263251 
L 581.04 214.052302 
L 592.2 213.331588 
L 603.36 213.029335 
L 614.52 213.013967 
L 625.68 213.284149 
L 636.84 214.050747 
L 648 215.825559 
" clip-path="url(#pfa1995d422)" style="fill: none; stroke: #0000ff; stroke-width: 1.5; stroke-linecap: square"/>
   </g>
   <g id="line2d_80">
    <path d="M 90 302.834773 
L 101.16 302.834773 
L 112.32 302.834773 
L 123.48 302.834773 
L 134.64 302.834773 
L 145.8 302.834773 
L 156.96 302.834773 
L 168.12 302.834773 
L 179.28 302.834773 
L 190.44 302.834773 
L 201.6 302.834772 
L 212.76 302.834771 
L 223.92 302.834768 
L 235.08 302.83476 
L 246.24 302.83474 
L 257.4 302.834689 
L 268.56 302.834562 
L 279.72 302.834243 
L 290.88 302.833441 
L 302.04 302.831427 
L 313.2 302.82637 
L 324.36 302.813676 
L 335.52 302.781847 
L 346.68 302.702263 
L 357.84 302.504617 
L 369 302.021836 
L 380.16 300.887274 
L 391.32 298.430764 
L 402.48 293.829918 
L 413.64 286.733294 
L 424.8 277.636931 
L 435.96 267.369865 
L 447.12 256.541538 
L 458.28 245.468593 
L 469.44 234.289411 
L 480.6 223.059268 
L 491.76 211.825103 
L 502.92 200.84259 
L 514.08 191.517673 
L 525.24 187.397716 
L 536.4 188.273944 
L 547.56 189.11543 
L 558.72 188.433266 
L 569.88 187.112132 
L 581.04 185.981008 
L 592.2 185.428892 
L 603.36 185.551489 
L 614.52 186.54138 
L 625.68 188.952681 
L 636.84 193.551409 
L 648 200.659411 
" clip-path="url(#pfa1995d422)" style="fill: none; stroke: #0000ff; stroke-width: 1.5; stroke-linecap: square"/>
   </g>
   <g id="line2d_81">
    <path d="M 90 234.033121 
L 101.16 234.033121 
L 112.32 234.033121 
L 123.48 234.033121 
L 134.64 234.033121 
L 145.8 234.033121 
L 156.96 234.033121 
L 168.12 234.033121 
L 179.28 234.033121 
L 190.44 234.033121 
L 201.6 234.033121 
L 212.76 234.033119 
L 223.92 234.033116 
L 235.08 234.033108 
L 246.24 234.033089 
L 257.4 234.033039 
L 268.56 234.032915 
L 279.72 234.032602 
L 290.88 234.031817 
L 302.04 234.029844 
L 313.2 234.024891 
L 324.36 234.012457 
L 335.52 233.981282 
L 346.68 233.903323 
L 357.84 233.709667 
L 369 233.236372 
L 380.16 232.122703 
L 391.32 229.705388 
L 402.48 225.159963 
L 413.64 218.116949 
L 424.8 209.05647 
L 435.96 198.808015 
L 447.12 187.98836 
L 458.28 176.919966 
L 469.44 165.74493 
L 480.6 154.521916 
L 491.76 143.302506 
L 502.92 132.347317 
L 514.08 123.076269 
L 525.24 119.217015 
L 536.4 120.864104 
L 547.56 122.943735 
L 558.72 124.38544 
L 569.88 127.235171 
L 581.04 133.045849 
L 592.2 141.541671 
L 603.36 151.583398 
L 614.52 162.329533 
L 625.68 173.367915 
L 636.84 184.523807 
L 648 195.726558 
" clip-path="url(#pfa1995d422)" style="fill: none; stroke: #0000ff; stroke-width: 1.5; stroke-linecap: square"/>
   </g>
   <g id="line2d_82">
    <path d="M 90 266.125452 
L 101.16 266.125452 
L 112.32 266.125452 
L 123.48 266.125452 
L 134.64 266.125452 
L 145.8 266.125452 
L 156.96 266.125452 
L 168.12 266.125452 
L 179.28 266.125452 
L 190.44 266.125451 
L 201.6 266.125451 
L 212.76 266.12545 
L 223.92 266.125446 
L 235.08 266.125439 
L 246.24 266.125419 
L 257.4 266.125368 
L 268.56 266.125242 
L 279.72 266.124926 
L 290.88 266.12413 
L 302.04 266.122133 
L 313.2 266.117117 
L 324.36 266.104528 
L 335.52 266.072961 
L 346.68 265.994027 
L 357.84 265.797979 
L 369 265.318994 
L 380.16 264.192788 
L 391.32 261.751933 
L 402.48 257.173178 
L 413.64 250.097893 
L 424.8 241.015862 
L 435.96 230.756439 
L 447.12 219.932234 
L 458.28 208.862822 
L 469.44 197.689592 
L 480.6 186.47283 
L 491.76 175.269264 
L 502.92 164.348111 
L 514.08 155.105163 
L 525.24 151.067686 
L 536.4 152.174631 
L 547.56 153.337288 
L 558.72 152.954274 
L 569.88 152.107761 
L 581.04 152.09104 
L 592.2 154.006862 
L 603.36 158.597769 
L 614.52 165.890978 
L 625.68 175.156756 
L 636.84 185.516121 
L 648 196.384662 
" clip-path="url(#pfa1995d422)" style="fill: none; stroke: #0000ff; stroke-width: 1.5; stroke-linecap: square"/>
   </g>
   <g id="line2d_83">
    <path d="M 90 345.770077 
L 101.16 345.770077 
L 112.32 345.770077 
L 123.48 345.770077 
L 134.64 345.770077 
L 145.8 345.770077 
L 156.96 345.770077 
L 168.12 345.770077 
L 179.28 345.770077 
L 190.44 345.770076 
L 201.6 345.770076 
L 212.76 345.770075 
L 223.92 345.770072 
L 235.08 345.770064 
L 246.24 345.770044 
L 257.4 345.769994 
L 268.56 345.76987 
L 279.72 345.769557 
L 290.88 345.76877 
L 302.04 345.766795 
L 313.2 345.761835 
L 324.36 345.749384 
L 335.52 345.718166 
L 346.68 345.6401 
L 357.84 345.446184 
L 369 344.972266 
L 380.16 343.857225 
L 391.32 341.437323 
L 402.48 336.888196 
L 413.64 329.841485 
L 424.8 320.778217 
L 435.96 310.527479 
L 447.12 299.704616 
L 458.28 288.629344 
L 469.44 277.437738 
L 480.6 266.174727 
L 491.76 254.863739 
L 502.92 243.729223 
L 514.08 234.219116 
L 525.24 229.977617 
L 536.4 230.492595 
L 547.56 230.874313 
L 558.72 229.931885 
L 569.88 228.497013 
L 581.04 227.284757 
L 592.2 226.560119 
L 603.36 226.229944 
L 614.52 226.131315 
L 625.68 226.190776 
L 636.84 226.457337 
L 648 227.145929 
" clip-path="url(#pfa1995d422)" style="fill: none; stroke: #0000ff; stroke-width: 1.5; stroke-linecap: square"/>
   </g>
   <g id="line2d_84">
    <path d="M 90 173.019365 
L 101.16 173.019365 
L 112.32 173.019365 
L 123.48 173.019365 
L 134.64 173.019365 
L 145.8 173.019365 
L 156.96 173.019365 
L 168.12 173.019365 
L 179.28 173.019365 
L 190.44 173.019364 
L 201.6 173.019364 
L 212.76 173.019363 
L 223.92 173.01936 
L 235.08 173.019352 
L 246.24 173.019333 
L 257.4 173.019285 
L 268.56 173.019166 
L 279.72 173.018864 
L 290.88 173.018108 
L 302.04 173.016209 
L 313.2 173.011438 
L 324.36 172.999464 
L 335.52 172.969439 
L 346.68 172.894343 
L 357.84 172.707725 
L 369 172.25118 
L 380.16 171.174534 
L 391.32 168.827133 
L 402.48 164.381573 
L 413.64 157.43615 
L 424.8 148.440969 
L 435.96 138.224673 
L 447.12 127.415152 
L 458.28 116.340558 
L 469.44 105.139256 
L 480.6 93.862946 
L 491.76 82.627852 
L 502.92 72.405074 
L 514.08 67.980673 
L 525.24 74.405695 
L 536.4 85.785616 
L 547.56 97.180051 
L 558.72 107.792517 
L 569.88 118.135441 
L 581.04 128.632824 
L 592.2 139.423677 
L 603.36 150.4451 
L 614.52 161.589619 
L 625.68 172.787821 
L 636.84 184.007547 
L 648 195.235746 
" clip-path="url(#pfa1995d422)" style="fill: none; stroke: #0000ff; stroke-width: 1.5; stroke-linecap: square"/>
   </g>
   <g id="line2d_85">
    <path d="M 90 186.00482 
L 101.16 186.00482 
L 112.32 186.00482 
L 123.48 186.00482 
L 134.64 186.00482 
L 145.8 186.00482 
L 156.96 186.00482 
L 168.12 186.00482 
L 179.28 186.00482 
L 190.44 186.004819 
L 201.6 186.004819 
L 212.76 186.004818 
L 223.92 186.004815 
L 235.08 186.004807 
L 246.24 186.004788 
L 257.4 186.00474 
L 268.56 186.004619 
L 279.72 186.004314 
L 290.88 186.003551 
L 302.04 186.001633 
L 313.2 185.996816 
L 324.36 185.984725 
L 335.52 185.954406 
L 346.68 185.87858 
L 357.84 185.690166 
L 369 185.229344 
L 380.16 184.14323 
L 391.32 181.777885 
L 402.48 177.306544 
L 413.64 170.335712 
L 424.8 161.323254 
L 435.96 151.097893 
L 447.12 140.284033 
L 458.28 129.206657 
L 469.44 118.000094 
L 480.6 106.700341 
L 491.76 95.330856 
L 502.92 84.31036 
L 514.08 76.630012 
L 525.24 78.812086 
L 536.4 88.056512 
L 547.56 98.245103 
L 558.72 108.223738 
L 569.88 118.316335 
L 581.04 128.73688 
L 592.2 139.508775 
L 603.36 150.526099 
L 614.52 161.669706 
L 625.68 172.867665 
L 636.84 184.087313 
L 648 195.315484 
" clip-path="url(#pfa1995d422)" style="fill: none; stroke: #0000ff; stroke-width: 1.5; stroke-linecap: square"/>
   </g>
   <g id="line2d_86">
    <path d="M 90 271.463723 
L 101.16 271.463723 
L 112.32 271.463723 
L 123.48 271.463723 
L 134.64 271.463723 
L 145.8 271.463723 
L 156.96 271.463723 
L 168.12 271.463723 
L 179.28 271.463722 
L 190.44 271.463722 
L 201.6 271.463722 
L 212.76 271.46372 
L 223.92 271.463717 
L 235.08 271.463709 
L 246.24 271.463689 
L 257.4 271.463639 
L 268.56 271.463513 
L 279.72 271.463196 
L 290.88 271.4624 
L 302.04 271.460401 
L 313.2 271.455381 
L 324.36 271.44278 
L 335.52 271.411186 
L 346.68 271.332183 
L 357.84 271.135966 
L 369 270.65658 
L 380.16 269.529491 
L 391.32 267.08698 
L 402.48 262.505884 
L 413.64 255.428334 
L 424.8 246.344779 
L 435.96 236.084539 
L 447.12 225.259886 
L 458.28 214.190072 
L 469.44 203.016142 
L 480.6 191.797784 
L 491.76 180.590504 
L 502.92 169.661536 
L 514.08 160.406422 
L 525.24 156.353984 
L 536.4 157.428 
L 547.56 158.540484 
L 558.72 158.086463 
L 569.88 157.082586 
L 581.04 156.685146 
L 592.2 157.835841 
L 603.36 161.300262 
L 614.52 167.468553 
L 625.68 175.962091 
L 636.84 185.916971 
L 648 196.60342 
" clip-path="url(#pfa1995d422)" style="fill: none; stroke: #0000ff; stroke-width: 1.5; stroke-linecap: square"/>
   </g>
   <g id="line2d_87">
    <path d="M 90 358.421415 
L 101.16 358.421415 
L 112.32 358.421415 
L 123.48 358.421415 
L 134.64 358.421415 
L 145.8 358.421415 
L 156.96 358.421415 
L 168.12 358.421415 
L 179.28 358.421415 
L 190.44 358.421415 
L 201.6 358.421414 
L 212.76 358.421413 
L 223.92 358.42141 
L 235.08 358.421402 
L 246.24 358.421383 
L 257.4 358.421335 
L 268.56 358.421214 
L 279.72 358.420911 
L 290.88 358.420149 
L 302.04 358.418236 
L 313.2 358.413432 
L 324.36 358.401373 
L 335.52 358.371133 
L 346.68 358.295505 
L 357.84 358.107578 
L 369 357.647914 
L 380.16 356.564364 
L 391.32 354.20388 
L 402.48 349.739534 
L 413.64 342.77566 
L 424.8 333.768152 
L 435.96 323.545995 
L 447.12 312.735206 
L 458.28 301.663187 
L 469.44 290.468462 
L 480.6 279.193605 
L 491.76 267.854846 
L 502.92 256.672232 
L 514.08 247.135941 
L 525.24 242.923638 
L 536.4 243.343905 
L 547.56 243.591433 
L 558.72 242.594683 
L 569.88 241.162111 
L 581.04 239.972012 
L 592.2 239.264821 
L 603.36 238.935654 
L 614.52 238.81319 
L 625.68 238.800901 
L 636.84 238.886126 
L 648 239.141887 
" clip-path="url(#pfa1995d422)" style="fill: none; stroke: #0000ff; stroke-width: 1.5; stroke-linecap: square"/>
   </g>
   <g id="line2d_88">
    <path d="M 90 336.765061 
L 101.16 336.765061 
L 112.32 336.765061 
L 123.48 336.765061 
L 134.64 336.765061 
L 145.8 336.765061 
L 156.96 336.765061 
L 168.12 336.765061 
L 179.28 336.765061 
L 190.44 336.76506 
L 201.6 336.76506 
L 212.76 336.765059 
L 223.92 336.765055 
L 235.08 336.765048 
L 246.24 336.765028 
L 257.4 336.764977 
L 268.56 336.764851 
L 279.72 336.764535 
L 290.88 336.76374 
L 302.04 336.761744 
L 313.2 336.756732 
L 324.36 336.744149 
L 335.52 336.712602 
L 346.68 336.633716 
L 357.84 336.437786 
L 369 335.959081 
L 380.16 334.83349 
L 391.32 332.393782 
L 402.48 327.81662 
L 413.64 320.742776 
L 424.8 311.661416 
L 435.96 301.401541 
L 447.12 290.575071 
L 458.28 279.499486 
L 469.44 268.310719 
L 480.6 257.056016 
L 491.76 245.764507 
L 502.92 234.667252 
L 514.08 225.196326 
L 525.24 220.970787 
L 536.4 221.565356 
L 547.56 222.048329 
L 558.72 221.156573 
L 569.88 219.735249 
L 581.04 218.521681 
L 592.2 217.796979 
L 603.36 217.480579 
L 614.52 217.426472 
L 625.68 217.600578 
L 636.84 218.143328 
L 648 219.449459 
" clip-path="url(#pfa1995d422)" style="fill: none; stroke: #0000ff; stroke-width: 1.5; stroke-linecap: square"/>
   </g>
   <g id="line2d_89">
    <path d="M 90 223.676824 
L 101.16 223.676824 
L 112.32 223.676824 
L 123.48 223.676824 
L 134.64 223.676824 
L 145.8 223.676824 
L 156.96 223.676824 
L 168.12 223.676824 
L 179.28 223.676824 
L 190.44 223.676824 
L 201.6 223.676823 
L 212.76 223.676822 
L 223.92 223.676819 
L 235.08 223.676811 
L 246.24 223.676792 
L 257.4 223.676742 
L 268.56 223.676618 
L 279.72 223.676307 
L 290.88 223.675526 
L 302.04 223.673563 
L 313.2 223.668635 
L 324.36 223.656264 
L 335.52 223.625246 
L 346.68 223.547677 
L 357.84 223.354981 
L 369 222.883966 
L 380.16 221.775331 
L 391.32 219.367485 
L 402.48 214.835504 
L 413.64 207.80554 
L 424.8 198.753753 
L 435.96 188.509588 
L 447.12 177.691344 
L 458.28 166.622256 
L 469.44 155.44373 
L 480.6 144.211455 
L 491.76 132.970125 
L 502.92 121.972169 
L 514.08 112.680545 
L 525.24 109.052357 
L 536.4 111.277588 
L 547.56 114.34208 
L 558.72 117.547699 
L 569.88 122.823222 
L 581.04 130.748413 
L 592.2 140.472154 
L 603.36 151.080082 
L 614.52 162.064042 
L 625.68 173.199074 
L 636.84 184.393764 
L 648 195.612013 
" clip-path="url(#pfa1995d422)" style="fill: none; stroke: #0000ff; stroke-width: 1.5; stroke-linecap: square"/>
   </g>
   <g id="line2d_90">
    <path d="M 90 178.686365 
L 101.16 178.686365 
L 112.32 178.686365 
L 123.48 178.686365 
L 134.64 178.686365 
L 145.8 178.686365 
L 156.96 178.686365 
L 168.12 178.686365 
L 179.28 178.686365 
L 190.44 178.686365 
L 201.6 178.686364 
L 212.76 178.686363 
L 223.92 178.68636 
L 235.08 178.686352 
L 246.24 178.686333 
L 257.4 178.686285 
L 268.56 178.686165 
L 279.72 178.685863 
L 290.88 178.685104 
L 302.04 178.683197 
L 313.2 178.678409 
L 324.36 178.666391 
L 335.52 178.636254 
L 346.68 178.560881 
L 357.84 178.373581 
L 369 177.915413 
L 380.16 176.835172 
L 391.32 174.48095 
L 402.48 170.025574 
L 413.64 163.070439 
L 424.8 154.068574 
L 435.96 143.84857 
L 447.12 133.036753 
L 458.28 121.959434 
L 469.44 110.751608 
L 480.6 99.452858 
L 491.76 88.119125 
L 502.92 77.403987 
L 514.08 71.264393 
L 525.24 75.893831 
L 536.4 86.525179 
L 547.56 97.519278 
L 558.72 107.928662 
L 569.88 118.195105 
L 581.04 128.671093 
L 592.2 139.45785 
L 603.36 150.478947 
L 614.52 161.623609 
L 625.68 172.821915 
L 636.84 184.041689 
L 648 195.269909 
" clip-path="url(#pfa1995d422)" style="fill: none; stroke: #0000ff; stroke-width: 1.5; stroke-linecap: square"/>
   </g>
   <g id="line2d_91">
    <path d="M 90 196.252609 
L 101.16 196.252609 
L 112.32 196.252609 
L 123.48 196.252609 
L 134.64 196.252609 
L 145.8 196.252609 
L 156.96 196.252609 
L 168.12 196.252609 
L 179.28 196.252609 
L 190.44 196.252609 
L 201.6 196.252608 
L 212.76 196.252607 
L 223.92 196.252604 
L 235.08 196.252596 
L 246.24 196.252577 
L 257.4 196.252529 
L 268.56 196.252407 
L 279.72 196.2521 
L 290.88 196.251331 
L 302.04 196.2494 
L 313.2 196.244549 
L 324.36 196.232374 
L 335.52 196.201844 
L 346.68 196.125492 
L 357.84 195.935787 
L 369 195.471889 
L 380.16 194.378971 
L 391.32 192.000764 
L 402.48 187.511016 
L 413.64 180.522175 
L 424.8 171.497707 
L 435.96 161.266601 
L 447.12 150.451412 
L 458.28 139.376569 
L 469.44 128.178324 
L 480.6 116.896908 
L 491.76 105.549731 
L 502.92 94.41925 
L 514.08 85.627504 
L 525.24 84.942808 
L 536.4 91.732053 
L 547.56 100.16449 
L 558.72 109.054944 
L 569.88 118.652083 
L 581.04 128.893211 
L 592.2 139.607039 
L 603.36 150.605416 
L 614.52 161.742354 
L 625.68 172.937804 
L 636.84 184.156475 
L 648 195.38426 
" clip-path="url(#pfa1995d422)" style="fill: none; stroke: #0000ff; stroke-width: 1.5; stroke-linecap: square"/>
   </g>
   <g id="line2d_92">
    <path d="M 90 204.58914 
L 101.16 204.58914 
L 112.32 204.58914 
L 123.48 204.58914 
L 134.64 204.58914 
L 145.8 204.58914 
L 156.96 204.58914 
L 168.12 204.589139 
L 179.28 204.589139 
L 190.44 204.589139 
L 201.6 204.589139 
L 212.76 204.589138 
L 223.92 204.589134 
L 235.08 204.589127 
L 246.24 204.589107 
L 257.4 204.589058 
L 268.56 204.588936 
L 279.72 204.588628 
L 290.88 204.587855 
L 302.04 204.585913 
L 313.2 204.581037 
L 324.36 204.568798 
L 335.52 204.538107 
L 346.68 204.461355 
L 357.84 204.270666 
L 369 203.804427 
L 380.16 202.706336 
L 391.32 200.318362 
L 402.48 195.814672 
L 413.64 188.812229 
L 424.8 179.778728 
L 435.96 169.543353 
L 447.12 158.727312 
L 458.28 147.65478 
L 469.44 136.464009 
L 480.6 125.200723 
L 491.76 113.889749 
L 502.92 102.78149 
L 514.08 93.635101 
L 525.24 91.442392 
L 536.4 96.308735 
L 547.56 102.919235 
L 558.72 110.384433 
L 569.88 119.208832 
L 581.04 129.133453 
L 592.2 139.733314 
L 603.36 150.690934 
L 614.52 161.812659 
L 625.68 173.002223 
L 636.84 184.218577 
L 648 195.445443 
" clip-path="url(#pfa1995d422)" style="fill: none; stroke: #0000ff; stroke-width: 1.5; stroke-linecap: square"/>
   </g>
   <g id="line2d_93">
    <path d="M 90 249.981083 
L 101.16 249.981083 
L 112.32 249.981083 
L 123.48 249.981083 
L 134.64 249.981083 
L 145.8 249.981083 
L 156.96 249.981083 
L 168.12 249.981083 
L 179.28 249.981083 
L 190.44 249.981083 
L 201.6 249.981082 
L 212.76 249.981081 
L 223.92 249.981078 
L 235.08 249.98107 
L 246.24 249.98105 
L 257.4 249.981 
L 268.56 249.980875 
L 279.72 249.98056 
L 290.88 249.979769 
L 302.04 249.977783 
L 313.2 249.972796 
L 324.36 249.960277 
L 335.52 249.928887 
L 346.68 249.850395 
L 357.84 249.655431 
L 369 249.179023 
L 380.16 248.058494 
L 391.32 245.628289 
L 402.48 241.064596 
L 413.64 234.003881 
L 424.8 224.931592 
L 435.96 214.677184 
L 447.12 203.855221 
L 458.28 192.786755 
L 469.44 181.613923 
L 480.6 170.397317 
L 491.76 159.193579 
L 502.92 148.271078 
L 514.08 139.02857 
L 525.24 135.039117 
L 536.4 136.302817 
L 547.56 137.716267 
L 558.72 137.795203 
L 569.88 138.021611 
L 581.04 140.222356 
L 592.2 145.483841 
L 603.36 153.510098 
L 614.52 163.26001 
L 625.68 173.86203 
L 636.84 184.837106 
L 648 195.966688 
" clip-path="url(#pfa1995d422)" style="fill: none; stroke: #0000ff; stroke-width: 1.5; stroke-linecap: square"/>
   </g>
   <g id="line2d_94">
    <path d="M 90 307.881562 
L 101.16 307.881562 
L 112.32 307.881562 
L 123.48 307.881562 
L 134.64 307.881562 
L 145.8 307.881562 
L 156.96 307.881562 
L 168.12 307.881562 
L 179.28 307.881562 
L 190.44 307.881561 
L 201.6 307.881561 
L 212.76 307.88156 
L 223.92 307.881556 
L 235.08 307.881548 
L 246.24 307.881528 
L 257.4 307.881478 
L 268.56 307.88135 
L 279.72 307.881031 
L 290.88 307.880229 
L 302.04 307.878215 
L 313.2 307.873156 
L 324.36 307.860459 
L 335.52 307.828624 
L 346.68 307.749022 
L 357.84 307.551334 
L 369 307.068451 
L 380.16 305.933665 
L 391.32 303.476737 
L 402.48 298.875299 
L 413.64 291.778098 
L 424.8 282.681328 
L 435.96 272.413991 
L 447.12 261.585385 
L 458.28 250.511921 
L 469.44 239.331525 
L 480.6 228.098447 
L 491.76 216.857462 
L 502.92 205.861119 
L 514.08 196.517707 
L 525.24 192.382985 
L 536.4 193.222652 
L 547.56 194.016115 
L 558.72 193.303477 
L 569.88 191.963083 
L 581.04 190.805855 
L 592.2 190.192427 
L 603.36 190.164697 
L 614.52 190.814715 
L 625.68 192.563597 
L 636.84 196.166691 
L 648 202.236446 
" clip-path="url(#pfa1995d422)" style="fill: none; stroke: #0000ff; stroke-width: 1.5; stroke-linecap: square"/>
   </g>
   <g id="line2d_95">
    <path d="M 90 322.638269 
L 101.16 322.638269 
L 112.32 322.638269 
L 123.48 322.638269 
L 134.64 322.638269 
L 145.8 322.638269 
L 156.96 322.638269 
L 168.12 322.638269 
L 179.28 322.638269 
L 190.44 322.638268 
L 201.6 322.638268 
L 212.76 322.638267 
L 223.92 322.638263 
L 235.08 322.638255 
L 246.24 322.638235 
L 257.4 322.638185 
L 268.56 322.638058 
L 279.72 322.637739 
L 290.88 322.636938 
L 302.04 322.634927 
L 313.2 322.629878 
L 324.36 322.617202 
L 335.52 322.58542 
L 346.68 322.505951 
L 357.84 322.308589 
L 369 321.826481 
L 380.16 320.693399 
L 391.32 318.239659 
L 402.48 313.642705 
L 413.64 306.549796 
L 424.8 297.455807 
L 435.96 287.189689 
L 447.12 276.361081 
L 458.28 265.286236 
L 469.44 254.101837 
L 480.6 242.858768 
L 491.76 231.594489 
L 502.92 220.551182 
L 514.08 211.146262 
L 525.24 206.964294 
L 536.4 207.684792 
L 547.56 208.325603 
L 558.72 207.521298 
L 569.88 206.13426 
L 581.04 204.935112 
L 592.2 204.233997 
L 603.36 203.985588 
L 614.52 204.107882 
L 625.68 204.707497 
L 636.84 206.198154 
L 648 209.325397 
" clip-path="url(#pfa1995d422)" style="fill: none; stroke: #0000ff; stroke-width: 1.5; stroke-linecap: square"/>
   </g>
   <g id="line2d_96">
    <path d="M 90 362.328596 
L 101.16 362.328596 
L 112.32 362.328596 
L 123.48 362.328596 
L 134.64 362.328596 
L 145.8 362.328596 
L 156.96 362.328596 
L 168.12 362.328596 
L 179.28 362.328596 
L 190.44 362.328596 
L 201.6 362.328595 
L 212.76 362.328594 
L 223.92 362.328591 
L 235.08 362.328583 
L 246.24 362.328565 
L 257.4 362.328517 
L 268.56 362.328399 
L 279.72 362.328101 
L 290.88 362.327352 
L 302.04 362.325473 
L 313.2 362.320752 
L 324.36 362.308903 
L 335.52 362.27919 
L 346.68 362.204872 
L 357.84 362.020167 
L 369 361.568181 
L 380.16 360.501643 
L 391.32 358.173442 
L 402.48 353.755586 
L 413.64 346.837633 
L 424.8 337.861338 
L 435.96 327.655344 
L 447.12 316.851608 
L 458.28 305.782044 
L 469.44 294.5871 
L 480.6 283.309328 
L 491.76 271.963738 
L 502.92 260.772226 
L 514.08 251.24618 
L 525.24 247.066992 
L 536.4 247.465051 
L 547.56 247.674425 
L 558.72 246.667197 
L 569.88 245.243153 
L 581.04 244.066938 
L 592.2 243.370137 
L 603.36 243.045198 
L 614.52 242.920744 
L 625.68 242.89768 
L 636.84 242.953714 
L 648 243.137097 
" clip-path="url(#pfa1995d422)" style="fill: none; stroke: #0000ff; stroke-width: 1.5; stroke-linecap: square"/>
   </g>
   <g id="line2d_97">
    <path d="M 90 354.344696 
L 101.16 354.344696 
L 112.32 354.344696 
L 123.48 354.344696 
L 134.64 354.344696 
L 145.8 354.344696 
L 156.96 354.344696 
L 168.12 354.344695 
L 179.28 354.344695 
L 190.44 354.344695 
L 201.6 354.344695 
L 212.76 354.344694 
L 223.92 354.34469 
L 235.08 354.344683 
L 246.24 354.344663 
L 257.4 354.344615 
L 268.56 354.344492 
L 279.72 354.344185 
L 290.88 354.343413 
L 302.04 354.341473 
L 313.2 354.336603 
L 324.36 354.324378 
L 335.52 354.293723 
L 346.68 354.217061 
L 357.84 354.026594 
L 369 353.560882 
L 380.16 352.463955 
L 391.32 350.078177 
L 402.48 345.577617 
L 413.64 338.578217 
L 424.8 329.546706 
L 435.96 319.312192 
L 447.12 308.496102 
L 458.28 297.422447 
L 469.44 286.228492 
L 480.6 274.957339 
L 491.76 263.627262 
L 502.92 252.458569 
L 514.08 242.923955 
L 525.24 238.691523 
L 536.4 239.138647 
L 547.56 239.427796 
L 558.72 238.445508 
L 569.88 237.0084 
L 581.04 235.807703 
L 592.2 235.092343 
L 603.36 234.760655 
L 614.52 234.64254 
L 625.68 234.646072 
L 636.84 234.772526 
L 648 235.128974 
" clip-path="url(#pfa1995d422)" style="fill: none; stroke: #0000ff; stroke-width: 1.5; stroke-linecap: square"/>
   </g>
   <g id="line2d_98">
    <path d="M 90 369.36 
L 101.16 369.36 
L 112.32 369.36 
L 123.48 369.36 
L 134.64 369.36 
L 145.8 369.36 
L 156.96 369.36 
L 168.12 369.36 
L 179.28 369.36 
L 190.44 369.36 
L 201.6 369.359999 
L 212.76 369.359998 
L 223.92 369.359995 
L 235.08 369.359988 
L 246.24 369.359971 
L 257.4 369.359926 
L 268.56 369.359814 
L 279.72 369.359533 
L 290.88 369.358827 
L 302.04 369.357055 
L 313.2 369.352603 
L 324.36 369.341428 
L 335.52 369.313402 
L 346.68 369.243287 
L 357.84 369.068925 
L 369 368.641634 
L 380.16 367.630042 
L 391.32 365.407016 
L 402.48 361.142731 
L 413.64 354.378994 
L 424.8 345.509036 
L 435.96 335.358723 
L 447.12 324.579748 
L 458.28 313.51977 
L 469.44 302.326815 
L 480.6 291.045663 
L 491.76 279.692037 
L 502.92 268.501141 
L 514.08 259.050538 
L 525.24 255.010891 
L 536.4 255.392202 
L 547.56 255.53834 
L 558.72 254.527871 
L 569.88 253.140968 
L 581.04 252.009512 
L 592.2 251.344382 
L 603.36 251.034385 
L 614.52 250.911812 
L 625.68 250.877376 
L 636.84 250.898412 
L 648 250.992721 
" clip-path="url(#pfa1995d422)" style="fill: none; stroke: #0000ff; stroke-width: 1.5; stroke-linecap: square"/>
   </g>
   <g id="line2d_99">
    <path d="M 90 276.798248 
L 101.16 276.798248 
L 112.32 276.798247 
L 123.48 276.798247 
L 134.64 276.798247 
L 145.8 276.798247 
L 156.96 276.798247 
L 168.12 276.798247 
L 179.28 276.798247 
L 190.44 276.798247 
L 201.6 276.798247 
L 212.76 276.798245 
L 223.92 276.798242 
L 235.08 276.798234 
L 246.24 276.798214 
L 257.4 276.798164 
L 268.56 276.798037 
L 279.72 276.79772 
L 290.88 276.796922 
L 302.04 276.794918 
L 313.2 276.789885 
L 324.36 276.777253 
L 335.52 276.745579 
L 346.68 276.666379 
L 357.84 276.469678 
L 369 275.989142 
L 380.16 274.85952 
L 391.32 272.412262 
L 402.48 267.824466 
L 413.64 260.740447 
L 424.8 251.65257 
L 435.96 241.390094 
L 447.12 230.564411 
L 458.28 219.494085 
L 469.44 208.319745 
L 480.6 197.100752 
L 491.76 185.892269 
L 502.92 174.961649 
L 514.08 165.70642 
L 525.24 161.648076 
L 536.4 162.686783 
L 547.56 163.750282 
L 558.72 163.241815 
L 569.88 162.131169 
L 581.04 161.470229 
L 592.2 162.044761 
L 603.36 164.529941 
L 614.52 169.526167 
L 625.68 177.070864 
L 636.84 186.470977 
L 648 196.892849 
" clip-path="url(#pfa1995d422)" style="fill: none; stroke: #0000ff; stroke-width: 1.5; stroke-linecap: square"/>
   </g>
   <g id="line2d_100">
    <path d="M 90 327.421373 
L 101.16 327.421373 
L 112.32 327.421373 
L 123.48 327.421373 
L 134.64 327.421373 
L 145.8 327.421373 
L 156.96 327.421373 
L 168.12 327.421373 
L 179.28 327.421373 
L 190.44 327.421373 
L 201.6 327.421372 
L 212.76 327.421371 
L 223.92 327.421368 
L 235.08 327.42136 
L 246.24 327.421339 
L 257.4 327.421289 
L 268.56 327.421162 
L 279.72 327.420844 
L 290.88 327.420045 
L 302.04 327.418037 
L 313.2 327.412996 
L 324.36 327.400341 
L 335.52 327.368612 
L 346.68 327.289273 
L 357.84 327.092232 
L 369 326.610886 
L 380.16 325.479483 
L 391.32 323.028882 
L 402.48 318.436352 
L 413.64 311.347696 
L 424.8 302.256513 
L 435.96 291.991758 
L 447.12 281.163552 
L 458.28 270.088357 
L 469.44 258.902523 
L 480.6 247.655737 
L 491.76 236.382763 
L 502.92 225.32208 
L 514.08 215.895151 
L 525.24 211.697451 
L 536.4 212.376073 
L 547.56 212.964235 
L 558.72 212.129861 
L 569.88 210.729935 
L 581.04 209.523729 
L 592.2 208.810496 
L 603.36 208.529839 
L 614.52 208.570715 
L 625.68 208.977393 
L 636.84 210.051759 
L 648 212.429795 
" clip-path="url(#pfa1995d422)" style="fill: none; stroke: #0000ff; stroke-width: 1.5; stroke-linecap: square"/>
   </g>
   <g id="line2d_101">
    <path d="M 90 228.802322 
L 101.16 228.802322 
L 112.32 228.802322 
L 123.48 228.802322 
L 134.64 228.802322 
L 145.8 228.802322 
L 156.96 228.802322 
L 168.12 228.802322 
L 179.28 228.802322 
L 190.44 228.802322 
L 201.6 228.802321 
L 212.76 228.80232 
L 223.92 228.802317 
L 235.08 228.802309 
L 246.24 228.802289 
L 257.4 228.80224 
L 268.56 228.802116 
L 279.72 228.801804 
L 290.88 228.80102 
L 302.04 228.799053 
L 313.2 228.794112 
L 324.36 228.781709 
L 335.52 228.750611 
L 346.68 228.672845 
L 357.84 228.479663 
L 369 228.007493 
L 380.16 226.896309 
L 391.32 224.483665 
L 402.48 219.94487 
L 413.64 212.908289 
L 424.8 203.852097 
L 435.96 193.605768 
L 447.12 182.786839 
L 458.28 171.718184 
L 469.44 160.541628 
L 480.6 149.314534 
L 491.76 138.0854 
L 502.92 127.110881 
L 514.08 117.827885 
L 525.24 114.061436 
L 536.4 115.951252 
L 547.56 118.452134 
L 558.72 120.689944 
L 569.88 124.740063 
L 581.04 131.699318 
L 592.2 140.905914 
L 603.36 151.286239 
L 614.52 162.176643 
L 625.68 173.273999 
L 636.84 184.453621 
L 648 195.665859 
" clip-path="url(#pfa1995d422)" style="fill: none; stroke: #0000ff; stroke-width: 1.5; stroke-linecap: square"/>
   </g>
   <g id="line2d_102">
    <path d="M 90 172.11684 
L 101.16 172.11684 
L 112.32 172.11684 
L 123.48 172.11684 
L 134.64 172.11684 
L 145.8 172.11684 
L 156.96 172.11684 
L 168.12 172.11684 
L 179.28 172.11684 
L 190.44 172.116839 
L 201.6 172.116839 
L 212.76 172.116838 
L 223.92 172.116835 
L 235.08 172.116827 
L 246.24 172.116808 
L 257.4 172.116761 
L 268.56 172.116641 
L 279.72 172.11634 
L 290.88 172.115584 
L 302.04 172.113686 
L 313.2 172.108919 
L 324.36 172.096954 
L 335.52 172.06695 
L 346.68 171.991907 
L 357.84 171.80542 
L 369 171.349189 
L 380.16 170.273237 
L 391.32 167.927153 
L 402.48 163.483493 
L 413.64 156.539955 
L 424.8 147.546084 
L 435.96 137.330552 
L 447.12 126.521589 
L 458.28 115.447811 
L 469.44 104.248507 
L 480.6 92.978448 
L 491.76 81.767473 
L 502.92 71.650173 
L 514.08 67.534749 
L 525.24 74.220148 
L 536.4 85.694381 
L 547.56 97.138548 
L 558.72 107.775866 
L 569.88 118.1278 
L 581.04 128.627456 
L 592.2 139.418582 
L 603.36 150.439925 
L 614.52 161.584373 
L 625.68 172.782541 
L 636.84 184.002252 
L 648 195.230445 
" clip-path="url(#pfa1995d422)" style="fill: none; stroke: #0000ff; stroke-width: 1.5; stroke-linecap: square"/>
   </g>
   <g id="line2d_103">
    <path d="M 90 365.983404 
L 101.16 365.983404 
L 112.32 365.983404 
L 123.48 365.983404 
L 134.64 365.983404 
L 145.8 365.983404 
L 156.96 365.983404 
L 168.12 365.983404 
L 179.28 365.983404 
L 190.44 365.983404 
L 201.6 365.983403 
L 212.76 365.983402 
L 223.92 365.983399 
L 235.08 365.983392 
L 246.24 365.983374 
L 257.4 365.983327 
L 268.56 365.983212 
L 279.72 365.982921 
L 290.88 365.982192 
L 302.04 365.980359 
L 313.2 365.975757 
L 324.36 365.964204 
L 335.52 365.935232 
L 346.68 365.862762 
L 357.84 365.6826 
L 369 365.241455 
L 380.16 364.198993 
L 391.32 361.916707 
L 402.48 357.565492 
L 413.64 350.71398 
L 424.8 341.783209 
L 435.96 331.600935 
L 447.12 320.807654 
L 458.28 309.741946 
L 469.44 298.547295 
L 480.6 287.266728 
L 491.76 275.914517 
L 502.92 264.716607 
L 514.08 255.213917 
L 525.24 251.091622 
L 536.4 251.479034 
L 547.56 251.65544 
L 558.72 250.644101 
L 569.88 249.235786 
L 581.04 248.079572 
L 592.2 247.397107 
L 603.36 247.078763 
L 614.52 246.954477 
L 625.68 246.924399 
L 636.84 246.959882 
L 648 247.091392 
" clip-path="url(#pfa1995d422)" style="fill: none; stroke: #0000ff; stroke-width: 1.5; stroke-linecap: square"/>
   </g>
   <g id="line2d_104">
    <path d="M 90 170.88296 
L 101.16 170.88296 
L 112.32 170.88296 
L 123.48 170.88296 
L 134.64 170.88296 
L 145.8 170.88296 
L 156.96 170.88296 
L 168.12 170.88296 
L 179.28 170.88296 
L 190.44 170.88296 
L 201.6 170.882959 
L 212.76 170.882958 
L 223.92 170.882955 
L 235.08 170.882947 
L 246.24 170.882928 
L 257.4 170.882881 
L 268.56 170.882761 
L 279.72 170.88246 
L 290.88 170.881705 
L 302.04 170.879809 
L 313.2 170.875047 
L 324.36 170.863094 
L 335.52 170.833119 
L 346.68 170.75815 
L 357.84 170.571845 
L 369 170.116045 
L 380.16 169.041051 
L 391.32 166.696786 
L 402.48 162.255747 
L 413.64 155.314816 
L 424.8 146.322769 
L 435.96 136.108322 
L 447.12 125.300211 
L 458.28 114.227762 
L 469.44 103.031751 
L 480.6 91.771803 
L 491.76 80.598573 
L 502.92 70.639598 
L 514.08 66.96 
L 525.24 73.986895 
L 536.4 85.579672 
L 547.56 97.086376 
L 558.72 107.754882 
L 569.88 118.117989 
L 581.04 128.620355 
L 592.2 139.411725 
L 603.36 150.432918 
L 614.52 161.577254 
L 625.68 172.775368 
L 636.84 183.995057 
L 648 195.22324 
" clip-path="url(#pfa1995d422)" style="fill: none; stroke: #0000ff; stroke-width: 1.5; stroke-linecap: square"/>
   </g>
   <g id="line2d_105">
    <path d="M 90 176.875785 
L 101.16 176.875785 
L 112.32 176.875785 
L 123.48 176.875785 
L 134.64 176.875785 
L 145.8 176.875785 
L 156.96 176.875785 
L 168.12 176.875785 
L 179.28 176.875785 
L 190.44 176.875785 
L 201.6 176.875784 
L 212.76 176.875783 
L 223.92 176.87578 
L 235.08 176.875772 
L 246.24 176.875753 
L 257.4 176.875706 
L 268.56 176.875585 
L 279.72 176.875283 
L 290.88 176.874525 
L 302.04 176.872619 
L 313.2 176.867835 
L 324.36 176.855825 
L 335.52 176.82571 
L 346.68 176.750391 
L 357.84 176.563225 
L 369 176.105375 
L 380.16 175.025837 
L 391.32 172.672949 
L 402.48 168.219491 
L 413.64 161.266252 
L 424.8 152.265686 
L 435.96 142.046392 
L 447.12 131.23499 
L 458.28 120.158132 
L 469.44 108.951483 
L 480.6 97.657396 
L 491.76 86.347132 
L 502.92 75.761886 
L 514.08 70.127467 
L 525.24 75.355521 
L 536.4 86.255311 
L 547.56 97.394559 
L 558.72 107.878396 
L 569.88 118.173433 
L 581.04 128.657777 
L 592.2 139.446365 
L 603.36 150.467753 
L 614.52 161.612439 
L 625.68 172.810739 
L 636.84 184.030508 
L 648 195.258725 
" clip-path="url(#pfa1995d422)" style="fill: none; stroke: #0000ff; stroke-width: 1.5; stroke-linecap: square"/>
   </g>
   <g id="line2d_106">
    <path d="M 90 312.866683 
L 101.16 312.866683 
L 112.32 312.866683 
L 123.48 312.866683 
L 134.64 312.866683 
L 145.8 312.866683 
L 156.96 312.866683 
L 168.12 312.866683 
L 179.28 312.866683 
L 190.44 312.866683 
L 201.6 312.866683 
L 212.76 312.866681 
L 223.92 312.866678 
L 235.08 312.86667 
L 246.24 312.86665 
L 257.4 312.866599 
L 268.56 312.866472 
L 279.72 312.866153 
L 290.88 312.865351 
L 302.04 312.863337 
L 313.2 312.858279 
L 324.36 312.845583 
L 335.52 312.813752 
L 346.68 312.734158 
L 357.84 312.536491 
L 369 312.053658 
L 380.16 310.918981 
L 391.32 308.462257 
L 402.48 303.861104 
L 413.64 296.76417 
L 424.8 287.667553 
L 435.96 277.40023 
L 447.12 266.57146 
L 458.28 255.497497 
L 469.44 244.315826 
L 480.6 233.079623 
L 491.76 221.831363 
L 502.92 210.820312 
L 514.08 201.457416 
L 525.24 197.307352 
L 536.4 198.108704 
L 547.56 198.852512 
L 558.72 198.1093 
L 569.88 196.751864 
L 581.04 195.576036 
L 592.2 194.921279 
L 603.36 194.790663 
L 614.52 195.199473 
L 625.68 196.443007 
L 636.84 199.186217 
L 648 204.201819 
" clip-path="url(#pfa1995d422)" style="fill: none; stroke: #0000ff; stroke-width: 1.5; stroke-linecap: square"/>
   </g>
   <g id="line2d_107">
    <path d="M 90 209.073234 
L 101.16 209.073234 
L 112.32 209.073234 
L 123.48 209.073234 
L 134.64 209.073234 
L 145.8 209.073234 
L 156.96 209.073234 
L 168.12 209.073234 
L 179.28 209.073234 
L 190.44 209.073234 
L 201.6 209.073233 
L 212.76 209.073232 
L 223.92 209.073229 
L 235.08 209.073221 
L 246.24 209.073202 
L 257.4 209.073153 
L 268.56 209.07303 
L 279.72 209.072721 
L 290.88 209.071946 
L 302.04 209.069999 
L 313.2 209.06511 
L 324.36 209.052838 
L 335.52 209.022066 
L 346.68 208.94511 
L 357.84 208.753921 
L 369 208.286493 
L 380.16 207.185774 
L 391.32 204.792843 
L 402.48 200.282085 
L 413.64 193.27276 
L 424.8 184.234689 
L 435.96 173.997144 
L 447.12 163.180637 
L 458.28 152.109183 
L 469.44 140.922 
L 480.6 129.667642 
L 491.76 118.376018 
L 502.92 107.293031 
L 514.08 98.062076 
L 525.24 95.333728 
L 536.4 99.34203 
L 547.56 104.958977 
L 558.72 111.472712 
L 569.88 119.689747 
L 581.04 129.338465 
L 592.2 139.832343 
L 603.36 150.750481 
L 614.52 161.857141 
L 625.68 173.040822 
L 636.84 184.25485 
L 648 195.480793 
" clip-path="url(#pfa1995d422)" style="fill: none; stroke: #0000ff; stroke-width: 1.5; stroke-linecap: square"/>
   </g>
   <g id="line2d_108">
    <path d="M 90 183.241259 
L 101.16 183.241259 
L 112.32 183.241259 
L 123.48 183.241259 
L 134.64 183.241259 
L 145.8 183.241259 
L 156.96 183.241259 
L 168.12 183.241259 
L 179.28 183.241259 
L 190.44 183.241259 
L 201.6 183.241258 
L 212.76 183.241257 
L 223.92 183.241254 
L 235.08 183.241246 
L 246.24 183.241227 
L 257.4 183.241179 
L 268.56 183.241058 
L 279.72 183.240755 
L 290.88 183.239992 
L 302.04 183.238078 
L 313.2 183.233271 
L 324.36 183.221204 
L 335.52 183.190945 
L 346.68 183.115268 
L 357.84 182.927222 
L 369 182.467275 
L 380.16 181.383096 
L 391.32 179.021416 
L 402.48 174.555329 
L 413.64 167.589654 
L 424.8 158.580658 
L 435.96 148.357006 
L 447.12 137.543688 
L 458.28 126.466004 
L 469.44 115.258191 
L 480.6 103.956585 
L 491.76 92.592872 
L 502.92 81.656485 
L 514.08 74.473692 
L 525.24 77.569773 
L 536.4 87.388926 
L 547.56 97.923679 
L 558.72 108.091843 
L 569.88 118.262681 
L 581.04 128.708979 
L 592.2 139.488193 
L 603.36 150.507557 
L 614.52 161.651794 
L 625.68 172.849974 
L 636.84 184.069705 
L 648 195.297908 
" clip-path="url(#pfa1995d422)" style="fill: none; stroke: #0000ff; stroke-width: 1.5; stroke-linecap: square"/>
   </g>
   <g id="line2d_109">
    <path d="M 90 287.354136 
L 101.16 287.354136 
L 112.32 287.354136 
L 123.48 287.354136 
L 134.64 287.354136 
L 145.8 287.354136 
L 156.96 287.354136 
L 168.12 287.354136 
L 179.28 287.354136 
L 190.44 287.354136 
L 201.6 287.354135 
L 212.76 287.354134 
L 223.92 287.354131 
L 235.08 287.354123 
L 246.24 287.354103 
L 257.4 287.354052 
L 268.56 287.353925 
L 279.72 287.353607 
L 290.88 287.352807 
L 302.04 287.350798 
L 313.2 287.345754 
L 324.36 287.333093 
L 335.52 287.301346 
L 346.68 287.221965 
L 357.84 287.024819 
L 369 286.543224 
L 380.16 285.411273 
L 391.32 282.959652 
L 402.48 278.3657 
L 413.64 271.275735 
L 424.8 262.183864 
L 435.96 251.919255 
L 447.12 241.092413 
L 458.28 230.021074 
L 469.44 218.845005 
L 480.6 207.622103 
L 491.76 196.40463 
L 502.92 185.455739 
L 514.08 176.175346 
L 525.24 172.093041 
L 536.4 173.070191 
L 547.56 174.047336 
L 558.72 173.460121 
L 569.88 172.226515 
L 581.04 171.26774 
L 592.2 171.139557 
L 603.36 172.233929 
L 614.52 175.13133 
L 625.68 180.46428 
L 636.84 188.254854 
L 648 197.797201 
" clip-path="url(#pfa1995d422)" style="fill: none; stroke: #0000ff; stroke-width: 1.5; stroke-linecap: square"/>
   </g>
   <g id="line2d_110">
    <path d="M 90 213.784942 
L 101.16 213.784942 
L 112.32 213.784942 
L 123.48 213.784942 
L 134.64 213.784942 
L 145.8 213.784942 
L 156.96 213.784942 
L 168.12 213.784942 
L 179.28 213.784942 
L 190.44 213.784942 
L 201.6 213.784941 
L 212.76 213.78494 
L 223.92 213.784937 
L 235.08 213.784929 
L 246.24 213.78491 
L 257.4 213.784861 
L 268.56 213.784738 
L 279.72 213.784428 
L 290.88 213.783651 
L 302.04 213.781699 
L 313.2 213.776796 
L 324.36 213.764491 
L 335.52 213.733636 
L 346.68 213.656474 
L 357.84 213.464778 
L 369 212.996144 
L 380.16 211.892761 
L 391.32 209.494808 
L 402.48 204.976898 
L 413.64 197.960613 
L 424.8 188.917919 
L 435.96 178.678162 
L 447.12 167.861131 
L 458.28 156.790635 
L 469.44 145.606764 
L 480.6 134.360756 
L 491.76 123.087802 
L 502.92 112.033791 
L 514.08 102.758765 
L 525.24 99.625407 
L 536.4 102.896763 
L 547.56 107.546675 
L 558.72 112.977914 
L 569.88 120.394708 
L 581.04 129.642253 
L 592.2 139.973207 
L 603.36 150.828818 
L 614.52 161.911279 
L 625.68 173.08545 
L 636.84 184.295711 
L 648 195.520158 
" clip-path="url(#pfa1995d422)" style="fill: none; stroke: #0000ff; stroke-width: 1.5; stroke-linecap: square"/>
   </g>
   <g id="line2d_111">
    <path d="M 90 244.621121 
L 101.16 244.621121 
L 112.32 244.621121 
L 123.48 244.621121 
L 134.64 244.621121 
L 145.8 244.621121 
L 156.96 244.621121 
L 168.12 244.621121 
L 179.28 244.621121 
L 190.44 244.621121 
L 201.6 244.621121 
L 212.76 244.621119 
L 223.92 244.621116 
L 235.08 244.621108 
L 246.24 244.621089 
L 257.4 244.621039 
L 268.56 244.620914 
L 279.72 244.6206 
L 290.88 244.619811 
L 302.04 244.61783 
L 313.2 244.612855 
L 324.36 244.600368 
L 335.52 244.569057 
L 346.68 244.490761 
L 357.84 244.29628 
L 369 243.821019 
L 380.16 242.703019 
L 391.32 240.277562 
L 402.48 235.720594 
L 413.64 228.666391 
L 424.8 219.59845 
L 435.96 209.34625 
L 447.12 198.525188 
L 458.28 187.456882 
L 469.44 176.283574 
L 480.6 165.065425 
L 491.76 153.857795 
L 502.92 142.926737 
L 514.08 133.674472 
L 525.24 129.711221 
L 536.4 131.064636 
L 547.56 132.629909 
L 558.72 133.02109 
L 569.88 133.924865 
L 581.04 137.25296 
L 592.2 143.734657 
L 603.36 152.627658 
L 614.52 162.836885 
L 625.68 173.646566 
L 636.84 184.708848 
L 648 195.873911 
" clip-path="url(#pfa1995d422)" style="fill: none; stroke: #0000ff; stroke-width: 1.5; stroke-linecap: square"/>
   </g>
   <g id="line2d_112">
    <path d="M 90 282.128372 
L 101.16 282.128372 
L 112.32 282.128372 
L 123.48 282.128372 
L 134.64 282.128372 
L 145.8 282.128372 
L 156.96 282.128372 
L 168.12 282.128372 
L 179.28 282.128372 
L 190.44 282.128372 
L 201.6 282.128372 
L 212.76 282.12837 
L 223.92 282.128367 
L 235.08 282.128359 
L 246.24 282.128339 
L 257.4 282.128289 
L 268.56 282.128162 
L 279.72 282.127844 
L 290.88 282.127045 
L 302.04 282.125038 
L 313.2 282.119998 
L 324.36 282.107348 
L 335.52 282.075631 
L 346.68 281.996323 
L 357.84 281.799355 
L 369 281.318185 
L 380.16 280.187169 
L 391.32 277.737298 
L 402.48 273.145816 
L 413.64 266.058237 
L 424.8 256.967973 
L 435.96 246.704236 
L 447.12 235.877899 
L 458.28 224.807069 
L 469.44 213.631947 
L 480.6 202.411239 
L 491.76 191.198853 
L 502.92 180.260419 
L 514.08 170.994725 
L 525.24 166.925378 
L 536.4 167.932721 
L 547.56 168.952058 
L 558.72 168.4007 
L 569.88 167.217263 
L 581.04 166.377312 
L 592.2 166.536046 
L 603.36 168.227991 
L 614.52 172.101752 
L 625.68 178.56122 
L 636.84 187.234381 
L 648 197.281123 
" clip-path="url(#pfa1995d422)" style="fill: none; stroke: #0000ff; stroke-width: 1.5; stroke-linecap: square"/>
   </g>
   <g id="line2d_113">
    <path d="M 90 218.661624 
L 101.16 218.661624 
L 112.32 218.661624 
L 123.48 218.661624 
L 134.64 218.661624 
L 145.8 218.661624 
L 156.96 218.661624 
L 168.12 218.661624 
L 179.28 218.661624 
L 190.44 218.661624 
L 201.6 218.661623 
L 212.76 218.661622 
L 223.92 218.661619 
L 235.08 218.661611 
L 246.24 218.661592 
L 257.4 218.661542 
L 268.56 218.661419 
L 279.72 218.661109 
L 290.88 218.660329 
L 302.04 218.658372 
L 313.2 218.653456 
L 324.36 218.641118 
L 335.52 218.610181 
L 346.68 218.532814 
L 357.84 218.340615 
L 369 217.870782 
L 380.16 216.764754 
L 391.32 214.361817 
L 402.48 209.836817 
L 413.64 202.813635 
L 424.8 193.766358 
L 435.96 183.52439 
L 447.12 172.706781 
L 458.28 161.637079 
L 469.44 150.45611 
L 480.6 139.217514 
L 491.76 127.961497 
L 502.92 116.936585 
L 514.08 107.644969 
L 525.24 104.220051 
L 536.4 106.899167 
L 547.56 110.68403 
L 558.72 114.981922 
L 569.88 121.406323 
L 581.04 130.09053 
L 592.2 140.176116 
L 603.36 150.934247 
L 614.52 161.978388 
L 625.68 173.137405 
L 636.84 184.341648 
L 648 195.563701 
" clip-path="url(#pfa1995d422)" style="fill: none; stroke: #0000ff; stroke-width: 1.5; stroke-linecap: square"/>
   </g>
   <g id="line2d_114">
    <path d="M 90 317.786729 
L 101.16 317.786729 
L 112.32 317.786729 
L 123.48 317.786729 
L 134.64 317.786729 
L 145.8 317.786729 
L 156.96 317.786729 
L 168.12 317.786729 
L 179.28 317.786728 
L 190.44 317.786728 
L 201.6 317.786728 
L 212.76 317.786726 
L 223.92 317.786723 
L 235.08 317.786715 
L 246.24 317.786695 
L 257.4 317.786645 
L 268.56 317.786518 
L 279.72 317.786198 
L 290.88 317.785397 
L 302.04 317.783384 
L 313.2 317.778329 
L 324.36 317.76564 
L 335.52 317.733825 
L 346.68 317.654274 
L 357.84 317.456711 
L 369 316.974126 
L 380.16 315.839994 
L 391.32 313.384288 
L 402.48 308.784568 
L 413.64 301.689004 
L 424.8 292.593275 
L 435.96 282.326337 
L 447.12 271.497556 
L 458.28 260.423129 
L 469.44 249.24012 
L 480.6 238.00058 
L 491.76 226.744541 
L 502.92 215.717795 
L 514.08 206.334296 
L 525.24 202.168363 
L 536.4 202.92991 
L 547.56 203.622731 
L 558.72 202.848905 
L 569.88 201.476017 
L 581.04 200.286709 
L 592.2 199.60415 
L 603.36 199.4034 
L 614.52 199.643208 
L 625.68 200.513122 
L 636.84 202.553521 
L 648 206.569854 
" clip-path="url(#pfa1995d422)" style="fill: none; stroke: #0000ff; stroke-width: 1.5; stroke-linecap: square"/>
   </g>
   <g id="line2d_115">
    <path d="M 90 189.092465 
L 101.16 189.092465 
L 112.32 189.092465 
L 123.48 189.092465 
L 134.64 189.092465 
L 145.8 189.092465 
L 156.96 189.092465 
L 168.12 189.092465 
L 179.28 189.092465 
L 190.44 189.092465 
L 201.6 189.092464 
L 212.76 189.092463 
L 223.92 189.09246 
L 235.08 189.092452 
L 246.24 189.092433 
L 257.4 189.092385 
L 268.56 189.092264 
L 279.72 189.091959 
L 290.88 189.091193 
L 302.04 189.089271 
L 313.2 189.084444 
L 324.36 189.072327 
L 335.52 189.041942 
L 346.68 188.965953 
L 357.84 188.777138 
L 369 188.315361 
L 380.16 187.227132 
L 391.32 184.857788 
L 402.48 180.380718 
L 413.64 173.404272 
L 424.8 164.388059 
L 435.96 154.160879 
L 447.12 143.346535 
L 458.28 132.269769 
L 469.44 121.065303 
L 480.6 109.769744 
L 491.76 98.401538 
L 502.92 87.320863 
L 514.08 79.196231 
L 525.24 80.410677 
L 536.4 88.952903 
L 547.56 98.689399 
L 558.72 108.409355 
L 569.88 118.391204 
L 581.04 128.773773 
L 592.2 139.534166 
L 603.36 150.548002 
L 614.52 161.690448 
L 625.68 172.887983 
L 636.84 184.107468 
L 648 195.335575 
" clip-path="url(#pfa1995d422)" style="fill: none; stroke: #0000ff; stroke-width: 1.5; stroke-linecap: square"/>
   </g>
   <g id="line2d_116">
    <path d="M 90 297.735146 
L 101.16 297.735146 
L 112.32 297.735146 
L 123.48 297.735146 
L 134.64 297.735146 
L 145.8 297.735146 
L 156.96 297.735146 
L 168.12 297.735146 
L 179.28 297.735146 
L 190.44 297.735146 
L 201.6 297.735145 
L 212.76 297.735144 
L 223.92 297.735141 
L 235.08 297.735133 
L 246.24 297.735113 
L 257.4 297.735062 
L 268.56 297.734935 
L 279.72 297.734616 
L 290.88 297.733814 
L 302.04 297.731801 
L 313.2 297.726745 
L 324.36 297.714055 
L 335.52 297.682237 
L 346.68 297.602678 
L 357.84 297.405094 
L 369 296.922459 
L 380.16 295.78822 
L 391.32 293.332315 
L 402.48 288.732323 
L 413.64 281.636528 
L 424.8 272.540738 
L 435.96 262.274023 
L 447.12 251.446001 
L 458.28 240.373559 
L 469.44 229.195518 
L 480.6 217.968114 
L 491.76 206.740287 
L 502.92 195.77048 
L 514.08 186.461911 
L 525.24 182.354025 
L 536.4 183.264503 
L 547.56 184.15274 
L 558.72 183.501189 
L 569.88 182.202377 
L 581.04 181.108207 
L 592.2 180.646718 
L 603.36 180.987361 
L 614.52 182.446632 
L 625.68 185.690079 
L 636.84 191.369203 
L 648 199.430873 
" clip-path="url(#pfa1995d422)" style="fill: none; stroke: #0000ff; stroke-width: 1.5; stroke-linecap: square"/>
   </g>
   <g id="line2d_117">
    <path d="M 90 341.314255 
L 101.16 341.314255 
L 112.32 341.314255 
L 123.48 341.314255 
L 134.64 341.314255 
L 145.8 341.314255 
L 156.96 341.314255 
L 168.12 341.314255 
L 179.28 341.314255 
L 190.44 341.314255 
L 201.6 341.314254 
L 212.76 341.314253 
L 223.92 341.31425 
L 235.08 341.314242 
L 246.24 341.314222 
L 257.4 341.314172 
L 268.56 341.314047 
L 279.72 341.313732 
L 290.88 341.31294 
L 302.04 341.310953 
L 313.2 341.305963 
L 324.36 341.293438 
L 335.52 341.262032 
L 346.68 341.1835 
L 357.84 340.988437 
L 369 340.511794 
L 380.16 339.390747 
L 391.32 336.959561 
L 402.48 332.394448 
L 413.64 325.33225 
L 424.8 316.258642 
L 435.96 306.002668 
L 447.12 295.177706 
L 458.28 284.102161 
L 469.44 272.911943 
L 480.6 261.65311 
L 491.76 250.351916 
L 502.92 239.235935 
L 514.08 229.744334 
L 525.24 225.508654 
L 536.4 226.062452 
L 547.56 226.494009 
L 558.72 225.575832 
L 569.88 224.146562 
L 581.04 222.932511 
L 592.2 222.206628 
L 603.36 221.881391 
L 614.52 221.800746 
L 625.68 221.907427 
L 636.84 222.289105 
L 648 223.240716 
" clip-path="url(#pfa1995d422)" style="fill: none; stroke: #0000ff; stroke-width: 1.5; stroke-linecap: square"/>
   </g>
   <g id="line2d_118">
    <path d="M 90 174.076464 
L 101.16 174.076464 
L 112.32 174.076464 
L 123.48 174.076464 
L 134.64 174.076464 
L 145.8 174.076464 
L 156.96 174.076464 
L 168.12 174.076464 
L 179.28 174.076464 
L 190.44 174.076463 
L 201.6 174.076463 
L 212.76 174.076462 
L 223.92 174.076459 
L 235.08 174.076451 
L 246.24 174.076432 
L 257.4 174.076384 
L 268.56 174.076264 
L 279.72 174.075963 
L 290.88 174.075206 
L 302.04 174.073305 
L 313.2 174.068531 
L 324.36 174.056547 
L 335.52 174.026496 
L 346.68 173.951338 
L 357.84 173.764567 
L 369 173.307658 
L 380.16 172.230205 
L 391.32 169.881272 
L 402.48 165.433506 
L 413.64 158.485896 
L 424.8 149.4892 
L 435.96 139.27204 
L 447.12 128.461927 
L 458.28 117.386528 
L 469.44 106.183283 
L 480.6 94.900755 
L 491.76 83.640829 
L 502.92 73.305017 
L 514.08 68.530401 
L 525.24 74.639974 
L 536.4 85.900943 
L 547.56 97.232561 
L 558.72 107.813553 
L 569.88 118.144943 
L 581.04 128.639319 
L 592.2 139.42974 
L 603.36 150.451217 
L 614.52 161.595806 
L 625.68 172.794044 
L 636.84 184.013785 
L 648 195.241991 
" clip-path="url(#pfa1995d422)" style="fill: none; stroke: #0000ff; stroke-width: 1.5; stroke-linecap: square"/>
   </g>
   <g id="line2d_119">
    <path d="M 90 200.326665 
L 101.16 200.326665 
L 112.32 200.326665 
L 123.48 200.326665 
L 134.64 200.326665 
L 145.8 200.326665 
L 156.96 200.326665 
L 168.12 200.326665 
L 179.28 200.326665 
L 190.44 200.326665 
L 201.6 200.326664 
L 212.76 200.326663 
L 223.92 200.32666 
L 235.08 200.326652 
L 246.24 200.326633 
L 257.4 200.326584 
L 268.56 200.326462 
L 279.72 200.326155 
L 290.88 200.325384 
L 302.04 200.323447 
L 313.2 200.318584 
L 324.36 200.306377 
L 335.52 200.275767 
L 346.68 200.199215 
L 357.84 200.009019 
L 369 199.543953 
L 380.16 198.448454 
L 391.32 196.065372 
L 402.48 191.568661 
L 413.64 184.573024 
L 424.8 175.544041 
L 435.96 165.310802 
L 447.12 154.49519 
L 458.28 143.421509 
L 469.44 132.227004 
L 480.6 120.954567 
L 491.76 109.624651 
L 502.92 98.498885 
L 514.08 89.492816 
L 525.24 87.979319 
L 536.4 93.787782 
L 547.56 101.352206 
L 558.72 109.608303 
L 569.88 118.879991 
L 581.04 128.992635 
L 592.2 139.6614 
L 603.36 150.643964 
L 614.52 161.775065 
L 625.68 172.968268 
L 636.84 184.186056 
L 648 195.413492 
" clip-path="url(#pfa1995d422)" style="fill: none; stroke: #0000ff; stroke-width: 1.5; stroke-linecap: square"/>
   </g>
   <g id="line2d_120">
    <path d="M 90 239.298542 
L 101.16 239.298542 
L 112.32 239.298542 
L 123.48 239.298542 
L 134.64 239.298542 
L 145.8 239.298542 
L 156.96 239.298542 
L 168.12 239.298542 
L 179.28 239.298542 
L 190.44 239.298542 
L 201.6 239.298541 
L 212.76 239.29854 
L 223.92 239.298537 
L 235.08 239.298529 
L 246.24 239.298509 
L 257.4 239.29846 
L 268.56 239.298335 
L 279.72 239.298021 
L 290.88 239.297234 
L 302.04 239.295257 
L 313.2 239.290292 
L 324.36 239.277829 
L 335.52 239.246579 
L 346.68 239.168435 
L 357.84 238.974326 
L 369 238.499951 
L 380.16 237.383904 
L 391.32 234.962118 
L 402.48 230.41035 
L 413.64 223.361187 
L 424.8 214.296609 
L 435.96 204.046103 
L 447.12 193.225697 
L 458.28 182.157408 
L 469.44 170.983463 
L 480.6 159.76347 
L 491.76 148.551348 
L 502.92 137.611049 
L 514.08 128.351771 
L 525.24 124.431214 
L 536.4 125.90638 
L 547.56 127.684489 
L 558.72 128.518922 
L 569.88 130.302522 
L 581.04 134.869613 
L 592.2 142.452034 
L 603.36 152.010524 
L 614.52 162.54003 
L 625.68 173.4879 
L 636.84 184.607046 
L 648 195.795052 
" clip-path="url(#pfa1995d422)" style="fill: none; stroke: #0000ff; stroke-width: 1.5; stroke-linecap: square"/>
   </g>
   <g id="line2d_121">
    <path d="M 90 175.346911 
L 101.16 175.346911 
L 112.32 175.346911 
L 123.48 175.346911 
L 134.64 175.346911 
L 145.8 175.346911 
L 156.96 175.346911 
L 168.12 175.346911 
L 179.28 175.346911 
L 190.44 175.346911 
L 201.6 175.346911 
L 212.76 175.346909 
L 223.92 175.346906 
L 235.08 175.346899 
L 246.24 175.34688 
L 257.4 175.346832 
L 268.56 175.346712 
L 279.72 175.34641 
L 290.88 175.345653 
L 302.04 175.343749 
L 313.2 175.338971 
L 324.36 175.326975 
L 335.52 175.296895 
L 346.68 175.221662 
L 357.84 175.034709 
L 369 174.577366 
L 380.16 173.498952 
L 391.32 171.148196 
L 402.48 166.697804 
L 413.64 159.747595 
L 424.8 150.749108 
L 435.96 140.530948 
L 447.12 129.720201 
L 458.28 118.644029 
L 469.44 107.438951 
L 480.6 96.150367 
L 491.76 84.865026 
L 502.92 74.407482 
L 514.08 69.230023 
L 525.24 74.947036 
L 536.4 86.052532 
L 547.56 97.301713 
L 558.72 107.841228 
L 569.88 118.157231 
L 581.04 128.647452 
L 592.2 139.437175 
L 603.36 150.458657 
L 614.52 161.603307 
L 625.68 172.801579 
L 636.84 184.021336 
L 648 195.249547 
" clip-path="url(#pfa1995d422)" style="fill: none; stroke: #0000ff; stroke-width: 1.5; stroke-linecap: square"/>
   </g>
   <g id="patch_3">
    <path d="M 90 384.48 
L 90 51.84 
" style="fill: none; stroke: #000000; stroke-width: 0.8; stroke-linejoin: miter; stroke-linecap: square"/>
   </g>
   <g id="patch_4">
    <path d="M 648 384.48 
L 648 51.84 
" style="fill: none; stroke: #000000; stroke-width: 0.8; stroke-linejoin: miter; stroke-linecap: square"/>
   </g>
   <g id="patch_5">
    <path d="M 90 384.48 
L 648 384.48 
" style="fill: none; stroke: #000000; stroke-width: 0.8; stroke-linejoin: miter; stroke-linecap: square"/>
   </g>
   <g id="patch_6">
    <path d="M 90 51.84 
L 648 51.84 
" style="fill: none; stroke: #000000; stroke-width: 0.8; stroke-linejoin: miter; stroke-linecap: square"/>
   </g>
  </g>
 </g>
 <defs>
  <clipPath id="pfa1995d422">
   <rect x="90" y="51.84" width="558" height="332.64"/>
  </clipPath>
 </defs>
</svg>
