<?xml version="1.0" encoding="utf-8" standalone="no"?>
<!DOCTYPE svg PUBLIC "-//W3C//DTD SVG 1.1//EN"
  "http://www.w3.org/Graphics/SVG/1.1/DTD/svg11.dtd">
<svg xmlns:xlink="http://www.w3.org/1999/xlink" width="720pt" height="432pt" viewBox="0 0 720 432" xmlns="http://www.w3.org/2000/svg" version="1.1">
 <metadata>
  <rdf:RDF xmlns:dc="http://purl.org/dc/elements/1.1/" xmlns:cc="http://creativecommons.org/ns#" xmlns:rdf="http://www.w3.org/1999/02/22-rdf-syntax-ns#">
   <cc:Work>
    <dc:type rdf:resource="http://purl.org/dc/dcmitype/StillImage"/>
    <dc:date>2025-10-13T00:04:47.325673</dc:date>
    <dc:format>image/svg+xml</dc:format>
    <dc:creator>
     <cc:Agent>
      <dc:title>Matplotlib v3.10.7, https://matplotlib.org/</dc:title>
     </cc:Agent>
    </dc:creator>
   </cc:Work>
  </rdf:RDF>
 </metadata>
 <defs>
  <style type="text/css">*{stroke-linejoin: round; stroke-linecap: butt}</style>
 </defs>
 <g id="figure_1">
  <g id="patch_1">
   <path d="M 0 432 
L 720 432 
L 720 0 
L 0 0 
z
" style="fill: #ffffff"/>
  </g>
  <g id="axes_1">
   <g id="patch_2">
    <path d="M 90 384.48 
L 648 384.48 
L 648 51.84 
L 90 51.84 
z
" style="fill: #ffffff"/>
   </g>
   <g id="matplotlib.axis_1">
    <g id="xtick_1">
     <g id="line2d_1">
      <path d="M 90 384.48 
L 90 51.84 
" clip-path="url(#pbf05b4dfc7)" style="fill: none; stroke: #b0b0b0; stroke-width: 0.8; stroke-linecap: square"/>
     </g>
     <g id="line2d_2">
      <defs>
       <path id="m612df383df" d="M 0 0 
L 0 3.5 
" style="stroke: #000000; stroke-width: 0.8"/>
      </defs>
      <g>
       <use xlink:href="#m612df383df" x="90" y="384.48" style="stroke: #000000; stroke-width: 0.8"/>
      </g>
     </g>
     <g id="text_1">
      <!-- $\mathdefault{10^{0}}$ -->
      <g transform="translate(81.2 399.078438) scale(0.1 -0.1)">
       <defs>
        <path id="DejaVuSans-31" d="M 794 531 
L 1825 531 
L 1825 4091 
L 703 3866 
L 703 4441 
L 1819 4666 
L 2450 4666 
L 2450 531 
L 3481 531 
L 3481 0 
L 794 0 
L 794 531 
z
" transform="scale(0.015625)"/>
        <path id="DejaVuSans-30" d="M 2034 4250 
Q 1547 4250 1301 3770 
Q 1056 3291 1056 2328 
Q 1056 1369 1301 889 
Q 1547 409 2034 409 
Q 2525 409 2770 889 
Q 3016 1369 3016 2328 
Q 3016 3291 2770 3770 
Q 2525 4250 2034 4250 
z
M 2034 4750 
Q 2819 4750 3233 4129 
Q 3647 3509 3647 2328 
Q 3647 1150 3233 529 
Q 2819 -91 2034 -91 
Q 1250 -91 836 529 
Q 422 1150 422 2328 
Q 422 3509 836 4129 
Q 1250 4750 2034 4750 
z
" transform="scale(0.015625)"/>
       </defs>
       <use xlink:href="#DejaVuSans-31" transform="translate(0 0.765625)"/>
       <use xlink:href="#DejaVuSans-30" transform="translate(63.623047 0.765625)"/>
       <use xlink:href="#DejaVuSans-30" transform="translate(128.203125 39.046875) scale(0.7)"/>
      </g>
     </g>
    </g>
    <g id="xtick_2">
     <g id="line2d_3">
      <path d="M 201.6 384.48 
L 201.6 51.84 
" clip-path="url(#pbf05b4dfc7)" style="fill: none; stroke: #b0b0b0; stroke-width: 0.8; stroke-linecap: square"/>
     </g>
     <g id="line2d_4">
      <g>
       <use xlink:href="#m612df383df" x="201.6" y="384.48" style="stroke: #000000; stroke-width: 0.8"/>
      </g>
     </g>
     <g id="text_2">
      <!-- $\mathdefault{10^{2}}$ -->
      <g transform="translate(192.8 399.078438) scale(0.1 -0.1)">
       <defs>
        <path id="DejaVuSans-32" d="M 1228 531 
L 3431 531 
L 3431 0 
L 469 0 
L 469 531 
Q 828 903 1448 1529 
Q 2069 2156 2228 2338 
Q 2531 2678 2651 2914 
Q 2772 3150 2772 3378 
Q 2772 3750 2511 3984 
Q 2250 4219 1831 4219 
Q 1534 4219 1204 4116 
Q 875 4013 500 3803 
L 500 4441 
Q 881 4594 1212 4672 
Q 1544 4750 1819 4750 
Q 2544 4750 2975 4387 
Q 3406 4025 3406 3419 
Q 3406 3131 3298 2873 
Q 3191 2616 2906 2266 
Q 2828 2175 2409 1742 
Q 1991 1309 1228 531 
z
" transform="scale(0.015625)"/>
       </defs>
       <use xlink:href="#DejaVuSans-31" transform="translate(0 0.765625)"/>
       <use xlink:href="#DejaVuSans-30" transform="translate(63.623047 0.765625)"/>
       <use xlink:href="#DejaVuSans-32" transform="translate(128.203125 39.046875) scale(0.7)"/>
      </g>
     </g>
    </g>
    <g id="xtick_3">
     <g id="line2d_5">
      <path d="M 313.2 384.48 
L 313.2 51.84 
" clip-path="url(#pbf05b4dfc7)" style="fill: none; stroke: #b0b0b0; stroke-width: 0.8; stroke-linecap: square"/>
     </g>
     <g id="line2d_6">
      <g>
       <use xlink:href="#m612df383df" x="313.2" y="384.48" style="stroke: #000000; stroke-width: 0.8"/>
      </g>
     </g>
     <g id="text_3">
      <!-- $\mathdefault{10^{4}}$ -->
      <g transform="translate(304.4 399.078438) scale(0.1 -0.1)">
       <defs>
        <path id="DejaVuSans-34" d="M 2419 4116 
L 825 1625 
L 2419 1625 
L 2419 4116 
z
M 2253 4666 
L 3047 4666 
L 3047 1625 
L 3713 1625 
L 3713 1100 
L 3047 1100 
L 3047 0 
L 2419 0 
L 2419 1100 
L 313 1100 
L 313 1709 
L 2253 4666 
z
" transform="scale(0.015625)"/>
       </defs>
       <use xlink:href="#DejaVuSans-31" transform="translate(0 0.684375)"/>
       <use xlink:href="#DejaVuSans-30" transform="translate(63.623047 0.684375)"/>
       <use xlink:href="#DejaVuSans-34" transform="translate(128.203125 38.965625) scale(0.7)"/>
      </g>
     </g>
    </g>
    <g id="xtick_4">
     <g id="line2d_7">
      <path d="M 424.8 384.48 
L 424.8 51.84 
" clip-path="url(#pbf05b4dfc7)" style="fill: none; stroke: #b0b0b0; stroke-width: 0.8; stroke-linecap: square"/>
     </g>
     <g id="line2d_8">
      <g>
       <use xlink:href="#m612df383df" x="424.8" y="384.48" style="stroke: #000000; stroke-width: 0.8"/>
      </g>
     </g>
     <g id="text_4">
      <!-- $\mathdefault{10^{6}}$ -->
      <g transform="translate(416 399.078438) scale(0.1 -0.1)">
       <defs>
        <path id="DejaVuSans-36" d="M 2113 2584 
Q 1688 2584 1439 2293 
Q 1191 2003 1191 1497 
Q 1191 994 1439 701 
Q 1688 409 2113 409 
Q 2538 409 2786 701 
Q 3034 994 3034 1497 
Q 3034 2003 2786 2293 
Q 2538 2584 2113 2584 
z
M 3366 4563 
L 3366 3988 
Q 3128 4100 2886 4159 
Q 2644 4219 2406 4219 
Q 1781 4219 1451 3797 
Q 1122 3375 1075 2522 
Q 1259 2794 1537 2939 
Q 1816 3084 2150 3084 
Q 2853 3084 3261 2657 
Q 3669 2231 3669 1497 
Q 3669 778 3244 343 
Q 2819 -91 2113 -91 
Q 1303 -91 875 529 
Q 447 1150 447 2328 
Q 447 3434 972 4092 
Q 1497 4750 2381 4750 
Q 2619 4750 2861 4703 
Q 3103 4656 3366 4563 
z
" transform="scale(0.015625)"/>
       </defs>
       <use xlink:href="#DejaVuSans-31" transform="translate(0 0.765625)"/>
       <use xlink:href="#DejaVuSans-30" transform="translate(63.623047 0.765625)"/>
       <use xlink:href="#DejaVuSans-36" transform="translate(128.203125 39.046875) scale(0.7)"/>
      </g>
     </g>
    </g>
    <g id="xtick_5">
     <g id="line2d_9">
      <path d="M 536.4 384.48 
L 536.4 51.84 
" clip-path="url(#pbf05b4dfc7)" style="fill: none; stroke: #b0b0b0; stroke-width: 0.8; stroke-linecap: square"/>
     </g>
     <g id="line2d_10">
      <g>
       <use xlink:href="#m612df383df" x="536.4" y="384.48" style="stroke: #000000; stroke-width: 0.8"/>
      </g>
     </g>
     <g id="text_5">
      <!-- $\mathdefault{10^{8}}$ -->
      <g transform="translate(527.6 399.078438) scale(0.1 -0.1)">
       <defs>
        <path id="DejaVuSans-38" d="M 2034 2216 
Q 1584 2216 1326 1975 
Q 1069 1734 1069 1313 
Q 1069 891 1326 650 
Q 1584 409 2034 409 
Q 2484 409 2743 651 
Q 3003 894 3003 1313 
Q 3003 1734 2745 1975 
Q 2488 2216 2034 2216 
z
M 1403 2484 
Q 997 2584 770 2862 
Q 544 3141 544 3541 
Q 544 4100 942 4425 
Q 1341 4750 2034 4750 
Q 2731 4750 3128 4425 
Q 3525 4100 3525 3541 
Q 3525 3141 3298 2862 
Q 3072 2584 2669 2484 
Q 3125 2378 3379 2068 
Q 3634 1759 3634 1313 
Q 3634 634 3220 271 
Q 2806 -91 2034 -91 
Q 1263 -91 848 271 
Q 434 634 434 1313 
Q 434 1759 690 2068 
Q 947 2378 1403 2484 
z
M 1172 3481 
Q 1172 3119 1398 2916 
Q 1625 2713 2034 2713 
Q 2441 2713 2670 2916 
Q 2900 3119 2900 3481 
Q 2900 3844 2670 4047 
Q 2441 4250 2034 4250 
Q 1625 4250 1398 4047 
Q 1172 3844 1172 3481 
z
" transform="scale(0.015625)"/>
       </defs>
       <use xlink:href="#DejaVuSans-31" transform="translate(0 0.765625)"/>
       <use xlink:href="#DejaVuSans-30" transform="translate(63.623047 0.765625)"/>
       <use xlink:href="#DejaVuSans-38" transform="translate(128.203125 39.046875) scale(0.7)"/>
      </g>
     </g>
    </g>
    <g id="xtick_6">
     <g id="line2d_11">
      <path d="M 648 384.48 
L 648 51.84 
" clip-path="url(#pbf05b4dfc7)" style="fill: none; stroke: #b0b0b0; stroke-width: 0.8; stroke-linecap: square"/>
     </g>
     <g id="line2d_12">
      <g>
       <use xlink:href="#m612df383df" x="648" y="384.48" style="stroke: #000000; stroke-width: 0.8"/>
      </g>
     </g>
     <g id="text_6">
      <!-- $\mathdefault{10^{10}}$ -->
      <g transform="translate(636.95 399.078438) scale(0.1 -0.1)">
       <use xlink:href="#DejaVuSans-31" transform="translate(0 0.765625)"/>
       <use xlink:href="#DejaVuSans-30" transform="translate(63.623047 0.765625)"/>
       <use xlink:href="#DejaVuSans-31" transform="translate(128.203125 39.046875) scale(0.7)"/>
       <use xlink:href="#DejaVuSans-30" transform="translate(172.739258 39.046875) scale(0.7)"/>
      </g>
     </g>
    </g>
    <g id="text_7">
     <!-- Frequency (Hz) -->
     <g transform="translate(331.295313 412.756563) scale(0.1 -0.1)">
      <defs>
       <path id="DejaVuSans-46" d="M 628 4666 
L 3309 4666 
L 3309 4134 
L 1259 4134 
L 1259 2759 
L 3109 2759 
L 3109 2228 
L 1259 2228 
L 1259 0 
L 628 0 
L 628 4666 
z
" transform="scale(0.015625)"/>
       <path id="DejaVuSans-72" d="M 2631 2963 
Q 2534 3019 2420 3045 
Q 2306 3072 2169 3072 
Q 1681 3072 1420 2755 
Q 1159 2438 1159 1844 
L 1159 0 
L 581 0 
L 581 3500 
L 1159 3500 
L 1159 2956 
Q 1341 3275 1631 3429 
Q 1922 3584 2338 3584 
Q 2397 3584 2469 3576 
Q 2541 3569 2628 3553 
L 2631 2963 
z
" transform="scale(0.015625)"/>
       <path id="DejaVuSans-65" d="M 3597 1894 
L 3597 1613 
L 953 1613 
Q 991 1019 1311 708 
Q 1631 397 2203 397 
Q 2534 397 2845 478 
Q 3156 559 3463 722 
L 3463 178 
Q 3153 47 2828 -22 
Q 2503 -91 2169 -91 
Q 1331 -91 842 396 
Q 353 884 353 1716 
Q 353 2575 817 3079 
Q 1281 3584 2069 3584 
Q 2775 3584 3186 3129 
Q 3597 2675 3597 1894 
z
M 3022 2063 
Q 3016 2534 2758 2815 
Q 2500 3097 2075 3097 
Q 1594 3097 1305 2825 
Q 1016 2553 972 2059 
L 3022 2063 
z
" transform="scale(0.015625)"/>
       <path id="DejaVuSans-71" d="M 947 1747 
Q 947 1113 1208 752 
Q 1469 391 1925 391 
Q 2381 391 2643 752 
Q 2906 1113 2906 1747 
Q 2906 2381 2643 2742 
Q 2381 3103 1925 3103 
Q 1469 3103 1208 2742 
Q 947 2381 947 1747 
z
M 2906 525 
Q 2725 213 2448 61 
Q 2172 -91 1784 -91 
Q 1150 -91 751 415 
Q 353 922 353 1747 
Q 353 2572 751 3078 
Q 1150 3584 1784 3584 
Q 2172 3584 2448 3432 
Q 2725 3281 2906 2969 
L 2906 3500 
L 3481 3500 
L 3481 -1331 
L 2906 -1331 
L 2906 525 
z
" transform="scale(0.015625)"/>
       <path id="DejaVuSans-75" d="M 544 1381 
L 544 3500 
L 1119 3500 
L 1119 1403 
Q 1119 906 1312 657 
Q 1506 409 1894 409 
Q 2359 409 2629 706 
Q 2900 1003 2900 1516 
L 2900 3500 
L 3475 3500 
L 3475 0 
L 2900 0 
L 2900 538 
Q 2691 219 2414 64 
Q 2138 -91 1772 -91 
Q 1169 -91 856 284 
Q 544 659 544 1381 
z
M 1991 3584 
L 1991 3584 
z
" transform="scale(0.015625)"/>
       <path id="DejaVuSans-6e" d="M 3513 2113 
L 3513 0 
L 2938 0 
L 2938 2094 
Q 2938 2591 2744 2837 
Q 2550 3084 2163 3084 
Q 1697 3084 1428 2787 
Q 1159 2491 1159 1978 
L 1159 0 
L 581 0 
L 581 3500 
L 1159 3500 
L 1159 2956 
Q 1366 3272 1645 3428 
Q 1925 3584 2291 3584 
Q 2894 3584 3203 3211 
Q 3513 2838 3513 2113 
z
" transform="scale(0.015625)"/>
       <path id="DejaVuSans-63" d="M 3122 3366 
L 3122 2828 
Q 2878 2963 2633 3030 
Q 2388 3097 2138 3097 
Q 1578 3097 1268 2742 
Q 959 2388 959 1747 
Q 959 1106 1268 751 
Q 1578 397 2138 397 
Q 2388 397 2633 464 
Q 2878 531 3122 666 
L 3122 134 
Q 2881 22 2623 -34 
Q 2366 -91 2075 -91 
Q 1284 -91 818 406 
Q 353 903 353 1747 
Q 353 2603 823 3093 
Q 1294 3584 2113 3584 
Q 2378 3584 2631 3529 
Q 2884 3475 3122 3366 
z
" transform="scale(0.015625)"/>
       <path id="DejaVuSans-79" d="M 2059 -325 
Q 1816 -950 1584 -1140 
Q 1353 -1331 966 -1331 
L 506 -1331 
L 506 -850 
L 844 -850 
Q 1081 -850 1212 -737 
Q 1344 -625 1503 -206 
L 1606 56 
L 191 3500 
L 800 3500 
L 1894 763 
L 2988 3500 
L 3597 3500 
L 2059 -325 
z
" transform="scale(0.015625)"/>
       <path id="DejaVuSans-20" transform="scale(0.015625)"/>
       <path id="DejaVuSans-28" d="M 1984 4856 
Q 1566 4138 1362 3434 
Q 1159 2731 1159 2009 
Q 1159 1288 1364 580 
Q 1569 -128 1984 -844 
L 1484 -844 
Q 1016 -109 783 600 
Q 550 1309 550 2009 
Q 550 2706 781 3412 
Q 1013 4119 1484 4856 
L 1984 4856 
z
" transform="scale(0.015625)"/>
       <path id="DejaVuSans-48" d="M 628 4666 
L 1259 4666 
L 1259 2753 
L 3553 2753 
L 3553 4666 
L 4184 4666 
L 4184 0 
L 3553 0 
L 3553 2222 
L 1259 2222 
L 1259 0 
L 628 0 
L 628 4666 
z
" transform="scale(0.015625)"/>
       <path id="DejaVuSans-7a" d="M 353 3500 
L 3084 3500 
L 3084 2975 
L 922 459 
L 3084 459 
L 3084 0 
L 275 0 
L 275 525 
L 2438 3041 
L 353 3041 
L 353 3500 
z
" transform="scale(0.015625)"/>
       <path id="DejaVuSans-29" d="M 513 4856 
L 1013 4856 
Q 1481 4119 1714 3412 
Q 1947 2706 1947 2009 
Q 1947 1309 1714 600 
Q 1481 -109 1013 -844 
L 513 -844 
Q 928 -128 1133 580 
Q 1338 1288 1338 2009 
Q 1338 2731 1133 3434 
Q 928 4138 513 4856 
z
" transform="scale(0.015625)"/>
      </defs>
      <use xlink:href="#DejaVuSans-46"/>
      <use xlink:href="#DejaVuSans-72" transform="translate(50.269531 0)"/>
      <use xlink:href="#DejaVuSans-65" transform="translate(89.132812 0)"/>
      <use xlink:href="#DejaVuSans-71" transform="translate(150.65625 0)"/>
      <use xlink:href="#DejaVuSans-75" transform="translate(214.132812 0)"/>
      <use xlink:href="#DejaVuSans-65" transform="translate(277.511719 0)"/>
      <use xlink:href="#DejaVuSans-6e" transform="translate(339.035156 0)"/>
      <use xlink:href="#DejaVuSans-63" transform="translate(402.414062 0)"/>
      <use xlink:href="#DejaVuSans-79" transform="translate(457.394531 0)"/>
      <use xlink:href="#DejaVuSans-20" transform="translate(516.574219 0)"/>
      <use xlink:href="#DejaVuSans-28" transform="translate(548.361328 0)"/>
      <use xlink:href="#DejaVuSans-48" transform="translate(587.375 0)"/>
      <use xlink:href="#DejaVuSans-7a" transform="translate(662.570312 0)"/>
      <use xlink:href="#DejaVuSans-29" transform="translate(715.060547 0)"/>
     </g>
    </g>
   </g>
   <g id="matplotlib.axis_2">
    <g id="ytick_1">
     <g id="line2d_13">
      <path d="M 90 384.48 
L 648 384.48 
" clip-path="url(#pbf05b4dfc7)" style="fill: none; stroke: #b0b0b0; stroke-width: 0.8; stroke-linecap: square"/>
     </g>
     <g id="line2d_14">
      <defs>
       <path id="m1dc723fa22" d="M 0 0 
L -3.5 0 
" style="stroke: #000000; stroke-width: 0.8"/>
      </defs>
      <g>
       <use xlink:href="#m1dc723fa22" x="90" y="384.48" style="stroke: #000000; stroke-width: 0.8"/>
      </g>
     </g>
     <g id="text_8">
      <!-- −60 -->
      <g transform="translate(61.895313 388.279219) scale(0.1 -0.1)">
       <defs>
        <path id="DejaVuSans-2212" d="M 678 2272 
L 4684 2272 
L 4684 1741 
L 678 1741 
L 678 2272 
z
" transform="scale(0.015625)"/>
       </defs>
       <use xlink:href="#DejaVuSans-2212"/>
       <use xlink:href="#DejaVuSans-36" transform="translate(83.789062 0)"/>
       <use xlink:href="#DejaVuSans-30" transform="translate(147.412109 0)"/>
      </g>
     </g>
    </g>
    <g id="ytick_2">
     <g id="line2d_15">
      <path d="M 90 317.952 
L 648 317.952 
" clip-path="url(#pbf05b4dfc7)" style="fill: none; stroke: #b0b0b0; stroke-width: 0.8; stroke-linecap: square"/>
     </g>
     <g id="line2d_16">
      <g>
       <use xlink:href="#m1dc723fa22" x="90" y="317.952" style="stroke: #000000; stroke-width: 0.8"/>
      </g>
     </g>
     <g id="text_9">
      <!-- −50 -->
      <g transform="translate(61.895313 321.751219) scale(0.1 -0.1)">
       <defs>
        <path id="DejaVuSans-35" d="M 691 4666 
L 3169 4666 
L 3169 4134 
L 1269 4134 
L 1269 2991 
Q 1406 3038 1543 3061 
Q 1681 3084 1819 3084 
Q 2600 3084 3056 2656 
Q 3513 2228 3513 1497 
Q 3513 744 3044 326 
Q 2575 -91 1722 -91 
Q 1428 -91 1123 -41 
Q 819 9 494 109 
L 494 744 
Q 775 591 1075 516 
Q 1375 441 1709 441 
Q 2250 441 2565 725 
Q 2881 1009 2881 1497 
Q 2881 1984 2565 2268 
Q 2250 2553 1709 2553 
Q 1456 2553 1204 2497 
Q 953 2441 691 2322 
L 691 4666 
z
" transform="scale(0.015625)"/>
       </defs>
       <use xlink:href="#DejaVuSans-2212"/>
       <use xlink:href="#DejaVuSans-35" transform="translate(83.789062 0)"/>
       <use xlink:href="#DejaVuSans-30" transform="translate(147.412109 0)"/>
      </g>
     </g>
    </g>
    <g id="ytick_3">
     <g id="line2d_17">
      <path d="M 90 251.424 
L 648 251.424 
" clip-path="url(#pbf05b4dfc7)" style="fill: none; stroke: #b0b0b0; stroke-width: 0.8; stroke-linecap: square"/>
     </g>
     <g id="line2d_18">
      <g>
       <use xlink:href="#m1dc723fa22" x="90" y="251.424" style="stroke: #000000; stroke-width: 0.8"/>
      </g>
     </g>
     <g id="text_10">
      <!-- −40 -->
      <g transform="translate(61.895313 255.223219) scale(0.1 -0.1)">
       <use xlink:href="#DejaVuSans-2212"/>
       <use xlink:href="#DejaVuSans-34" transform="translate(83.789062 0)"/>
       <use xlink:href="#DejaVuSans-30" transform="translate(147.412109 0)"/>
      </g>
     </g>
    </g>
    <g id="ytick_4">
     <g id="line2d_19">
      <path d="M 90 184.896 
L 648 184.896 
" clip-path="url(#pbf05b4dfc7)" style="fill: none; stroke: #b0b0b0; stroke-width: 0.8; stroke-linecap: square"/>
     </g>
     <g id="line2d_20">
      <g>
       <use xlink:href="#m1dc723fa22" x="90" y="184.896" style="stroke: #000000; stroke-width: 0.8"/>
      </g>
     </g>
     <g id="text_11">
      <!-- −30 -->
      <g transform="translate(61.895313 188.695219) scale(0.1 -0.1)">
       <defs>
        <path id="DejaVuSans-33" d="M 2597 2516 
Q 3050 2419 3304 2112 
Q 3559 1806 3559 1356 
Q 3559 666 3084 287 
Q 2609 -91 1734 -91 
Q 1441 -91 1130 -33 
Q 819 25 488 141 
L 488 750 
Q 750 597 1062 519 
Q 1375 441 1716 441 
Q 2309 441 2620 675 
Q 2931 909 2931 1356 
Q 2931 1769 2642 2001 
Q 2353 2234 1838 2234 
L 1294 2234 
L 1294 2753 
L 1863 2753 
Q 2328 2753 2575 2939 
Q 2822 3125 2822 3475 
Q 2822 3834 2567 4026 
Q 2313 4219 1838 4219 
Q 1578 4219 1281 4162 
Q 984 4106 628 3988 
L 628 4550 
Q 988 4650 1302 4700 
Q 1616 4750 1894 4750 
Q 2613 4750 3031 4423 
Q 3450 4097 3450 3541 
Q 3450 3153 3228 2886 
Q 3006 2619 2597 2516 
z
" transform="scale(0.015625)"/>
       </defs>
       <use xlink:href="#DejaVuSans-2212"/>
       <use xlink:href="#DejaVuSans-33" transform="translate(83.789062 0)"/>
       <use xlink:href="#DejaVuSans-30" transform="translate(147.412109 0)"/>
      </g>
     </g>
    </g>
    <g id="ytick_5">
     <g id="line2d_21">
      <path d="M 90 118.368 
L 648 118.368 
" clip-path="url(#pbf05b4dfc7)" style="fill: none; stroke: #b0b0b0; stroke-width: 0.8; stroke-linecap: square"/>
     </g>
     <g id="line2d_22">
      <g>
       <use xlink:href="#m1dc723fa22" x="90" y="118.368" style="stroke: #000000; stroke-width: 0.8"/>
      </g>
     </g>
     <g id="text_12">
      <!-- −20 -->
      <g transform="translate(61.895313 122.167219) scale(0.1 -0.1)">
       <use xlink:href="#DejaVuSans-2212"/>
       <use xlink:href="#DejaVuSans-32" transform="translate(83.789062 0)"/>
       <use xlink:href="#DejaVuSans-30" transform="translate(147.412109 0)"/>
      </g>
     </g>
    </g>
    <g id="ytick_6">
     <g id="line2d_23">
      <path d="M 90 51.84 
L 648 51.84 
" clip-path="url(#pbf05b4dfc7)" style="fill: none; stroke: #b0b0b0; stroke-width: 0.8; stroke-linecap: square"/>
     </g>
     <g id="line2d_24">
      <g>
       <use xlink:href="#m1dc723fa22" x="90" y="51.84" style="stroke: #000000; stroke-width: 0.8"/>
      </g>
     </g>
     <g id="text_13">
      <!-- −10 -->
      <g transform="translate(61.895313 55.639219) scale(0.1 -0.1)">
       <use xlink:href="#DejaVuSans-2212"/>
       <use xlink:href="#DejaVuSans-31" transform="translate(83.789062 0)"/>
       <use xlink:href="#DejaVuSans-30" transform="translate(147.412109 0)"/>
      </g>
     </g>
    </g>
    <g id="text_14">
     <!-- PSRR (dB) -->
     <g transform="translate(55.815625 243.392812) rotate(-90) scale(0.1 -0.1)">
      <defs>
       <path id="DejaVuSans-50" d="M 1259 4147 
L 1259 2394 
L 2053 2394 
Q 2494 2394 2734 2622 
Q 2975 2850 2975 3272 
Q 2975 3691 2734 3919 
Q 2494 4147 2053 4147 
L 1259 4147 
z
M 628 4666 
L 2053 4666 
Q 2838 4666 3239 4311 
Q 3641 3956 3641 3272 
Q 3641 2581 3239 2228 
Q 2838 1875 2053 1875 
L 1259 1875 
L 1259 0 
L 628 0 
L 628 4666 
z
" transform="scale(0.015625)"/>
       <path id="DejaVuSans-53" d="M 3425 4513 
L 3425 3897 
Q 3066 4069 2747 4153 
Q 2428 4238 2131 4238 
Q 1616 4238 1336 4038 
Q 1056 3838 1056 3469 
Q 1056 3159 1242 3001 
Q 1428 2844 1947 2747 
L 2328 2669 
Q 3034 2534 3370 2195 
Q 3706 1856 3706 1288 
Q 3706 609 3251 259 
Q 2797 -91 1919 -91 
Q 1588 -91 1214 -16 
Q 841 59 441 206 
L 441 856 
Q 825 641 1194 531 
Q 1563 422 1919 422 
Q 2459 422 2753 634 
Q 3047 847 3047 1241 
Q 3047 1584 2836 1778 
Q 2625 1972 2144 2069 
L 1759 2144 
Q 1053 2284 737 2584 
Q 422 2884 422 3419 
Q 422 4038 858 4394 
Q 1294 4750 2059 4750 
Q 2388 4750 2728 4690 
Q 3069 4631 3425 4513 
z
" transform="scale(0.015625)"/>
       <path id="DejaVuSans-52" d="M 2841 2188 
Q 3044 2119 3236 1894 
Q 3428 1669 3622 1275 
L 4263 0 
L 3584 0 
L 2988 1197 
Q 2756 1666 2539 1819 
Q 2322 1972 1947 1972 
L 1259 1972 
L 1259 0 
L 628 0 
L 628 4666 
L 2053 4666 
Q 2853 4666 3247 4331 
Q 3641 3997 3641 3322 
Q 3641 2881 3436 2590 
Q 3231 2300 2841 2188 
z
M 1259 4147 
L 1259 2491 
L 2053 2491 
Q 2509 2491 2742 2702 
Q 2975 2913 2975 3322 
Q 2975 3731 2742 3939 
Q 2509 4147 2053 4147 
L 1259 4147 
z
" transform="scale(0.015625)"/>
       <path id="DejaVuSans-64" d="M 2906 2969 
L 2906 4863 
L 3481 4863 
L 3481 0 
L 2906 0 
L 2906 525 
Q 2725 213 2448 61 
Q 2172 -91 1784 -91 
Q 1150 -91 751 415 
Q 353 922 353 1747 
Q 353 2572 751 3078 
Q 1150 3584 1784 3584 
Q 2172 3584 2448 3432 
Q 2725 3281 2906 2969 
z
M 947 1747 
Q 947 1113 1208 752 
Q 1469 391 1925 391 
Q 2381 391 2643 752 
Q 2906 1113 2906 1747 
Q 2906 2381 2643 2742 
Q 2381 3103 1925 3103 
Q 1469 3103 1208 2742 
Q 947 2381 947 1747 
z
" transform="scale(0.015625)"/>
       <path id="DejaVuSans-42" d="M 1259 2228 
L 1259 519 
L 2272 519 
Q 2781 519 3026 730 
Q 3272 941 3272 1375 
Q 3272 1813 3026 2020 
Q 2781 2228 2272 2228 
L 1259 2228 
z
M 1259 4147 
L 1259 2741 
L 2194 2741 
Q 2656 2741 2882 2914 
Q 3109 3088 3109 3444 
Q 3109 3797 2882 3972 
Q 2656 4147 2194 4147 
L 1259 4147 
z
M 628 4666 
L 2241 4666 
Q 2963 4666 3353 4366 
Q 3744 4066 3744 3513 
Q 3744 3084 3544 2831 
Q 3344 2578 2956 2516 
Q 3422 2416 3680 2098 
Q 3938 1781 3938 1306 
Q 3938 681 3513 340 
Q 3088 0 2303 0 
L 628 0 
L 628 4666 
z
" transform="scale(0.015625)"/>
      </defs>
      <use xlink:href="#DejaVuSans-50"/>
      <use xlink:href="#DejaVuSans-53" transform="translate(60.302734 0)"/>
      <use xlink:href="#DejaVuSans-52" transform="translate(123.779297 0)"/>
      <use xlink:href="#DejaVuSans-52" transform="translate(193.261719 0)"/>
      <use xlink:href="#DejaVuSans-20" transform="translate(262.744141 0)"/>
      <use xlink:href="#DejaVuSans-28" transform="translate(294.53125 0)"/>
      <use xlink:href="#DejaVuSans-64" transform="translate(333.544922 0)"/>
      <use xlink:href="#DejaVuSans-42" transform="translate(397.021484 0)"/>
      <use xlink:href="#DejaVuSans-29" transform="translate(465.625 0)"/>
     </g>
    </g>
   </g>
   <g id="line2d_25">
    <path d="M 417.80485 433 
L 424.8 417.588338 
L 435.96 391.718146 
L 447.12 365.140072 
L 458.28 337.877893 
L 469.44 309.402455 
L 480.6 278.385686 
L 491.76 242.615535 
L 502.92 200.935658 
L 514.08 161.777625 
L 525.24 141.638587 
L 536.4 131.630956 
L 547.56 124.159775 
L 558.72 121.684267 
L 569.88 126.678695 
L 581.04 139.313381 
L 592.2 157.323055 
L 603.36 176.737963 
L 614.52 193.197218 
L 625.68 204.069172 
L 636.84 209.83293 
L 648 212.470029 
" clip-path="url(#pbf05b4dfc7)" style="fill: none; stroke: #0000ff; stroke-width: 1.5; stroke-linecap: square"/>
   </g>
   <g id="line2d_26">
    <path d="M 90 211.728906 
L 101.16 211.728906 
L 112.32 211.728906 
L 123.48 211.728906 
L 134.64 211.728906 
L 145.8 211.728906 
L 156.96 211.728906 
L 168.12 211.728906 
L 179.28 211.728906 
L 190.44 211.728906 
L 201.6 211.728906 
L 212.76 211.728906 
L 223.92 211.728906 
L 235.08 211.728906 
L 246.24 211.728906 
L 257.4 211.728905 
L 268.56 211.728904 
L 279.72 211.728901 
L 290.88 211.728893 
L 302.04 211.728873 
L 313.2 211.728823 
L 324.36 211.728697 
L 335.52 211.72838 
L 346.68 211.727584 
L 357.84 211.725584 
L 369 211.720563 
L 380.16 211.707953 
L 391.32 211.676305 
L 402.48 211.596969 
L 413.64 211.398686 
L 424.8 210.90683 
L 435.96 209.708789 
L 447.12 206.911745 
L 458.28 200.939429 
L 469.44 190.041283 
L 480.6 173.97633 
L 491.76 155.115717 
L 502.92 137.795171 
L 514.08 126.943034 
L 525.24 123.452418 
L 536.4 121.707183 
L 547.56 119.587188 
L 558.72 121.337254 
L 569.88 130.217187 
L 581.04 145.737242 
L 592.2 164.425418 
L 603.36 181.451668 
L 614.52 193.149251 
L 625.68 199.404101 
L 636.84 202.249181 
L 648 203.435452 
" clip-path="url(#pbf05b4dfc7)" style="fill: none; stroke: #0000ff; stroke-width: 1.5; stroke-linecap: square"/>
   </g>
   <g id="line2d_27">
    <path d="M 417.021541 433 
L 424.8 419.667973 
L 435.96 396.614601 
L 447.12 371.3927 
L 458.28 344.950098 
L 469.44 317.409115 
L 480.6 288.072183 
L 491.76 255.266419 
L 502.92 216.690743 
L 514.08 171.83217 
L 525.24 129.492816 
L 536.4 107.771586 
L 547.56 99.631648 
L 558.72 96.333295 
L 569.88 99.222966 
L 581.04 109.509969 
L 592.2 125.846128 
L 603.36 144.691656 
L 614.52 161.646231 
L 625.68 173.456926 
L 636.84 179.985596 
L 648 183.154877 
" clip-path="url(#pbf05b4dfc7)" style="fill: none; stroke: #0000ff; stroke-width: 1.5; stroke-linecap: square"/>
   </g>
   <g id="line2d_28">
    <path d="M 90 333.28765 
L 101.16 333.28765 
L 112.32 333.28765 
L 123.48 333.28765 
L 134.64 333.28765 
L 145.8 333.28765 
L 156.96 333.28765 
L 168.12 333.28765 
L 179.28 333.28765 
L 190.44 333.28765 
L 201.6 333.28765 
L 212.76 333.28765 
L 223.92 333.28765 
L 235.08 333.28765 
L 246.24 333.287649 
L 257.4 333.287647 
L 268.56 333.287643 
L 279.72 333.287633 
L 290.88 333.287607 
L 302.04 333.287541 
L 313.2 333.287376 
L 324.36 333.286961 
L 335.52 333.285918 
L 346.68 333.283299 
L 357.84 333.276722 
L 369 333.260208 
L 380.16 333.218764 
L 391.32 333.114906 
L 402.48 332.855552 
L 413.64 332.213507 
L 424.8 330.657027 
L 435.96 327.059201 
L 447.12 319.501979 
L 458.28 305.89028 
L 469.44 285.327946 
L 480.6 258.036359 
L 491.76 224.022533 
L 502.92 185.220385 
L 514.08 153.468538 
L 525.24 138.360445 
L 536.4 129.686895 
L 547.56 123.811518 
L 558.72 123.395809 
L 569.88 130.476901 
L 581.04 144.728774 
L 592.2 163.274634 
L 603.36 181.609761 
L 614.52 195.56245 
L 625.68 203.816448 
L 636.84 207.850126 
L 648 209.613325 
" clip-path="url(#pbf05b4dfc7)" style="fill: none; stroke: #0000ff; stroke-width: 1.5; stroke-linecap: square"/>
   </g>
   <g id="line2d_29">
    <path d="M 416.688475 433 
L 424.8 418.381343 
L 435.96 394.734106 
L 447.12 369.148769 
L 458.28 342.339734 
L 469.44 314.142026 
L 480.6 283.419737 
L 491.76 247.987837 
L 502.92 206.177131 
L 514.08 164.849584 
L 525.24 142.359816 
L 536.4 131.905774 
L 547.56 124.017887 
L 558.72 120.826523 
L 569.88 124.963934 
L 581.04 136.832851 
L 592.2 154.453646 
L 603.36 174.11578 
L 614.52 191.547036 
L 625.68 203.679747 
L 636.84 210.40382 
L 648 213.566269 
" clip-path="url(#pbf05b4dfc7)" style="fill: none; stroke: #0000ff; stroke-width: 1.5; stroke-linecap: square"/>
   </g>
   <g id="line2d_30">
    <path d="M 90 388.84909 
L 101.16 388.84909 
L 112.32 388.84909 
L 123.48 388.84909 
L 134.64 388.84909 
L 145.8 388.84909 
L 156.96 388.84909 
L 168.12 388.84909 
L 179.28 388.84909 
L 190.44 388.84909 
L 201.6 388.84909 
L 212.76 388.84909 
L 223.92 388.849089 
L 235.08 388.849089 
L 246.24 388.849088 
L 257.4 388.849085 
L 268.56 388.849077 
L 279.72 388.849059 
L 290.88 388.849013 
L 302.04 388.848896 
L 313.2 388.848604 
L 324.36 388.847871 
L 335.52 388.846028 
L 346.68 388.841401 
L 357.84 388.82978 
L 369 388.800608 
L 380.16 388.727457 
L 391.32 388.544486 
L 402.48 388.089699 
L 413.64 386.976546 
L 424.8 384.348086 
L 435.96 378.59843 
L 447.12 367.617664 
L 458.28 350.099978 
L 469.44 326.293337 
L 480.6 296.518713 
L 491.76 259.8713 
L 502.92 216.02269 
L 514.08 172.635963 
L 525.24 147.461108 
L 536.4 134.87487 
L 547.56 125.373969 
L 558.72 120.73432 
L 569.88 123.529299 
L 581.04 134.274372 
L 592.2 151.248239 
L 603.36 170.988299 
L 614.52 189.36841 
L 625.68 202.962716 
L 636.84 210.934157 
L 648 214.828163 
" clip-path="url(#pbf05b4dfc7)" style="fill: none; stroke: #0000ff; stroke-width: 1.5; stroke-linecap: square"/>
   </g>
   <g id="line2d_31">
    <path d="M 90 406.51064 
L 101.16 406.51064 
L 112.32 406.51064 
L 123.48 406.51064 
L 134.64 406.51064 
L 145.8 406.51064 
L 156.96 406.51064 
L 168.12 406.51064 
L 179.28 406.51064 
L 190.44 406.51064 
L 201.6 406.510639 
L 212.76 406.510639 
L 223.92 406.510639 
L 235.08 406.510638 
L 246.24 406.510635 
L 257.4 406.510628 
L 268.56 406.51061 
L 279.72 406.510567 
L 290.88 406.510456 
L 302.04 406.510179 
L 313.2 406.509482 
L 324.36 406.507733 
L 335.52 406.503339 
L 346.68 406.492305 
L 357.84 406.464606 
L 369 406.395146 
L 380.16 406.221391 
L 391.32 405.789423 
L 402.48 404.731598 
L 413.64 402.231194 
L 424.8 396.752752 
L 435.96 386.283816 
L 447.12 369.68973 
L 458.28 347.681257 
L 469.44 321.532517 
L 480.6 291.317922 
L 491.76 255.489824 
L 502.92 212.722896 
L 514.08 169.581234 
L 525.24 144.775434 
L 536.4 133.163104 
L 547.56 124.435511 
L 558.72 120.357047 
L 569.88 123.581568 
L 581.04 134.651289 
L 592.2 151.816395 
L 603.36 171.582112 
L 614.52 189.804379 
L 625.68 203.121437 
L 636.84 210.841354 
L 648 214.582611 
" clip-path="url(#pbf05b4dfc7)" style="fill: none; stroke: #0000ff; stroke-width: 1.5; stroke-linecap: square"/>
   </g>
   <g id="line2d_32">
    <path d="M 90 421.75792 
L 101.16 421.75792 
L 112.32 421.75792 
L 123.48 421.75792 
L 134.64 421.75792 
L 145.8 421.75792 
L 156.96 421.75792 
L 168.12 421.75792 
L 179.28 421.75792 
L 190.44 421.75792 
L 201.6 421.75792 
L 212.76 421.75792 
L 223.92 421.757919 
L 235.08 421.757917 
L 246.24 421.757911 
L 257.4 421.757898 
L 268.56 421.757864 
L 279.72 421.757779 
L 290.88 421.757566 
L 302.04 421.757031 
L 313.2 421.755687 
L 324.36 421.752311 
L 335.52 421.743831 
L 346.68 421.722543 
L 357.84 421.669139 
L 369 421.535423 
L 380.16 421.20223 
L 391.32 420.381727 
L 402.48 418.417258 
L 413.64 413.998062 
L 424.8 405.175385 
L 435.96 390.445827 
L 447.12 370.155456 
L 458.28 345.904644 
L 469.44 318.768307 
L 480.6 288.369012 
L 491.76 252.852657 
L 502.92 210.580706 
L 514.08 167.835019 
L 525.24 143.554867 
L 536.4 132.453488 
L 547.56 124.104875 
L 558.72 120.342442 
L 569.88 123.846638 
L 581.04 135.146605 
L 592.2 152.445943 
L 603.36 172.204032 
L 614.52 190.246946 
L 625.68 203.276599 
L 636.84 210.74496 
L 648 214.336424 
" clip-path="url(#pbf05b4dfc7)" style="fill: none; stroke: #0000ff; stroke-width: 1.5; stroke-linecap: square"/>
   </g>
   <g id="line2d_33">
    <path d="M 421.002689 433 
L 424.8 423.963228 
L 435.96 397.286753 
L 447.12 370.433907 
L 458.28 343.193049 
L 469.44 315.040765 
L 480.6 284.850588 
L 491.76 250.68706 
L 502.92 210.583042 
L 514.08 165.683594 
L 525.24 127.325358 
L 536.4 109.14663 
L 547.56 101.70067 
L 558.72 99.271224 
L 569.88 103.533477 
L 581.04 115.224999 
L 592.2 132.383665 
L 603.36 150.988292 
L 614.52 166.516302 
L 625.68 176.442468 
L 636.84 181.561774 
L 648 183.969082 
" clip-path="url(#pbf05b4dfc7)" style="fill: none; stroke: #0000ff; stroke-width: 1.5; stroke-linecap: square"/>
   </g>
   <g id="line2d_34">
    <path d="M 422.919691 433 
L 424.8 428.537425 
L 435.96 401.815235 
L 447.12 374.760156 
L 458.28 346.998207 
L 469.44 317.653682 
L 480.6 285.09875 
L 491.76 247.322993 
L 502.92 203.753815 
L 514.08 158.531646 
L 525.24 124.851226 
L 536.4 109.773751 
L 547.56 103.143345 
L 558.72 101.903951 
L 569.88 107.759527 
L 581.04 120.862099 
L 592.2 138.617076 
L 603.36 156.536055 
L 614.52 170.222109 
L 625.68 178.211358 
L 636.84 182.078999 
L 648 183.856522 
" clip-path="url(#pbf05b4dfc7)" style="fill: none; stroke: #0000ff; stroke-width: 1.5; stroke-linecap: square"/>
   </g>
   <g id="line2d_35">
    <path d="M 424.281046 433 
L 424.8 431.758237 
L 435.96 404.91365 
L 447.12 377.723403 
L 458.28 349.705284 
L 469.44 319.828318 
L 480.6 286.31608 
L 491.76 247.2808 
L 502.92 202.710262 
L 514.08 157.415063 
L 525.24 124.591574 
L 536.4 109.931839 
L 547.56 103.411438 
L 558.72 102.373645 
L 569.88 108.491037 
L 581.04 121.806076 
L 592.2 139.614214 
L 603.36 157.349445 
L 614.52 170.672712 
L 625.68 178.328675 
L 636.84 181.997792 
L 648 183.678455 
" clip-path="url(#pbf05b4dfc7)" style="fill: none; stroke: #0000ff; stroke-width: 1.5; stroke-linecap: square"/>
   </g>
   <g id="line2d_36">
    <path d="M 419.650637 433 
L 424.8 420.922192 
L 435.96 394.383171 
L 447.12 367.542782 
L 458.28 340.201529 
L 469.44 311.754544 
L 480.6 280.865963 
L 491.76 245.291966 
L 502.92 203.566401 
L 514.08 163.28434 
L 525.24 141.988434 
L 536.4 131.774062 
L 547.56 124.08796 
L 558.72 121.241472 
L 569.88 125.795687 
L 581.04 138.042172 
L 592.2 155.86229 
L 603.36 175.418977 
L 614.52 192.386523 
L 625.68 203.896029 
L 636.84 210.1338 
L 648 213.026414 
" clip-path="url(#pbf05b4dfc7)" style="fill: none; stroke: #0000ff; stroke-width: 1.5; stroke-linecap: square"/>
   </g>
   <g id="line2d_37">
    <path d="M 90 373.929891 
L 101.16 373.929891 
L 112.32 373.929891 
L 123.48 373.929891 
L 134.64 373.929891 
L 145.8 373.929891 
L 156.96 373.929891 
L 168.12 373.929891 
L 179.28 373.929891 
L 190.44 373.92989 
L 201.6 373.92989 
L 212.76 373.92989 
L 223.92 373.92989 
L 235.08 373.929889 
L 246.24 373.929887 
L 257.4 373.929882 
L 268.56 373.92987 
L 279.72 373.929838 
L 290.88 373.929759 
L 302.04 373.929559 
L 313.2 373.929059 
L 324.36 373.927801 
L 335.52 373.924642 
L 346.68 373.916709 
L 357.84 373.896791 
L 369 373.846819 
L 380.16 373.721665 
L 391.32 373.409607 
L 402.48 372.639964 
L 413.64 370.790557 
L 424.8 366.597438 
L 435.96 358.104193 
L 447.12 343.616643 
L 458.28 323.103671 
L 469.44 297.65555 
L 480.6 267.571695 
L 491.76 231.831115 
L 502.92 191.104016 
L 514.08 156.500537 
L 525.24 139.867617 
L 536.4 130.667868 
L 547.56 124.201501 
L 558.72 123.140526 
L 569.88 129.636067 
L 581.04 143.474389 
L 592.2 161.929784 
L 603.36 180.626448 
L 614.52 195.279315 
L 625.68 204.191846 
L 636.84 208.630892 
L 648 210.590931 
" clip-path="url(#pbf05b4dfc7)" style="fill: none; stroke: #0000ff; stroke-width: 1.5; stroke-linecap: square"/>
   </g>
   <g id="line2d_38">
    <path d="M 90 374.19721 
L 101.16 374.19721 
L 112.32 374.19721 
L 123.48 374.19721 
L 134.64 374.19721 
L 145.8 374.19721 
L 156.96 374.19721 
L 168.12 374.19721 
L 179.28 374.19721 
L 190.44 374.19721 
L 201.6 374.19721 
L 212.76 374.19721 
L 223.92 374.19721 
L 235.08 374.19721 
L 246.24 374.19721 
L 257.4 374.197212 
L 268.56 374.197214 
L 279.72 374.197221 
L 290.88 374.197238 
L 302.04 374.197281 
L 313.2 374.197389 
L 324.36 374.197659 
L 335.52 374.198339 
L 346.68 374.200046 
L 357.84 374.204333 
L 369 374.215105 
L 380.16 374.24217 
L 391.32 374.310204 
L 402.48 374.481413 
L 413.64 374.913467 
L 424.8 376.011529 
L 435.96 378.853463 
L 447.12 386.571283 
L 458.28 410.382497 
L 469.44 417.89926 
L 480.6 325.36618 
L 491.76 260.217813 
L 502.92 204.452443 
L 514.08 157.818672 
L 525.24 128.47934 
L 536.4 114.871002 
L 547.56 108.469942 
L 558.72 108.170861 
L 569.88 115.389751 
L 581.04 129.576015 
L 592.2 147.443289 
L 603.36 164.09297 
L 614.52 175.632387 
L 625.68 181.802881 
L 636.84 184.630716 
L 648 185.898041 
" clip-path="url(#pbf05b4dfc7)" style="fill: none; stroke: #0000ff; stroke-width: 1.5; stroke-linecap: square"/>
   </g>
   <g id="line2d_39">
    <path d="M 419.750193 433 
L 424.8 422.533653 
L 435.96 397.36884 
L 447.12 371.187841 
L 458.28 344.332603 
L 469.44 316.601083 
L 480.6 287.13946 
L 491.76 254.20289 
L 502.92 215.506664 
L 514.08 170.735448 
L 525.24 129.088417 
L 536.4 107.998586 
L 547.56 99.956636 
L 558.72 96.771606 
L 569.88 99.861808 
L 581.04 110.366898 
L 592.2 126.841809 
L 603.36 145.667387 
L 614.52 162.4105 
L 625.68 173.91428 
L 636.84 180.198798 
L 648 183.231685 
" clip-path="url(#pbf05b4dfc7)" style="fill: none; stroke: #0000ff; stroke-width: 1.5; stroke-linecap: square"/>
   </g>
   <g id="line2d_40">
    <path d="M 421.171372 433 
L 424.8 424.340141 
L 435.96 397.619869 
L 447.12 370.715666 
L 458.28 343.372223 
L 469.44 314.990342 
L 480.6 284.324792 
L 491.76 249.37109 
L 502.92 208.420992 
L 514.08 163.429992 
L 525.24 126.546374 
L 536.4 109.495829 
L 547.56 102.33818 
L 558.72 100.293249 
L 569.88 105.08835 
L 581.04 117.276225 
L 592.2 134.681171 
L 603.36 153.122827 
L 614.52 168.086595 
L 625.68 177.368669 
L 636.84 182.051438 
L 648 184.234506 
" clip-path="url(#pbf05b4dfc7)" style="fill: none; stroke: #0000ff; stroke-width: 1.5; stroke-linecap: square"/>
   </g>
   <g id="line2d_41">
    <path d="M 90 408.183975 
L 101.16 408.183975 
L 112.32 408.183975 
L 123.48 408.183975 
L 134.64 408.183975 
L 145.8 408.183975 
L 156.96 408.183975 
L 168.12 408.183975 
L 179.28 408.183975 
L 190.44 408.183975 
L 201.6 408.183975 
L 212.76 408.183974 
L 223.92 408.183973 
L 235.08 408.183971 
L 246.24 408.183965 
L 257.4 408.183951 
L 268.56 408.183916 
L 279.72 408.183826 
L 290.88 408.183601 
L 302.04 408.183037 
L 313.2 408.181619 
L 324.36 408.178057 
L 335.52 408.169111 
L 346.68 408.146653 
L 357.84 408.090317 
L 369 407.949287 
L 380.16 407.598017 
L 391.32 406.73391 
L 402.48 404.670074 
L 413.64 400.05102 
L 424.8 390.910281 
L 435.96 375.819138 
L 447.12 355.226753 
L 458.28 330.7274 
L 469.44 303.286739 
L 480.6 272.403147 
L 491.76 236.359617 
L 502.92 194.998248 
L 514.08 158.547123 
L 525.24 140.692111 
L 536.4 131.157828 
L 547.56 124.272135 
L 558.72 122.676931 
L 569.88 128.639339 
L 581.04 142.072662 
L 592.2 160.405663 
L 603.36 179.396476 
L 614.52 194.697391 
L 625.68 204.265474 
L 636.84 209.12714 
L 648 211.29747 
" clip-path="url(#pbf05b4dfc7)" style="fill: none; stroke: #0000ff; stroke-width: 1.5; stroke-linecap: square"/>
   </g>
   <g id="line2d_42">
    <path d="M 420.798155 433 
L 424.8 423.704833 
L 435.96 397.296385 
L 447.12 370.574481 
L 458.28 343.442855 
L 469.44 315.466426 
L 480.6 285.622004 
L 491.76 252.047954 
L 502.92 212.609308 
L 514.08 167.783185 
L 525.24 128.046495 
L 536.4 108.707632 
L 547.56 100.994654 
L 558.72 98.221809 
L 569.88 101.979874 
L 581.04 113.17821 
L 592.2 130.066843 
L 603.36 148.78595 
L 614.52 164.832369 
L 625.68 175.397504 
L 636.84 180.971713 
L 648 183.61846 
" clip-path="url(#pbf05b4dfc7)" style="fill: none; stroke: #0000ff; stroke-width: 1.5; stroke-linecap: square"/>
   </g>
   <g id="line2d_43">
    <path d="M 90 308.23431 
L 101.16 308.23431 
L 112.32 308.23431 
L 123.48 308.23431 
L 134.64 308.23431 
L 145.8 308.23431 
L 156.96 308.23431 
L 168.12 308.23431 
L 179.28 308.23431 
L 190.44 308.23431 
L 201.6 308.23431 
L 212.76 308.23431 
L 223.92 308.23431 
L 235.08 308.23431 
L 246.24 308.23431 
L 257.4 308.23431 
L 268.56 308.23431 
L 279.72 308.23431 
L 290.88 308.234311 
L 302.04 308.234314 
L 313.2 308.23432 
L 324.36 308.234335 
L 335.52 308.234374 
L 346.68 308.234473 
L 357.84 308.234719 
L 369 308.235337 
L 380.16 308.23689 
L 391.32 308.240784 
L 402.48 308.250523 
L 413.64 308.274724 
L 424.8 308.333854 
L 435.96 308.471819 
L 447.12 308.750589 
L 458.28 309.010663 
L 469.44 306.927838 
L 480.6 290.957164 
L 491.76 250.822401 
L 502.92 202.023437 
L 514.08 159.463209 
L 525.24 132.719059 
L 536.4 119.363474 
L 547.56 112.783199 
L 558.72 112.64353 
L 569.88 120.249675 
L 581.04 134.780424 
L 592.2 152.731771 
L 603.36 169.137201 
L 614.52 180.276175 
L 625.68 186.135821 
L 636.84 188.790237 
L 648 189.956208 
" clip-path="url(#pbf05b4dfc7)" style="fill: none; stroke: #0000ff; stroke-width: 1.5; stroke-linecap: square"/>
   </g>
   <g id="line2d_44">
    <path d="M 404.673063 433 
L 413.64 424.342353 
L 424.8 407.618205 
L 435.96 386.02984 
L 447.12 361.422042 
L 458.28 334.965039 
L 469.44 306.744186 
L 480.6 275.68608 
L 491.76 239.728086 
L 502.92 198.135931 
L 514.08 160.229163 
L 525.24 141.227978 
L 536.4 131.438051 
L 547.56 124.227102 
L 558.72 122.165523 
L 569.88 127.629105 
L 581.04 140.660877 
L 592.2 158.843856 
L 603.36 178.072399 
L 614.52 193.976011 
L 625.68 204.199055 
L 636.84 209.503119 
L 648 211.899244 
" clip-path="url(#pbf05b4dfc7)" style="fill: none; stroke: #0000ff; stroke-width: 1.5; stroke-linecap: square"/>
   </g>
   <g id="line2d_45">
    <path d="M 421.05771 433 
L 424.8 424.061748 
L 435.96 397.340688 
L 447.12 370.45519 
L 458.28 343.16521 
L 469.44 314.910068 
L 480.6 284.508184 
L 491.76 249.989315 
L 502.92 209.499374 
L 514.08 164.564222 
L 525.24 126.935905 
L 536.4 109.33238 
L 547.56 102.032598 
L 558.72 99.793009 
L 569.88 104.320254 
L 581.04 116.26137 
L 592.2 133.547447 
L 603.36 152.077493 
L 614.52 167.329428 
L 625.68 176.934215 
L 636.84 181.833056 
L 648 184.126457 
" clip-path="url(#pbf05b4dfc7)" style="fill: none; stroke: #0000ff; stroke-width: 1.5; stroke-linecap: square"/>
   </g>
   <g id="line2d_46">
    <path d="M 426.678855 433 
L 435.96 416.073813 
L 447.12 391.441369 
L 458.28 363.344043 
L 469.44 331.141772 
L 480.6 293.367795 
L 491.76 249.588048 
L 502.92 201.849035 
L 514.08 156.21149 
L 525.24 125.110124 
L 536.4 111.144313 
L 547.56 104.781491 
L 558.72 104.130088 
L 569.88 110.772881 
L 581.04 124.503686 
L 592.2 142.36592 
L 603.36 159.63042 
L 614.52 172.128986 
L 625.68 179.070698 
L 636.84 182.327524 
L 648 183.807807 
" clip-path="url(#pbf05b4dfc7)" style="fill: none; stroke: #0000ff; stroke-width: 1.5; stroke-linecap: square"/>
   </g>
   <g id="line2d_47">
    <path d="M 426.213645 433 
L 435.96 409.679887 
L 447.12 382.402727 
L 458.28 354.018979 
L 469.44 323.319647 
L 480.6 288.394858 
L 491.76 247.66378 
L 502.92 201.877861 
L 514.08 156.518684 
L 525.24 124.589977 
L 536.4 110.321023 
L 547.56 103.900453 
L 558.72 103.063105 
L 569.88 109.443629 
L 581.04 122.967827 
L 592.2 140.812684 
L 603.36 158.332388 
L 614.52 171.262702 
L 625.68 178.571507 
L 636.84 182.038187 
L 648 183.620444 
" clip-path="url(#pbf05b4dfc7)" style="fill: none; stroke: #0000ff; stroke-width: 1.5; stroke-linecap: square"/>
   </g>
   <g id="line2d_48">
    <path d="M 90 431.993109 
L 101.16 431.993109 
L 112.32 431.993109 
L 123.48 431.993109 
L 134.64 431.993109 
L 145.8 431.993109 
L 156.96 431.993109 
L 168.12 431.993109 
L 179.28 431.993109 
L 190.44 431.993109 
L 201.6 431.993109 
L 212.76 431.993109 
L 223.92 431.993109 
L 235.08 431.993109 
L 246.24 431.993107 
L 257.4 431.993104 
L 268.56 431.993096 
L 279.72 431.993075 
L 290.88 431.993023 
L 302.04 431.992892 
L 313.2 431.992564 
L 324.36 431.991739 
L 335.52 431.989667 
L 346.68 431.984463 
L 357.84 431.971393 
L 369 431.938579 
L 380.16 431.856251 
L 391.32 431.650072 
L 402.48 431.13602 
L 413.64 429.868337 
L 424.8 426.822145 
L 435.96 419.906301 
L 447.12 405.798142 
L 458.28 381.263523 
L 469.44 345.658649 
L 480.6 301.542395 
L 491.76 252.584856 
L 502.92 202.23705 
L 514.08 156.370608 
L 525.24 126.212431 
L 536.4 112.517273 
L 547.56 106.187222 
L 558.72 105.723136 
L 569.88 112.643452 
L 581.04 126.59076 
L 592.2 144.45699 
L 603.36 161.426727 
L 614.52 173.454436 
L 625.68 180.010555 
L 636.84 183.051265 
L 648 184.425826 
" clip-path="url(#pbf05b4dfc7)" style="fill: none; stroke: #0000ff; stroke-width: 1.5; stroke-linecap: square"/>
   </g>
   <g id="line2d_49">
    <path d="M 421.613602 433 
L 424.8 425.447494 
L 435.96 398.778412 
L 447.12 371.841085 
L 458.28 344.355601 
L 469.44 315.625885 
L 480.6 284.250183 
L 491.76 248.177015 
L 502.92 206.11731 
L 514.08 161.016845 
L 525.24 125.692436 
L 536.4 109.684356 
L 547.56 102.803408 
L 558.72 101.158938 
L 569.88 106.48842 
L 581.04 119.149339 
L 592.2 136.756097 
L 603.36 154.972926 
L 614.52 169.324697 
L 625.68 177.961857 
L 636.84 182.228407 
L 648 184.202489 
" clip-path="url(#pbf05b4dfc7)" style="fill: none; stroke: #0000ff; stroke-width: 1.5; stroke-linecap: square"/>
   </g>
   <g id="line2d_50">
    <path d="M 421.332999 433 
L 424.8 424.751427 
L 435.96 398.054537 
L 447.12 371.13623 
L 458.28 343.730682 
L 469.44 315.195655 
L 480.6 284.214036 
L 491.76 248.752823 
L 502.92 207.287096 
L 514.08 162.243066 
L 525.24 126.129017 
L 536.4 109.613002 
L 547.56 102.596579 
L 558.72 100.75104 
L 569.88 105.814381 
L 581.04 118.242852 
L 592.2 135.755203 
L 603.36 154.092858 
L 614.52 168.75668 
L 625.68 177.716187 
L 636.84 182.188257 
L 648 184.264972 
" clip-path="url(#pbf05b4dfc7)" style="fill: none; stroke: #0000ff; stroke-width: 1.5; stroke-linecap: square"/>
   </g>
   <g id="line2d_51">
    <path d="M 420.162804 433 
L 424.8 422.987909 
L 435.96 397.374025 
L 447.12 370.995537 
L 458.28 344.042471 
L 469.44 316.231206 
L 480.6 286.651186 
L 491.76 253.518003 
L 502.92 214.588519 
L 514.08 169.793943 
L 525.24 128.758423 
L 536.4 108.246907 
L 547.56 100.299962 
L 558.72 97.236301 
L 569.88 100.535942 
L 581.04 111.264572 
L 592.2 127.877297 
L 603.36 146.674952 
L 614.52 163.196127 
L 625.68 174.389817 
L 636.84 180.433785 
L 648 183.334146 
" clip-path="url(#pbf05b4dfc7)" style="fill: none; stroke: #0000ff; stroke-width: 1.5; stroke-linecap: square"/>
   </g>
   <g id="line2d_52">
    <path d="M 393.784726 433 
L 402.48 430.428426 
L 413.64 423.490534 
L 424.8 411.062799 
L 435.96 392.77412 
L 447.12 370.0556 
L 458.28 344.552379 
L 469.44 316.897195 
L 480.6 286.374893 
L 491.76 250.966645 
L 502.92 208.943862 
L 514.08 166.647058 
L 525.24 142.949483 
L 536.4 132.144953 
L 547.56 124.005115 
L 558.72 120.458726 
L 569.88 124.184147 
L 581.04 135.678341 
L 592.2 153.089761 
L 603.36 172.82534 
L 614.52 190.677655 
L 625.68 203.416604 
L 636.84 210.637472 
L 648 214.084025 
" clip-path="url(#pbf05b4dfc7)" style="fill: none; stroke: #0000ff; stroke-width: 1.5; stroke-linecap: square"/>
   </g>
   <g id="line2d_53">
    <path d="M 90 391.248453 
L 101.16 391.248453 
L 112.32 391.248453 
L 123.48 391.248453 
L 134.64 391.248453 
L 145.8 391.248453 
L 156.96 391.248453 
L 168.12 391.248453 
L 179.28 391.248453 
L 190.44 391.248453 
L 201.6 391.248453 
L 212.76 391.248453 
L 223.92 391.248452 
L 235.08 391.248451 
L 246.24 391.248447 
L 257.4 391.248439 
L 268.56 391.248418 
L 279.72 391.248365 
L 290.88 391.248232 
L 302.04 391.247897 
L 313.2 391.247057 
L 324.36 391.244947 
L 335.52 391.239648 
L 346.68 391.226341 
L 357.84 391.192942 
L 369 391.109215 
L 380.16 390.899952 
L 391.32 390.380806 
L 402.48 389.115936 
L 413.64 386.160272 
L 424.8 379.8303 
L 435.96 368.160207 
L 447.12 350.396523 
L 458.28 327.567155 
L 469.44 300.89804 
L 480.6 270.288228 
L 491.76 234.313767 
L 502.92 193.189751 
L 514.08 157.592922 
L 525.24 140.332163 
L 536.4 130.951546 
L 547.56 124.261167 
L 558.72 122.923193 
L 569.88 129.147361 
L 581.04 142.782674 
L 592.2 161.180549 
L 603.36 180.031719 
L 614.52 195.014296 
L 625.68 204.254488 
L 636.84 208.902332 
L 648 210.965615 
" clip-path="url(#pbf05b4dfc7)" style="fill: none; stroke: #0000ff; stroke-width: 1.5; stroke-linecap: square"/>
   </g>
   <g id="line2d_54">
    <path d="M 422.084356 433 
L 424.8 426.580249 
L 435.96 399.923027 
L 447.12 372.950453 
L 458.28 345.355381 
L 469.44 316.369769 
L 480.6 284.490847 
L 491.76 247.668468 
L 502.92 204.920354 
L 514.08 159.762478 
L 525.24 125.249402 
L 536.4 109.721842 
L 547.56 102.970361 
L 558.72 101.528268 
L 569.88 107.121579 
L 581.04 120.00673 
L 592.2 137.694348 
L 603.36 155.772338 
L 614.52 169.799176 
L 625.68 178.11379 
L 636.84 182.179493 
L 648 184.054225 
" clip-path="url(#pbf05b4dfc7)" style="fill: none; stroke: #0000ff; stroke-width: 1.5; stroke-linecap: square"/>
   </g>
   <g id="line2d_55">
    <path d="M 418.99846 433 
L 424.8 419.441162 
L 435.96 392.939246 
L 447.12 366.110996 
L 458.28 338.767896 
L 469.44 310.305156 
L 480.6 279.382348 
L 491.76 243.769455 
L 502.92 202.131294 
L 514.08 162.443532 
L 525.24 141.761382 
L 536.4 131.677614 
L 547.56 124.10991 
L 558.72 121.45107 
L 569.88 126.224069 
L 581.04 138.663203 
L 592.2 156.578707 
L 603.36 176.06896 
L 614.52 192.788998 
L 625.68 203.983337 
L 636.84 209.984214 
L 648 212.748295 
" clip-path="url(#pbf05b4dfc7)" style="fill: none; stroke: #0000ff; stroke-width: 1.5; stroke-linecap: square"/>
   </g>
   <g id="line2d_56">
    <path d="M 420.750849 433 
L 424.8 423.358549 
L 435.96 396.682933 
L 447.12 369.847197 
L 458.28 342.65395 
L 469.44 314.615356 
L 480.6 284.667698 
L 491.76 250.924776 
L 502.92 211.309891 
L 514.08 166.561446 
L 525.24 127.562224 
L 536.4 108.860284 
L 547.56 101.315628 
L 558.72 98.725342 
L 569.88 102.736184 
L 581.04 114.179583 
L 592.2 131.203176 
L 603.36 149.869023 
L 614.52 165.663795 
L 625.68 175.914911 
L 636.84 181.263501 
L 648 183.790901 
" clip-path="url(#pbf05b4dfc7)" style="fill: none; stroke: #0000ff; stroke-width: 1.5; stroke-linecap: square"/>
   </g>
   <g id="line2d_57">
    <path d="M 90 307.29715 
L 101.16 307.29715 
L 112.32 307.29715 
L 123.48 307.29715 
L 134.64 307.29715 
L 145.8 307.29715 
L 156.96 307.29715 
L 168.12 307.29715 
L 179.28 307.29715 
L 190.44 307.29715 
L 201.6 307.29715 
L 212.76 307.29715 
L 223.92 307.29715 
L 235.08 307.29715 
L 246.24 307.297149 
L 257.4 307.297148 
L 268.56 307.297146 
L 279.72 307.29714 
L 290.88 307.297126 
L 302.04 307.29709 
L 313.2 307.297001 
L 324.36 307.296775 
L 335.52 307.296208 
L 346.68 307.294784 
L 357.84 307.291207 
L 369 307.282224 
L 380.16 307.259671 
L 391.32 307.203089 
L 402.48 307.061397 
L 413.64 306.708198 
L 424.8 305.837627 
L 435.96 303.748454 
L 447.12 299.021735 
L 458.28 289.453433 
L 469.44 272.96545 
L 480.6 248.770074 
L 491.76 217.065691 
L 502.92 180.5572 
L 514.08 151.178453 
L 525.24 137.11416 
L 536.4 128.859007 
L 547.56 123.415549 
L 558.72 123.409467 
L 569.88 130.825064 
L 581.04 145.295206 
L 592.2 163.871856 
L 603.36 181.989554 
L 614.52 195.560125 
L 625.68 203.474893 
L 636.84 207.307051 
L 648 208.974166 
" clip-path="url(#pbf05b4dfc7)" style="fill: none; stroke: #0000ff; stroke-width: 1.5; stroke-linecap: square"/>
   </g>
   <g id="line2d_58">
    <path d="M 414.394651 433 
L 424.8 413.444279 
L 435.96 389.320259 
L 447.12 363.493132 
L 458.28 336.524892 
L 469.44 308.13215 
L 480.6 277.079022 
L 491.76 241.210086 
L 502.92 199.564041 
L 514.08 161.011367 
L 525.24 141.4421 
L 536.4 131.540907 
L 547.56 124.193438 
L 558.72 121.919222 
L 569.88 127.144742 
L 581.04 139.977267 
L 592.2 158.076161 
L 603.36 177.403958 
L 614.52 193.591365 
L 625.68 204.139992 
L 636.84 209.671938 
L 648 212.186696 
" clip-path="url(#pbf05b4dfc7)" style="fill: none; stroke: #0000ff; stroke-width: 1.5; stroke-linecap: square"/>
   </g>
   <g id="line2d_59">
    <path d="M 418.842826 433 
L 424.8 420.32517 
L 435.96 394.840342 
L 447.12 368.438475 
L 458.28 341.283513 
L 469.44 312.93202 
L 480.6 282.122147 
L 491.76 246.628038 
L 502.92 204.868062 
L 514.08 164.054005 
L 525.24 142.165101 
L 536.4 131.837871 
L 547.56 124.051523 
L 558.72 121.030551 
L 569.88 125.373902 
L 581.04 137.430282 
L 592.2 155.151694 
L 603.36 174.765273 
L 614.52 191.970177 
L 625.68 203.793351 
L 636.84 210.272933 
L 648 213.298726 
" clip-path="url(#pbf05b4dfc7)" style="fill: none; stroke: #0000ff; stroke-width: 1.5; stroke-linecap: square"/>
   </g>
   <g id="line2d_60">
    <path d="M 411.96407 433 
L 413.64 431.462978 
L 424.8 415.277446 
L 435.96 394.067512 
L 447.12 369.686914 
L 458.28 343.4068 
L 469.44 315.431701 
L 480.6 284.805185 
L 491.76 249.408477 
L 502.92 207.518345 
L 514.08 165.695688 
L 525.24 142.600515 
L 536.4 131.994791 
L 547.56 123.995146 
L 558.72 120.632197 
L 569.88 124.565637 
L 581.04 136.248261 
L 592.2 153.766209 
L 603.36 173.469075 
L 614.52 191.116143 
L 625.68 203.554243 
L 636.84 210.525493 
L 648 213.828198 
" clip-path="url(#pbf05b4dfc7)" style="fill: none; stroke: #0000ff; stroke-width: 1.5; stroke-linecap: square"/>
   </g>
   <g id="line2d_61">
    <path d="M 90 425.74051 
L 101.16 425.74051 
L 112.32 425.74051 
L 123.48 425.74051 
L 134.64 425.74051 
L 145.8 425.74051 
L 156.96 425.74051 
L 168.12 425.74051 
L 179.28 425.74051 
L 190.44 425.74051 
L 201.6 425.74051 
L 212.76 425.740509 
L 223.92 425.740508 
L 235.08 425.740504 
L 246.24 425.740494 
L 257.4 425.740469 
L 268.56 425.740407 
L 279.72 425.740251 
L 290.88 425.739859 
L 302.04 425.738873 
L 313.2 425.736399 
L 324.36 425.730185 
L 335.52 425.71458 
L 346.68 425.675421 
L 357.84 425.577289 
L 369 425.332247 
L 380.16 424.725702 
L 391.32 423.255789 
L 402.48 419.861745 
L 413.64 412.758704 
L 424.8 400.116084 
L 435.96 381.62939 
L 447.12 358.755925 
L 458.28 333.091157 
L 469.44 305.167722 
L 480.6 274.155316 
L 491.76 238.13179 
L 502.92 196.626642 
L 514.08 159.411169 
L 525.24 140.977922 
L 536.4 131.311023 
L 547.56 124.254568 
L 558.72 122.419599 
L 569.88 128.129085 
L 581.04 141.361414 
L 592.2 159.622718 
L 603.36 178.739147 
L 614.52 194.347139 
L 625.68 204.243035 
L 636.84 209.323514 
L 648 211.604788 
" clip-path="url(#pbf05b4dfc7)" style="fill: none; stroke: #0000ff; stroke-width: 1.5; stroke-linecap: square"/>
   </g>
   <g id="line2d_62">
    <path d="M 90 354.960322 
L 101.16 354.960322 
L 112.32 354.960322 
L 123.48 354.960322 
L 134.64 354.960322 
L 145.8 354.960322 
L 156.96 354.960322 
L 168.12 354.960322 
L 179.28 354.960322 
L 190.44 354.960322 
L 201.6 354.960322 
L 212.76 354.960322 
L 223.92 354.960322 
L 235.08 354.960321 
L 246.24 354.96032 
L 257.4 354.960317 
L 268.56 354.96031 
L 279.72 354.960291 
L 290.88 354.960245 
L 302.04 354.960129 
L 313.2 354.959837 
L 324.36 354.959103 
L 335.52 354.957259 
L 346.68 354.95263 
L 357.84 354.941004 
L 369 354.91182 
L 380.16 354.83864 
L 391.32 354.655599 
L 402.48 354.200674 
L 413.64 353.087369 
L 424.8 350.459614 
L 435.96 344.716675 
L 447.12 333.768787 
L 458.28 316.363613 
L 469.44 292.857403 
L 480.6 263.766788 
L 491.76 228.585691 
L 502.92 188.551204 
L 514.08 155.174125 
L 525.24 139.238972 
L 536.4 130.264939 
L 547.56 124.062929 
L 558.72 123.30508 
L 569.88 130.084247 
L 581.04 144.127352 
L 592.2 162.632335 
L 603.36 181.158079 
L 614.52 195.46879 
L 625.68 204.053393 
L 636.84 208.288229 
L 648 210.148515 
" clip-path="url(#pbf05b4dfc7)" style="fill: none; stroke: #0000ff; stroke-width: 1.5; stroke-linecap: square"/>
   </g>
   <g id="line2d_63">
    <path d="M 420.525858 433 
L 424.8 423.399464 
L 435.96 397.354187 
L 447.12 370.788881 
L 458.28 343.741336 
L 469.44 315.847994 
L 480.6 286.141178 
L 491.76 252.79729 
L 502.92 213.622258 
L 514.08 168.809741 
L 525.24 128.409557 
L 536.4 108.481897 
L 547.56 100.645489 
L 558.72 97.719544 
L 569.88 101.241893 
L 581.04 112.201693 
L 592.2 128.95244 
L 603.36 147.714758 
L 614.52 164.003795 
L 625.68 174.884599 
L 636.84 180.691847 
L 648 183.463575 
" clip-path="url(#pbf05b4dfc7)" style="fill: none; stroke: #0000ff; stroke-width: 1.5; stroke-linecap: square"/>
   </g>
   <g id="line2d_64">
    <path d="M 90 366.421822 
L 101.16 366.421822 
L 112.32 366.421822 
L 123.48 366.421822 
L 134.64 366.421822 
L 145.8 366.421822 
L 156.96 366.421822 
L 168.12 366.421822 
L 179.28 366.421822 
L 190.44 366.421822 
L 201.6 366.421822 
L 212.76 366.421822 
L 223.92 366.421822 
L 235.08 366.421821 
L 246.24 366.421821 
L 257.4 366.421821 
L 268.56 366.421819 
L 279.72 366.421815 
L 290.88 366.421805 
L 302.04 366.421779 
L 313.2 366.421714 
L 324.36 366.421551 
L 335.52 366.421143 
L 346.68 366.420116 
L 357.84 366.417537 
L 369 366.41106 
L 380.16 366.394794 
L 391.32 366.35396 
L 402.48 366.25154 
L 413.64 365.995215 
L 424.8 365.357217 
L 435.96 363.79026 
L 447.12 360.05962 
L 458.28 351.746218 
L 469.44 335.287529 
L 480.6 307.64425 
L 491.76 268.668989 
L 502.92 222.067097 
L 514.08 178.670337 
L 525.24 153.313622 
L 536.4 138.878202 
L 547.56 127.803878 
L 558.72 122.050444 
L 569.88 124.045319 
L 581.04 134.216001 
L 592.2 150.843601 
L 603.36 170.473718 
L 614.52 188.967159 
L 625.68 202.818772 
L 636.84 211.038008 
L 648 215.086562 
" clip-path="url(#pbf05b4dfc7)" style="fill: none; stroke: #0000ff; stroke-width: 1.5; stroke-linecap: square"/>
   </g>
   <g id="LineCollection_1">
    <path d="M 90 96.333295 
L 648 96.333295 
" clip-path="url(#pbf05b4dfc7)" style="fill: none; stroke-dasharray: 5.55,2.4; stroke-dashoffset: 0; stroke: #1f77b4; stroke-width: 1.5"/>
   </g>
   <g id="LineCollection_2">
    <path d="M 451.423366 433 
L 451.423366 -1 
" clip-path="url(#pbf05b4dfc7)" style="fill: none; stroke-dasharray: 5.55,2.4; stroke-dashoffset: 0; stroke: #1f77b4; stroke-width: 1.5"/>
   </g>
   <g id="patch_3">
    <path d="M 90 384.48 
L 90 51.84 
" style="fill: none; stroke: #000000; stroke-width: 0.8; stroke-linejoin: miter; stroke-linecap: square"/>
   </g>
   <g id="patch_4">
    <path d="M 648 384.48 
L 648 51.84 
" style="fill: none; stroke: #000000; stroke-width: 0.8; stroke-linejoin: miter; stroke-linecap: square"/>
   </g>
   <g id="patch_5">
    <path d="M 90 384.48 
L 648 384.48 
" style="fill: none; stroke: #000000; stroke-width: 0.8; stroke-linejoin: miter; stroke-linecap: square"/>
   </g>
   <g id="patch_6">
    <path d="M 90 51.84 
L 648 51.84 
" style="fill: none; stroke: #000000; stroke-width: 0.8; stroke-linejoin: miter; stroke-linecap: square"/>
   </g>
   <g id="text_15">
    <!-- Worst Case PSRR: -16.7 dB -->
    <g style="fill: #0000ff" transform="translate(90 89.680495) scale(0.1 -0.1)">
     <defs>
      <path id="DejaVuSans-57" d="M 213 4666 
L 850 4666 
L 1831 722 
L 2809 4666 
L 3519 4666 
L 4500 722 
L 5478 4666 
L 6119 4666 
L 4947 0 
L 4153 0 
L 3169 4050 
L 2175 0 
L 1381 0 
L 213 4666 
z
" transform="scale(0.015625)"/>
      <path id="DejaVuSans-6f" d="M 1959 3097 
Q 1497 3097 1228 2736 
Q 959 2375 959 1747 
Q 959 1119 1226 758 
Q 1494 397 1959 397 
Q 2419 397 2687 759 
Q 2956 1122 2956 1747 
Q 2956 2369 2687 2733 
Q 2419 3097 1959 3097 
z
M 1959 3584 
Q 2709 3584 3137 3096 
Q 3566 2609 3566 1747 
Q 3566 888 3137 398 
Q 2709 -91 1959 -91 
Q 1206 -91 779 398 
Q 353 888 353 1747 
Q 353 2609 779 3096 
Q 1206 3584 1959 3584 
z
" transform="scale(0.015625)"/>
      <path id="DejaVuSans-73" d="M 2834 3397 
L 2834 2853 
Q 2591 2978 2328 3040 
Q 2066 3103 1784 3103 
Q 1356 3103 1142 2972 
Q 928 2841 928 2578 
Q 928 2378 1081 2264 
Q 1234 2150 1697 2047 
L 1894 2003 
Q 2506 1872 2764 1633 
Q 3022 1394 3022 966 
Q 3022 478 2636 193 
Q 2250 -91 1575 -91 
Q 1294 -91 989 -36 
Q 684 19 347 128 
L 347 722 
Q 666 556 975 473 
Q 1284 391 1588 391 
Q 1994 391 2212 530 
Q 2431 669 2431 922 
Q 2431 1156 2273 1281 
Q 2116 1406 1581 1522 
L 1381 1569 
Q 847 1681 609 1914 
Q 372 2147 372 2553 
Q 372 3047 722 3315 
Q 1072 3584 1716 3584 
Q 2034 3584 2315 3537 
Q 2597 3491 2834 3397 
z
" transform="scale(0.015625)"/>
      <path id="DejaVuSans-74" d="M 1172 4494 
L 1172 3500 
L 2356 3500 
L 2356 3053 
L 1172 3053 
L 1172 1153 
Q 1172 725 1289 603 
Q 1406 481 1766 481 
L 2356 481 
L 2356 0 
L 1766 0 
Q 1100 0 847 248 
Q 594 497 594 1153 
L 594 3053 
L 172 3053 
L 172 3500 
L 594 3500 
L 594 4494 
L 1172 4494 
z
" transform="scale(0.015625)"/>
      <path id="DejaVuSans-43" d="M 4122 4306 
L 4122 3641 
Q 3803 3938 3442 4084 
Q 3081 4231 2675 4231 
Q 1875 4231 1450 3742 
Q 1025 3253 1025 2328 
Q 1025 1406 1450 917 
Q 1875 428 2675 428 
Q 3081 428 3442 575 
Q 3803 722 4122 1019 
L 4122 359 
Q 3791 134 3420 21 
Q 3050 -91 2638 -91 
Q 1578 -91 968 557 
Q 359 1206 359 2328 
Q 359 3453 968 4101 
Q 1578 4750 2638 4750 
Q 3056 4750 3426 4639 
Q 3797 4528 4122 4306 
z
" transform="scale(0.015625)"/>
      <path id="DejaVuSans-61" d="M 2194 1759 
Q 1497 1759 1228 1600 
Q 959 1441 959 1056 
Q 959 750 1161 570 
Q 1363 391 1709 391 
Q 2188 391 2477 730 
Q 2766 1069 2766 1631 
L 2766 1759 
L 2194 1759 
z
M 3341 1997 
L 3341 0 
L 2766 0 
L 2766 531 
Q 2569 213 2275 61 
Q 1981 -91 1556 -91 
Q 1019 -91 701 211 
Q 384 513 384 1019 
Q 384 1609 779 1909 
Q 1175 2209 1959 2209 
L 2766 2209 
L 2766 2266 
Q 2766 2663 2505 2880 
Q 2244 3097 1772 3097 
Q 1472 3097 1187 3025 
Q 903 2953 641 2809 
L 641 3341 
Q 956 3463 1253 3523 
Q 1550 3584 1831 3584 
Q 2591 3584 2966 3190 
Q 3341 2797 3341 1997 
z
" transform="scale(0.015625)"/>
      <path id="DejaVuSans-3a" d="M 750 794 
L 1409 794 
L 1409 0 
L 750 0 
L 750 794 
z
M 750 3309 
L 1409 3309 
L 1409 2516 
L 750 2516 
L 750 3309 
z
" transform="scale(0.015625)"/>
      <path id="DejaVuSans-2d" d="M 313 2009 
L 1997 2009 
L 1997 1497 
L 313 1497 
L 313 2009 
z
" transform="scale(0.015625)"/>
      <path id="DejaVuSans-2e" d="M 684 794 
L 1344 794 
L 1344 0 
L 684 0 
L 684 794 
z
" transform="scale(0.015625)"/>
      <path id="DejaVuSans-37" d="M 525 4666 
L 3525 4666 
L 3525 4397 
L 1831 0 
L 1172 0 
L 2766 4134 
L 525 4134 
L 525 4666 
z
" transform="scale(0.015625)"/>
     </defs>
     <use xlink:href="#DejaVuSans-57"/>
     <use xlink:href="#DejaVuSans-6f" transform="translate(93.001953 0)"/>
     <use xlink:href="#DejaVuSans-72" transform="translate(154.183594 0)"/>
     <use xlink:href="#DejaVuSans-73" transform="translate(195.296875 0)"/>
     <use xlink:href="#DejaVuSans-74" transform="translate(247.396484 0)"/>
     <use xlink:href="#DejaVuSans-20" transform="translate(286.605469 0)"/>
     <use xlink:href="#DejaVuSans-43" transform="translate(318.392578 0)"/>
     <use xlink:href="#DejaVuSans-61" transform="translate(388.216797 0)"/>
     <use xlink:href="#DejaVuSans-73" transform="translate(449.496094 0)"/>
     <use xlink:href="#DejaVuSans-65" transform="translate(501.595703 0)"/>
     <use xlink:href="#DejaVuSans-20" transform="translate(563.119141 0)"/>
     <use xlink:href="#DejaVuSans-50" transform="translate(594.90625 0)"/>
     <use xlink:href="#DejaVuSans-53" transform="translate(655.208984 0)"/>
     <use xlink:href="#DejaVuSans-52" transform="translate(718.685547 0)"/>
     <use xlink:href="#DejaVuSans-52" transform="translate(788.167969 0)"/>
     <use xlink:href="#DejaVuSans-3a" transform="translate(854.525391 0)"/>
     <use xlink:href="#DejaVuSans-20" transform="translate(888.216797 0)"/>
     <use xlink:href="#DejaVuSans-2d" transform="translate(920.003906 0)"/>
     <use xlink:href="#DejaVuSans-31" transform="translate(956.087891 0)"/>
     <use xlink:href="#DejaVuSans-36" transform="translate(1019.710938 0)"/>
     <use xlink:href="#DejaVuSans-2e" transform="translate(1083.333984 0)"/>
     <use xlink:href="#DejaVuSans-37" transform="translate(1115.121094 0)"/>
     <use xlink:href="#DejaVuSans-20" transform="translate(1178.744141 0)"/>
     <use xlink:href="#DejaVuSans-64" transform="translate(1210.53125 0)"/>
     <use xlink:href="#DejaVuSans-42" transform="translate(1274.007812 0)"/>
    </g>
   </g>
   <g id="text_16">
    <!-- Transition Frequency: 3.0 MHz -->
    <g style="fill: #0000ff" transform="translate(451.423366 65.1456) scale(0.1 -0.1)">
     <defs>
      <path id="DejaVuSans-54" d="M -19 4666 
L 3928 4666 
L 3928 4134 
L 2272 4134 
L 2272 0 
L 1638 0 
L 1638 4134 
L -19 4134 
L -19 4666 
z
" transform="scale(0.015625)"/>
      <path id="DejaVuSans-69" d="M 603 3500 
L 1178 3500 
L 1178 0 
L 603 0 
L 603 3500 
z
M 603 4863 
L 1178 4863 
L 1178 4134 
L 603 4134 
L 603 4863 
z
" transform="scale(0.015625)"/>
      <path id="DejaVuSans-4d" d="M 628 4666 
L 1569 4666 
L 2759 1491 
L 3956 4666 
L 4897 4666 
L 4897 0 
L 4281 0 
L 4281 4097 
L 3078 897 
L 2444 897 
L 1241 4097 
L 1241 0 
L 628 0 
L 628 4666 
z
" transform="scale(0.015625)"/>
     </defs>
     <use xlink:href="#DejaVuSans-54"/>
     <use xlink:href="#DejaVuSans-72" transform="translate(46.333984 0)"/>
     <use xlink:href="#DejaVuSans-61" transform="translate(87.447266 0)"/>
     <use xlink:href="#DejaVuSans-6e" transform="translate(148.726562 0)"/>
     <use xlink:href="#DejaVuSans-73" transform="translate(212.105469 0)"/>
     <use xlink:href="#DejaVuSans-69" transform="translate(264.205078 0)"/>
     <use xlink:href="#DejaVuSans-74" transform="translate(291.988281 0)"/>
     <use xlink:href="#DejaVuSans-69" transform="translate(331.197266 0)"/>
     <use xlink:href="#DejaVuSans-6f" transform="translate(358.980469 0)"/>
     <use xlink:href="#DejaVuSans-6e" transform="translate(420.162109 0)"/>
     <use xlink:href="#DejaVuSans-20" transform="translate(483.541016 0)"/>
     <use xlink:href="#DejaVuSans-46" transform="translate(515.328125 0)"/>
     <use xlink:href="#DejaVuSans-72" transform="translate(565.597656 0)"/>
     <use xlink:href="#DejaVuSans-65" transform="translate(604.460938 0)"/>
     <use xlink:href="#DejaVuSans-71" transform="translate(665.984375 0)"/>
     <use xlink:href="#DejaVuSans-75" transform="translate(729.460938 0)"/>
     <use xlink:href="#DejaVuSans-65" transform="translate(792.839844 0)"/>
     <use xlink:href="#DejaVuSans-6e" transform="translate(854.363281 0)"/>
     <use xlink:href="#DejaVuSans-63" transform="translate(917.742188 0)"/>
     <use xlink:href="#DejaVuSans-79" transform="translate(972.722656 0)"/>
     <use xlink:href="#DejaVuSans-3a" transform="translate(1024.652344 0)"/>
     <use xlink:href="#DejaVuSans-20" transform="translate(1058.34375 0)"/>
     <use xlink:href="#DejaVuSans-33" transform="translate(1090.130859 0)"/>
     <use xlink:href="#DejaVuSans-2e" transform="translate(1153.753906 0)"/>
     <use xlink:href="#DejaVuSans-30" transform="translate(1185.541016 0)"/>
     <use xlink:href="#DejaVuSans-20" transform="translate(1249.164062 0)"/>
     <use xlink:href="#DejaVuSans-4d" transform="translate(1280.951172 0)"/>
     <use xlink:href="#DejaVuSans-48" transform="translate(1367.230469 0)"/>
     <use xlink:href="#DejaVuSans-7a" transform="translate(1442.425781 0)"/>
    </g>
   </g>
   <g id="text_17">
    <!-- Worst Case DC PSRR: -34.0 dB -->
    <g style="fill: #0000ff" transform="translate(90 205.076106) scale(0.1 -0.1)">
     <defs>
      <path id="DejaVuSans-44" d="M 1259 4147 
L 1259 519 
L 2022 519 
Q 2988 519 3436 956 
Q 3884 1394 3884 2338 
Q 3884 3275 3436 3711 
Q 2988 4147 2022 4147 
L 1259 4147 
z
M 628 4666 
L 1925 4666 
Q 3281 4666 3915 4102 
Q 4550 3538 4550 2338 
Q 4550 1131 3912 565 
Q 3275 0 1925 0 
L 628 0 
L 628 4666 
z
" transform="scale(0.015625)"/>
     </defs>
     <use xlink:href="#DejaVuSans-57"/>
     <use xlink:href="#DejaVuSans-6f" transform="translate(93.001953 0)"/>
     <use xlink:href="#DejaVuSans-72" transform="translate(154.183594 0)"/>
     <use xlink:href="#DejaVuSans-73" transform="translate(195.296875 0)"/>
     <use xlink:href="#DejaVuSans-74" transform="translate(247.396484 0)"/>
     <use xlink:href="#DejaVuSans-20" transform="translate(286.605469 0)"/>
     <use xlink:href="#DejaVuSans-43" transform="translate(318.392578 0)"/>
     <use xlink:href="#DejaVuSans-61" transform="translate(388.216797 0)"/>
     <use xlink:href="#DejaVuSans-73" transform="translate(449.496094 0)"/>
     <use xlink:href="#DejaVuSans-65" transform="translate(501.595703 0)"/>
     <use xlink:href="#DejaVuSans-20" transform="translate(563.119141 0)"/>
     <use xlink:href="#DejaVuSans-44" transform="translate(594.90625 0)"/>
     <use xlink:href="#DejaVuSans-43" transform="translate(671.908203 0)"/>
     <use xlink:href="#DejaVuSans-20" transform="translate(741.732422 0)"/>
     <use xlink:href="#DejaVuSans-50" transform="translate(773.519531 0)"/>
     <use xlink:href="#DejaVuSans-53" transform="translate(833.822266 0)"/>
     <use xlink:href="#DejaVuSans-52" transform="translate(897.298828 0)"/>
     <use xlink:href="#DejaVuSans-52" transform="translate(966.78125 0)"/>
     <use xlink:href="#DejaVuSans-3a" transform="translate(1033.138672 0)"/>
     <use xlink:href="#DejaVuSans-20" transform="translate(1066.830078 0)"/>
     <use xlink:href="#DejaVuSans-2d" transform="translate(1098.617188 0)"/>
     <use xlink:href="#DejaVuSans-33" transform="translate(1134.701172 0)"/>
     <use xlink:href="#DejaVuSans-34" transform="translate(1198.324219 0)"/>
     <use xlink:href="#DejaVuSans-2e" transform="translate(1261.947266 0)"/>
     <use xlink:href="#DejaVuSans-30" transform="translate(1293.734375 0)"/>
     <use xlink:href="#DejaVuSans-20" transform="translate(1357.357422 0)"/>
     <use xlink:href="#DejaVuSans-64" transform="translate(1389.144531 0)"/>
     <use xlink:href="#DejaVuSans-42" transform="translate(1452.621094 0)"/>
    </g>
   </g>
  </g>
 </g>
 <defs>
  <clipPath id="pbf05b4dfc7">
   <rect x="90" y="51.84" width="558" height="332.64"/>
  </clipPath>
 </defs>
</svg>
