<?xml version="1.0" encoding="UTF-8" standalone="no"?>
<!DOCTYPE svg PUBLIC "-//W3C//DTD SVG 1.1//EN" "http://www.w3.org/Graphics/SVG/1.1/DTD/svg11.dtd">
<!-- Generated by Microsoft Visio, SVG Export schematic_proposed.svg overview -->
<svg xmlns="http://www.w3.org/2000/svg" xmlns:xlink="http://www.w3.org/1999/xlink" xmlns:ev="http://www.w3.org/2001/xml-events"
		xmlns:v="http://schemas.microsoft.com/visio/2003/SVGExtensions/" width="4.29585in" height="3.35178in"
		viewBox="0 0 309.301 241.329" xml:space="preserve" color-interpolation-filters="sRGB" class="st19">
	<v:documentProperties v:langID="1033" v:metric="true" v:viewMarkup="false">
		<v:userDefs>
			<v:ud v:nameU="msvNoAutoConnect" v:val="VT0(1):26"/>
		</v:userDefs>
	</v:documentProperties>

	<style type="text/css">
	<![CDATA[
		.st1 {fill:#7030a0;stroke:#000000;stroke-dasharray:8.4,6;stroke-linecap:round;stroke-linejoin:round;stroke-width:1.2}
		.st2 {fill:#ab9ac0;stroke:#000000;stroke-dasharray:8.4,6;stroke-linecap:round;stroke-linejoin:round;stroke-width:1.2}
		.st3 {stroke:#000000;stroke-linecap:round;stroke-linejoin:round;stroke-width:1.2}
		.st4 {marker-end:url(#mrkr13-17);stroke:#000000;stroke-linecap:round;stroke-linejoin:round;stroke-width:1.2}
		.st5 {fill:#000000;fill-opacity:1;stroke:#000000;stroke-opacity:1;stroke-width:0.4}
		.st6 {stroke:#000000;stroke-linecap:round;stroke-linejoin:round;stroke-width:2.16}
		.st7 {fill:#ffffff;stroke:#000000;stroke-linecap:round;stroke-linejoin:round;stroke-width:1.2}
		.st8 {stroke:#000000;stroke-linecap:butt;stroke-width:2.16}
		.st9 {stroke:#000000;stroke-linecap:butt;stroke-width:1.2}
		.st10 {fill:none;stroke:none;stroke-linecap:round;stroke-linejoin:round;stroke-width:0.72}
		.st11 {fill:none;stroke:none;stroke-linecap:round;stroke-linejoin:round;stroke-width:0.75}
		.st12 {fill:none;stroke:#000000;stroke-linecap:round;stroke-linejoin:round;stroke-width:2.16}
		.st13 {fill:#000000;stroke:none;stroke-linecap:round;stroke-linejoin:round;stroke-width:0.75}
		.st14 {fill:#000000;stroke:none;stroke-linecap:round;stroke-linejoin:round;stroke-width:1.2}
		.st15 {fill:#000000;font-family:Calibri;font-size:1.00001em}
		.st16 {font-size:0.666659em}
		.st17 {fill:#ffffff}
		.st18 {stroke:#000000;stroke-linecap:round;stroke-linejoin:round;stroke-width:0.75}
		.st19 {fill:none;fill-rule:evenodd;font-size:12px;overflow:visible;stroke-linecap:square;stroke-miterlimit:3}
	]]>
	</style>

	<defs id="Markers">
		<g id="lend13">
			<path d="M 3 1 L 0 0 L 3 -1 L 3 1 " style="stroke:none"/>
		</g>
		<marker id="mrkr13-17" class="st5" v:arrowType="13" v:arrowSize="1" v:setback="7.5" refX="-7.5" orient="auto"
				markerUnits="strokeWidth" overflow="visible">
			<use xlink:href="#lend13" transform="scale(-2.5,-2.5) "/>
		</marker>
	</defs>
	<g v:mID="0" v:index="1" v:groupContext="foregroundPage">
		<title>proposed</title>
		<v:pageProperties v:drawingScale="0.0393701" v:pageScale="0.0393701" v:drawingUnits="24" v:shadowOffsetX="8.50394"
				v:shadowOffsetY="-8.50394"/>
		<v:layer v:name="Connector" v:index="0"/>
		<g id="shape133-1" v:mID="133" v:groupContext="shape" transform="translate(64.1545,-61.971)">
			<title>Rectangle.133</title>
			<v:userDefs>
				<v:ud v:nameU="visVersion" v:val="VT0(15):26"/>
			</v:userDefs>
			<path d="M0 241.33 L77.95 241.33 L77.95 113.77 L0 113.77 L0 241.33 Z" class="st1"/>
		</g>
		<g id="shape131-3" v:mID="131" v:groupContext="shape" transform="translate(60.6112,-66.223)">
			<title>Rectangle</title>
			<v:userDefs>
				<v:ud v:nameU="visVersion" v:val="VT0(15):26"/>
			</v:userDefs>
			<path d="M0 241.33 L77.95 241.33 L77.95 113.77 L0 113.77 L0 241.33 Z" class="st2"/>
		</g>
		<g id="group1-5" transform="translate(177.54,-158.491)" v:mID="1" v:groupContext="group">
			<title>Nmos3.a</title>
			<g id="shape2-6" v:mID="2" v:groupContext="shape" transform="translate(273.218,231.407) rotate(90)">
				<title>Sheet.2</title>
				<path d="M0 241.33 L9.92 241.33" class="st3"/>
			</g>
			<g id="shape3-9" v:mID="3" v:groupContext="shape" transform="translate(16.1352,-31.8898)">
				<title>Sheet.3</title>
				<path d="M0 241.33 L15.75 241.33" class="st3"/>
			</g>
			<g id="shape4-12" v:mID="4" v:groupContext="shape" transform="translate(16.3255,-10.6299)">
				<title>Sheet.4</title>
				<path d="M0 241.33 L6.56 241.33" class="st4"/>
			</g>
			<g id="shape5-18" v:mID="5" v:groupContext="shape" transform="translate(15.9449,-5.31496)">
				<title>Sheet.5</title>
				<path d="M0 209.44 L0 241.33" class="st6"/>
			</g>
			<g id="shape6-21" v:mID="6" v:groupContext="shape" transform="translate(10.6299,-10.6299)">
				<title>Sheet.6</title>
				<path d="M0 220.07 L0 241.33" class="st6"/>
			</g>
			<g id="shape7-24" v:mID="7" v:groupContext="shape" transform="translate(273.218,209.297) rotate(90) scale(-1,1)">
				<title>Sheet.7</title>
				<path d="M0 241.33 L10.35 241.33" class="st3"/>
			</g>
			<g id="shape8-27" v:mID="8" v:groupContext="shape" transform="translate(10.9747,461.397) rotate(179.918)">
				<title>Sheet.8</title>
				<path d="M0 241.33 L49.61 241.33" class="st3"/>
			</g>
		</g>
		<g id="group14-30" transform="translate(53.5246,-177.317)" v:mID="14" v:groupContext="group">
			<title>SW.on</title>
			<g id="shape15-31" v:mID="15" v:groupContext="shape" transform="translate(14.1732,477.933) rotate(180)">
				<title>Sheet.15</title>
				<ellipse cx="2.3622" cy="238.966" rx="2.3622" ry="2.3622" class="st7"/>
			</g>
			<g id="shape16-33" v:mID="16" v:groupContext="shape" transform="translate(10.8747,478.098) scale(1,-1)">
				<title>Sheet.16</title>
				<path d="M0 241.33 L13.62 241.33" class="st3"/>
			</g>
			<g id="shape17-36" v:mID="17" v:groupContext="shape" transform="translate(21.2598,477.933) scale(1,-1)">
				<title>Sheet.17</title>
				<ellipse cx="2.3622" cy="238.966" rx="2.3622" ry="2.3622" class="st7"/>
			</g>
			<g id="shape18-38" v:mID="18" v:groupContext="shape" transform="translate(9.44882,-2.3622) scale(-1,1)">
				<title>Sheet.18</title>
				<path d="M0 241.33 L9.45 241.33" class="st3"/>
			</g>
			<g id="shape19-41" v:mID="19" v:groupContext="shape" transform="translate(25.9843,480.295) scale(1,-1)">
				<title>Sheet.19</title>
				<path d="M0 241.33 L9.45 241.33" class="st3"/>
			</g>
		</g>
		<g id="group20-44" transform="translate(103.131,-177.317)" v:mID="20" v:groupContext="group">
			<title>SW.off</title>
			<g id="shape21-45" v:mID="21" v:groupContext="shape" transform="translate(14.1732,477.933) rotate(180)">
				<title>Sheet.21</title>
				<ellipse cx="2.3622" cy="238.966" rx="2.3622" ry="2.3622" class="st7"/>
			</g>
			<g id="shape22-47" v:mID="22" v:groupContext="shape" transform="translate(113.673,455.108) rotate(-25.212) scale(1,-1)">
				<title>Sheet.22</title>
				<path d="M0 241.33 L11.48 241.33" class="st3"/>
			</g>
			<g id="shape23-50" v:mID="23" v:groupContext="shape" transform="translate(21.2598,477.933) scale(1,-1)">
				<title>Sheet.23</title>
				<ellipse cx="2.3622" cy="238.966" rx="2.3622" ry="2.3622" class="st7"/>
			</g>
			<g id="shape24-52" v:mID="24" v:groupContext="shape" transform="translate(9.44882,-2.3622) scale(-1,1)">
				<title>Sheet.24</title>
				<path d="M0 241.33 L9.45 241.33" class="st3"/>
			</g>
			<g id="shape25-55" v:mID="25" v:groupContext="shape" transform="translate(25.9843,480.295) scale(1,-1)">
				<title>Sheet.25</title>
				<path d="M0 241.33 L9.45 241.33" class="st3"/>
			</g>
		</g>
		<g id="group26-58" transform="translate(103.131,-78.034)" v:mID="26" v:groupContext="group">
			<title>SW.off.26</title>
			<g id="shape27-59" v:mID="27" v:groupContext="shape" transform="translate(14.1732,477.933) rotate(180)">
				<title>Sheet.27</title>
				<ellipse cx="2.3622" cy="238.966" rx="2.3622" ry="2.3622" class="st7"/>
			</g>
			<g id="shape28-61" v:mID="28" v:groupContext="shape" transform="translate(113.673,455.108) rotate(-25.212) scale(1,-1)">
				<title>Sheet.28</title>
				<path d="M0 241.33 L11.48 241.33" class="st3"/>
			</g>
			<g id="shape29-64" v:mID="29" v:groupContext="shape" transform="translate(21.2598,477.933) scale(1,-1)">
				<title>Sheet.29</title>
				<ellipse cx="2.3622" cy="238.966" rx="2.3622" ry="2.3622" class="st7"/>
			</g>
			<g id="shape30-66" v:mID="30" v:groupContext="shape" transform="translate(9.44882,-2.3622) scale(-1,1)">
				<title>Sheet.30</title>
				<path d="M0 241.33 L9.45 241.33" class="st3"/>
			</g>
			<g id="shape31-69" v:mID="31" v:groupContext="shape" transform="translate(25.9843,480.295) scale(1,-1)">
				<title>Sheet.31</title>
				<path d="M0 241.33 L9.45 241.33" class="st3"/>
			</g>
		</g>
		<g id="group32-72" transform="translate(53.5246,-77.9632)" v:mID="32" v:groupContext="group">
			<title>SW.on.32</title>
			<g id="shape33-73" v:mID="33" v:groupContext="shape" transform="translate(14.1732,477.933) rotate(180)">
				<title>Sheet.33</title>
				<ellipse cx="2.3622" cy="238.966" rx="2.3622" ry="2.3622" class="st7"/>
			</g>
			<g id="shape34-75" v:mID="34" v:groupContext="shape" transform="translate(10.8747,478.098) scale(1,-1)">
				<title>Sheet.34</title>
				<path d="M0 241.33 L13.62 241.33" class="st3"/>
			</g>
			<g id="shape35-78" v:mID="35" v:groupContext="shape" transform="translate(21.2598,477.933) scale(1,-1)">
				<title>Sheet.35</title>
				<ellipse cx="2.3622" cy="238.966" rx="2.3622" ry="2.3622" class="st7"/>
			</g>
			<g id="shape36-80" v:mID="36" v:groupContext="shape" transform="translate(9.44882,-2.3622) scale(-1,1)">
				<title>Sheet.36</title>
				<path d="M0 241.33 L9.45 241.33" class="st3"/>
			</g>
			<g id="shape37-83" v:mID="37" v:groupContext="shape" transform="translate(25.9843,480.295) scale(1,-1)">
				<title>Sheet.37</title>
				<path d="M0 241.33 L9.45 241.33" class="st3"/>
			</g>
		</g>
		<g id="group38-86" transform="translate(195.257,381.056) rotate(180)" v:mID="38" v:groupContext="group">
			<title>OP.small</title>
			<g id="shape39-87" v:mID="39" v:groupContext="shape" transform="translate(-231.021,241.329) rotate(-90)">
				<title>Sheet.39</title>
				<path d="M0 241.33 L42.52 241.33" class="st6"/>
			</g>
			<g id="shape40-90" v:mID="40" v:groupContext="shape" transform="translate(-112.213,33.4147) rotate(-30.5102)">
				<title>Sheet.40</title>
				<path d="M0 241.33 L41.88 241.33" class="st6"/>
			</g>
			<g id="shape41-93" v:mID="41" v:groupContext="shape" transform="translate(168.906,12.1549) rotate(30.5102) scale(-1,1)">
				<title>Sheet.41</title>
				<path d="M0 241.33 L41.88 241.33" class="st6"/>
			</g>
			<g id="shape42-96" v:mID="42" v:groupContext="shape" transform="translate(14.7402,450.767) scale(1,-1)">
				<title>Sheet.42</title>
				<path d="M0 241.33 L4.54 241.33" class="st3"/>
			</g>
			<g id="shape43-99" v:mID="43" v:groupContext="shape" transform="translate(10.3078,-31.8898) scale(-1,1)">
				<title>Sheet.43</title>
				<path d="M0 241.33 L10.31 241.33" class="st3"/>
			</g>
			<g id="shape44-102" v:mID="44" v:groupContext="shape" transform="translate(10.3078,-10.6299) scale(-1,1)">
				<title>Sheet.44</title>
				<path d="M0 241.33 L10.31 241.33" class="st3"/>
			</g>
			<g id="shape45-105" v:mID="45" v:groupContext="shape"
					transform="translate(45.0923,461.394) rotate(0.306939) scale(1,-1)">
				<title>Sheet.45</title>
				<path d="M0 241.33 L10.31 241.33" class="st3"/>
			</g>
			<g id="shape46-108" v:mID="46" v:groupContext="shape" transform="translate(-224.321,207.029) rotate(-90) scale(-1,1)">
				<title>Sheet.46</title>
				<path d="M0 241.33 L4.54 241.33" class="st3"/>
			</g>
			<g id="shape47-111" v:mID="47" v:groupContext="shape" transform="translate(14.7402,472.027) scale(1,-1)">
				<title>Sheet.47</title>
				<path d="M0 241.33 L4.54 241.33" class="st3"/>
			</g>
		</g>
		<g id="group48-114" transform="translate(85.4144,-108.743)" v:mID="48" v:groupContext="group">
			<title>Sheet.48</title>
			<g id="group49-115" transform="translate(3.54331,0)" v:mID="49" v:groupContext="group">
				<title>C</title>
				<g id="shape50-116" v:mID="50" v:groupContext="shape" transform="translate(-3.54331,-24.378)">
					<title>Sheet.50</title>
					<path d="M21.26 241.33 L0 241.33" class="st8"/>
				</g>
				<g id="shape51-119" v:mID="51" v:groupContext="shape" transform="translate(248.415,216.951) rotate(90) scale(-1,1)">
					<title>Sheet.51</title>
					<path d="M0 241.33 L18.14 241.33" class="st9"/>
				</g>
				<g id="shape52-122" v:mID="52" v:groupContext="shape" transform="translate(248.415,223.47) rotate(90)">
					<title>Sheet.52</title>
					<path d="M0 241.33 L17.86 241.33" class="st9"/>
				</g>
			</g>
			<g id="shape53-125" v:mID="53" v:groupContext="shape" transform="translate(0,-18.4252)">
				<title>C.154</title>
				<path d="M21.26 241.33 L0 241.33" class="st8"/>
			</g>
		</g>
		<g id="group54-128" transform="translate(202.343,-101.656)" v:mID="54" v:groupContext="group">
			<title>R</title>
			<g id="shape55-129" v:mID="55" v:groupContext="shape" transform="translate(-228.573,208.73) rotate(-90) scale(-1,1)">
				<title>Sheet.55</title>
				<path d="M0 235.66 L2.02 229.99 L5.67 241.33 L9.32 229.99 L13.35 241.33 L17.01 229.99 L20.66 241.33 L22.68 235.66"
						class="st6"/>
			</g>
			<g id="shape56-132" v:mID="56" v:groupContext="shape" transform="translate(1.43885E-13,440.137) scale(1,-1)">
				<title>Sheet.56</title>
				<rect x="0" y="198.809" width="14.1732" height="42.5197" class="st10"/>
			</g>
			<g id="shape57-134" v:mID="57" v:groupContext="shape" transform="translate(248.415,208.73) rotate(90) scale(-1,1)">
				<title>Sheet.57</title>
				<path d="M0 241.33 L9.92 241.33" class="st9"/>
			</g>
			<g id="shape58-137" v:mID="58" v:groupContext="shape" transform="translate(248.415,231.407) rotate(90)">
				<title>Sheet.58</title>
				<path d="M0 241.33 L9.92 241.33" class="st9"/>
			</g>
		</g>
		<g id="group59-140" transform="translate(202.343,-44.9631)" v:mID="59" v:groupContext="group">
			<title>R.59</title>
			<g id="shape60-141" v:mID="60" v:groupContext="shape" transform="translate(-228.573,208.73) rotate(-90) scale(-1,1)">
				<title>Sheet.60</title>
				<path d="M0 235.66 L2.02 229.99 L5.67 241.33 L9.32 229.99 L13.35 241.33 L17.01 229.99 L20.66 241.33 L22.68 235.66"
						class="st6"/>
			</g>
			<g id="shape61-144" v:mID="61" v:groupContext="shape" transform="translate(1.43885E-13,440.137) scale(1,-1)">
				<title>Sheet.61</title>
				<rect x="0" y="198.809" width="14.1732" height="42.5197" class="st10"/>
			</g>
			<g id="shape62-146" v:mID="62" v:groupContext="shape" transform="translate(248.415,208.73) rotate(90) scale(-1,1)">
				<title>Sheet.62</title>
				<path d="M0 241.33 L9.92 241.33" class="st9"/>
			</g>
			<g id="shape63-149" v:mID="63" v:groupContext="shape" transform="translate(248.415,231.407) rotate(90)">
				<title>Sheet.63</title>
				<path d="M0 241.33 L9.92 241.33" class="st9"/>
			</g>
		</g>
		<g id="group64-152" transform="translate(237.777,-44.9631)" v:mID="64" v:groupContext="group">
			<title>DC-I</title>
			<g id="shape65-153" v:mID="65" v:groupContext="shape" transform="translate(5.9952E-15,-7.08661)">
				<title>Sheet.65</title>
				<ellipse cx="14.1732" cy="227.155" rx="14.1732" ry="14.1732" class="st11"/>
			</g>
			<g id="shape66-155" v:mID="66" v:groupContext="shape" transform="translate(3.54331,-10.7717)">
				<title>Sheet.66</title>
				<ellipse cx="10.6299" cy="230.699" rx="10.6299" ry="10.6299" class="st12"/>
			</g>
			<g id="shape67-157" v:mID="67" v:groupContext="shape" transform="translate(-227.155,212.415) rotate(-90) scale(-1,1)">
				<title>Sheet.67</title>
				<path d="M0 241.33 L6.87 241.33" class="st4"/>
			</g>
			<g id="shape68-162" v:mID="68" v:groupContext="shape" transform="translate(255.502,209.297) rotate(90) scale(-1,1)">
				<title>Sheet.68</title>
				<path d="M0 241.33 L10.49 241.33" class="st9"/>
			</g>
			<g id="shape69-165" v:mID="69" v:groupContext="shape" transform="translate(255.502,230.557) rotate(90)">
				<title>Sheet.69</title>
				<path d="M0 241.33 L10.77 241.33" class="st9"/>
			</g>
		</g>
		<g id="group81-168" transform="translate(159.823,-44.9631)" v:mID="81" v:groupContext="group">
			<title>Pin</title>
			<g id="shape82-169" v:mID="82" v:groupContext="shape" transform="translate(2.9976E-15,-1.38756)">
				<title>Sheet.82</title>
				<path d="M0 229.93 L8.48 229.93 L14.18 235.53 L8.48 241.33 L0 241.33 L0 229.93 Z" class="st12"/>
			</g>
			<g id="shape83-171" v:mID="83" v:groupContext="shape">
				<title>Sheet.83</title>
				<rect x="0" y="227.155" width="14.1732" height="14.1732" class="st11"/>
			</g>
		</g>
		<g id="shape84-173" v:mID="84" v:groupContext="shape" transform="translate(206.595,-88.0498)">
			<title>node.12</title>
			<ellipse cx="2.83465" cy="238.494" rx="2.83465" ry="2.83465" class="st13"/>
		</g>
		<g id="shape85-175" v:mID="85" v:groupContext="shape" transform="translate(93.2096,-176.845)">
			<title>node.85</title>
			<ellipse cx="2.83465" cy="238.494" rx="2.83465" ry="2.83465" class="st13"/>
		</g>
		<g id="shape86-177" v:mID="86" v:groupContext="shape" transform="translate(93.2096,-77.4907)">
			<title>node.86</title>
			<ellipse cx="2.83465" cy="238.494" rx="2.83465" ry="2.83465" class="st13"/>
		</g>
		<g id="group87-179" transform="translate(46.438,-207.955)" v:mID="87" v:groupContext="group">
			<title>VDD</title>
			<g id="shape88-180" v:mID="88" v:groupContext="shape" transform="translate(248.415,227.155) rotate(90)">
				<title>Sheet.88</title>
				<path d="M0 241.33 L14.17 241.33" class="st9"/>
			</g>
			<g id="shape89-183" v:mID="89" v:groupContext="shape" transform="translate(0,-14.1732)">
				<title>Sheet.89</title>
				<path d="M0 241.33 L14.17 241.33" class="st6"/>
			</g>
		</g>
		<g id="group90-186" transform="translate(46.438,-20.16)" v:mID="90" v:groupContext="group">
			<title>GND</title>
			<g id="shape91-187" v:mID="91" v:groupContext="shape" transform="translate(7.08661,-7.08661)">
				<title>Sheet.91</title>
				<path d="M0 230.7 L0 241.33" class="st3"/>
			</g>
			<g id="shape92-190" v:mID="92" v:groupContext="shape" transform="translate(-8.99281E-15,-7.08661)">
				<title>Sheet.92</title>
				<path d="M0 241.33 L14.17 241.33" class="st8"/>
			</g>
			<g id="shape93-193" v:mID="93" v:groupContext="shape" transform="translate(3.54331,-3.54331)">
				<title>Sheet.93</title>
				<path d="M0 241.33 L7.09 241.33" class="st8"/>
			</g>
			<g id="shape94-196" v:mID="94" v:groupContext="shape" transform="translate(5.31496,-2.84217E-14)">
				<title>Sheet.94</title>
				<path d="M0 241.33 L3.54 241.33" class="st8"/>
			</g>
			<g id="shape95-199" v:mID="95" v:groupContext="shape" transform="translate(248.415,234.242) rotate(90) scale(-1,1)">
				<title>Sheet.95</title>
				<path d="M0 241.33 L10.63 241.33" class="st9"/>
			</g>
		</g>
		<g id="shape96-202" v:mID="96" v:groupContext="shape" transform="translate(206.595,-148.499)">
			<title>node.12.96</title>
			<ellipse cx="2.83465" cy="238.494" rx="2.83465" ry="2.83465" class="st14"/>
		</g>
		<g id="shape97-204" v:mID="97" v:groupContext="shape" transform="translate(50.69,-205.121)">
			<title>node.12.97</title>
			<ellipse cx="2.83465" cy="238.494" rx="2.83465" ry="2.83465" class="st13"/>
		</g>
		<g id="shape98-206" v:mID="98" v:groupContext="shape" transform="translate(50.69,-35.0419)">
			<title>node.12.98</title>
			<ellipse cx="2.83465" cy="238.494" rx="2.83465" ry="2.83465" class="st13"/>
		</g>
		<g id="shape101-208" v:mID="101" v:groupContext="shape" v:layerMember="0" transform="translate(209.43,-196.617)">
			<title>Dynamic connector</title>
			<path d="M0 237.08 L0 231.41 L-153.45 231.41" class="st3"/>
		</g>
		<g id="shape102-211" v:mID="102" v:groupContext="shape" v:layerMember="0" transform="translate(46.438,-200.869)">
			<title>Dynamic connector.102</title>
		</g>
		<g id="shape103-212" v:mID="103" v:groupContext="shape" transform="translate(206.595,-35.0419)">
			<title>node.12.103</title>
			<ellipse cx="2.83465" cy="238.494" rx="2.83465" ry="2.83465" class="st13"/>
		</g>
		<g id="shape104-214" v:mID="104" v:groupContext="shape" transform="translate(53.5246,-37.8765)">
			<title>Line.14</title>
			<path d="M0 241.33 L153.07 241.33 L153.07 241.33" class="st3"/>
		</g>
		<g id="shape105-217" v:mID="105" v:groupContext="shape" transform="translate(294.853,161.003) rotate(90)">
			<title>Line.14.105</title>
			<path d="M0 241.33 L42.45 241.33 L42.45 241.33" class="st3"/>
		</g>
		<g id="shape106-220" v:mID="106" v:groupContext="shape" transform="translate(294.853,61.6488) rotate(90) scale(-1,1)">
			<title>Line.106</title>
			<path d="M0 241.33 L28.28 241.33 L28.28 241.33" class="st3"/>
		</g>
		<g id="shape108-223" v:mID="108" v:groupContext="shape" transform="translate(88.9577,-179.68)">
			<title>Line.14.108</title>
			<path d="M0 241.33 L4.25 241.33 L4.25 241.33" class="st3"/>
		</g>
		<g id="shape109-226" v:mID="109" v:groupContext="shape" transform="translate(98.8789,-179.68)">
			<title>Line.14.109</title>
			<path d="M0 241.33 L4.25 241.33 L4.25 241.33" class="st3"/>
		</g>
		<g id="shape110-229" v:mID="110" v:groupContext="shape" transform="translate(-145.284,90.0661) rotate(-90)">
			<title>Line.14.110</title>
			<path d="M0 241.33 L25.58 241.33 L25.58 241.33" class="st3"/>
		</g>
		<g id="shape111-232" v:mID="111" v:groupContext="shape" transform="translate(-145.284,132.586) rotate(-90) scale(-1,1)">
			<title>Line.111</title>
			<path d="M0 241.33 L25.58 241.33 L25.58 241.33" class="st3"/>
		</g>
		<g id="shape112-235" v:mID="112" v:groupContext="shape" transform="translate(102.9,402.298) rotate(-0.954621) scale(1,-1)">
			<title>Line.14.112</title>
			<path d="M0 241.33 L4.25 241.33 L4.25 241.33" class="st3"/>
		</g>
		<g id="shape113-238" v:mID="113" v:groupContext="shape" transform="translate(88.9577,-80.3254)">
			<title>Line.113</title>
			<path d="M0 241.33 L4.25 241.33 L4.25 241.33" class="st3"/>
		</g>
		<g id="shape114-241" v:mID="114" v:groupContext="shape" v:layerMember="0" transform="translate(195.257,-69.7111)">
			<title>Dynamic connector.114</title>
			<path d="M0 241.33 L0 258.99 L-21.35 258.99" class="st3"/>
		</g>
		<g id="shape115-244" v:mID="115" v:groupContext="shape" transform="translate(-31.8984,147.609) rotate(-90)">
			<title>Line.14.115</title>
			<path d="M0 241.33 L7.94 241.33 L7.94 241.33" class="st3"/>
		</g>
		<g id="shape116-247" v:mID="116" v:groupContext="shape" transform="translate(-31.8984,153.846) rotate(-90)">
			<title>Line.116</title>
			<path d="M0 241.33 L0.57 241.33 L0.57 241.33" class="st3"/>
		</g>
		<g id="shape117-250" v:mID="117" v:groupContext="shape" transform="translate(197.098,-90.9639) rotate(0.437134)">
			<title>Line.117</title>
			<path d="M0 241.33 L11.34 241.33 L11.34 241.33" class="st3"/>
		</g>
		<g id="shape118-253" v:mID="118" v:groupContext="shape" transform="translate(-31.8984,196.365) rotate(-90) scale(-1,1)">
			<title>Line.118</title>
			<path d="M0 241.33 L4.25 241.33 L4.25 241.33" class="st3"/>
		</g>
		<g id="shape119-256" v:mID="119" v:groupContext="shape" v:layerMember="0" transform="translate(251.95,-48.5065)">
			<title>Dynamic connector.119</title>
			<path d="M0 244.87 L0 251.96 L-39.69 251.96" class="st3"/>
		</g>
		<g id="shape121-259" v:mID="121" v:groupContext="shape" v:layerMember="0" transform="translate(202.343,-163.416)">
			<title>Dynamic connector.121</title>
			<path d="M7.09 246.25 L7.09 250.58" class="st3"/>
		</g>
		<g id="shape122-262" v:mID="122" v:groupContext="shape" v:layerMember="0" transform="translate(202.343,-139.251)">
			<title>Dynamic connector.122</title>
			<path d="M7.09 236.4 L7.09 232.08" class="st3"/>
		</g>
		<g id="group124-265" transform="translate(266.123,-144.176)" v:mID="124" v:groupContext="group">
			<title>Pin.28</title>
			<g id="shape125-266" v:mID="125" v:groupContext="shape" transform="translate(2.9976E-15,-1.38756)">
				<title>Sheet.125</title>
				<path d="M0 229.93 L8.48 229.93 L14.18 235.53 L8.48 241.33 L0 241.33 L0 229.93 Z" class="st12"/>
			</g>
			<g id="shape126-268" v:mID="126" v:groupContext="shape">
				<title>Sheet.126</title>
				<rect x="0" y="227.155" width="14.1732" height="14.1732" class="st11"/>
			</g>
		</g>
		<g id="shape127-270" v:mID="127" v:groupContext="shape" transform="translate(212.265,-151.333)">
			<title>Line.29</title>
			<path d="M0 241.33 L36.85 241.33 L36.85 241.33" class="st3"/>
		</g>
		<g id="shape128-273" v:mID="128" v:groupContext="shape" transform="translate(249.115,-148.499)">
			<title>node.128</title>
			<ellipse cx="2.83465" cy="238.494" rx="2.83465" ry="2.83465" class="st14"/>
		</g>
		<g id="shape129-275" v:mID="129" v:groupContext="shape" transform="translate(256.292,-151.329) rotate(0.358036)">
			<title>Line.129</title>
			<path d="M0 241.33 L11.34 241.33 L11.34 241.33" class="st3"/>
		</g>
		<g id="shape130-278" v:mID="130" v:groupContext="shape" transform="translate(493.278,92.8299) rotate(90)">
			<title>Line.130</title>
			<path d="M0 241.33 L61.02 241.33 L61.02 241.33" class="st3"/>
		</g>
		<g id="shape134-281" v:mID="134" v:groupContext="shape" transform="translate(259.036,-154.806)">
			<title>Sheet.134</title>
			<desc>out</desc>
			<v:textBlock v:margins="rect(4,4,4,4)" v:tabSpace="42.5197"/>
			<v:textRect cx="14.1732" cy="230.699" width="28.35" height="21.2598"/>
			<rect x="0" y="220.069" width="28.3465" height="21.2598" class="st11"/>
			<text x="5.85" y="234.3" class="st15" v:langID="1033"><v:paragraph v:horizAlign="1"/><v:tabList/>out</text>		</g>
		<g id="shape135-284" v:mID="135" v:groupContext="shape" transform="translate(131.477,-41.4198)">
			<title>Sheet.135</title>
			<desc>ref</desc>
			<v:textBlock v:margins="rect(4,4,4,4)" v:tabSpace="42.5197"/>
			<v:textRect cx="14.1732" cy="230.699" width="28.35" height="21.2598"/>
			<rect x="0" y="220.069" width="28.3465" height="21.2598" class="st11"/>
			<text x="7.26" y="234.3" class="st15" v:langID="1033"><v:paragraph v:horizAlign="1"/><v:tabList/>ref</text>		</g>
		<g id="shape136-287" v:mID="136" v:groupContext="shape" transform="translate(259.036,-55.5931)">
			<title>Sheet.136</title>
			<desc>Iload</desc>
			<v:textBlock v:margins="rect(4,4,4,4)" v:tabSpace="42.5197"/>
			<v:textRect cx="15.9449" cy="230.699" width="31.89" height="21.2598"/>
			<rect x="0" y="220.069" width="31.8898" height="21.2598" class="st11"/>
			<text x="7.39" y="234.3" class="st15" v:langID="1033"><v:paragraph v:horizAlign="1"/><v:tabList/>I<tspan class="st16">load</tspan></text>		</g>
		<g id="shape138-291" v:mID="138" v:groupContext="shape" transform="translate(358.916,68.8063) rotate(90)">
			<title>Line Double Arrow</title>
			<v:userDefs>
				<v:ud v:nameU="Scale" v:val="VT0(1):26"/>
				<v:ud v:nameU="AntiScale" v:val="VT0(1):26"/>
				<v:ud v:nameU="visVersion" v:val="VT0(17):26"/>
			</v:userDefs>
			<path d="M5.67 238.5 L5.67 244.16 L0 241.33 L5.67 238.5 ZM79.37 238.5 L79.37 244.16 L85.04 241.33 L79.37 238.5 Z"
					class="st17"/>
			<path d="M5.67 238.5 L5.67 244.16 L0 241.33 L5.67 238.5" class="st18"/>
			<path d="M79.37 238.5 L79.37 244.16 L85.04 241.33 L79.37 238.5" class="st18"/>
			<path d="M5.67 241.33 L79.37 241.33" class="st18"/>
		</g>
		<g id="shape139-296" v:mID="139" v:groupContext="shape" transform="translate(316.396,68.8063) rotate(90)">
			<title>Line Double Arrow.139</title>
			<v:userDefs>
				<v:ud v:nameU="Scale" v:val="VT0(1):26"/>
				<v:ud v:nameU="AntiScale" v:val="VT0(1):26"/>
				<v:ud v:nameU="visVersion" v:val="VT0(17):26"/>
			</v:userDefs>
			<path d="M5.67 238.5 L5.67 244.16 L0 241.33 L5.67 238.5 ZM79.37 238.5 L79.37 244.16 L85.04 241.33 L79.37 238.5 Z"
					class="st17"/>
			<path d="M5.67 238.5 L5.67 244.16 L0 241.33 L5.67 238.5" class="st18"/>
			<path d="M79.37 238.5 L79.37 244.16 L85.04 241.33 L79.37 238.5" class="st18"/>
			<path d="M5.67 241.33 L79.37 241.33" class="st18"/>
		</g>
		<g id="shape140-301" v:mID="140" v:groupContext="shape" transform="translate(18.375,-154.806)">
			<title>Sheet.140</title>
			<desc>boot</desc>
			<v:textBlock v:margins="rect(4,4,4,4)" v:tabSpace="42.5197"/>
			<v:textRect cx="21.2598" cy="230.699" width="42.52" height="21.2598"/>
			<rect x="0" y="220.069" width="42.5197" height="21.2598" class="st11"/>
			<text x="9.77" y="234.3" class="st15" v:langID="1033"><v:paragraph v:horizAlign="1"/><v:tabList/>boot</text>		</g>
		<g id="shape141-304" v:mID="141" v:groupContext="shape" transform="translate(18.375,-105.199)">
			<title>Sheet.141</title>
			<desc>charge</desc>
			<v:textBlock v:margins="rect(4,4,4,4)" v:tabSpace="42.5197"/>
			<v:textRect cx="21.2598" cy="230.699" width="42.52" height="21.2598"/>
			<rect x="0" y="220.069" width="42.5197" height="21.2598" class="st11"/>
			<text x="4.79" y="234.3" class="st15" v:langID="1033"><v:paragraph v:horizAlign="1"/><v:tabList/>charge</text>		</g>
		<g id="group143-307" transform="translate(32.546,-144.176)" v:mID="143" v:groupContext="group">
			<title>Pin.143</title>
			<g id="shape144-308" v:mID="144" v:groupContext="shape" transform="translate(2.9976E-15,-1.38756)">
				<title>Sheet.144</title>
				<path d="M0 229.93 L8.48 229.93 L14.18 235.53 L8.48 241.33 L0 241.33 L0 229.93 Z" class="st12"/>
			</g>
			<g id="shape145-310" v:mID="145" v:groupContext="shape">
				<title>Sheet.145</title>
				<rect x="0" y="227.155" width="14.1732" height="14.1732" class="st11"/>
			</g>
		</g>
		<g id="group146-312" transform="translate(32.546,-94.5694)" v:mID="146" v:groupContext="group">
			<title>Pin.146</title>
			<g id="shape147-313" v:mID="147" v:groupContext="shape" transform="translate(2.9976E-15,-1.38756)">
				<title>Sheet.147</title>
				<path d="M0 229.93 L8.48 229.93 L14.18 235.53 L8.48 241.33 L0 241.33 L0 229.93 Z" class="st12"/>
			</g>
			<g id="shape148-315" v:mID="148" v:groupContext="shape">
				<title>Sheet.148</title>
				<rect x="0" y="227.155" width="14.1732" height="14.1732" class="st11"/>
			</g>
		</g>
		<g id="shape149-317" v:mID="149" v:groupContext="shape" transform="translate(47.0545,-151.36) rotate(0.0790683)">
			<title>Straight Line</title>
			<v:userDefs>
				<v:ud v:nameU="visVersion" v:prompt="" v:val="VT0(17):26"/>
			</v:userDefs>
			<path d="M0 241.33 L70.87 241.33" class="st18"/>
		</g>
		<g id="shape150-320" v:mID="150" v:groupContext="shape" transform="translate(75.0679,380.903) rotate(180)">
			<title>Straight Line.150</title>
			<v:userDefs>
				<v:ud v:nameU="visVersion" v:prompt="" v:val="VT0(17):26"/>
			</v:userDefs>
			<path d="M0 241.33 L28.35 241.33" class="st18"/>
		</g>
	</g>
</svg>
