<?xml version="1.0" encoding="UTF-8" standalone="no"?>
<!DOCTYPE svg PUBLIC "-//W3C//DTD SVG 1.1//EN" "http://www.w3.org/Graphics/SVG/1.1/DTD/svg11.dtd">
<!-- Generated by Microsoft Visio, SVG Export schematic_bootstrap.svg bootstrap -->
<svg xmlns="http://www.w3.org/2000/svg" xmlns:xlink="http://www.w3.org/1999/xlink" xmlns:ev="http://www.w3.org/2001/xml-events"
		xmlns:v="http://schemas.microsoft.com/visio/2003/SVGExtensions/" width="3.06947in" height="3.93088in"
		viewBox="0 0 221.002 283.023" xml:space="preserve" color-interpolation-filters="sRGB" class="st11">
	<v:documentProperties v:langID="1033" v:metric="true" v:viewMarkup="false">
		<v:userDefs>
			<v:ud v:nameU="msvNoAutoConnect" v:val="VT0(1):26"/>
		</v:userDefs>
	</v:documentProperties>

	<style type="text/css">
	<![CDATA[
		.st1 {stroke:#000000;stroke-linecap:butt;stroke-width:2.16}
		.st2 {stroke:#000000;stroke-linecap:butt;stroke-width:1.2}
		.st3 {stroke:#000000;stroke-linecap:round;stroke-linejoin:round;stroke-width:2.16}
		.st4 {stroke:#000000;stroke-linecap:round;stroke-linejoin:round;stroke-width:1.2}
		.st5 {fill:#ffffff;stroke:#000000;stroke-linecap:round;stroke-linejoin:round;stroke-width:1.2}
		.st6 {fill:#000000;stroke:none;stroke-linecap:round;stroke-linejoin:round;stroke-width:1.2}
		.st7 {fill:none;stroke:#000000;stroke-linecap:round;stroke-linejoin:round;stroke-width:2.16}
		.st8 {fill:none;stroke:none;stroke-linecap:round;stroke-linejoin:round;stroke-width:0.75}
		.st9 {fill:#000000;stroke:none;stroke-linecap:round;stroke-linejoin:round;stroke-width:0.75}
		.st10 {fill:#000000;font-family:Calibri;font-size:1.00001em}
		.st11 {fill:none;fill-rule:evenodd;font-size:12px;overflow:visible;stroke-linecap:square;stroke-miterlimit:3}
	]]>
	</style>

	<g v:mID="7" v:index="3" v:groupContext="foregroundPage">
		<title>bootstrap</title>
		<v:pageProperties v:drawingScale="0.0393701" v:pageScale="0.0393701" v:drawingUnits="24" v:shadowOffsetX="8.50394"
				v:shadowOffsetY="-8.50394"/>
		<v:layer v:name="Connector" v:index="0"/>
		<g id="group9-1" transform="translate(99.8711,-186.695)" v:mID="9" v:groupContext="group">
			<title>Sheet.9</title>
			<g id="group10-2" transform="translate(3.54331,0)" v:mID="10" v:groupContext="group">
				<title>C</title>
				<g id="shape11-3" v:mID="11" v:groupContext="shape" transform="translate(-3.54331,-24.378)">
					<title>Sheet.11</title>
					<path d="M21.26 283.02 L0 283.02" class="st1"/>
				</g>
				<g id="shape12-6" v:mID="12" v:groupContext="shape" transform="translate(290.11,258.645) rotate(90) scale(-1,1)">
					<title>Sheet.12</title>
					<path d="M0 283.02 L18.14 283.02" class="st2"/>
				</g>
				<g id="shape13-9" v:mID="13" v:groupContext="shape" transform="translate(290.11,265.165) rotate(90)">
					<title>Sheet.13</title>
					<path d="M0 283.02 L17.86 283.02" class="st2"/>
				</g>
			</g>
			<g id="shape14-12" v:mID="14" v:groupContext="shape" transform="translate(0,-18.4252)">
				<title>C.154</title>
				<path d="M21.26 283.02 L0 283.02" class="st1"/>
			</g>
		</g>
		<g id="group15-15" transform="translate(99.8711,-52.0498)" v:mID="15" v:groupContext="group">
			<title>Sheet.15</title>
			<g id="group16-16" transform="translate(3.54331,0)" v:mID="16" v:groupContext="group">
				<title>C</title>
				<g id="shape17-17" v:mID="17" v:groupContext="shape" transform="translate(-3.54331,-24.378)">
					<title>Sheet.17</title>
					<path d="M21.26 283.02 L0 283.02" class="st1"/>
				</g>
				<g id="shape18-20" v:mID="18" v:groupContext="shape" transform="translate(290.11,258.645) rotate(90) scale(-1,1)">
					<title>Sheet.18</title>
					<path d="M0 283.02 L18.14 283.02" class="st2"/>
				</g>
				<g id="shape19-23" v:mID="19" v:groupContext="shape" transform="translate(290.11,265.165) rotate(90)">
					<title>Sheet.19</title>
					<path d="M0 283.02 L17.86 283.02" class="st2"/>
				</g>
			</g>
			<g id="shape20-26" v:mID="20" v:groupContext="shape" transform="translate(0,-18.4252)">
				<title>C.154</title>
				<path d="M21.26 283.02 L0 283.02" class="st1"/>
			</g>
		</g>
		<g id="group21-29" transform="translate(53.8081,-242.916)" v:mID="21" v:groupContext="group">
			<title>VDD</title>
			<g id="shape22-30" v:mID="22" v:groupContext="shape" transform="translate(290.11,268.85) rotate(90)">
				<title>Sheet.22</title>
				<path d="M0 283.02 L14.17 283.02" class="st2"/>
			</g>
			<g id="shape23-33" v:mID="23" v:groupContext="shape" transform="translate(0,-14.1732)">
				<title>Sheet.23</title>
				<path d="M0 283.02 L14.17 283.02" class="st3"/>
			</g>
		</g>
		<g id="group24-36" transform="translate(153.966,-20.16)" v:mID="24" v:groupContext="group">
			<title>GND</title>
			<g id="shape25-37" v:mID="25" v:groupContext="shape" transform="translate(7.08661,-7.08661)">
				<title>Sheet.25</title>
				<path d="M0 272.39 L0 283.02" class="st4"/>
			</g>
			<g id="shape26-40" v:mID="26" v:groupContext="shape" transform="translate(-8.99281E-15,-7.08661)">
				<title>Sheet.26</title>
				<path d="M0 283.02 L14.17 283.02" class="st1"/>
			</g>
			<g id="shape27-43" v:mID="27" v:groupContext="shape" transform="translate(3.54331,-3.54331)">
				<title>Sheet.27</title>
				<path d="M0 283.02 L7.09 283.02" class="st1"/>
			</g>
			<g id="shape28-46" v:mID="28" v:groupContext="shape" transform="translate(5.31496,-5.68434E-14)">
				<title>Sheet.28</title>
				<path d="M0 283.02 L3.54 283.02" class="st1"/>
			</g>
			<g id="shape29-49" v:mID="29" v:groupContext="shape" transform="translate(290.11,275.937) rotate(90) scale(-1,1)">
				<title>Sheet.29</title>
				<path d="M0 283.02 L10.63 283.02" class="st2"/>
			</g>
		</g>
		<g id="group30-52" transform="translate(124.674,-240.554)" v:mID="30" v:groupContext="group">
			<title>SW.on</title>
			<g id="shape31-53" v:mID="31" v:groupContext="shape" transform="translate(14.1732,561.322) rotate(180)">
				<title>Sheet.31</title>
				<ellipse cx="2.3622" cy="280.661" rx="2.3622" ry="2.3622" class="st5"/>
			</g>
			<g id="shape32-55" v:mID="32" v:groupContext="shape" transform="translate(10.8747,561.487) scale(1,-1)">
				<title>Sheet.32</title>
				<path d="M0 283.02 L13.62 283.02" class="st4"/>
			</g>
			<g id="shape33-58" v:mID="33" v:groupContext="shape" transform="translate(21.2598,561.322) scale(1,-1)">
				<title>Sheet.33</title>
				<ellipse cx="2.3622" cy="280.661" rx="2.3622" ry="2.3622" class="st5"/>
			</g>
			<g id="shape34-60" v:mID="34" v:groupContext="shape" transform="translate(9.44882,-2.3622) scale(-1,1)">
				<title>Sheet.34</title>
				<path d="M0 283.02 L9.45 283.02" class="st4"/>
			</g>
			<g id="shape35-63" v:mID="35" v:groupContext="shape" transform="translate(25.9843,563.684) scale(1,-1)">
				<title>Sheet.35</title>
				<path d="M0 283.02 L9.45 283.02" class="st4"/>
			</g>
		</g>
		<g id="group36-66" transform="translate(124.674,-106.38)" v:mID="36" v:groupContext="group">
			<title>SW.on.36</title>
			<g id="shape37-67" v:mID="37" v:groupContext="shape" transform="translate(14.1732,561.322) rotate(180)">
				<title>Sheet.37</title>
				<ellipse cx="2.3622" cy="280.661" rx="2.3622" ry="2.3622" class="st5"/>
			</g>
			<g id="shape38-69" v:mID="38" v:groupContext="shape" transform="translate(10.8747,561.487) scale(1,-1)">
				<title>Sheet.38</title>
				<path d="M0 283.02 L13.62 283.02" class="st4"/>
			</g>
			<g id="shape39-72" v:mID="39" v:groupContext="shape" transform="translate(21.2598,561.322) scale(1,-1)">
				<title>Sheet.39</title>
				<ellipse cx="2.3622" cy="280.661" rx="2.3622" ry="2.3622" class="st5"/>
			</g>
			<g id="shape40-74" v:mID="40" v:groupContext="shape" transform="translate(9.44882,-2.3622) scale(-1,1)">
				<title>Sheet.40</title>
				<path d="M0 283.02 L9.45 283.02" class="st4"/>
			</g>
			<g id="shape41-77" v:mID="41" v:groupContext="shape" transform="translate(25.9843,563.684) scale(1,-1)">
				<title>Sheet.41</title>
				<path d="M0 283.02 L9.45 283.02" class="st4"/>
			</g>
		</g>
		<g id="group42-80" transform="translate(60.8947,-170.16)" v:mID="42" v:groupContext="group">
			<title>SW.on.42</title>
			<g id="shape43-81" v:mID="43" v:groupContext="shape" transform="translate(14.1732,561.322) rotate(180)">
				<title>Sheet.43</title>
				<ellipse cx="2.3622" cy="280.661" rx="2.3622" ry="2.3622" class="st5"/>
			</g>
			<g id="shape44-83" v:mID="44" v:groupContext="shape" transform="translate(10.8747,561.487) scale(1,-1)">
				<title>Sheet.44</title>
				<path d="M0 283.02 L13.62 283.02" class="st4"/>
			</g>
			<g id="shape45-86" v:mID="45" v:groupContext="shape" transform="translate(21.2598,561.322) scale(1,-1)">
				<title>Sheet.45</title>
				<ellipse cx="2.3622" cy="280.661" rx="2.3622" ry="2.3622" class="st5"/>
			</g>
			<g id="shape46-88" v:mID="46" v:groupContext="shape" transform="translate(9.44882,-2.3622) scale(-1,1)">
				<title>Sheet.46</title>
				<path d="M0 283.02 L9.45 283.02" class="st4"/>
			</g>
			<g id="shape47-91" v:mID="47" v:groupContext="shape" transform="translate(25.9843,563.684) scale(1,-1)">
				<title>Sheet.47</title>
				<path d="M0 283.02 L9.45 283.02" class="st4"/>
			</g>
		</g>
		<g id="group48-94" transform="translate(60.8947,-35.5143)" v:mID="48" v:groupContext="group">
			<title>SW.on.48</title>
			<g id="shape49-95" v:mID="49" v:groupContext="shape" transform="translate(14.1732,561.322) rotate(180)">
				<title>Sheet.49</title>
				<ellipse cx="2.3622" cy="280.661" rx="2.3622" ry="2.3622" class="st5"/>
			</g>
			<g id="shape50-97" v:mID="50" v:groupContext="shape" transform="translate(10.8747,561.487) scale(1,-1)">
				<title>Sheet.50</title>
				<path d="M0 283.02 L13.62 283.02" class="st4"/>
			</g>
			<g id="shape51-100" v:mID="51" v:groupContext="shape" transform="translate(21.2598,561.322) scale(1,-1)">
				<title>Sheet.51</title>
				<ellipse cx="2.3622" cy="280.661" rx="2.3622" ry="2.3622" class="st5"/>
			</g>
			<g id="shape52-102" v:mID="52" v:groupContext="shape" transform="translate(9.44882,-2.3622) scale(-1,1)">
				<title>Sheet.52</title>
				<path d="M0 283.02 L9.45 283.02" class="st4"/>
			</g>
			<g id="shape53-105" v:mID="53" v:groupContext="shape" transform="translate(25.9843,563.684) scale(1,-1)">
				<title>Sheet.53</title>
				<path d="M0 283.02 L9.45 283.02" class="st4"/>
			</g>
		</g>
		<g id="group54-108" transform="translate(60.8947,-240.554)" v:mID="54" v:groupContext="group">
			<title>SW.off</title>
			<g id="shape55-109" v:mID="55" v:groupContext="shape" transform="translate(14.1732,561.322) rotate(180)">
				<title>Sheet.55</title>
				<ellipse cx="2.3622" cy="280.661" rx="2.3622" ry="2.3622" class="st5"/>
			</g>
			<g id="shape56-111" v:mID="56" v:groupContext="shape"
					transform="translate(131.434,534.526) rotate(-25.212) scale(1,-1)">
				<title>Sheet.56</title>
				<path d="M0 283.02 L11.48 283.02" class="st4"/>
			</g>
			<g id="shape57-114" v:mID="57" v:groupContext="shape" transform="translate(21.2598,561.322) scale(1,-1)">
				<title>Sheet.57</title>
				<ellipse cx="2.3622" cy="280.661" rx="2.3622" ry="2.3622" class="st5"/>
			</g>
			<g id="shape58-116" v:mID="58" v:groupContext="shape" transform="translate(9.44882,-2.3622) scale(-1,1)">
				<title>Sheet.58</title>
				<path d="M0 283.02 L9.45 283.02" class="st4"/>
			</g>
			<g id="shape59-119" v:mID="59" v:groupContext="shape" transform="translate(25.9843,563.684) scale(1,-1)">
				<title>Sheet.59</title>
				<path d="M0 283.02 L9.45 283.02" class="st4"/>
			</g>
		</g>
		<g id="group60-122" transform="translate(391.162,124.674) rotate(90)" v:mID="60" v:groupContext="group">
			<title>SW.off.60</title>
			<g id="shape61-123" v:mID="61" v:groupContext="shape" transform="translate(14.1732,561.322) rotate(180)">
				<title>Sheet.61</title>
				<ellipse cx="2.3622" cy="280.661" rx="2.3622" ry="2.3622" class="st5"/>
			</g>
			<g id="shape62-125" v:mID="62" v:groupContext="shape"
					transform="translate(131.434,534.526) rotate(-25.212) scale(1,-1)">
				<title>Sheet.62</title>
				<path d="M0 283.02 L11.48 283.02" class="st4"/>
			</g>
			<g id="shape63-128" v:mID="63" v:groupContext="shape" transform="translate(21.2598,561.322) scale(1,-1)">
				<title>Sheet.63</title>
				<ellipse cx="2.3622" cy="280.661" rx="2.3622" ry="2.3622" class="st5"/>
			</g>
			<g id="shape64-130" v:mID="64" v:groupContext="shape" transform="translate(9.44882,-2.3622) scale(-1,1)">
				<title>Sheet.64</title>
				<path d="M0 283.02 L9.45 283.02" class="st4"/>
			</g>
			<g id="shape65-133" v:mID="65" v:groupContext="shape" transform="translate(25.9843,563.684) scale(1,-1)">
				<title>Sheet.65</title>
				<path d="M0 283.02 L9.45 283.02" class="st4"/>
			</g>
		</g>
		<g id="group66-136" transform="translate(125.619,-35.5143)" v:mID="66" v:groupContext="group">
			<title>SW.off.66</title>
			<g id="shape67-137" v:mID="67" v:groupContext="shape" transform="translate(14.1732,561.322) rotate(180)">
				<title>Sheet.67</title>
				<ellipse cx="2.3622" cy="280.661" rx="2.3622" ry="2.3622" class="st5"/>
			</g>
			<g id="shape68-139" v:mID="68" v:groupContext="shape"
					transform="translate(131.434,534.526) rotate(-25.212) scale(1,-1)">
				<title>Sheet.68</title>
				<path d="M0 283.02 L11.48 283.02" class="st4"/>
			</g>
			<g id="shape69-142" v:mID="69" v:groupContext="shape" transform="translate(21.2598,561.322) scale(1,-1)">
				<title>Sheet.69</title>
				<ellipse cx="2.3622" cy="280.661" rx="2.3622" ry="2.3622" class="st5"/>
			</g>
			<g id="shape70-144" v:mID="70" v:groupContext="shape" transform="translate(9.44882,-2.3622) scale(-1,1)">
				<title>Sheet.70</title>
				<path d="M0 283.02 L9.45 283.02" class="st4"/>
			</g>
			<g id="shape71-147" v:mID="71" v:groupContext="shape" transform="translate(25.9843,563.684) scale(1,-1)">
				<title>Sheet.71</title>
				<path d="M0 283.02 L9.45 283.02" class="st4"/>
			</g>
		</g>
		<g id="shape72-150" v:mID="72" v:groupContext="shape" transform="translate(107.666,-169.688)">
			<title>node.12</title>
			<ellipse cx="2.83465" cy="280.189" rx="2.83465" ry="2.83465" class="st6"/>
		</g>
		<g id="shape73-152" v:mID="73" v:groupContext="shape" transform="translate(107.666,-105.908)">
			<title>node.73</title>
			<ellipse cx="2.83465" cy="280.189" rx="2.83465" ry="2.83465" class="st6"/>
		</g>
		<g id="shape74-154" v:mID="74" v:groupContext="shape" transform="translate(107.666,-35.0419)">
			<title>node.74</title>
			<ellipse cx="2.83465" cy="280.189" rx="2.83465" ry="2.83465" class="st6"/>
		</g>
		<g id="shape75-156" v:mID="75" v:groupContext="shape" transform="translate(107.666,-240.554)">
			<title>node.75</title>
			<ellipse cx="2.83465" cy="280.189" rx="2.83465" ry="2.83465" class="st6"/>
		</g>
		<g id="shape76-158" v:mID="76" v:groupContext="shape" v:layerMember="0" transform="translate(94.9303,-235.829)">
			<title>Dynamic connector</title>
			<path d="M1.4 275.94 L12.78 275.94" class="st4"/>
		</g>
		<g id="shape77-161" v:mID="77" v:groupContext="shape" v:layerMember="0" transform="translate(111.898,-235.829)">
			<title>Dynamic connector.77</title>
			<path d="M1.4 275.94 L12.78 275.94" class="st4"/>
		</g>
		<g id="shape78-164" v:mID="78" v:groupContext="shape" v:layerMember="0" transform="translate(103.414,-227.798)">
			<title>Dynamic connector.78</title>
			<path d="M7.09 281.61 L7.09 270.27" class="st4"/>
		</g>
		<g id="shape79-167" v:mID="79" v:groupContext="shape" v:layerMember="0" transform="translate(103.414,-188.113)">
			<title>Dynamic connector.79</title>
			<path d="M7.09 284.44 L7.09 295.78" class="st4"/>
		</g>
		<g id="shape80-170" v:mID="80" v:groupContext="shape" v:layerMember="0" transform="translate(94.9104,-165.436)">
			<title>Dynamic connector.80</title>
			<path d="M1.42 275.94 L12.76 275.94" class="st4"/>
		</g>
		<g id="shape81-173" v:mID="81" v:groupContext="shape" v:layerMember="0" transform="translate(103.414,-156.932)">
			<title>Dynamic connector.81</title>
			<path d="M7.09 281.61 L7.09 270.27" class="st4"/>
		</g>
		<g id="shape83-176" v:mID="83" v:groupContext="shape" v:layerMember="0" transform="translate(111.918,-101.656)">
			<title>Dynamic connector.83</title>
			<path d="M1.42 275.94 L12.76 275.94" class="st4"/>
		</g>
		<g id="shape84-179" v:mID="84" v:groupContext="shape" v:layerMember="0" transform="translate(103.414,-93.172)">
			<title>Dynamic connector.84</title>
			<path d="M7.09 281.63 L7.09 270.25" class="st4"/>
		</g>
		<g id="shape85-182" v:mID="85" v:groupContext="shape" v:layerMember="0" transform="translate(103.414,-53.4671)">
			<title>Dynamic connector.85</title>
			<path d="M7.09 284.44 L7.09 295.78" class="st4"/>
		</g>
		<g id="shape86-185" v:mID="86" v:groupContext="shape" v:layerMember="0" transform="translate(112.391,-30.7899)">
			<title>Dynamic connector.86</title>
			<path d="M0.94 275.94 L13.23 275.94" class="st4"/>
		</g>
		<g id="shape87-188" v:mID="87" v:groupContext="shape" v:layerMember="0" transform="translate(109.084,-30.7899)">
			<title>Dynamic connector.87</title>
			<path d="M-1.42 275.94 L-12.76 275.94" class="st4"/>
		</g>
		<g id="shape88-191" v:mID="88" v:groupContext="shape" transform="translate(-172.522,160.107) rotate(-90) scale(-1,1)">
			<title>Line.14</title>
			<path d="M0 283.02 L11.34 283.02 L11.34 283.02" class="st4"/>
		</g>
		<g id="group89-194" transform="translate(32.5482,-101.656)" v:mID="89" v:groupContext="group">
			<title>Pin</title>
			<g id="shape90-195" v:mID="90" v:groupContext="shape" transform="translate(2.9976E-15,-1.38756)">
				<title>Sheet.90</title>
				<path d="M0 271.63 L8.48 271.63 L14.18 277.23 L8.48 283.02 L0 283.02 L0 271.63 Z" class="st7"/>
			</g>
			<g id="shape91-197" v:mID="91" v:groupContext="shape">
				<title>Sheet.91</title>
				<rect x="0" y="268.85" width="14.1732" height="14.1732" class="st8"/>
			</g>
		</g>
		<g id="shape92-199" v:mID="92" v:groupContext="shape" transform="translate(58.06,-105.908)">
			<title>node.12.92</title>
			<ellipse cx="2.83465" cy="280.189" rx="2.83465" ry="2.83465" class="st9"/>
		</g>
		<g id="shape93-201" v:mID="93" v:groupContext="shape" transform="translate(157.273,-169.688)">
			<title>node.93</title>
			<ellipse cx="2.83465" cy="280.189" rx="2.83465" ry="2.83465" class="st9"/>
		</g>
		<g id="shape94-203" v:mID="94" v:groupContext="shape" transform="translate(343.918,110.501) rotate(90)">
			<title>Line.37</title>
			<path d="M0 283.02 L60.94 283.02 L60.94 283.02" class="st4"/>
		</g>
		<g id="shape95-206" v:mID="95" v:groupContext="shape" transform="translate(343.918,245.147) rotate(90) scale(-1,1)">
			<title>Line.95</title>
			<path d="M0 283.02 L68.03 283.02 L68.03 283.02" class="st4"/>
		</g>
		<g id="shape96-209" v:mID="96" v:groupContext="shape" transform="translate(443.13,107.666) rotate(90) scale(-1,1)">
			<title>Line.96</title>
			<path d="M0 283.02 L67.56 283.02 L67.56 283.02" class="st4"/>
		</g>
		<g id="shape97-212" v:mID="97" v:groupContext="shape" transform="translate(443.13,113.336) rotate(90)">
			<title>Line.97</title>
			<path d="M0 283.02 L60.94 283.02 L60.94 283.02" class="st4"/>
		</g>
		<g id="shape99-215" v:mID="99" v:groupContext="shape" transform="translate(55.6186,457.293) rotate(-179.506)">
			<title>Line.37.99</title>
			<path d="M0 283.02 L11.34 283.02 L11.34 283.02" class="st4"/>
		</g>
		<g id="group100-218" transform="translate(174.278,-165.436)" v:mID="100" v:groupContext="group">
			<title>Pin.100</title>
			<g id="shape101-219" v:mID="101" v:groupContext="shape" transform="translate(2.9976E-15,-1.38756)">
				<title>Sheet.101</title>
				<path d="M0 271.63 L8.48 271.63 L14.18 277.23 L8.48 283.02 L0 283.02 L0 271.63 Z" class="st7"/>
			</g>
			<g id="shape102-221" v:mID="102" v:groupContext="shape">
				<title>Sheet.102</title>
				<rect x="0" y="268.85" width="14.1732" height="14.1732" class="st8"/>
			</g>
		</g>
		<g id="shape103-223" v:mID="103" v:groupContext="shape" transform="translate(162.942,-172.522) rotate(1.5343E-05)">
			<title>Line.103</title>
			<path d="M0 283.02 L11.34 283.02 L11.34 283.02" class="st4"/>
		</g>
		<g id="shape107-226" v:mID="107" v:groupContext="shape" transform="translate(117.588,-243.388)">
			<title>Sheet.107</title>
			<desc>boot</desc>
			<v:textBlock v:margins="rect(4,4,4,4)" v:tabSpace="42.5197"/>
			<v:textRect cx="21.2598" cy="272.393" width="42.52" height="21.2598"/>
			<rect x="0" y="261.763" width="42.5197" height="21.2598" class="st8"/>
			<text x="9.77" y="275.99" class="st10" v:langID="1033"><v:paragraph v:horizAlign="1"/><v:tabList/>boot</text>		</g>
		<g id="shape108-229" v:mID="108" v:groupContext="shape" transform="translate(124.674,-37.8765)">
			<title>Sheet.108</title>
			<desc>charge</desc>
			<v:textBlock v:margins="rect(4,4,4,4)" v:tabSpace="42.5197"/>
			<v:textRect cx="21.2598" cy="272.393" width="42.52" height="21.2598"/>
			<rect x="0" y="261.763" width="42.5197" height="21.2598" class="st8"/>
			<text x="4.79" y="275.99" class="st10" v:langID="1033"><v:paragraph v:horizAlign="1"/><v:tabList/>charge</text>		</g>
		<g id="shape109-232" v:mID="109" v:groupContext="shape" transform="translate(117.588,-108.743)">
			<title>Sheet.109</title>
			<desc>boot</desc>
			<v:textBlock v:margins="rect(4,4,4,4)" v:tabSpace="42.5197"/>
			<v:textRect cx="21.2598" cy="272.393" width="42.52" height="21.2598"/>
			<rect x="0" y="261.763" width="42.5197" height="21.2598" class="st8"/>
			<text x="9.77" y="275.99" class="st10" v:langID="1033"><v:paragraph v:horizAlign="1"/><v:tabList/>boot</text>		</g>
		<g id="shape110-235" v:mID="110" v:groupContext="shape" transform="translate(60.8947,-37.8765)">
			<title>Sheet.110</title>
			<desc>boot</desc>
			<v:textBlock v:margins="rect(4,4,4,4)" v:tabSpace="42.5197"/>
			<v:textRect cx="21.2598" cy="272.393" width="42.52" height="21.2598"/>
			<rect x="0" y="261.763" width="42.5197" height="21.2598" class="st8"/>
			<text x="9.77" y="275.99" class="st10" v:langID="1033"><v:paragraph v:horizAlign="1"/><v:tabList/>boot</text>		</g>
		<g id="shape111-238" v:mID="111" v:groupContext="shape" transform="translate(60.8947,-222.129)">
			<title>Sheet.111</title>
			<desc>charge</desc>
			<v:textBlock v:margins="rect(4,4,4,4)" v:tabSpace="42.5197"/>
			<v:textRect cx="21.2598" cy="272.393" width="42.52" height="21.2598"/>
			<rect x="0" y="261.763" width="42.5197" height="21.2598" class="st8"/>
			<text x="4.79" y="275.99" class="st10" v:langID="1033"><v:paragraph v:horizAlign="1"/><v:tabList/>charge</text>		</g>
		<g id="shape112-241" v:mID="112" v:groupContext="shape" transform="translate(60.8947,-172.522)">
			<title>Sheet.112</title>
			<desc>boot</desc>
			<v:textBlock v:margins="rect(4,4,4,4)" v:tabSpace="42.5197"/>
			<v:textRect cx="21.2598" cy="272.393" width="42.52" height="21.2598"/>
			<rect x="0" y="261.763" width="42.5197" height="21.2598" class="st8"/>
			<text x="9.77" y="275.99" class="st10" v:langID="1033"><v:paragraph v:horizAlign="1"/><v:tabList/>boot</text>		</g>
		<g id="shape113-244" v:mID="113" v:groupContext="shape" transform="translate(67.9813,-130.803)">
			<title>Sheet.113</title>
			<desc>charge</desc>
			<v:textBlock v:margins="rect(4,4,4,4)" v:tabSpace="42.5197"/>
			<v:textRect cx="21.2598" cy="272.393" width="42.52" height="21.2598"/>
			<rect x="0" y="261.763" width="42.5197" height="21.2598" class="st8"/>
			<text x="4.79" y="275.99" class="st10" v:langID="1033"><v:paragraph v:horizAlign="1"/><v:tabList/>charge</text>		</g>
		<g id="shape114-247" v:mID="114" v:groupContext="shape" transform="translate(18.375,-112.286)">
			<title>Sheet.114</title>
			<desc>low</desc>
			<v:textBlock v:margins="rect(4,4,4,4)" v:tabSpace="42.5197"/>
			<v:textRect cx="21.2598" cy="272.393" width="42.52" height="21.2598"/>
			<rect x="0" y="261.763" width="42.5197" height="21.2598" class="st8"/>
			<text x="12.43" y="275.99" class="st10" v:langID="2052"><v:paragraph v:horizAlign="1"/><v:tabList/>low</text>		</g>
		<g id="shape115-250" v:mID="115" v:groupContext="shape" transform="translate(160.107,-176.066)">
			<title>Sheet.115</title>
			<desc>high</desc>
			<v:textBlock v:margins="rect(4,4,4,4)" v:tabSpace="42.5197"/>
			<v:textRect cx="21.2598" cy="272.393" width="42.52" height="21.2598"/>
			<rect x="0" y="261.763" width="42.5197" height="21.2598" class="st8"/>
			<text x="10.75" y="275.99" class="st10" v:langID="2052"><v:paragraph v:horizAlign="1"/><v:tabList/>high</text>		</g>
	</g>
</svg>
