<?xml version="1.0" encoding="UTF-8" standalone="no"?>
<!DOCTYPE svg PUBLIC "-//W3C//DTD SVG 1.1//EN" "http://www.w3.org/Graphics/SVG/1.1/DTD/svg11.dtd">
<!-- Generated by Microsoft Visio, SVG Export schematic_conventional.svg conventional -->
<svg xmlns="http://www.w3.org/2000/svg" xmlns:xlink="http://www.w3.org/1999/xlink" xmlns:ev="http://www.w3.org/2001/xml-events"
		width="2.96857in" height="3.25413in" viewBox="0 0 213.737 234.297" xml:space="preserve" color-interpolation-filters="sRGB"
		class="st15">
	<style type="text/css">
	<![CDATA[
		.st1 {stroke:#000000;stroke-linecap:round;stroke-linejoin:round;stroke-width:1.2}
		.st2 {marker-end:url(#mrkr13-13);stroke:#000000;stroke-linecap:round;stroke-linejoin:round;stroke-width:1.2}
		.st3 {fill:#000000;fill-opacity:1;stroke:#000000;stroke-opacity:1;stroke-width:0.4}
		.st4 {stroke:#000000;stroke-linecap:round;stroke-linejoin:round;stroke-width:2.16}
		.st5 {fill:none;stroke:none;stroke-linecap:round;stroke-linejoin:round;stroke-width:0.72}
		.st6 {stroke:#000000;stroke-linecap:butt;stroke-width:1.2}
		.st7 {fill:none;stroke:none;stroke-linecap:round;stroke-linejoin:round;stroke-width:0.75}
		.st8 {fill:none;stroke:#000000;stroke-linecap:round;stroke-linejoin:round;stroke-width:2.16}
		.st9 {fill:#000000;stroke:none;stroke-linecap:round;stroke-linejoin:round;stroke-width:0.75}
		.st10 {stroke:#000000;stroke-linecap:butt;stroke-width:2.16}
		.st11 {fill:#000000;stroke:none;stroke-linecap:round;stroke-linejoin:round;stroke-width:1.2}
		.st12 {fill:#000000;font-family:Calibri;font-size:1.00001em}
		.st13 {font-size:0.666659em}
		.st14 {font-family:Microsoft Sans Serif;font-size:0.666659em}
		.st15 {fill:none;fill-rule:evenodd;font-size:12px;overflow:visible;stroke-linecap:square;stroke-miterlimit:3}
	]]>
	</style>

	<defs id="Markers">
		<g id="lend13">
			<path d="M 3 1 L 0 0 L 3 -1 L 3 1 " style="stroke:none"/>
		</g>
		<marker id="mrkr13-13" class="st3" refX="-7.5" orient="auto" markerUnits="strokeWidth" overflow="visible">
			<use xlink:href="#lend13" transform="scale(-2.5,-2.5) "/>
		</marker>
	</defs>
	<g>
		<title>conventional</title>
		<g id="group3-1" transform="translate(81.9764,-158.546)">
			<title>Nmos3.a</title>
			<g id="shape4-2" transform="translate(266.187,224.376) rotate(90)">
				<title>Sheet.4</title>
				<path d="M0 234.3 L9.92 234.3" class="st1"/>
			</g>
			<g id="shape5-5" transform="translate(16.1352,-31.8898)">
				<title>Sheet.5</title>
				<path d="M0 234.3 L15.75 234.3" class="st1"/>
			</g>
			<g id="shape6-8" transform="translate(16.3255,-10.6299)">
				<title>Sheet.6</title>
				<path d="M0 234.3 L6.56 234.3" class="st2"/>
			</g>
			<g id="shape7-14" transform="translate(15.9449,-5.31496)">
				<title>Sheet.7</title>
				<path d="M0 202.41 L0 234.3" class="st4"/>
			</g>
			<g id="shape8-17" transform="translate(10.6299,-10.6299)">
				<title>Sheet.8</title>
				<path d="M0 213.04 L0 234.3" class="st4"/>
			</g>
			<g id="shape9-20" transform="translate(266.187,202.266) rotate(90) scale(-1,1)">
				<title>Sheet.9</title>
				<path d="M0 234.3 L10.35 234.3" class="st1"/>
			</g>
			<g id="shape10-23" transform="translate(10.9646,447.334) rotate(179.918)">
				<title>Sheet.10</title>
				<path d="M0 234.3 L49.61 234.3" class="st1"/>
			</g>
		</g>
		<g id="group35-26" transform="translate(99.6929,366.938) rotate(180)">
			<title>OP.small</title>
			<g id="shape36-27" transform="translate(-223.989,234.297) rotate(-90)">
				<title>Sheet.36</title>
				<path d="M0 234.3 L42.52 234.3" class="st4"/>
			</g>
			<g id="shape37-30" transform="translate(-108.643,32.4411) rotate(-30.5102)">
				<title>Sheet.37</title>
				<path d="M0 234.3 L41.88 234.3" class="st4"/>
			</g>
			<g id="shape38-33" transform="translate(165.336,11.1813) rotate(30.5102) scale(-1,1)">
				<title>Sheet.38</title>
				<path d="M0 234.3 L41.88 234.3" class="st4"/>
			</g>
			<g id="shape39-36" transform="translate(14.7402,436.704) scale(1,-1)">
				<title>Sheet.39</title>
				<path d="M0 234.3 L4.54 234.3" class="st1"/>
			</g>
			<g id="shape40-39" transform="translate(10.3078,-31.8898) scale(-1,1)">
				<title>Sheet.40</title>
				<path d="M0 234.3 L10.31 234.3" class="st1"/>
			</g>
			<g id="shape41-42" transform="translate(10.3078,-10.6299) scale(-1,1)">
				<title>Sheet.41</title>
				<path d="M0 234.3 L10.31 234.3" class="st1"/>
			</g>
			<g id="shape42-45" transform="translate(45.13,447.331) rotate(0.306939) scale(1,-1)">
				<title>Sheet.42</title>
				<path d="M0 234.3 L10.31 234.3" class="st1"/>
			</g>
			<g id="shape43-48" transform="translate(-217.289,199.998) rotate(-90) scale(-1,1)">
				<title>Sheet.43</title>
				<path d="M0 234.3 L4.54 234.3" class="st1"/>
			</g>
			<g id="shape44-51" transform="translate(14.7402,457.964) scale(1,-1)">
				<title>Sheet.44</title>
				<path d="M0 234.3 L4.54 234.3" class="st1"/>
			</g>
		</g>
		<g id="group51-54" transform="translate(106.78,-101.711)">
			<title>R</title>
			<g id="shape52-55" transform="translate(-221.541,201.699) rotate(-90) scale(-1,1)">
				<title>Sheet.52</title>
				<path d="M0 228.63 L2.02 222.96 L5.67 234.3 L9.32 222.96 L13.35 234.3 L17.01 222.96 L20.66 234.3 L22.68 228.63"
						class="st4"/>
			</g>
			<g id="shape53-58" transform="translate(1.43885E-13,426.075) scale(1,-1)">
				<title>Sheet.53</title>
				<rect x="0" y="191.777" width="14.1732" height="42.5197" class="st5"/>
			</g>
			<g id="shape54-60" transform="translate(241.384,201.699) rotate(90) scale(-1,1)">
				<title>Sheet.54</title>
				<path d="M0 234.3 L9.92 234.3" class="st6"/>
			</g>
			<g id="shape55-63" transform="translate(241.384,224.376) rotate(90)">
				<title>Sheet.55</title>
				<path d="M0 234.3 L9.92 234.3" class="st6"/>
			</g>
		</g>
		<g id="group56-66" transform="translate(106.78,-45.0184)">
			<title>R.59</title>
			<g id="shape57-67" transform="translate(-221.541,201.699) rotate(-90) scale(-1,1)">
				<title>Sheet.57</title>
				<path d="M0 228.63 L2.02 222.96 L5.67 234.3 L9.32 222.96 L13.35 234.3 L17.01 222.96 L20.66 234.3 L22.68 228.63"
						class="st4"/>
			</g>
			<g id="shape58-70" transform="translate(1.43885E-13,426.075) scale(1,-1)">
				<title>Sheet.58</title>
				<rect x="0" y="191.777" width="14.1732" height="42.5197" class="st5"/>
			</g>
			<g id="shape59-72" transform="translate(241.384,201.699) rotate(90) scale(-1,1)">
				<title>Sheet.59</title>
				<path d="M0 234.3 L9.92 234.3" class="st6"/>
			</g>
			<g id="shape60-75" transform="translate(241.384,224.376) rotate(90)">
				<title>Sheet.60</title>
				<path d="M0 234.3 L9.92 234.3" class="st6"/>
			</g>
		</g>
		<g id="group61-78" transform="translate(142.213,-45.0184)">
			<title>DC-I</title>
			<g id="shape62-79" transform="translate(5.9952E-15,-7.08661)">
				<title>Sheet.62</title>
				<ellipse cx="14.1732" cy="220.124" rx="14.1732" ry="14.1732" class="st7"/>
			</g>
			<g id="shape63-81" transform="translate(3.54331,-10.7717)">
				<title>Sheet.63</title>
				<ellipse cx="10.6299" cy="223.667" rx="10.6299" ry="10.6299" class="st8"/>
			</g>
			<g id="shape64-83" transform="translate(-220.124,205.384) rotate(-90) scale(-1,1)">
				<title>Sheet.64</title>
				<path d="M0 234.3 L6.87 234.3" class="st2"/>
			</g>
			<g id="shape65-88" transform="translate(248.47,202.266) rotate(90) scale(-1,1)">
				<title>Sheet.65</title>
				<path d="M0 234.3 L10.49 234.3" class="st6"/>
			</g>
			<g id="shape66-91" transform="translate(248.47,223.525) rotate(90)">
				<title>Sheet.66</title>
				<path d="M0 234.3 L10.77 234.3" class="st6"/>
			</g>
		</g>
		<g id="group67-94" transform="translate(64.2587,-45.0184)">
			<title>Pin</title>
			<g id="shape68-95" transform="translate(2.9976E-15,-1.38756)">
				<title>Sheet.68</title>
				<path d="M0 222.9 L8.48 222.9 L14.18 228.5 L8.48 234.3 L0 234.3 L0 222.9 Z" class="st8"/>
			</g>
			<g id="shape69-97">
				<title>Sheet.69</title>
				<rect x="0" y="220.124" width="14.1732" height="14.1732" class="st7"/>
			</g>
		</g>
		<g id="shape70-99" transform="translate(111.031,-88.105)">
			<title>node.12</title>
			<ellipse cx="2.83465" cy="231.462" rx="2.83465" ry="2.83465" class="st9"/>
		</g>
		<g id="group73-101" transform="translate(106.78,-200.924)">
			<title>VDD</title>
			<g id="shape74-102" transform="translate(241.384,220.124) rotate(90)">
				<title>Sheet.74</title>
				<path d="M0 234.3 L14.17 234.3" class="st6"/>
			</g>
			<g id="shape75-105" transform="translate(0,-14.1732)">
				<title>Sheet.75</title>
				<path d="M0 234.3 L14.17 234.3" class="st4"/>
			</g>
		</g>
		<g id="group76-108" transform="translate(106.78,-20.16)">
			<title>GND</title>
			<g id="shape77-109" transform="translate(7.08661,-7.08661)">
				<title>Sheet.77</title>
				<path d="M0 223.67 L0 234.3" class="st1"/>
			</g>
			<g id="shape78-112" transform="translate(-8.99281E-15,-7.08661)">
				<title>Sheet.78</title>
				<path d="M0 234.3 L14.17 234.3" class="st10"/>
			</g>
			<g id="shape79-115" transform="translate(3.54331,-3.54331)">
				<title>Sheet.79</title>
				<path d="M0 234.3 L7.09 234.3" class="st10"/>
			</g>
			<g id="shape80-118" transform="translate(5.31496,-2.84217E-14)">
				<title>Sheet.80</title>
				<path d="M0 234.3 L3.54 234.3" class="st10"/>
			</g>
			<g id="shape81-121" transform="translate(241.384,227.21) rotate(90) scale(-1,1)">
				<title>Sheet.81</title>
				<path d="M0 234.3 L10.63 234.3" class="st6"/>
			</g>
		</g>
		<g id="shape82-124" transform="translate(111.031,-148.554)">
			<title>node.96</title>
			<ellipse cx="2.83465" cy="231.462" rx="2.83465" ry="2.83465" class="st11"/>
		</g>
		<g id="shape86-126" transform="translate(106.78,-193.837)">
			<title>Dynamic connector.86</title>
		</g>
		<g id="shape87-127" transform="translate(111.031,-35.0971)">
			<title>node.103</title>
			<ellipse cx="2.83465" cy="231.462" rx="2.83465" ry="2.83465" class="st9"/>
		</g>
		<g id="shape97-129" transform="translate(99.6929,-69.7663)">
			<title>Dynamic connector.114</title>
			<path d="M0 234.3 L0 251.96 L-21.35 251.96" class="st1"/>
		</g>
		<g id="shape98-132" transform="translate(-120.431,140.523) rotate(-90)">
			<title>Line.115</title>
			<path d="M0 234.3 L7.94 234.3 L7.94 234.3" class="st1"/>
		</g>
		<g id="shape99-135" transform="translate(-120.431,146.759) rotate(-90)">
			<title>Line.116</title>
			<path d="M0 234.3 L0.57 234.3 L0.57 234.3" class="st1"/>
		</g>
		<g id="shape100-138" transform="translate(101.48,-91.0193) rotate(0.437134)">
			<title>Line.117</title>
			<path d="M0 234.3 L11.34 234.3 L11.34 234.3" class="st1"/>
		</g>
		<g id="shape101-141" transform="translate(-120.431,189.279) rotate(-90) scale(-1,1)">
			<title>Line.118</title>
			<path d="M0 234.3 L4.25 234.3 L4.25 234.3" class="st1"/>
		</g>
		<g id="shape102-144" transform="translate(156.386,-48.5617)">
			<title>Dynamic connector.119</title>
			<path d="M0 237.84 L0 244.93 L-39.69 244.93" class="st1"/>
		</g>
		<g id="shape103-147" transform="translate(106.78,-163.471)">
			<title>Dynamic connector.121</title>
			<path d="M7.09 239.22 L7.09 243.55" class="st1"/>
		</g>
		<g id="shape104-150" transform="translate(106.78,-139.306)">
			<title>Dynamic connector.122</title>
			<path d="M7.09 229.37 L7.09 225.05" class="st1"/>
		</g>
		<g id="group105-153" transform="translate(170.559,-144.231)">
			<title>Pin.28</title>
			<g id="shape106-154" transform="translate(2.9976E-15,-1.38756)">
				<title>Sheet.106</title>
				<path d="M0 222.9 L8.48 222.9 L14.18 228.5 L8.48 234.3 L0 234.3 L0 222.9 Z" class="st8"/>
			</g>
			<g id="shape107-156">
				<title>Sheet.107</title>
				<rect x="0" y="220.124" width="14.1732" height="14.1732" class="st7"/>
			</g>
		</g>
		<g id="shape108-158" transform="translate(116.701,-151.388)">
			<title>Line.29</title>
			<path d="M0 234.3 L36.85 234.3 L36.85 234.3" class="st1"/>
		</g>
		<g id="shape109-161" transform="translate(153.551,-148.554)">
			<title>node.128</title>
			<ellipse cx="2.83465" cy="231.462" rx="2.83465" ry="2.83465" class="st11"/>
		</g>
		<g id="shape110-163" transform="translate(160.685,-151.384) rotate(0.358036)">
			<title>Line.129</title>
			<path d="M0 234.3 L11.34 234.3 L11.34 234.3" class="st1"/>
		</g>
		<g id="shape111-166" transform="translate(390.683,85.7433) rotate(90)">
			<title>Line.130</title>
			<path d="M0 234.3 L61.02 234.3 L61.02 234.3" class="st1"/>
		</g>
		<g id="shape112-169" transform="translate(163.472,-154.861)">
			<title>Sheet.112</title>
			<desc>out</desc>
			<rect x="0" y="213.037" width="28.3465" height="21.2598" class="st7"/>
			<text x="5.85" y="227.27" class="st12">out</text>		</g>
		<g id="shape113-172" transform="translate(35.9134,-41.4751)">
			<title>Sheet.113</title>
			<desc>ref</desc>
			<rect x="0" y="213.037" width="28.3465" height="21.2598" class="st7"/>
			<text x="7.26" y="227.27" class="st12">ref</text>		</g>
		<g id="shape114-175" transform="translate(163.472,-55.6483)">
			<title>Sheet.114</title>
			<desc>Iload</desc>
			<rect x="0" y="213.037" width="31.8898" height="21.2598" class="st7"/>
			<text x="7.39" y="227.27" class="st12">I<tspan class="st13">load</tspan></text>		</g>
		<g id="group115-179" transform="translate(64.2598,-101.711)">
			<title>VDD.115</title>
			<g id="shape116-180" transform="translate(241.384,220.124) rotate(90)">
				<title>Sheet.116</title>
				<path d="M0 234.3 L14.17 234.3" class="st6"/>
			</g>
			<g id="shape117-183" transform="translate(0,-14.1732)">
				<title>Sheet.117</title>
				<path d="M0 234.3 L14.17 234.3" class="st4"/>
			</g>
		</g>
		<g id="shape118-186" transform="translate(-191.297,54.5622) rotate(-90) scale(-1,1)">
			<title>Line.14</title>
			<path d="M0 234.3 L99.28 234.3 L99.28 234.3" class="st1"/>
		</g>
		<g id="shape120-189" transform="translate(-162.951,143.357) rotate(-90)">
			<title>Line.14.120</title>
			<path d="M0 234.3 L10.77 234.3 L10.77 234.3" class="st1"/>
		</g>
		<g id="shape121-192" transform="translate(47.4291,-115.94)">
			<title>Sheet.121</title>
			<desc>Vdd_high</desc>
			<rect x="0" y="213.037" width="47.8346" height="21.2598" class="st7"/>
			<text x="6.27" y="227.36" class="st12">V<tspan class="st14">dd_high</tspan></text>		</g>
	</g>
</svg>
