<?xml version="1.0" encoding="UTF-8" standalone="no"?>
<!DOCTYPE svg PUBLIC "-//W3C//DTD SVG 1.1//EN" "http://www.w3.org/Graphics/SVG/1.1/DTD/svg11.dtd">
<!-- Generated by Microsoft Visio, SVG Export schematic_bootstrap_charge.svg bootstrap_charge -->
<svg xmlns="http://www.w3.org/2000/svg" xmlns:xlink="http://www.w3.org/1999/xlink" xmlns:ev="http://www.w3.org/2001/xml-events"
		xmlns:v="http://schemas.microsoft.com/visio/2003/SVGExtensions/" width="3.06947in" height="3.93088in"
		viewBox="0 0 221.002 283.023" xml:space="preserve" color-interpolation-filters="sRGB" class="st13">
	<v:documentProperties v:langID="1033" v:metric="true" v:viewMarkup="false">
		<v:userDefs>
			<v:ud v:nameU="msvNoAutoConnect" v:val="VT0(1):26"/>
		</v:userDefs>
	</v:documentProperties>

	<style type="text/css">
	<![CDATA[
		.st1 {stroke:#0070c0;stroke-linecap:butt;stroke-width:2.16}
		.st2 {stroke:#0070c0;stroke-linecap:butt;stroke-width:1.2}
		.st3 {stroke:#0070c0;stroke-linecap:round;stroke-linejoin:round;stroke-width:2.16}
		.st4 {stroke:#0070c0;stroke-linecap:round;stroke-linejoin:round;stroke-width:1.2}
		.st5 {fill:#000000;stroke:#000000;stroke-linecap:round;stroke-linejoin:round;stroke-width:1.2}
		.st6 {stroke:#000000;stroke-linecap:round;stroke-linejoin:round;stroke-width:1.2}
		.st7 {fill:none;stroke:#000000;stroke-linecap:round;stroke-linejoin:round;stroke-width:2.16}
		.st8 {fill:none;stroke:none;stroke-linecap:round;stroke-linejoin:round;stroke-width:0.75}
		.st9 {fill:#000000;stroke:#000000;stroke-linecap:round;stroke-linejoin:round;stroke-width:0.75}
		.st10 {fill:#000000;font-family:Calibri;font-size:1.00001em}
		.st11 {fill:#ffffff;stroke:#0070c0;stroke-linecap:round;stroke-linejoin:round;stroke-width:1.2}
		.st12 {fill:#ffffff;stroke:#000000;stroke-linecap:round;stroke-linejoin:round;stroke-width:1.2}
		.st13 {fill:none;fill-rule:evenodd;font-size:12px;overflow:visible;stroke-linecap:square;stroke-miterlimit:3}
	]]>
	</style>

	<g v:mID="11" v:index="5" v:groupContext="foregroundPage">
		<title>bootstrap_charge</title>
		<v:pageProperties v:drawingScale="0.0393701" v:pageScale="0.0393701" v:drawingUnits="24" v:shadowOffsetX="8.50394"
				v:shadowOffsetY="-8.50394"/>
		<v:layer v:name="Connector" v:index="0"/>
		<g id="group1-1" transform="translate(99.8711,-186.695)" v:mID="1" v:groupContext="group">
			<title>Sheet.1</title>
			<g id="group2-2" transform="translate(3.54331,0)" v:mID="2" v:groupContext="group">
				<title>C</title>
				<g id="shape3-3" v:mID="3" v:groupContext="shape" transform="translate(-3.54331,-24.378)">
					<title>Sheet.3</title>
					<path d="M21.26 283.02 L0 283.02" class="st1"/>
				</g>
				<g id="shape4-6" v:mID="4" v:groupContext="shape" transform="translate(290.11,258.645) rotate(90) scale(-1,1)">
					<title>Sheet.4</title>
					<path d="M0 283.02 L18.14 283.02" class="st2"/>
				</g>
				<g id="shape5-9" v:mID="5" v:groupContext="shape" transform="translate(290.11,265.165) rotate(90)">
					<title>Sheet.5</title>
					<path d="M0 283.02 L17.86 283.02" class="st2"/>
				</g>
			</g>
			<g id="shape6-12" v:mID="6" v:groupContext="shape" transform="translate(0,-18.4252)">
				<title>C.154</title>
				<path d="M21.26 283.02 L0 283.02" class="st1"/>
			</g>
		</g>
		<g id="group7-15" transform="translate(99.8711,-52.0498)" v:mID="7" v:groupContext="group">
			<title>Sheet.7</title>
			<g id="group8-16" transform="translate(3.54331,0)" v:mID="8" v:groupContext="group">
				<title>C</title>
				<g id="shape9-17" v:mID="9" v:groupContext="shape" transform="translate(-3.54331,-24.378)">
					<title>Sheet.9</title>
					<path d="M21.26 283.02 L0 283.02" class="st1"/>
				</g>
				<g id="shape10-20" v:mID="10" v:groupContext="shape" transform="translate(290.11,258.645) rotate(90) scale(-1,1)">
					<title>Sheet.10</title>
					<path d="M0 283.02 L18.14 283.02" class="st2"/>
				</g>
				<g id="shape11-23" v:mID="11" v:groupContext="shape" transform="translate(290.11,265.165) rotate(90)">
					<title>Sheet.11</title>
					<path d="M0 283.02 L17.86 283.02" class="st2"/>
				</g>
			</g>
			<g id="shape12-26" v:mID="12" v:groupContext="shape" transform="translate(0,-18.4252)">
				<title>C.154</title>
				<path d="M21.26 283.02 L0 283.02" class="st1"/>
			</g>
		</g>
		<g id="group13-29" transform="translate(53.8081,-242.916)" v:mID="13" v:groupContext="group">
			<title>VDD</title>
			<g id="shape14-30" v:mID="14" v:groupContext="shape" transform="translate(290.11,268.85) rotate(90)">
				<title>Sheet.14</title>
				<path d="M0 283.02 L14.17 283.02" class="st2"/>
			</g>
			<g id="shape15-33" v:mID="15" v:groupContext="shape" transform="translate(0,-14.1732)">
				<title>Sheet.15</title>
				<path d="M0 283.02 L14.17 283.02" class="st3"/>
			</g>
		</g>
		<g id="group16-36" transform="translate(153.966,-20.16)" v:mID="16" v:groupContext="group">
			<title>GND</title>
			<g id="shape17-37" v:mID="17" v:groupContext="shape" transform="translate(7.08661,-7.08661)">
				<title>Sheet.17</title>
				<path d="M0 272.39 L0 283.02" class="st4"/>
			</g>
			<g id="shape18-40" v:mID="18" v:groupContext="shape" transform="translate(-8.99281E-15,-7.08661)">
				<title>Sheet.18</title>
				<path d="M0 283.02 L14.17 283.02" class="st1"/>
			</g>
			<g id="shape19-43" v:mID="19" v:groupContext="shape" transform="translate(3.54331,-3.54331)">
				<title>Sheet.19</title>
				<path d="M0 283.02 L7.09 283.02" class="st1"/>
			</g>
			<g id="shape20-46" v:mID="20" v:groupContext="shape" transform="translate(5.31496,-5.68434E-14)">
				<title>Sheet.20</title>
				<path d="M0 283.02 L3.54 283.02" class="st1"/>
			</g>
			<g id="shape21-49" v:mID="21" v:groupContext="shape" transform="translate(290.11,275.937) rotate(90) scale(-1,1)">
				<title>Sheet.21</title>
				<path d="M0 283.02 L10.63 283.02" class="st2"/>
			</g>
		</g>
		<g id="shape64-52" v:mID="64" v:groupContext="shape" transform="translate(107.666,-169.688)">
			<title>node.12</title>
			<ellipse cx="2.83465" cy="280.189" rx="2.83465" ry="2.83465" class="st5"/>
		</g>
		<g id="shape65-54" v:mID="65" v:groupContext="shape" transform="translate(107.666,-105.908)">
			<title>node.73</title>
			<ellipse cx="2.83465" cy="280.189" rx="2.83465" ry="2.83465" class="st5"/>
		</g>
		<g id="shape66-56" v:mID="66" v:groupContext="shape" transform="translate(107.666,-35.0419)">
			<title>node.74</title>
			<ellipse cx="2.83465" cy="280.189" rx="2.83465" ry="2.83465" class="st5"/>
		</g>
		<g id="shape67-58" v:mID="67" v:groupContext="shape" transform="translate(107.666,-240.554)">
			<title>node.75</title>
			<ellipse cx="2.83465" cy="280.189" rx="2.83465" ry="2.83465" class="st5"/>
		</g>
		<g id="shape68-60" v:mID="68" v:groupContext="shape" v:layerMember="0" transform="translate(94.9303,-235.829)">
			<title>Dynamic connector</title>
			<path d="M1.4 275.94 L12.78 275.94" class="st4"/>
		</g>
		<g id="shape69-63" v:mID="69" v:groupContext="shape" v:layerMember="0" transform="translate(111.898,-235.829)">
			<title>Dynamic connector.69</title>
			<path d="M1.4 275.94 L12.78 275.94" class="st6"/>
		</g>
		<g id="shape70-66" v:mID="70" v:groupContext="shape" v:layerMember="0" transform="translate(103.414,-227.798)">
			<title>Dynamic connector.70</title>
			<path d="M7.09 281.61 L7.09 270.27" class="st4"/>
		</g>
		<g id="shape71-69" v:mID="71" v:groupContext="shape" v:layerMember="0" transform="translate(103.414,-188.113)">
			<title>Dynamic connector.79</title>
			<path d="M7.09 284.44 L7.09 295.78" class="st4"/>
		</g>
		<g id="shape72-72" v:mID="72" v:groupContext="shape" v:layerMember="0" transform="translate(94.9104,-165.436)">
			<title>Dynamic connector.80</title>
			<path d="M1.42 275.94 L12.76 275.94" class="st6"/>
		</g>
		<g id="shape73-75" v:mID="73" v:groupContext="shape" v:layerMember="0" transform="translate(103.414,-156.932)">
			<title>Dynamic connector.81</title>
			<path d="M7.09 281.61 L7.09 270.27" class="st4"/>
		</g>
		<g id="shape75-78" v:mID="75" v:groupContext="shape" v:layerMember="0" transform="translate(103.414,-93.172)">
			<title>Dynamic connector.84</title>
			<path d="M7.09 281.63 L7.09 270.25" class="st4"/>
		</g>
		<g id="shape76-81" v:mID="76" v:groupContext="shape" v:layerMember="0" transform="translate(103.414,-53.4671)">
			<title>Dynamic connector.85</title>
			<path d="M7.09 284.44 L7.09 295.78" class="st4"/>
		</g>
		<g id="shape77-84" v:mID="77" v:groupContext="shape" v:layerMember="0" transform="translate(112.391,-30.7899)">
			<title>Dynamic connector.86</title>
			<path d="M0.94 275.94 L13.23 275.94" class="st4"/>
		</g>
		<g id="shape79-87" v:mID="79" v:groupContext="shape" transform="translate(-172.522,160.107) rotate(-90) scale(-1,1)">
			<title>Line.14</title>
			<path d="M0 283.02 L11.34 283.02 L11.34 283.02" class="st4"/>
		</g>
		<g id="group80-90" transform="translate(32.5482,-101.656)" v:mID="80" v:groupContext="group">
			<title>Pin</title>
			<g id="shape81-91" v:mID="81" v:groupContext="shape" transform="translate(2.9976E-15,-1.38756)">
				<title>Sheet.81</title>
				<path d="M0 271.63 L8.48 271.63 L14.18 277.23 L8.48 283.02 L0 283.02 L0 271.63 Z" class="st7"/>
			</g>
			<g id="shape82-93" v:mID="82" v:groupContext="shape">
				<title>Sheet.82</title>
				<rect x="0" y="268.85" width="14.1732" height="14.1732" class="st8"/>
			</g>
		</g>
		<g id="shape83-95" v:mID="83" v:groupContext="shape" transform="translate(58.06,-105.908)">
			<title>node.92</title>
			<ellipse cx="2.83465" cy="280.189" rx="2.83465" ry="2.83465" class="st9"/>
		</g>
		<g id="shape84-97" v:mID="84" v:groupContext="shape" transform="translate(157.273,-169.688)">
			<title>node.93</title>
			<ellipse cx="2.83465" cy="280.189" rx="2.83465" ry="2.83465" class="st9"/>
		</g>
		<g id="shape85-99" v:mID="85" v:groupContext="shape" transform="translate(343.918,110.501) rotate(90)">
			<title>Line.37</title>
			<path d="M0 283.02 L60.94 283.02 L60.94 283.02" class="st6"/>
		</g>
		<g id="shape86-102" v:mID="86" v:groupContext="shape" transform="translate(343.918,245.147) rotate(90) scale(-1,1)">
			<title>Line.95</title>
			<path d="M0 283.02 L68.03 283.02 L68.03 283.02" class="st6"/>
		</g>
		<g id="shape87-105" v:mID="87" v:groupContext="shape" transform="translate(443.13,107.666) rotate(90) scale(-1,1)">
			<title>Line.96</title>
			<path d="M0 283.02 L67.56 283.02 L67.56 283.02" class="st6"/>
		</g>
		<g id="shape88-108" v:mID="88" v:groupContext="shape" transform="translate(443.13,113.336) rotate(90)">
			<title>Line.97</title>
			<path d="M0 283.02 L60.94 283.02 L60.94 283.02" class="st6"/>
		</g>
		<g id="shape89-111" v:mID="89" v:groupContext="shape" transform="translate(55.6186,457.293) rotate(-179.506)">
			<title>Line.99</title>
			<path d="M0 283.02 L11.34 283.02 L11.34 283.02" class="st6"/>
		</g>
		<g id="group90-114" transform="translate(174.278,-165.436)" v:mID="90" v:groupContext="group">
			<title>Pin.100</title>
			<g id="shape91-115" v:mID="91" v:groupContext="shape" transform="translate(2.9976E-15,-1.38756)">
				<title>Sheet.91</title>
				<path d="M0 271.63 L8.48 271.63 L14.18 277.23 L8.48 283.02 L0 283.02 L0 271.63 Z" class="st7"/>
			</g>
			<g id="shape92-117" v:mID="92" v:groupContext="shape">
				<title>Sheet.92</title>
				<rect x="0" y="268.85" width="14.1732" height="14.1732" class="st8"/>
			</g>
		</g>
		<g id="shape93-119" v:mID="93" v:groupContext="shape" transform="translate(162.942,-172.522) rotate(1.5343E-05)">
			<title>Line.103</title>
			<path d="M0 283.02 L11.34 283.02 L11.34 283.02" class="st6"/>
		</g>
		<g id="shape94-122" v:mID="94" v:groupContext="shape" transform="translate(117.588,-243.388)">
			<title>Sheet.94</title>
			<desc>boot</desc>
			<v:textBlock v:margins="rect(4,4,4,4)" v:tabSpace="42.5197"/>
			<v:textRect cx="21.2598" cy="272.393" width="42.52" height="21.2598"/>
			<rect x="0" y="261.763" width="42.5197" height="21.2598" class="st8"/>
			<text x="9.77" y="275.99" class="st10" v:langID="1033"><v:paragraph v:horizAlign="1"/><v:tabList/>boot</text>		</g>
		<g id="shape95-125" v:mID="95" v:groupContext="shape" transform="translate(124.674,-37.8765)">
			<title>Sheet.95</title>
			<desc>charge</desc>
			<v:textBlock v:margins="rect(4,4,4,4)" v:tabSpace="42.5197"/>
			<v:textRect cx="21.2598" cy="272.393" width="42.52" height="21.2598"/>
			<rect x="0" y="261.763" width="42.5197" height="21.2598" class="st8"/>
			<text x="4.79" y="275.99" class="st10" v:langID="1033"><v:paragraph v:horizAlign="1"/><v:tabList/>charge</text>		</g>
		<g id="shape96-128" v:mID="96" v:groupContext="shape" transform="translate(117.588,-108.743)">
			<title>Sheet.96</title>
			<desc>boot</desc>
			<v:textBlock v:margins="rect(4,4,4,4)" v:tabSpace="42.5197"/>
			<v:textRect cx="21.2598" cy="272.393" width="42.52" height="21.2598"/>
			<rect x="0" y="261.763" width="42.5197" height="21.2598" class="st8"/>
			<text x="9.77" y="275.99" class="st10" v:langID="1033"><v:paragraph v:horizAlign="1"/><v:tabList/>boot</text>		</g>
		<g id="shape97-131" v:mID="97" v:groupContext="shape" transform="translate(60.8947,-37.8765)">
			<title>Sheet.97</title>
			<desc>boot</desc>
			<v:textBlock v:margins="rect(4,4,4,4)" v:tabSpace="42.5197"/>
			<v:textRect cx="21.2598" cy="272.393" width="42.52" height="21.2598"/>
			<rect x="0" y="261.763" width="42.5197" height="21.2598" class="st8"/>
			<text x="9.77" y="275.99" class="st10" v:langID="1033"><v:paragraph v:horizAlign="1"/><v:tabList/>boot</text>		</g>
		<g id="shape98-134" v:mID="98" v:groupContext="shape" transform="translate(60.8947,-222.129)">
			<title>Sheet.98</title>
			<desc>charge</desc>
			<v:textBlock v:margins="rect(4,4,4,4)" v:tabSpace="42.5197"/>
			<v:textRect cx="21.2598" cy="272.393" width="42.52" height="21.2598"/>
			<rect x="0" y="261.763" width="42.5197" height="21.2598" class="st8"/>
			<text x="4.79" y="275.99" class="st10" v:langID="1033"><v:paragraph v:horizAlign="1"/><v:tabList/>charge</text>		</g>
		<g id="shape99-137" v:mID="99" v:groupContext="shape" transform="translate(60.8947,-172.522)">
			<title>Sheet.99</title>
			<desc>boot</desc>
			<v:textBlock v:margins="rect(4,4,4,4)" v:tabSpace="42.5197"/>
			<v:textRect cx="21.2598" cy="272.393" width="42.52" height="21.2598"/>
			<rect x="0" y="261.763" width="42.5197" height="21.2598" class="st8"/>
			<text x="9.77" y="275.99" class="st10" v:langID="1033"><v:paragraph v:horizAlign="1"/><v:tabList/>boot</text>		</g>
		<g id="shape100-140" v:mID="100" v:groupContext="shape" transform="translate(67.9813,-130.803)">
			<title>Sheet.100</title>
			<desc>charge</desc>
			<v:textBlock v:margins="rect(4,4,4,4)" v:tabSpace="42.5197"/>
			<v:textRect cx="21.2598" cy="272.393" width="42.52" height="21.2598"/>
			<rect x="0" y="261.763" width="42.5197" height="21.2598" class="st8"/>
			<text x="4.79" y="275.99" class="st10" v:langID="1033"><v:paragraph v:horizAlign="1"/><v:tabList/>charge</text>		</g>
		<g id="shape101-143" v:mID="101" v:groupContext="shape" transform="translate(18.375,-112.286)">
			<title>Sheet.101</title>
			<desc>low</desc>
			<v:textBlock v:margins="rect(4,4,4,4)" v:tabSpace="42.5197"/>
			<v:textRect cx="21.2598" cy="272.393" width="42.52" height="21.2598"/>
			<rect x="0" y="261.763" width="42.5197" height="21.2598" class="st8"/>
			<text x="12.43" y="275.99" class="st10" v:langID="2052"><v:paragraph v:horizAlign="1"/><v:tabList/>low</text>		</g>
		<g id="shape102-146" v:mID="102" v:groupContext="shape" transform="translate(160.107,-176.066)">
			<title>Sheet.102</title>
			<desc>high</desc>
			<v:textBlock v:margins="rect(4,4,4,4)" v:tabSpace="42.5197"/>
			<v:textRect cx="21.2598" cy="272.393" width="42.52" height="21.2598"/>
			<rect x="0" y="261.763" width="42.5197" height="21.2598" class="st8"/>
			<text x="10.75" y="275.99" class="st10" v:langID="2052"><v:paragraph v:horizAlign="1"/><v:tabList/>high</text>		</g>
		<g id="group103-149" transform="translate(60.8947,-240.554)" v:mID="103" v:groupContext="group">
			<title>SW.on.103</title>
			<g id="shape104-150" v:mID="104" v:groupContext="shape" transform="translate(14.1732,561.322) rotate(180)">
				<title>Sheet.104</title>
				<ellipse cx="2.3622" cy="280.661" rx="2.3622" ry="2.3622" class="st11"/>
			</g>
			<g id="shape105-152" v:mID="105" v:groupContext="shape" transform="translate(10.8747,561.487) scale(1,-1)">
				<title>Sheet.105</title>
				<path d="M0 283.02 L13.62 283.02" class="st4"/>
			</g>
			<g id="shape106-155" v:mID="106" v:groupContext="shape" transform="translate(21.2598,561.322) scale(1,-1)">
				<title>Sheet.106</title>
				<ellipse cx="2.3622" cy="280.661" rx="2.3622" ry="2.3622" class="st11"/>
			</g>
			<g id="shape107-157" v:mID="107" v:groupContext="shape" transform="translate(9.44882,-2.3622) scale(-1,1)">
				<title>Sheet.107</title>
				<path d="M0 283.02 L9.45 283.02" class="st4"/>
			</g>
			<g id="shape108-160" v:mID="108" v:groupContext="shape" transform="translate(25.9843,563.684) scale(1,-1)">
				<title>Sheet.108</title>
				<path d="M0 283.02 L9.45 283.02" class="st4"/>
			</g>
		</g>
		<g id="group109-163" transform="translate(124.674,-240.554)" v:mID="109" v:groupContext="group">
			<title>SW.off.109</title>
			<g id="shape110-164" v:mID="110" v:groupContext="shape" transform="translate(14.1732,561.322) rotate(180)">
				<title>Sheet.110</title>
				<ellipse cx="2.3622" cy="280.661" rx="2.3622" ry="2.3622" class="st12"/>
			</g>
			<g id="shape111-166" v:mID="111" v:groupContext="shape"
					transform="translate(131.434,534.526) rotate(-25.212) scale(1,-1)">
				<title>Sheet.111</title>
				<path d="M0 283.02 L11.48 283.02" class="st6"/>
			</g>
			<g id="shape112-169" v:mID="112" v:groupContext="shape" transform="translate(21.2598,561.322) scale(1,-1)">
				<title>Sheet.112</title>
				<ellipse cx="2.3622" cy="280.661" rx="2.3622" ry="2.3622" class="st12"/>
			</g>
			<g id="shape113-171" v:mID="113" v:groupContext="shape" transform="translate(9.44882,-2.3622) scale(-1,1)">
				<title>Sheet.113</title>
				<path d="M0 283.02 L9.45 283.02" class="st6"/>
			</g>
			<g id="shape114-174" v:mID="114" v:groupContext="shape" transform="translate(25.9843,563.684) scale(1,-1)">
				<title>Sheet.114</title>
				<path d="M0 283.02 L9.45 283.02" class="st6"/>
			</g>
		</g>
		<g id="group115-177" transform="translate(391.162,124.674) rotate(90)" v:mID="115" v:groupContext="group">
			<title>SW.on.115</title>
			<g id="shape116-178" v:mID="116" v:groupContext="shape" transform="translate(14.1732,561.322) rotate(180)">
				<title>Sheet.116</title>
				<ellipse cx="2.3622" cy="280.661" rx="2.3622" ry="2.3622" class="st11"/>
			</g>
			<g id="shape117-180" v:mID="117" v:groupContext="shape" transform="translate(10.8747,561.487) scale(1,-1)">
				<title>Sheet.117</title>
				<path d="M0 283.02 L13.62 283.02" class="st4"/>
			</g>
			<g id="shape118-183" v:mID="118" v:groupContext="shape" transform="translate(21.2598,561.322) scale(1,-1)">
				<title>Sheet.118</title>
				<ellipse cx="2.3622" cy="280.661" rx="2.3622" ry="2.3622" class="st11"/>
			</g>
			<g id="shape119-185" v:mID="119" v:groupContext="shape" transform="translate(9.44882,-2.3622) scale(-1,1)">
				<title>Sheet.119</title>
				<path d="M0 283.02 L9.45 283.02" class="st4"/>
			</g>
			<g id="shape120-188" v:mID="120" v:groupContext="shape" transform="translate(25.9843,563.684) scale(1,-1)">
				<title>Sheet.120</title>
				<path d="M0 283.02 L9.45 283.02" class="st4"/>
			</g>
		</g>
		<g id="group121-191" transform="translate(125.619,-35.5143)" v:mID="121" v:groupContext="group">
			<title>SW.on.121</title>
			<g id="shape122-192" v:mID="122" v:groupContext="shape" transform="translate(14.1732,561.322) rotate(180)">
				<title>Sheet.122</title>
				<ellipse cx="2.3622" cy="280.661" rx="2.3622" ry="2.3622" class="st11"/>
			</g>
			<g id="shape123-194" v:mID="123" v:groupContext="shape" transform="translate(10.8747,561.487) scale(1,-1)">
				<title>Sheet.123</title>
				<path d="M0 283.02 L13.62 283.02" class="st4"/>
			</g>
			<g id="shape124-197" v:mID="124" v:groupContext="shape" transform="translate(21.2598,561.322) scale(1,-1)">
				<title>Sheet.124</title>
				<ellipse cx="2.3622" cy="280.661" rx="2.3622" ry="2.3622" class="st11"/>
			</g>
			<g id="shape125-199" v:mID="125" v:groupContext="shape" transform="translate(9.44882,-2.3622) scale(-1,1)">
				<title>Sheet.125</title>
				<path d="M0 283.02 L9.45 283.02" class="st4"/>
			</g>
			<g id="shape126-202" v:mID="126" v:groupContext="shape" transform="translate(25.9843,563.684) scale(1,-1)">
				<title>Sheet.126</title>
				<path d="M0 283.02 L9.45 283.02" class="st4"/>
			</g>
		</g>
		<g id="group127-205" transform="translate(60.8947,-170.16)" v:mID="127" v:groupContext="group">
			<title>SW.off.127</title>
			<g id="shape128-206" v:mID="128" v:groupContext="shape" transform="translate(14.1732,561.322) rotate(180)">
				<title>Sheet.128</title>
				<ellipse cx="2.3622" cy="280.661" rx="2.3622" ry="2.3622" class="st12"/>
			</g>
			<g id="shape129-208" v:mID="129" v:groupContext="shape"
					transform="translate(131.434,534.526) rotate(-25.212) scale(1,-1)">
				<title>Sheet.129</title>
				<path d="M0 283.02 L11.48 283.02" class="st6"/>
			</g>
			<g id="shape130-211" v:mID="130" v:groupContext="shape" transform="translate(21.2598,561.322) scale(1,-1)">
				<title>Sheet.130</title>
				<ellipse cx="2.3622" cy="280.661" rx="2.3622" ry="2.3622" class="st12"/>
			</g>
			<g id="shape131-213" v:mID="131" v:groupContext="shape" transform="translate(9.44882,-2.3622) scale(-1,1)">
				<title>Sheet.131</title>
				<path d="M0 283.02 L9.45 283.02" class="st6"/>
			</g>
			<g id="shape132-216" v:mID="132" v:groupContext="shape" transform="translate(25.9843,563.684) scale(1,-1)">
				<title>Sheet.132</title>
				<path d="M0 283.02 L9.45 283.02" class="st6"/>
			</g>
		</g>
		<g id="group133-219" transform="translate(60.8947,-35.5143)" v:mID="133" v:groupContext="group">
			<title>SW.off.133</title>
			<g id="shape134-220" v:mID="134" v:groupContext="shape" transform="translate(14.1732,561.322) rotate(180)">
				<title>Sheet.134</title>
				<ellipse cx="2.3622" cy="280.661" rx="2.3622" ry="2.3622" class="st12"/>
			</g>
			<g id="shape135-222" v:mID="135" v:groupContext="shape"
					transform="translate(131.434,534.526) rotate(-25.212) scale(1,-1)">
				<title>Sheet.135</title>
				<path d="M0 283.02 L11.48 283.02" class="st6"/>
			</g>
			<g id="shape136-225" v:mID="136" v:groupContext="shape" transform="translate(21.2598,561.322) scale(1,-1)">
				<title>Sheet.136</title>
				<ellipse cx="2.3622" cy="280.661" rx="2.3622" ry="2.3622" class="st12"/>
			</g>
			<g id="shape137-227" v:mID="137" v:groupContext="shape" transform="translate(9.44882,-2.3622) scale(-1,1)">
				<title>Sheet.137</title>
				<path d="M0 283.02 L9.45 283.02" class="st6"/>
			</g>
			<g id="shape138-230" v:mID="138" v:groupContext="shape" transform="translate(25.9843,563.684) scale(1,-1)">
				<title>Sheet.138</title>
				<path d="M0 283.02 L9.45 283.02" class="st6"/>
			</g>
		</g>
		<g id="shape139-233" v:mID="139" v:groupContext="shape" v:layerMember="0" transform="translate(94.9104,-30.7899)">
			<title>Dynamic connector.139</title>
			<path d="M1.42 275.94 L12.76 275.94" class="st6"/>
		</g>
		<g id="group140-236" transform="translate(124.674,-105.908)" v:mID="140" v:groupContext="group">
			<title>SW.off.140</title>
			<g id="shape141-237" v:mID="141" v:groupContext="shape" transform="translate(14.1732,561.322) rotate(180)">
				<title>Sheet.141</title>
				<ellipse cx="2.3622" cy="280.661" rx="2.3622" ry="2.3622" class="st12"/>
			</g>
			<g id="shape142-239" v:mID="142" v:groupContext="shape"
					transform="translate(131.434,534.526) rotate(-25.212) scale(1,-1)">
				<title>Sheet.142</title>
				<path d="M0 283.02 L11.48 283.02" class="st6"/>
			</g>
			<g id="shape143-242" v:mID="143" v:groupContext="shape" transform="translate(21.2598,561.322) scale(1,-1)">
				<title>Sheet.143</title>
				<ellipse cx="2.3622" cy="280.661" rx="2.3622" ry="2.3622" class="st12"/>
			</g>
			<g id="shape144-244" v:mID="144" v:groupContext="shape" transform="translate(9.44882,-2.3622) scale(-1,1)">
				<title>Sheet.144</title>
				<path d="M0 283.02 L9.45 283.02" class="st6"/>
			</g>
			<g id="shape145-247" v:mID="145" v:groupContext="shape" transform="translate(25.9843,563.684) scale(1,-1)">
				<title>Sheet.145</title>
				<path d="M0 283.02 L9.45 283.02" class="st6"/>
			</g>
		</g>
		<g id="shape146-250" v:mID="146" v:groupContext="shape" v:layerMember="0" transform="translate(111.898,-101.184)">
			<title>Dynamic connector.146</title>
			<path d="M1.4 275.94 L12.78 275.94" class="st6"/>
		</g>
	</g>
</svg>
